<svg xmlns="http://www.w3.org/2000/svg" xmlns:xlink="http://www.w3.org/1999/xlink" contentStyleType="text/css" height="827px" preserveAspectRatio="none" style="width:1734px;height:827px;background:#FFFFFF;" version="1.1" viewBox="0 0 1734 827" width="1734px" zoomAndPan="magnify"><title>US02 - SD - Register Physician with Optional Profile Photo</title><defs/><g><text fill="#000000" font-family="sans-serif" font-size="14" font-weight="bold" lengthAdjust="spacing" textLength="388.1719" x="674.5459" y="30.1074">US02 - SD - Register Physician with Optional Profile Photo</text><rect fill="#FFFFFF" height="593.2383" style="stroke:#181818;stroke-width:1.0;" width="10" x="44.2344" y="133.2422"/><rect fill="#FFFFFF" height="566.9473" style="stroke:#181818;stroke-width:1.0;" width="10" x="208.7388" y="159.5332"/><rect fill="#FFFFFF" height="501.3652" style="stroke:#181818;stroke-width:1.0;" width="10" x="418.7749" y="193.8242"/><rect fill="#FFFFFF" height="31.291" style="stroke:#181818;stroke-width:1.0;" width="10" x="612.9229" y="225.1152"/><rect fill="#FFFFFF" height="31.291" style="stroke:#181818;stroke-width:1.0;" width="10" x="804.6152" y="287.6973"/><rect fill="#FFFFFF" height="31.291" style="stroke:#181818;stroke-width:1.0;" width="10" x="974.5146" y="350.2793"/><rect fill="#FFFFFF" height="31.291" style="stroke:#181818;stroke-width:1.0;" width="10" x="1145.9692" y="632.6074"/><rect fill="#FFFFFF" height="31.291" style="stroke:#181818;stroke-width:1.0;" width="10" x="1343.4995" y="501.7344"/><rect fill="#FFFFFF" height="31.291" style="stroke:#181818;stroke-width:1.0;" width="10" x="1541.0298" y="412.8613"/><rect fill="#FFFFFF" height="30" style="stroke:#181818;stroke-width:1.0;" width="10" x="1676.3052" y="564.3164"/><rect fill="none" height="143.1641" style="stroke:#000000;stroke-width:1.5;" width="1400.8506" x="327.4131" y="459.1523"/><line style="stroke:#181818;stroke-width:0.5;stroke-dasharray:5.0,5.0;" x1="49" x2="49" y1="123.2422" y2="744.4805"/><line style="stroke:#181818;stroke-width:0.5;stroke-dasharray:5.0,5.0;" x1="212.7563" x2="212.7563" y1="123.2422" y2="744.4805"/><line style="stroke:#181818;stroke-width:0.5;stroke-dasharray:5.0,5.0;" x1="423.4131" x2="423.4131" y1="123.2422" y2="744.4805"/><line style="stroke:#181818;stroke-width:0.5;stroke-dasharray:5.0,5.0;" x1="616.9922" x2="616.9922" y1="123.2422" y2="744.4805"/><line style="stroke:#181818;stroke-width:0.5;stroke-dasharray:5.0,5.0;" x1="808.8535" x2="808.8535" y1="123.2422" y2="744.4805"/><line style="stroke:#181818;stroke-width:0.5;stroke-dasharray:5.0,5.0;" x1="979.377" x2="979.377" y1="123.2422" y2="744.4805"/><line style="stroke:#181818;stroke-width:0.5;stroke-dasharray:5.0,5.0;" x1="1150.6523" x2="1150.6523" y1="123.2422" y2="744.4805"/><line style="stroke:#181818;stroke-width:0.5;stroke-dasharray:5.0,5.0;" x1="1348.2861" x2="1348.2861" y1="123.2422" y2="744.4805"/><line style="stroke:#181818;stroke-width:0.5;stroke-dasharray:5.0,5.0;" x1="1545.7129" x2="1545.7129" y1="123.2422" y2="744.4805"/><line style="stroke:#181818;stroke-width:0.5;stroke-dasharray:5.0,5.0;" x1="1680.3467" x2="1680.3467" y1="123.2422" y2="744.4805"/><text fill="#000000" font-family="sans-serif" font-size="14" lengthAdjust="spacing" textLength="82.4688" x="5" y="119.7285">Administrator</text><ellipse cx="49.2344" cy="53.1211" fill="#E2E2F0" rx="8" ry="8" style="stroke:#181818;stroke-width:0.5;"/><path d="M49.2344,61.1211 L49.2344,88.1211 M36.2344,69.1211 L62.2344,69.1211 M49.2344,88.1211 L36.2344,103.1211 M49.2344,88.1211 L62.2344,103.1211 " fill="none" style="stroke:#181818;stroke-width:0.5;"/><text fill="#000000" font-family="sans-serif" font-size="14" lengthAdjust="spacing" textLength="82.4688" x="5" y="758.5879">Administrator</text><ellipse cx="49.2344" cy="770.6016" fill="#E2E2F0" rx="8" ry="8" style="stroke:#181818;stroke-width:0.5;"/><path d="M49.2344,778.6016 L49.2344,805.6016 M36.2344,786.6016 L62.2344,786.6016 M49.2344,805.6016 L36.2344,820.6016 M49.2344,805.6016 L62.2344,820.6016 " fill="none" style="stroke:#181818;stroke-width:0.5;"/><rect fill="#E2E2F0" height="32.6211" rx="2.5" ry="2.5" style="stroke:#181818;stroke-width:0.5;" width="199.9648" x="113.7563" y="89.6211"/><text fill="#000000" font-family="sans-serif" font-size="14" lengthAdjust="spacing" textLength="185.9648" x="120.7563" y="111.7285">:controller:PhysicianController</text><rect fill="#E2E2F0" height="32.6211" rx="2.5" ry="2.5" style="stroke:#181818;stroke-width:0.5;" width="199.9648" x="113.7563" y="743.4805"/><text fill="#000000" font-family="sans-serif" font-size="14" lengthAdjust="spacing" textLength="185.9648" x="120.7563" y="765.5879">:controller:PhysicianController</text><rect fill="#E2E2F0" height="32.6211" rx="2.5" ry="2.5" style="stroke:#181818;stroke-width:0.5;" width="172.7236" x="337.4131" y="89.6211"/><text fill="#000000" font-family="sans-serif" font-size="14" lengthAdjust="spacing" textLength="158.7236" x="344.4131" y="111.7285">:service:PhysicianService</text><rect fill="#E2E2F0" height="32.6211" rx="2.5" ry="2.5" style="stroke:#181818;stroke-width:0.5;" width="172.7236" x="337.4131" y="743.4805"/><text fill="#000000" font-family="sans-serif" font-size="14" lengthAdjust="spacing" textLength="158.7236" x="344.4131" y="765.5879">:service:PhysicianService</text><rect fill="#E2E2F0" height="32.6211" rx="2.5" ry="2.5" style="stroke:#181818;stroke-width:0.5;" width="189.8613" x="522.9922" y="89.6211"/><text fill="#000000" font-family="sans-serif" font-size="14" lengthAdjust="spacing" textLength="175.8613" x="529.9922" y="111.7285">:repo:DepartmentRepository</text><rect fill="#E2E2F0" height="32.6211" rx="2.5" ry="2.5" style="stroke:#181818;stroke-width:0.5;" width="189.8613" x="522.9922" y="743.4805"/><text fill="#000000" font-family="sans-serif" font-size="14" lengthAdjust="spacing" textLength="175.8613" x="529.9922" y="765.5879">:repo:DepartmentRepository</text><rect fill="#E2E2F0" height="32.6211" rx="2.5" ry="2.5" style="stroke:#181818;stroke-width:0.5;" width="173.5234" x="722.8535" y="89.6211"/><text fill="#000000" font-family="sans-serif" font-size="14" lengthAdjust="spacing" textLength="159.5234" x="729.8535" y="111.7285">:repo:SpecialtyRepository</text><rect fill="#E2E2F0" height="32.6211" rx="2.5" ry="2.5" style="stroke:#181818;stroke-width:0.5;" width="173.5234" x="722.8535" y="743.4805"/><text fill="#000000" font-family="sans-serif" font-size="14" lengthAdjust="spacing" textLength="159.5234" x="729.8535" y="765.5879">:repo:SpecialtyRepository</text><rect fill="#E2E2F0" height="32.6211" rx="2.5" ry="2.5" style="stroke:#181818;stroke-width:0.5;" width="146.2754" x="906.377" y="89.6211"/><text fill="#000000" font-family="sans-serif" font-size="14" lengthAdjust="spacing" textLength="132.2754" x="913.377" y="111.7285">:repo:UserRepository</text><rect fill="#E2E2F0" height="32.6211" rx="2.5" ry="2.5" style="stroke:#181818;stroke-width:0.5;" width="146.2754" x="906.377" y="743.4805"/><text fill="#000000" font-family="sans-serif" font-size="14" lengthAdjust="spacing" textLength="132.2754" x="913.377" y="765.5879">:repo:UserRepository</text><rect fill="#E2E2F0" height="32.6211" rx="2.5" ry="2.5" style="stroke:#181818;stroke-width:0.5;" width="176.6338" x="1062.6523" y="89.6211"/><text fill="#000000" font-family="sans-serif" font-size="14" lengthAdjust="spacing" textLength="162.6338" x="1069.6523" y="111.7285">:repo:PhysicianRepository</text><rect fill="#E2E2F0" height="32.6211" rx="2.5" ry="2.5" style="stroke:#181818;stroke-width:0.5;" width="176.6338" x="1062.6523" y="743.4805"/><text fill="#000000" font-family="sans-serif" font-size="14" lengthAdjust="spacing" textLength="162.6338" x="1069.6523" y="765.5879">:repo:PhysicianRepository</text><rect fill="#E2E2F0" height="32.6211" rx="2.5" ry="2.5" style="stroke:#181818;stroke-width:0.5;" width="198.4268" x="1249.2861" y="89.6211"/><text fill="#000000" font-family="sans-serif" font-size="14" lengthAdjust="spacing" textLength="184.4268" x="1256.2861" y="111.7285">:service:PhotoStorageService</text><rect fill="#E2E2F0" height="32.6211" rx="2.5" ry="2.5" style="stroke:#181818;stroke-width:0.5;" width="198.4268" x="1249.2861" y="743.4805"/><text fill="#000000" font-family="sans-serif" font-size="14" lengthAdjust="spacing" textLength="184.4268" x="1256.2861" y="765.5879">:service:PhotoStorageService</text><rect fill="#E2E2F0" height="32.6211" rx="2.5" ry="2.5" style="stroke:#181818;stroke-width:0.5;" width="176.6338" x="1457.7129" y="89.6211"/><text fill="#000000" font-family="sans-serif" font-size="14" lengthAdjust="spacing" textLength="162.6338" x="1464.7129" y="111.7285">:mapper:PhysicianMapper</text><rect fill="#E2E2F0" height="32.6211" rx="2.5" ry="2.5" style="stroke:#181818;stroke-width:0.5;" width="176.6338" x="1457.7129" y="743.4805"/><text fill="#000000" font-family="sans-serif" font-size="14" lengthAdjust="spacing" textLength="162.6338" x="1464.7129" y="765.5879">:mapper:PhysicianMapper</text><rect fill="#E2E2F0" height="32.6211" rx="2.5" ry="2.5" style="stroke:#181818;stroke-width:0.5;" width="73.917" x="1644.3467" y="89.6211"/><text fill="#000000" font-family="sans-serif" font-size="14" lengthAdjust="spacing" textLength="59.917" x="1651.3467" y="111.7285">Physician</text><rect fill="#E2E2F0" height="32.6211" rx="2.5" ry="2.5" style="stroke:#181818;stroke-width:0.5;" width="73.917" x="1644.3467" y="743.4805"/><text fill="#000000" font-family="sans-serif" font-size="14" lengthAdjust="spacing" textLength="59.917" x="1651.3467" y="765.5879">Physician</text><rect fill="#FFFFFF" height="593.2383" style="stroke:#181818;stroke-width:1.0;" width="10" x="44.2344" y="133.2422"/><rect fill="#FFFFFF" height="566.9473" style="stroke:#181818;stroke-width:1.0;" width="10" x="208.7388" y="159.5332"/><rect fill="#FFFFFF" height="501.3652" style="stroke:#181818;stroke-width:1.0;" width="10" x="418.7749" y="193.8242"/><rect fill="#FFFFFF" height="31.291" style="stroke:#181818;stroke-width:1.0;" width="10" x="612.9229" y="225.1152"/><rect fill="#FFFFFF" height="31.291" style="stroke:#181818;stroke-width:1.0;" width="10" x="804.6152" y="287.6973"/><rect fill="#FFFFFF" height="31.291" style="stroke:#181818;stroke-width:1.0;" width="10" x="974.5146" y="350.2793"/><rect fill="#FFFFFF" height="31.291" style="stroke:#181818;stroke-width:1.0;" width="10" x="1145.9692" y="632.6074"/><rect fill="#FFFFFF" height="31.291" style="stroke:#181818;stroke-width:1.0;" width="10" x="1343.4995" y="501.7344"/><rect fill="#FFFFFF" height="31.291" style="stroke:#181818;stroke-width:1.0;" width="10" x="1541.0298" y="412.8613"/><rect fill="#FFFFFF" height="30" style="stroke:#181818;stroke-width:1.0;" width="10" x="1676.3052" y="564.3164"/><polygon fill="#181818" points="196.7388,155.5332,206.7388,159.5332,196.7388,163.5332,200.7388,159.5332" style="stroke:#181818;stroke-width:1.0;"/><line style="stroke:#181818;stroke-width:1.0;" x1="54.2344" x2="202.7388" y1="159.5332" y2="159.5332"/><text fill="#000000" font-family="sans-serif" font-size="13" font-weight="bold" lengthAdjust="spacing" textLength="7.23" x="61.2344" y="154.2705">1</text><text fill="#000000" font-family="sans-serif" font-size="13" lengthAdjust="spacing" textLength="124.2744" x="72.4644" y="154.2705">POST /api/physicians</text><path d="M223,138.2422 L223,165.2422 L478,165.2422 L478,148.2422 L468,138.2422 L223,138.2422 " fill="#FEFFDD" style="stroke:#181818;stroke-width:0.5;"/><path d="M468,138.2422 L468,148.2422 L478,148.2422 L468,138.2422 " fill="#FEFFDD" style="stroke:#181818;stroke-width:0.5;"/><text fill="#000000" font-family="sans-serif" font-size="13" lengthAdjust="spacing" textLength="234.0063" x="229" y="157.2705">@PreAuthorize("hasAuthority('ADMIN')")</text><polygon fill="#181818" points="406.7749,189.8242,416.7749,193.8242,406.7749,197.8242,410.7749,193.8242" style="stroke:#181818;stroke-width:1.0;"/><line style="stroke:#181818;stroke-width:1.0;" x1="218.7388" x2="412.7749" y1="193.8242" y2="193.8242"/><text fill="#000000" font-family="sans-serif" font-size="13" font-weight="bold" lengthAdjust="spacing" textLength="7.23" x="225.7388" y="188.5615">2</text><text fill="#000000" font-family="sans-serif" font-size="13" lengthAdjust="spacing" textLength="169.8062" x="236.9688" y="188.5615">registerWithPhoto(dto, photo)</text><polygon fill="#181818" points="600.9229,221.1152,610.9229,225.1152,600.9229,229.1152,604.9229,225.1152" style="stroke:#181818;stroke-width:1.0;"/><line style="stroke:#181818;stroke-width:1.0;" x1="428.7749" x2="606.9229" y1="225.1152" y2="225.1152"/><text fill="#000000" font-family="sans-serif" font-size="13" font-weight="bold" lengthAdjust="spacing" textLength="7.23" x="435.7749" y="219.8525">3</text><text fill="#000000" font-family="sans-serif" font-size="13" lengthAdjust="spacing" textLength="153.918" x="447.0049" y="219.8525">findById(dto.departmentId)</text><polygon fill="#181818" points="439.7749,252.4063,429.7749,256.4063,439.7749,260.4063,435.7749,256.4063" style="stroke:#181818;stroke-width:1.0;"/><line style="stroke:#181818;stroke-width:1.0;stroke-dasharray:2.0,2.0;" x1="433.7749" x2="616.9229" y1="256.4063" y2="256.4063"/><text fill="#000000" font-family="sans-serif" font-size="13" font-weight="bold" lengthAdjust="spacing" textLength="7.23" x="445.7749" y="251.1436">4</text><text fill="#000000" font-family="sans-serif" font-size="13" lengthAdjust="spacing" textLength="67.9199" x="457.0049" y="251.1436">Department</text><polygon fill="#181818" points="792.6152,283.6973,802.6152,287.6973,792.6152,291.6973,796.6152,287.6973" style="stroke:#181818;stroke-width:1.0;"/><line style="stroke:#181818;stroke-width:1.0;" x1="428.7749" x2="798.6152" y1="287.6973" y2="287.6973"/><text fill="#000000" font-family="sans-serif" font-size="13" font-weight="bold" lengthAdjust="spacing" textLength="7.23" x="435.7749" y="282.4346">5</text><text fill="#000000" font-family="sans-serif" font-size="13" lengthAdjust="spacing" textLength="138.7344" x="447.0049" y="282.4346">findById(dto.specialtyId)</text><polygon fill="#181818" points="439.7749,314.9883,429.7749,318.9883,439.7749,322.9883,435.7749,318.9883" style="stroke:#181818;stroke-width:1.0;"/><line style="stroke:#181818;stroke-width:1.0;stroke-dasharray:2.0,2.0;" x1="433.7749" x2="808.6152" y1="318.9883" y2="318.9883"/><text fill="#000000" font-family="sans-serif" font-size="13" font-weight="bold" lengthAdjust="spacing" textLength="7.23" x="445.7749" y="313.7256">6</text><text fill="#000000" font-family="sans-serif" font-size="13" lengthAdjust="spacing" textLength="52.749" x="457.0049" y="313.7256">Specialty</text><polygon fill="#181818" points="962.5146,346.2793,972.5146,350.2793,962.5146,354.2793,966.5146,350.2793" style="stroke:#181818;stroke-width:1.0;"/><line style="stroke:#181818;stroke-width:1.0;" x1="428.7749" x2="968.5146" y1="350.2793" y2="350.2793"/><text fill="#000000" font-family="sans-serif" font-size="13" font-weight="bold" lengthAdjust="spacing" textLength="7.23" x="435.7749" y="345.0166">7</text><text fill="#000000" font-family="sans-serif" font-size="13" lengthAdjust="spacing" textLength="63.5654" x="447.0049" y="345.0166">save(User)</text><polygon fill="#181818" points="439.7749,377.5703,429.7749,381.5703,439.7749,385.5703,435.7749,381.5703" style="stroke:#181818;stroke-width:1.0;"/><line style="stroke:#181818;stroke-width:1.0;stroke-dasharray:2.0,2.0;" x1="433.7749" x2="978.5146" y1="381.5703" y2="381.5703"/><text fill="#000000" font-family="sans-serif" font-size="13" font-weight="bold" lengthAdjust="spacing" textLength="7.23" x="445.7749" y="376.3076">8</text><text fill="#000000" font-family="sans-serif" font-size="13" lengthAdjust="spacing" textLength="27.4473" x="457.0049" y="376.3076">User</text><polygon fill="#181818" points="1529.0298,408.8613,1539.0298,412.8613,1529.0298,416.8613,1533.0298,412.8613" style="stroke:#181818;stroke-width:1.0;"/><line style="stroke:#181818;stroke-width:1.0;" x1="428.7749" x2="1535.0298" y1="412.8613" y2="412.8613"/><text fill="#000000" font-family="sans-serif" font-size="13" font-weight="bold" lengthAdjust="spacing" textLength="7.23" x="435.7749" y="407.5986">9</text><text fill="#000000" font-family="sans-serif" font-size="13" lengthAdjust="spacing" textLength="200.8716" x="447.0049" y="407.5986">toEntity(dto, department, specialty)</text><polygon fill="#181818" points="439.7749,440.1523,429.7749,444.1523,439.7749,448.1523,435.7749,444.1523" style="stroke:#181818;stroke-width:1.0;"/><line style="stroke:#181818;stroke-width:1.0;stroke-dasharray:2.0,2.0;" x1="433.7749" x2="1545.0298" y1="444.1523" y2="444.1523"/><text fill="#000000" font-family="sans-serif" font-size="13" font-weight="bold" lengthAdjust="spacing" textLength="14.46" x="445.7749" y="438.8896">10</text><text fill="#000000" font-family="sans-serif" font-size="13" lengthAdjust="spacing" textLength="55.6372" x="464.2349" y="438.8896">Physician</text><path d="M327.4131,459.1523 L387.584,459.1523 L387.584,468.4434 L377.584,478.4434 L327.4131,478.4434 L327.4131,459.1523 " fill="#EEEEEE" style="stroke:#000000;stroke-width:1.5;"/><rect fill="none" height="143.1641" style="stroke:#000000;stroke-width:1.5;" width="1400.8506" x="327.4131" y="459.1523"/><text fill="#000000" font-family="sans-serif" font-size="13" font-weight="bold" lengthAdjust="spacing" textLength="15.1709" x="342.4131" y="474.1807">alt</text><text fill="#000000" font-family="sans-serif" font-size="11" font-weight="bold" lengthAdjust="spacing" textLength="92.8877" x="402.584" y="473.0225">[photo is present]</text><polygon fill="#181818" points="1331.4995,497.7344,1341.4995,501.7344,1331.4995,505.7344,1335.4995,501.7344" style="stroke:#181818;stroke-width:1.0;"/><line style="stroke:#181818;stroke-width:1.0;" x1="428.7749" x2="1337.4995" y1="501.7344" y2="501.7344"/><text fill="#000000" font-family="sans-serif" font-size="13" font-weight="bold" lengthAdjust="spacing" textLength="14.46" x="435.7749" y="496.4717">11</text><text fill="#000000" font-family="sans-serif" font-size="13" lengthAdjust="spacing" textLength="70.0908" x="454.2349" y="496.4717">store(photo)</text><polygon fill="#181818" points="439.7749,529.0254,429.7749,533.0254,439.7749,537.0254,435.7749,533.0254" style="stroke:#181818;stroke-width:1.0;"/><line style="stroke:#181818;stroke-width:1.0;stroke-dasharray:2.0,2.0;" x1="433.7749" x2="1347.4995" y1="533.0254" y2="533.0254"/><text fill="#000000" font-family="sans-serif" font-size="13" font-weight="bold" lengthAdjust="spacing" textLength="14.46" x="445.7749" y="527.7627">12</text><text fill="#000000" font-family="sans-serif" font-size="13" lengthAdjust="spacing" textLength="49.1372" x="464.2349" y="527.7627">photoUrl</text><polygon fill="#181818" points="1664.3052,560.3164,1674.3052,564.3164,1664.3052,568.3164,1668.3052,564.3164" style="stroke:#181818;stroke-width:1.0;"/><line style="stroke:#181818;stroke-width:1.0;" x1="428.7749" x2="1670.3052" y1="564.3164" y2="564.3164"/><text fill="#000000" font-family="sans-serif" font-size="13" font-weight="bold" lengthAdjust="spacing" textLength="14.46" x="435.7749" y="559.0537">13</text><text fill="#000000" font-family="sans-serif" font-size="13" lengthAdjust="spacing" textLength="109.1099" x="454.2349" y="559.0537">setPhoto(photoUrl)</text><polygon fill="#181818" points="1133.9692,628.6074,1143.9692,632.6074,1133.9692,636.6074,1137.9692,632.6074" style="stroke:#181818;stroke-width:1.0;"/><line style="stroke:#181818;stroke-width:1.0;" x1="428.7749" x2="1139.9692" y1="632.6074" y2="632.6074"/><text fill="#000000" font-family="sans-serif" font-size="13" font-weight="bold" lengthAdjust="spacing" textLength="14.46" x="435.7749" y="627.3447">14</text><text fill="#000000" font-family="sans-serif" font-size="13" lengthAdjust="spacing" textLength="91.7554" x="454.2349" y="627.3447">save(Physician)</text><polygon fill="#181818" points="439.7749,659.8984,429.7749,663.8984,439.7749,667.8984,435.7749,663.8984" style="stroke:#181818;stroke-width:1.0;"/><line style="stroke:#181818;stroke-width:1.0;stroke-dasharray:2.0,2.0;" x1="433.7749" x2="1149.9692" y1="663.8984" y2="663.8984"/><text fill="#000000" font-family="sans-serif" font-size="13" font-weight="bold" lengthAdjust="spacing" textLength="14.46" x="445.7749" y="658.6357">15</text><text fill="#000000" font-family="sans-serif" font-size="13" lengthAdjust="spacing" textLength="107.6372" x="464.2349" y="658.6357">Physician (with ID)</text><polygon fill="#181818" points="229.7388,691.1895,219.7388,695.1895,229.7388,699.1895,225.7388,695.1895" style="stroke:#181818;stroke-width:1.0;"/><line style="stroke:#181818;stroke-width:1.0;stroke-dasharray:2.0,2.0;" x1="223.7388" x2="422.7749" y1="695.1895" y2="695.1895"/><text fill="#000000" font-family="sans-serif" font-size="13" font-weight="bold" lengthAdjust="spacing" textLength="14.46" x="235.7388" y="689.9268">16</text><text fill="#000000" font-family="sans-serif" font-size="13" lengthAdjust="spacing" textLength="125.0171" x="254.1987" y="689.9268">PhysicianIdResponse</text><polygon fill="#181818" points="60.2344,722.4805,50.2344,726.4805,60.2344,730.4805,56.2344,726.4805" style="stroke:#181818;stroke-width:1.0;"/><line style="stroke:#181818;stroke-width:1.0;stroke-dasharray:2.0,2.0;" x1="54.2344" x2="212.7388" y1="726.4805" y2="726.4805"/><text fill="#000000" font-family="sans-serif" font-size="13" font-weight="bold" lengthAdjust="spacing" textLength="14.46" x="66.2344" y="721.2178">17</text><text fill="#000000" font-family="sans-serif" font-size="13" lengthAdjust="spacing" textLength="71.5508" x="84.6943" y="721.2178">201 Created</text><!--SRC=[XLNBRjim4BppAnQwH0BY9CrHXw9kd8CFQGIhHi-ijR48o2H1hbsuNz_LqvPCDJeOud1dXlkWJ8egX6t-z0mBo5Vyiy6zyeGEilBirKv93NyKbV1kIHajAyYS-L1Coaf3HiWZ6RaZTPA4O7IpriV3RtH2C6uSHClYe3HhEidBI5ZfY7Mjr0HHkZEQdAagTEbW-39W4KWF0NmYuj6Tr0ul2daBZEaTEE4wj2PTOGqUKDE6brxnGSyDERGH4iWjiaL5vma_W8VeMyvWmXn38TAGs8GPm6VhnItCEK3kSLoo6toYS93MNhVihLcFxLki6ODsF4Q38CHe2OkleKP32jbx_XCUfLMFjj_tGXlMSsfVKWhVCeVB8vN6gRyOHwNqtOhEyTrozRR-SPT4YH0X-MlNBbEsTDqT-CM3tzGYBiZSWwrVhuLw1gk41eMLFfGklf_NHItmK0mnwo8HGSOYVA1BRDWzC6PJSz-7rDwX-1dh8JJiF1vJZlVoX76D9cAoDsDGHuMr9vF4iMHUDTLzRVfngUSz3EabOagRyHqWdj2AskQ2yc0T-hhGm4_uL3UNeqwR0Oox2Mcfjs4p9sbOMrVznxB_5BCHKZkIFIiH1GvNx98KwkAJgjwsRTYwAkBd3RoSBcx-ATQhu1sPl-0zkYuswAtH7iDtbHN6tumKdf- -m8j3JfsplQh3AEuV]--></g></svg>