<svg xmlns="http://www.w3.org/2000/svg" xmlns:xlink="http://www.w3.org/1999/xlink" contentStyleType="text/css" height="491px" preserveAspectRatio="none" style="width:330px;height:491px;background:#FFFFFF;" version="1.1" viewBox="0 0 330 491" width="330px" zoomAndPan="magnify"><title>US07 - SSD - Register a Patient</title><defs/><g><text fill="#000000" font-family="sans-serif" font-size="14" font-weight="bold" lengthAdjust="spacing" textLength="206.9512" x="62.842" y="30.1074">US07 - SSD - Register a Patient</text><rect fill="none" height="202.3281" style="stroke:#000000;stroke-width:1.5;" width="313.6353" x="10" y="188.8242"/><rect fill="none" height="118.4551" style="stroke:#000000;stroke-width:1.5;" width="293.6353" x="20" y="265.6973"/><line style="stroke:#181818;stroke-width:0.5;stroke-dasharray:5.0,5.0;" x1="86" x2="86" y1="123.2422" y2="408.1523"/><line style="stroke:#181818;stroke-width:0.5;stroke-dasharray:5.0,5.0;" x1="272.9595" x2="272.9595" y1="123.2422" y2="408.1523"/><text fill="#000000" font-family="sans-serif" font-size="14" lengthAdjust="spacing" textLength="107.3789" x="30" y="119.7285">Anonymous User</text><ellipse cx="86.6895" cy="53.1211" fill="#E2E2F0" rx="8" ry="8" style="stroke:#181818;stroke-width:0.5;"/><path d="M86.6895,61.1211 L86.6895,88.1211 M73.6895,69.1211 L99.6895,69.1211 M86.6895,88.1211 L73.6895,103.1211 M86.6895,88.1211 L99.6895,103.1211 " fill="none" style="stroke:#181818;stroke-width:0.5;"/><text fill="#000000" font-family="sans-serif" font-size="14" lengthAdjust="spacing" textLength="107.3789" x="30" y="422.2598">Anonymous User</text><ellipse cx="86.6895" cy="434.2734" fill="#E2E2F0" rx="8" ry="8" style="stroke:#181818;stroke-width:0.5;"/><path d="M86.6895,442.2734 L86.6895,469.2734 M73.6895,450.2734 L99.6895,450.2734 M86.6895,469.2734 L73.6895,484.2734 M86.6895,469.2734 L99.6895,484.2734 " fill="none" style="stroke:#181818;stroke-width:0.5;"/><rect fill="#E2E2F0" height="32.6211" rx="2.5" ry="2.5" style="stroke:#181818;stroke-width:0.5;" width="60.6758" x="242.9595" y="89.6211"/><text fill="#000000" font-family="sans-serif" font-size="14" lengthAdjust="spacing" textLength="46.6758" x="249.9595" y="111.7285">System</text><rect fill="#E2E2F0" height="32.6211" rx="2.5" ry="2.5" style="stroke:#181818;stroke-width:0.5;" width="60.6758" x="242.9595" y="407.1523"/><text fill="#000000" font-family="sans-serif" font-size="14" lengthAdjust="spacing" textLength="46.6758" x="249.9595" y="429.2598">System</text><polygon fill="#181818" points="261.2974,169.8242,271.2974,173.8242,261.2974,177.8242,265.2974,173.8242" style="stroke:#181818;stroke-width:1.0;"/><line style="stroke:#181818;stroke-width:1.0;" x1="86.6895" x2="267.2974" y1="173.8242" y2="173.8242"/><text fill="#000000" font-family="sans-serif" font-size="13" lengthAdjust="spacing" textLength="156.0698" x="93.6895" y="151.2705">POST /api/patients/register</text><text fill="#000000" font-family="sans-serif" font-size="13" lengthAdjust="spacing" textLength="104.7681" x="93.6895" y="168.5615">Body: PatientDTO</text><path d="M10,188.8242 L70.1709,188.8242 L70.1709,198.1152 L60.1709,208.1152 L10,208.1152 L10,188.8242 " fill="#EEEEEE" style="stroke:#000000;stroke-width:1.5;"/><rect fill="none" height="202.3281" style="stroke:#000000;stroke-width:1.5;" width="313.6353" x="10" y="188.8242"/><text fill="#000000" font-family="sans-serif" font-size="13" font-weight="bold" lengthAdjust="spacing" textLength="15.1709" x="25" y="203.8525">alt</text><text fill="#000000" font-family="sans-serif" font-size="11" font-weight="bold" lengthAdjust="spacing" textLength="148.543" x="85.1709" y="202.6943">[dataConsentGiven == false]</text><polygon fill="#181818" points="97.6895,244.6973,87.6895,248.6973,97.6895,252.6973,93.6895,248.6973" style="stroke:#181818;stroke-width:1.0;"/><line style="stroke:#181818;stroke-width:1.0;stroke-dasharray:2.0,2.0;" x1="91.6895" x2="272.2974" y1="248.6973" y2="248.6973"/><text fill="#000000" font-family="sans-serif" font-size="13" lengthAdjust="spacing" textLength="100.4644" x="103.6895" y="226.1436">400 Bad Request</text><text fill="#000000" font-family="sans-serif" font-size="13" lengthAdjust="spacing" textLength="150.1411" x="103.6895" y="243.4346">"Data consent is required"</text><line style="stroke:#000000;stroke-width:1.0;stroke-dasharray:2.0,2.0;" x1="10" x2="323.6353" y1="257.6973" y2="257.6973"/><path d="M20,265.6973 L80.1709,265.6973 L80.1709,274.9883 L70.1709,284.9883 L20,284.9883 L20,265.6973 " fill="#EEEEEE" style="stroke:#000000;stroke-width:1.5;"/><rect fill="none" height="118.4551" style="stroke:#000000;stroke-width:1.5;" width="293.6353" x="20" y="265.6973"/><text fill="#000000" font-family="sans-serif" font-size="13" font-weight="bold" lengthAdjust="spacing" textLength="15.1709" x="35" y="280.7256">alt</text><text fill="#000000" font-family="sans-serif" font-size="11" font-weight="bold" lengthAdjust="spacing" textLength="111.2837" x="95.1709" y="279.5674">[email already exists]</text><polygon fill="#181818" points="97.6895,321.5703,87.6895,325.5703,97.6895,329.5703,93.6895,325.5703" style="stroke:#181818;stroke-width:1.0;"/><line style="stroke:#181818;stroke-width:1.0;stroke-dasharray:2.0,2.0;" x1="91.6895" x2="272.2974" y1="325.5703" y2="325.5703"/><text fill="#000000" font-family="sans-serif" font-size="13" lengthAdjust="spacing" textLength="68.6499" x="103.6895" y="303.0166">409 Conflict</text><text fill="#000000" font-family="sans-serif" font-size="13" lengthAdjust="spacing" textLength="126.2866" x="103.6895" y="320.3076">"Email already in use"</text><line style="stroke:#000000;stroke-width:1.0;stroke-dasharray:2.0,2.0;" x1="20" x2="313.6353" y1="334.5703" y2="334.5703"/><polygon fill="#181818" points="97.6895,372.1523,87.6895,376.1523,97.6895,380.1523,93.6895,376.1523" style="stroke:#181818;stroke-width:1.0;"/><line style="stroke:#181818;stroke-width:1.0;stroke-dasharray:2.0,2.0;" x1="91.6895" x2="272.2974" y1="376.1523" y2="376.1523"/><text fill="#000000" font-family="sans-serif" font-size="13" lengthAdjust="spacing" textLength="71.5508" x="103.6895" y="353.5986">201 Created</text><text fill="#000000" font-family="sans-serif" font-size="13" lengthAdjust="spacing" textLength="162.6079" x="103.6895" y="370.8896">Body: { patientId, message }</text><!--SRC=[ZP11IyCm5CVl-HH_ShQqYY0M9cohYASDkzrsUJHl8z2cDKd58dvtNscdk8iU4aB-UR_VouisrenzcTqXGLaMih_moOR87eGjHSikAgfYww6NhdL3q_O1-y1Uguvyj9Njo4NeSf2YHYjr-Gp9mtUA7DjDkKDAdKsxYHvIFniFRjMQ8JzhYzr6AQeZ34LQjox8tPDzOuV50aUg0olya9DHSwdESPjbM96HNxts7EB1wK9eg2OSR82Nn7esMl6479NSaAtbv9dC07wN_e94__7TGtezrhOQPO-_EDQX3wm5DAl-vjrarrXBTMHp7iy7viazcoiq70AT69yZr1abwmi0]--></g></svg>