<svg xmlns="http://www.w3.org/2000/svg" xmlns:xlink="http://www.w3.org/1999/xlink" contentStyleType="text/css" height="670px" preserveAspectRatio="none" style="width:1443px;height:670px;background:#FFFFFF;" version="1.1" viewBox="0 0 1443 670" width="1443px" zoomAndPan="magnify"><title>US03 - SD - Register a Physician</title><defs/><g><text fill="#000000" font-family="sans-serif" font-size="14" font-weight="bold" lengthAdjust="spacing" textLength="216.3027" x="612.6072" y="30.1074">US03 - SD - Register a Physician</text><rect fill="#FFFFFF" height="436.0742" style="stroke:#181818;stroke-width:1.0;" width="10" x="44.2344" y="133.2422"/><rect fill="#FFFFFF" height="409.7832" style="stroke:#181818;stroke-width:1.0;" width="10" x="208.7388" y="159.5332"/><rect fill="#FFFFFF" height="344.2012" style="stroke:#181818;stroke-width:1.0;" width="10" x="405.083" y="193.8242"/><rect fill="#FFFFFF" height="31.291" style="stroke:#181818;stroke-width:1.0;" width="10" x="624.52" y="225.1152"/><rect fill="#FFFFFF" height="31.291" style="stroke:#181818;stroke-width:1.0;" width="10" x="816.2124" y="287.6973"/><rect fill="#FFFFFF" height="31.291" style="stroke:#181818;stroke-width:1.0;" width="10" x="1001.291" y="475.4434"/><rect fill="#FFFFFF" height="31.291" style="stroke:#181818;stroke-width:1.0;" width="10" x="1172.7456" y="350.2793"/><rect fill="#FFFFFF" height="31.291" style="stroke:#181818;stroke-width:1.0;" width="10" x="1344.2002" y="412.8613"/><line style="stroke:#181818;stroke-width:0.5;stroke-dasharray:5.0,5.0;" x1="49" x2="49" y1="123.2422" y2="587.3164"/><line style="stroke:#181818;stroke-width:0.5;stroke-dasharray:5.0,5.0;" x1="212.7563" x2="212.7563" y1="123.2422" y2="587.3164"/><line style="stroke:#181818;stroke-width:0.5;stroke-dasharray:5.0,5.0;" x1="409.7212" x2="409.7212" y1="123.2422" y2="587.3164"/><line style="stroke:#181818;stroke-width:0.5;stroke-dasharray:5.0,5.0;" x1="628.5894" x2="628.5894" y1="123.2422" y2="587.3164"/><line style="stroke:#181818;stroke-width:0.5;stroke-dasharray:5.0,5.0;" x1="820.4507" x2="820.4507" y1="123.2422" y2="587.3164"/><line style="stroke:#181818;stroke-width:0.5;stroke-dasharray:5.0,5.0;" x1="1005.9741" x2="1005.9741" y1="123.2422" y2="587.3164"/><line style="stroke:#181818;stroke-width:0.5;stroke-dasharray:5.0,5.0;" x1="1177.6079" x2="1177.6079" y1="123.2422" y2="587.3164"/><line style="stroke:#181818;stroke-width:0.5;stroke-dasharray:5.0,5.0;" x1="1348.8833" x2="1348.8833" y1="123.2422" y2="587.3164"/><text fill="#000000" font-family="sans-serif" font-size="14" lengthAdjust="spacing" textLength="82.4688" x="5" y="119.7285">Administrator</text><ellipse cx="49.2344" cy="53.1211" fill="#E2E2F0" rx="8" ry="8" style="stroke:#181818;stroke-width:0.5;"/><path d="M49.2344,61.1211 L49.2344,88.1211 M36.2344,69.1211 L62.2344,69.1211 M49.2344,88.1211 L36.2344,103.1211 M49.2344,88.1211 L62.2344,103.1211 " fill="none" style="stroke:#181818;stroke-width:0.5;"/><text fill="#000000" font-family="sans-serif" font-size="14" lengthAdjust="spacing" textLength="82.4688" x="5" y="601.4238">Administrator</text><ellipse cx="49.2344" cy="613.4375" fill="#E2E2F0" rx="8" ry="8" style="stroke:#181818;stroke-width:0.5;"/><path d="M49.2344,621.4375 L49.2344,648.4375 M36.2344,629.4375 L62.2344,629.4375 M49.2344,648.4375 L36.2344,663.4375 M49.2344,648.4375 L62.2344,663.4375 " fill="none" style="stroke:#181818;stroke-width:0.5;"/><rect fill="#E2E2F0" height="32.6211" rx="2.5" ry="2.5" style="stroke:#181818;stroke-width:0.5;" width="199.9648" x="113.7563" y="89.6211"/><text fill="#000000" font-family="sans-serif" font-size="14" lengthAdjust="spacing" textLength="185.9648" x="120.7563" y="111.7285">:controller:PhysicianController</text><rect fill="#E2E2F0" height="32.6211" rx="2.5" ry="2.5" style="stroke:#181818;stroke-width:0.5;" width="199.9648" x="113.7563" y="586.3164"/><text fill="#000000" font-family="sans-serif" font-size="14" lengthAdjust="spacing" textLength="185.9648" x="120.7563" y="608.4238">:controller:PhysicianController</text><rect fill="#E2E2F0" height="32.6211" rx="2.5" ry="2.5" style="stroke:#181818;stroke-width:0.5;" width="172.7236" x="323.7212" y="89.6211"/><text fill="#000000" font-family="sans-serif" font-size="14" lengthAdjust="spacing" textLength="158.7236" x="330.7212" y="111.7285">:service:PhysicianService</text><rect fill="#E2E2F0" height="32.6211" rx="2.5" ry="2.5" style="stroke:#181818;stroke-width:0.5;" width="172.7236" x="323.7212" y="586.3164"/><text fill="#000000" font-family="sans-serif" font-size="14" lengthAdjust="spacing" textLength="158.7236" x="330.7212" y="608.4238">:service:PhysicianService</text><rect fill="#E2E2F0" height="32.6211" rx="2.5" ry="2.5" style="stroke:#181818;stroke-width:0.5;" width="189.8613" x="534.5894" y="89.6211"/><text fill="#000000" font-family="sans-serif" font-size="14" lengthAdjust="spacing" textLength="175.8613" x="541.5894" y="111.7285">:repo:DepartmentRepository</text><rect fill="#E2E2F0" height="32.6211" rx="2.5" ry="2.5" style="stroke:#181818;stroke-width:0.5;" width="189.8613" x="534.5894" y="586.3164"/><text fill="#000000" font-family="sans-serif" font-size="14" lengthAdjust="spacing" textLength="175.8613" x="541.5894" y="608.4238">:repo:DepartmentRepository</text><rect fill="#E2E2F0" height="32.6211" rx="2.5" ry="2.5" style="stroke:#181818;stroke-width:0.5;" width="173.5234" x="734.4507" y="89.6211"/><text fill="#000000" font-family="sans-serif" font-size="14" lengthAdjust="spacing" textLength="159.5234" x="741.4507" y="111.7285">:repo:SpecialtyRepository</text><rect fill="#E2E2F0" height="32.6211" rx="2.5" ry="2.5" style="stroke:#181818;stroke-width:0.5;" width="173.5234" x="734.4507" y="586.3164"/><text fill="#000000" font-family="sans-serif" font-size="14" lengthAdjust="spacing" textLength="159.5234" x="741.4507" y="608.4238">:repo:SpecialtyRepository</text><rect fill="#E2E2F0" height="32.6211" rx="2.5" ry="2.5" style="stroke:#181818;stroke-width:0.5;" width="176.6338" x="917.9741" y="89.6211"/><text fill="#000000" font-family="sans-serif" font-size="14" lengthAdjust="spacing" textLength="162.6338" x="924.9741" y="111.7285">:repo:PhysicianRepository</text><rect fill="#E2E2F0" height="32.6211" rx="2.5" ry="2.5" style="stroke:#181818;stroke-width:0.5;" width="176.6338" x="917.9741" y="586.3164"/><text fill="#000000" font-family="sans-serif" font-size="14" lengthAdjust="spacing" textLength="162.6338" x="924.9741" y="608.4238">:repo:PhysicianRepository</text><rect fill="#E2E2F0" height="32.6211" rx="2.5" ry="2.5" style="stroke:#181818;stroke-width:0.5;" width="146.2754" x="1104.6079" y="89.6211"/><text fill="#000000" font-family="sans-serif" font-size="14" lengthAdjust="spacing" textLength="132.2754" x="1111.6079" y="111.7285">:repo:UserRepository</text><rect fill="#E2E2F0" height="32.6211" rx="2.5" ry="2.5" style="stroke:#181818;stroke-width:0.5;" width="146.2754" x="1104.6079" y="586.3164"/><text fill="#000000" font-family="sans-serif" font-size="14" lengthAdjust="spacing" textLength="132.2754" x="1111.6079" y="608.4238">:repo:UserRepository</text><rect fill="#E2E2F0" height="32.6211" rx="2.5" ry="2.5" style="stroke:#181818;stroke-width:0.5;" width="176.6338" x="1260.8833" y="89.6211"/><text fill="#000000" font-family="sans-serif" font-size="14" lengthAdjust="spacing" textLength="162.6338" x="1267.8833" y="111.7285">:mapper:PhysicianMapper</text><rect fill="#E2E2F0" height="32.6211" rx="2.5" ry="2.5" style="stroke:#181818;stroke-width:0.5;" width="176.6338" x="1260.8833" y="586.3164"/><text fill="#000000" font-family="sans-serif" font-size="14" lengthAdjust="spacing" textLength="162.6338" x="1267.8833" y="608.4238">:mapper:PhysicianMapper</text><rect fill="#FFFFFF" height="436.0742" style="stroke:#181818;stroke-width:1.0;" width="10" x="44.2344" y="133.2422"/><rect fill="#FFFFFF" height="409.7832" style="stroke:#181818;stroke-width:1.0;" width="10" x="208.7388" y="159.5332"/><rect fill="#FFFFFF" height="344.2012" style="stroke:#181818;stroke-width:1.0;" width="10" x="405.083" y="193.8242"/><rect fill="#FFFFFF" height="31.291" style="stroke:#181818;stroke-width:1.0;" width="10" x="624.52" y="225.1152"/><rect fill="#FFFFFF" height="31.291" style="stroke:#181818;stroke-width:1.0;" width="10" x="816.2124" y="287.6973"/><rect fill="#FFFFFF" height="31.291" style="stroke:#181818;stroke-width:1.0;" width="10" x="1001.291" y="475.4434"/><rect fill="#FFFFFF" height="31.291" style="stroke:#181818;stroke-width:1.0;" width="10" x="1172.7456" y="350.2793"/><rect fill="#FFFFFF" height="31.291" style="stroke:#181818;stroke-width:1.0;" width="10" x="1344.2002" y="412.8613"/><polygon fill="#181818" points="196.7388,155.5332,206.7388,159.5332,196.7388,163.5332,200.7388,159.5332" style="stroke:#181818;stroke-width:1.0;"/><line style="stroke:#181818;stroke-width:1.0;" x1="54.2344" x2="202.7388" y1="159.5332" y2="159.5332"/><text fill="#000000" font-family="sans-serif" font-size="13" font-weight="bold" lengthAdjust="spacing" textLength="7.23" x="61.2344" y="154.2705">1</text><text fill="#000000" font-family="sans-serif" font-size="13" lengthAdjust="spacing" textLength="124.2744" x="72.4644" y="154.2705">POST /api/physicians</text><path d="M223,138.2422 L223,165.2422 L478,165.2422 L478,148.2422 L468,138.2422 L223,138.2422 " fill="#FEFFDD" style="stroke:#181818;stroke-width:0.5;"/><path d="M468,138.2422 L468,148.2422 L478,148.2422 L468,138.2422 " fill="#FEFFDD" style="stroke:#181818;stroke-width:0.5;"/><text fill="#000000" font-family="sans-serif" font-size="13" lengthAdjust="spacing" textLength="234.0063" x="229" y="157.2705">@PreAuthorize("hasAuthority('ADMIN')")</text><polygon fill="#181818" points="393.083,189.8242,403.083,193.8242,393.083,197.8242,397.083,193.8242" style="stroke:#181818;stroke-width:1.0;"/><line style="stroke:#181818;stroke-width:1.0;" x1="218.7388" x2="399.083" y1="193.8242" y2="193.8242"/><text fill="#000000" font-family="sans-serif" font-size="13" font-weight="bold" lengthAdjust="spacing" textLength="7.23" x="225.7388" y="188.5615">2</text><text fill="#000000" font-family="sans-serif" font-size="13" lengthAdjust="spacing" textLength="95.3672" x="236.9688" y="188.5615">register(request)</text><polygon fill="#181818" points="612.52,221.1152,622.52,225.1152,612.52,229.1152,616.52,225.1152" style="stroke:#181818;stroke-width:1.0;"/><line style="stroke:#181818;stroke-width:1.0;" x1="415.083" x2="618.52" y1="225.1152" y2="225.1152"/><text fill="#000000" font-family="sans-serif" font-size="13" font-weight="bold" lengthAdjust="spacing" textLength="7.23" x="422.083" y="219.8525">3</text><text fill="#000000" font-family="sans-serif" font-size="13" lengthAdjust="spacing" textLength="179.207" x="433.313" y="219.8525">findById(request.departmentId)</text><polygon fill="#181818" points="426.083,252.4063,416.083,256.4063,426.083,260.4063,422.083,256.4063" style="stroke:#181818;stroke-width:1.0;"/><line style="stroke:#181818;stroke-width:1.0;stroke-dasharray:2.0,2.0;" x1="420.083" x2="628.52" y1="256.4063" y2="256.4063"/><text fill="#000000" font-family="sans-serif" font-size="13" font-weight="bold" lengthAdjust="spacing" textLength="7.23" x="432.083" y="251.1436">4</text><text fill="#000000" font-family="sans-serif" font-size="13" lengthAdjust="spacing" textLength="67.9199" x="443.313" y="251.1436">Department</text><polygon fill="#181818" points="804.2124,283.6973,814.2124,287.6973,804.2124,291.6973,808.2124,287.6973" style="stroke:#181818;stroke-width:1.0;"/><line style="stroke:#181818;stroke-width:1.0;" x1="415.083" x2="810.2124" y1="287.6973" y2="287.6973"/><text fill="#000000" font-family="sans-serif" font-size="13" font-weight="bold" lengthAdjust="spacing" textLength="7.23" x="422.083" y="282.4346">5</text><text fill="#000000" font-family="sans-serif" font-size="13" lengthAdjust="spacing" textLength="164.0234" x="433.313" y="282.4346">findById(request.specialtyId)</text><polygon fill="#181818" points="426.083,314.9883,416.083,318.9883,426.083,322.9883,422.083,318.9883" style="stroke:#181818;stroke-width:1.0;"/><line style="stroke:#181818;stroke-width:1.0;stroke-dasharray:2.0,2.0;" x1="420.083" x2="820.2124" y1="318.9883" y2="318.9883"/><text fill="#000000" font-family="sans-serif" font-size="13" font-weight="bold" lengthAdjust="spacing" textLength="7.23" x="432.083" y="313.7256">6</text><text fill="#000000" font-family="sans-serif" font-size="13" lengthAdjust="spacing" textLength="52.749" x="443.313" y="313.7256">Specialty</text><polygon fill="#181818" points="1160.7456,346.2793,1170.7456,350.2793,1160.7456,354.2793,1164.7456,350.2793" style="stroke:#181818;stroke-width:1.0;"/><line style="stroke:#181818;stroke-width:1.0;" x1="415.083" x2="1166.7456" y1="350.2793" y2="350.2793"/><text fill="#000000" font-family="sans-serif" font-size="13" font-weight="bold" lengthAdjust="spacing" textLength="7.23" x="422.083" y="345.0166">7</text><text fill="#000000" font-family="sans-serif" font-size="13" lengthAdjust="spacing" textLength="63.5654" x="433.313" y="345.0166">save(User)</text><polygon fill="#181818" points="426.083,377.5703,416.083,381.5703,426.083,385.5703,422.083,381.5703" style="stroke:#181818;stroke-width:1.0;"/><line style="stroke:#181818;stroke-width:1.0;stroke-dasharray:2.0,2.0;" x1="420.083" x2="1176.7456" y1="381.5703" y2="381.5703"/><text fill="#000000" font-family="sans-serif" font-size="13" font-weight="bold" lengthAdjust="spacing" textLength="7.23" x="432.083" y="376.3076">8</text><text fill="#000000" font-family="sans-serif" font-size="13" lengthAdjust="spacing" textLength="27.4473" x="443.313" y="376.3076">User</text><polygon fill="#181818" points="1332.2002,408.8613,1342.2002,412.8613,1332.2002,416.8613,1336.2002,412.8613" style="stroke:#181818;stroke-width:1.0;"/><line style="stroke:#181818;stroke-width:1.0;" x1="415.083" x2="1338.2002" y1="412.8613" y2="412.8613"/><text fill="#000000" font-family="sans-serif" font-size="13" font-weight="bold" lengthAdjust="spacing" textLength="7.23" x="422.083" y="407.5986">9</text><text fill="#000000" font-family="sans-serif" font-size="13" lengthAdjust="spacing" textLength="226.1606" x="433.313" y="407.5986">toEntity(request, department, specialty)</text><polygon fill="#181818" points="426.083,440.1523,416.083,444.1523,426.083,448.1523,422.083,444.1523" style="stroke:#181818;stroke-width:1.0;"/><line style="stroke:#181818;stroke-width:1.0;stroke-dasharray:2.0,2.0;" x1="420.083" x2="1348.2002" y1="444.1523" y2="444.1523"/><text fill="#000000" font-family="sans-serif" font-size="13" font-weight="bold" lengthAdjust="spacing" textLength="14.46" x="432.083" y="438.8896">10</text><text fill="#000000" font-family="sans-serif" font-size="13" lengthAdjust="spacing" textLength="55.6372" x="450.543" y="438.8896">Physician</text><polygon fill="#181818" points="989.291,471.4434,999.291,475.4434,989.291,479.4434,993.291,475.4434" style="stroke:#181818;stroke-width:1.0;"/><line style="stroke:#181818;stroke-width:1.0;" x1="415.083" x2="995.291" y1="475.4434" y2="475.4434"/><text fill="#000000" font-family="sans-serif" font-size="13" font-weight="bold" lengthAdjust="spacing" textLength="14.46" x="422.083" y="470.1807">11</text><text fill="#000000" font-family="sans-serif" font-size="13" lengthAdjust="spacing" textLength="91.7554" x="440.543" y="470.1807">save(Physician)</text><polygon fill="#181818" points="426.083,502.7344,416.083,506.7344,426.083,510.7344,422.083,506.7344" style="stroke:#181818;stroke-width:1.0;"/><line style="stroke:#181818;stroke-width:1.0;stroke-dasharray:2.0,2.0;" x1="420.083" x2="1005.291" y1="506.7344" y2="506.7344"/><text fill="#000000" font-family="sans-serif" font-size="13" font-weight="bold" lengthAdjust="spacing" textLength="14.46" x="432.083" y="501.4717">12</text><text fill="#000000" font-family="sans-serif" font-size="13" lengthAdjust="spacing" textLength="107.6372" x="450.543" y="501.4717">Physician (with ID)</text><polygon fill="#181818" points="229.7388,534.0254,219.7388,538.0254,229.7388,542.0254,225.7388,538.0254" style="stroke:#181818;stroke-width:1.0;"/><line style="stroke:#181818;stroke-width:1.0;stroke-dasharray:2.0,2.0;" x1="223.7388" x2="409.083" y1="538.0254" y2="538.0254"/><text fill="#000000" font-family="sans-serif" font-size="13" font-weight="bold" lengthAdjust="spacing" textLength="14.46" x="235.7388" y="532.7627">13</text><text fill="#000000" font-family="sans-serif" font-size="13" lengthAdjust="spacing" textLength="125.0171" x="254.1987" y="532.7627">PhysicianIdResponse</text><polygon fill="#181818" points="60.2344,565.3164,50.2344,569.3164,60.2344,573.3164,56.2344,569.3164" style="stroke:#181818;stroke-width:1.0;"/><line style="stroke:#181818;stroke-width:1.0;stroke-dasharray:2.0,2.0;" x1="54.2344" x2="212.7388" y1="569.3164" y2="569.3164"/><text fill="#000000" font-family="sans-serif" font-size="13" font-weight="bold" lengthAdjust="spacing" textLength="14.46" x="66.2344" y="564.0537">14</text><text fill="#000000" font-family="sans-serif" font-size="13" lengthAdjust="spacing" textLength="71.5508" x="84.6943" y="564.0537">201 Created</text><!--SRC=[XPJ1ajCm38RlVWfDBflCRDa5RZamb2s771Ow3Vi0fX4RpxIsiTKouUbHsYHjZ0gNpkYtFlro99SCxH1UwiVti81wnJyRV3MHC826TTj5ipNQAdqWfxTaZfeGt3csX_rt34gnxW9aosPlB9D1SvWfhmCnwxKboCgjinJSReUXd8e-JLe6EeAW9qKYXgFPugL2VHRc-20cR43loXNsuXujRJYCXXljJh1q81MeFRB5Zhg45tG9dtfCS46Ny1V-00avbn9ehxs__k3FftZkUDPEGpmFTpP6fMOXB3v8Ou8Irb_hR_2WlNdmutbKrd6zO5vRAk7ZEk3oGAqBvZVcMQlZ456NtorNpzMNko8hb9BANxiEqsNBCEnf7l3d0IDTmsCMaz9ecVvXRFEfgvgHVjDCULLJA95Qo8rSSkKEXEMG6eXZMkylCJVifrJPVRuXd1_r4VDUBLHoTiEWpv9h9rl4kUG-M-fdEjpg7YxVzHwcAnOgHMzuN_w1_jt0tpUSZgwy_d_NIOBybw4MgfMuLhVVmQXMpGQZTpQYlD9SOVwqIdZt-1QU0l8ZR9HgK7wHVm00]--></g></svg>