<svg xmlns="http://www.w3.org/2000/svg" xmlns:xlink="http://www.w3.org/1999/xlink" contentStyleType="text/css" height="539px" preserveAspectRatio="none" style="width:1344px;height:539px;background:#FFFFFF;" version="1.1" viewBox="0 0 1344 539" width="1344px" zoomAndPan="magnify"><title>US16 - SD - View My Appointment Records</title><defs/><g><text fill="#000000" font-family="sans-serif" font-size="14" font-weight="bold" lengthAdjust="spacing" textLength="284.71" x="528.9814" y="30.1074">US16 - SD - View My Appointment Records</text><rect fill="#FFFFFF" height="313.9102" style="stroke:#181818;stroke-width:1.0;" width="10" x="24.793" y="133.2422"/><rect fill="#FFFFFF" height="281.6191" style="stroke:#181818;stroke-width:1.0;" width="10" x="313.5908" y="156.5332"/><rect fill="#FFFFFF" height="31.291" style="stroke:#181818;stroke-width:1.0;" width="10" x="520.8521" y="187.8242"/><rect fill="#FFFFFF" height="156.4551" style="stroke:#181818;stroke-width:1.0;" width="10" x="714.4927" y="250.4063"/><rect fill="#FFFFFF" height="31.291" style="stroke:#181818;stroke-width:1.0;" width="10" x="962.9917" y="281.6973"/><rect fill="#FFFFFF" height="31.291" style="stroke:#181818;stroke-width:1.0;" width="10" x="1213.4458" y="344.2793"/><line style="stroke:#181818;stroke-width:0.5;stroke-dasharray:5.0,5.0;" x1="29" x2="29" y1="123.2422" y2="456.1523"/><line style="stroke:#181818;stroke-width:0.5;stroke-dasharray:5.0,5.0;" x1="317.6982" x2="317.6982" y1="123.2422" y2="456.1523"/><line style="stroke:#181818;stroke-width:0.5;stroke-dasharray:5.0,5.0;" x1="525.4834" x2="525.4834" y1="123.2422" y2="456.1523"/><line style="stroke:#181818;stroke-width:0.5;stroke-dasharray:5.0,5.0;" x1="719.2207" x2="719.2207" y1="123.2422" y2="456.1523"/><line style="stroke:#181818;stroke-width:0.5;stroke-dasharray:5.0,5.0;" x1="967.7646" x2="967.7646" y1="123.2422" y2="456.1523"/><line style="stroke:#181818;stroke-width:0.5;stroke-dasharray:5.0,5.0;" x1="1218.2188" x2="1218.2188" y1="123.2422" y2="456.1523"/><text fill="#000000" font-family="sans-serif" font-size="14" lengthAdjust="spacing" textLength="43.5859" x="5" y="119.7285">Patient</text><ellipse cx="29.793" cy="53.1211" fill="#E2E2F0" rx="8" ry="8" style="stroke:#181818;stroke-width:0.5;"/><path d="M29.793,61.1211 L29.793,88.1211 M16.793,69.1211 L42.793,69.1211 M29.793,88.1211 L16.793,103.1211 M29.793,88.1211 L42.793,103.1211 " fill="none" style="stroke:#181818;stroke-width:0.5;"/><text fill="#000000" font-family="sans-serif" font-size="14" lengthAdjust="spacing" textLength="43.5859" x="5" y="470.2598">Patient</text><ellipse cx="29.793" cy="482.2734" fill="#E2E2F0" rx="8" ry="8" style="stroke:#181818;stroke-width:0.5;"/><path d="M29.793,490.2734 L29.793,517.2734 M16.793,498.2734 L42.793,498.2734 M29.793,517.2734 L16.793,532.2734 M29.793,517.2734 L42.793,532.2734 " fill="none" style="stroke:#181818;stroke-width:0.5;"/><rect fill="#E2E2F0" height="32.6211" rx="2.5" ry="2.5" style="stroke:#181818;stroke-width:0.5;" width="263.7852" x="186.6982" y="89.6211"/><text fill="#000000" font-family="sans-serif" font-size="14" lengthAdjust="spacing" textLength="249.7852" x="193.6982" y="111.7285">:controller:AppointmentRecordController</text><rect fill="#E2E2F0" height="32.6211" rx="2.5" ry="2.5" style="stroke:#181818;stroke-width:0.5;" width="263.7852" x="186.6982" y="455.1523"/><text fill="#000000" font-family="sans-serif" font-size="14" lengthAdjust="spacing" textLength="249.7852" x="193.6982" y="477.2598">:controller:AppointmentRecordController</text><rect fill="#E2E2F0" height="32.6211" rx="2.5" ry="2.5" style="stroke:#181818;stroke-width:0.5;" width="130.7373" x="460.4834" y="89.6211"/><text fill="#000000" font-family="sans-serif" font-size="14" lengthAdjust="spacing" textLength="116.7373" x="467.4834" y="111.7285">:helper:AuthHelper</text><rect fill="#E2E2F0" height="32.6211" rx="2.5" ry="2.5" style="stroke:#181818;stroke-width:0.5;" width="130.7373" x="460.4834" y="455.1523"/><text fill="#000000" font-family="sans-serif" font-size="14" lengthAdjust="spacing" textLength="116.7373" x="467.4834" y="477.2598">:helper:AuthHelper</text><rect fill="#E2E2F0" height="32.6211" rx="2.5" ry="2.5" style="stroke:#181818;stroke-width:0.5;" width="236.5439" x="601.2207" y="89.6211"/><text fill="#000000" font-family="sans-serif" font-size="14" lengthAdjust="spacing" textLength="222.5439" x="608.2207" y="111.7285">:service:AppointmentRecordService</text><rect fill="#E2E2F0" height="32.6211" rx="2.5" ry="2.5" style="stroke:#181818;stroke-width:0.5;" width="236.5439" x="601.2207" y="455.1523"/><text fill="#000000" font-family="sans-serif" font-size="14" lengthAdjust="spacing" textLength="222.5439" x="608.2207" y="477.2598">:service:AppointmentRecordService</text><rect fill="#E2E2F0" height="32.6211" rx="2.5" ry="2.5" style="stroke:#181818;stroke-width:0.5;" width="240.4541" x="847.7646" y="89.6211"/><text fill="#000000" font-family="sans-serif" font-size="14" lengthAdjust="spacing" textLength="226.4541" x="854.7646" y="111.7285">:repo:AppointmentRecordRepository</text><rect fill="#E2E2F0" height="32.6211" rx="2.5" ry="2.5" style="stroke:#181818;stroke-width:0.5;" width="240.4541" x="847.7646" y="455.1523"/><text fill="#000000" font-family="sans-serif" font-size="14" lengthAdjust="spacing" textLength="226.4541" x="854.7646" y="477.2598">:repo:AppointmentRecordRepository</text><rect fill="#E2E2F0" height="32.6211" rx="2.5" ry="2.5" style="stroke:#181818;stroke-width:0.5;" width="240.4541" x="1098.2188" y="89.6211"/><text fill="#000000" font-family="sans-serif" font-size="14" lengthAdjust="spacing" textLength="226.4541" x="1105.2188" y="111.7285">:mapper:AppointmentRecordMapper</text><rect fill="#E2E2F0" height="32.6211" rx="2.5" ry="2.5" style="stroke:#181818;stroke-width:0.5;" width="240.4541" x="1098.2188" y="455.1523"/><text fill="#000000" font-family="sans-serif" font-size="14" lengthAdjust="spacing" textLength="226.4541" x="1105.2188" y="477.2598">:mapper:AppointmentRecordMapper</text><rect fill="#FFFFFF" height="313.9102" style="stroke:#181818;stroke-width:1.0;" width="10" x="24.793" y="133.2422"/><rect fill="#FFFFFF" height="281.6191" style="stroke:#181818;stroke-width:1.0;" width="10" x="313.5908" y="156.5332"/><rect fill="#FFFFFF" height="31.291" style="stroke:#181818;stroke-width:1.0;" width="10" x="520.8521" y="187.8242"/><rect fill="#FFFFFF" height="156.4551" style="stroke:#181818;stroke-width:1.0;" width="10" x="714.4927" y="250.4063"/><rect fill="#FFFFFF" height="31.291" style="stroke:#181818;stroke-width:1.0;" width="10" x="962.9917" y="281.6973"/><rect fill="#FFFFFF" height="31.291" style="stroke:#181818;stroke-width:1.0;" width="10" x="1213.4458" y="344.2793"/><polygon fill="#181818" points="301.5908,152.5332,311.5908,156.5332,301.5908,160.5332,305.5908,156.5332" style="stroke:#181818;stroke-width:1.0;"/><line style="stroke:#181818;stroke-width:1.0;" x1="34.793" x2="307.5908" y1="156.5332" y2="156.5332"/><text fill="#000000" font-family="sans-serif" font-size="13" font-weight="bold" lengthAdjust="spacing" textLength="7.23" x="41.793" y="151.2705">1</text><text fill="#000000" font-family="sans-serif" font-size="13" lengthAdjust="spacing" textLength="248.5679" x="53.0229" y="151.2705">GET /api/appointment-records/patient/mine</text><polygon fill="#181818" points="508.8521,183.8242,518.8521,187.8242,508.8521,191.8242,512.8521,187.8242" style="stroke:#181818;stroke-width:1.0;"/><line style="stroke:#181818;stroke-width:1.0;" x1="323.5908" x2="514.8521" y1="187.8242" y2="187.8242"/><text fill="#000000" font-family="sans-serif" font-size="13" font-weight="bold" lengthAdjust="spacing" textLength="7.23" x="330.5908" y="182.5615">2</text><text fill="#000000" font-family="sans-serif" font-size="13" lengthAdjust="spacing" textLength="97.5254" x="341.8208" y="182.5615">getCurrentUser()</text><polygon fill="#181818" points="334.5908,215.1152,324.5908,219.1152,334.5908,223.1152,330.5908,219.1152" style="stroke:#181818;stroke-width:1.0;"/><line style="stroke:#181818;stroke-width:1.0;stroke-dasharray:2.0,2.0;" x1="328.5908" x2="524.8521" y1="219.1152" y2="219.1152"/><text fill="#000000" font-family="sans-serif" font-size="13" font-weight="bold" lengthAdjust="spacing" textLength="7.23" x="340.5908" y="213.8525">3</text><text fill="#000000" font-family="sans-serif" font-size="13" lengthAdjust="spacing" textLength="130.8062" x="351.8208" y="213.8525">Patient (authenticated)</text><polygon fill="#181818" points="702.4927,246.4063,712.4927,250.4063,702.4927,254.4063,706.4927,250.4063" style="stroke:#181818;stroke-width:1.0;"/><line style="stroke:#181818;stroke-width:1.0;" x1="323.5908" x2="708.4927" y1="250.4063" y2="250.4063"/><text fill="#000000" font-family="sans-serif" font-size="13" font-weight="bold" lengthAdjust="spacing" textLength="7.23" x="330.5908" y="245.1436">4</text><text fill="#000000" font-family="sans-serif" font-size="13" lengthAdjust="spacing" textLength="140.1563" x="341.8208" y="245.1436">listMyRecords(patientId)</text><polygon fill="#181818" points="950.9917,277.6973,960.9917,281.6973,950.9917,285.6973,954.9917,281.6973" style="stroke:#181818;stroke-width:1.0;"/><line style="stroke:#181818;stroke-width:1.0;" x1="724.4927" x2="956.9917" y1="281.6973" y2="281.6973"/><text fill="#000000" font-family="sans-serif" font-size="13" font-weight="bold" lengthAdjust="spacing" textLength="7.23" x="731.4927" y="276.4346">5</text><text fill="#000000" font-family="sans-serif" font-size="13" lengthAdjust="spacing" textLength="145.9771" x="742.7227" y="276.4346">findByPatientId(patientId)</text><polygon fill="#181818" points="735.4927,308.9883,725.4927,312.9883,735.4927,316.9883,731.4927,312.9883" style="stroke:#181818;stroke-width:1.0;"/><line style="stroke:#181818;stroke-width:1.0;stroke-dasharray:2.0,2.0;" x1="729.4927" x2="966.9917" y1="312.9883" y2="312.9883"/><text fill="#000000" font-family="sans-serif" font-size="13" font-weight="bold" lengthAdjust="spacing" textLength="7.23" x="741.4927" y="307.7256">6</text><text fill="#000000" font-family="sans-serif" font-size="13" lengthAdjust="spacing" textLength="150.3125" x="752.7227" y="307.7256">List&lt;AppointmentRecord&gt;</text><polygon fill="#181818" points="1201.4458,340.2793,1211.4458,344.2793,1201.4458,348.2793,1205.4458,344.2793" style="stroke:#181818;stroke-width:1.0;"/><line style="stroke:#181818;stroke-width:1.0;" x1="724.4927" x2="1207.4458" y1="344.2793" y2="344.2793"/><text fill="#000000" font-family="sans-serif" font-size="13" font-weight="bold" lengthAdjust="spacing" textLength="7.23" x="731.4927" y="339.0166">7</text><text fill="#000000" font-family="sans-serif" font-size="13" lengthAdjust="spacing" textLength="197.2534" x="742.7227" y="339.0166">toDTO(List&lt;AppointmentRecord&gt;)</text><polygon fill="#181818" points="735.4927,371.5703,725.4927,375.5703,735.4927,379.5703,731.4927,375.5703" style="stroke:#181818;stroke-width:1.0;"/><line style="stroke:#181818;stroke-width:1.0;stroke-dasharray:2.0,2.0;" x1="729.4927" x2="1217.4458" y1="375.5703" y2="375.5703"/><text fill="#000000" font-family="sans-serif" font-size="13" font-weight="bold" lengthAdjust="spacing" textLength="7.23" x="741.4927" y="370.3076">8</text><text fill="#000000" font-family="sans-serif" font-size="13" lengthAdjust="spacing" textLength="177.7534" x="752.7227" y="370.3076">List&lt;AppointmentRecordDTO&gt;</text><polygon fill="#181818" points="334.5908,402.8613,324.5908,406.8613,334.5908,410.8613,330.5908,406.8613" style="stroke:#181818;stroke-width:1.0;"/><line style="stroke:#181818;stroke-width:1.0;stroke-dasharray:2.0,2.0;" x1="328.5908" x2="718.4927" y1="406.8613" y2="406.8613"/><text fill="#000000" font-family="sans-serif" font-size="13" font-weight="bold" lengthAdjust="spacing" textLength="7.23" x="340.5908" y="401.5986">9</text><text fill="#000000" font-family="sans-serif" font-size="13" lengthAdjust="spacing" textLength="177.7534" x="351.8208" y="401.5986">List&lt;AppointmentRecordDTO&gt;</text><polygon fill="#181818" points="45.793,434.1523,35.793,438.1523,45.793,442.1523,41.793,438.1523" style="stroke:#181818;stroke-width:1.0;"/><line style="stroke:#181818;stroke-width:1.0;stroke-dasharray:2.0,2.0;" x1="39.793" x2="317.5908" y1="438.1523" y2="438.1523"/><text fill="#000000" font-family="sans-serif" font-size="13" font-weight="bold" lengthAdjust="spacing" textLength="14.46" x="51.793" y="432.8896">10</text><text fill="#000000" font-family="sans-serif" font-size="13" lengthAdjust="spacing" textLength="44.0845" x="70.2529" y="432.8896">200 OK</text><!--SRC=[dPFTRk8m48Nl_HGZhi952a5LgQ9LrIsmkwL4L2JGQpTnmL9YMuwTLTv-1n9-126e6ocHu-FvV3mpDjoa39QXzm0kX6Fyh3Zx2q49FvMIN9YC2GCB5akTv8HGQoID3I-eOI35xb_Ox9Dfr68ZDNJUgU4Oqo6AQiDZhYW2EduiXT4oJPdsJyWLU7JGEa1pQD7Fe1kMgYtGcisVtR2AF_oUBS-PBdZCBWs4bT2yUosUiJHJyXAqmDcSOnxAPjPHFyDbLAccr0Ix-MPOfUqINnMaJZqXzG3SfxPaWW-_9n7qgEBu7fQvkgfsJrMKNiO58ssSxJQ7d2DrpSp8QerBbvXofqjELFUcfxrv1vjhWmCUuzcIBhbfuKhX49dot0HbtSLEVQvNP5wDQU8TYuV8BowIb_9zZsg5dWIwxKPdQFJ7XVxqFPzLNo3Do74qTwum6tpMWV_b4NTgitcpwj-XdjOTmVk6yM7GxyFyZH30vvc9n6OfNeOKhzWoc471TCwb0Ezkq1_StmsTa1e8cOB-4Bo1xptwtX0-9c44MxrBdE0rWbnQZGT8q9xcdzOWe4kcjA2miDYR6VDXhfYOZj_s4p0H1TTIRFsIwIeuBdYuTr_uTakDLc0La37xeZOr617BX8kr3yleb_j8PbIiBLqZMnaoaiZL9LwCw1y0]--></g></svg>