<svg xmlns="http://www.w3.org/2000/svg" xmlns:xlink="http://www.w3.org/1999/xlink" contentStyleType="text/css" height="422.1px" preserveAspectRatio="none" style="width:887px;height:422px;background:#FFFFFF;" version="1.1" viewBox="0 0 887 422" width="887.6px" zoomAndPan="magnify"><title>US10 - SD - List Upcoming Appointments Chronologically</title><defs/><g><text fill="#000000" font-family="sans-serif" font-size="9.8" font-weight="bold" lengthAdjust="spacing" textLength="268.9688" x="308.8306" y="21.0752">US10 - SD - List Upcoming Appointments Chronologically</text><rect fill="#FFFFFF" height="197.1334" style="stroke:#181818;stroke-width:0.6999999999999998;" width="7" x="211.0083" y="109.5732"/><rect fill="#FFFFFF" height="21.9037" style="stroke:#181818;stroke-width:0.6999999999999998;" width="7" x="340.2954" y="131.477"/><rect fill="#FFFFFF" height="109.5186" style="stroke:#181818;stroke-width:0.6999999999999998;" width="7" x="460.048" y="175.2844"/><rect fill="#FFFFFF" height="21.9037" style="stroke:#181818;stroke-width:0.6999999999999998;" width="7" x="668.2406" y="197.1881"/><rect fill="#FFFFFF" height="21.9037" style="stroke:#181818;stroke-width:0.6999999999999998;" width="7" x="811.9668" y="240.9955"/><rect fill="none" height="35.4074" style="stroke:#000000;stroke-width:1.0499999999999998;" width="291.0373" x="7" y="317.2066"/><line style="stroke:#181818;stroke-width:0.3499999999999999;stroke-dasharray:5.0,5.0;" x1="44.8" x2="44.8" y1="86.2695" y2="364.5141"/><line style="stroke:#181818;stroke-width:0.3499999999999999;stroke-dasharray:5.0,5.0;" x1="214.2793" x2="214.2793" y1="86.2695" y2="364.5141"/><line style="stroke:#181818;stroke-width:0.3499999999999999;stroke-dasharray:5.0,5.0;" x1="343.5373" x2="343.5373" y1="86.2695" y2="364.5141"/><line style="stroke:#181818;stroke-width:0.3499999999999999;stroke-dasharray:5.0,5.0;" x1="463.0534" x2="463.0534" y1="86.2695" y2="364.5141"/><line style="stroke:#181818;stroke-width:0.3499999999999999;stroke-dasharray:5.0,5.0;" x1="671.2774" x2="671.2774" y1="86.2695" y2="364.5141"/><line style="stroke:#181818;stroke-width:0.3499999999999999;stroke-dasharray:5.0,5.0;" x1="815.0037" x2="815.0037" y1="86.2695" y2="364.5141"/><text fill="#000000" font-family="sans-serif" font-size="9.8" lengthAdjust="spacing" textLength="57.7281" x="14" y="83.81">Administrator</text><ellipse cx="44.9641" cy="37.1848" fill="#E2E2F0" rx="5.6" ry="5.6" style="stroke:#181818;stroke-width:0.3499999999999999;"/><path d="M44.9641,42.7848 L44.9641,61.6848 M35.8641,48.3848 L54.0641,48.3848 M44.9641,61.6848 L35.8641,72.1848 M44.9641,61.6848 L54.0641,72.1848 " fill="none" style="stroke:#181818;stroke-width:0.3499999999999999;"/><text fill="#000000" font-family="sans-serif" font-size="9.8" lengthAdjust="spacing" textLength="57.7281" x="14" y="374.3893">Administrator</text><ellipse cx="44.9641" cy="382.7988" fill="#E2E2F0" rx="5.6" ry="5.6" style="stroke:#181818;stroke-width:0.3499999999999999;"/><path d="M44.9641,388.3988 L44.9641,407.2988 M35.8641,393.9988 L54.0641,393.9988 M44.9641,407.2988 L35.8641,417.7988 M44.9641,407.2988 L54.0641,417.7988 " fill="none" style="stroke:#181818;stroke-width:0.3499999999999999;"/><rect fill="#E2E2F0" height="22.8348" rx="1.75" ry="1.75" style="stroke:#181818;stroke-width:0.3499999999999999;" width="153.058" x="137.9793" y="62.7348"/><text fill="#000000" font-family="sans-serif" font-size="9.8" lengthAdjust="spacing" textLength="143.258" x="142.8793" y="78.21">:controller:AppointmentController</text><rect fill="#E2E2F0" height="22.8348" rx="1.75" ry="1.75" style="stroke:#181818;stroke-width:0.3499999999999999;" width="153.058" x="137.9793" y="363.8141"/><text fill="#000000" font-family="sans-serif" font-size="9.8" lengthAdjust="spacing" textLength="143.258" x="142.8793" y="379.2893">:controller:AppointmentController</text><rect fill="#E2E2F0" height="22.8348" rx="1.75" ry="1.75" style="stroke:#181818;stroke-width:0.3499999999999999;" width="91.5161" x="298.0373" y="62.7348"/><text fill="#000000" font-family="sans-serif" font-size="9.8" lengthAdjust="spacing" textLength="81.7161" x="302.9373" y="78.21">:helper:AuthHelper</text><rect fill="#E2E2F0" height="22.8348" rx="1.75" ry="1.75" style="stroke:#181818;stroke-width:0.3499999999999999;" width="91.5161" x="298.0373" y="363.8141"/><text fill="#000000" font-family="sans-serif" font-size="9.8" lengthAdjust="spacing" textLength="81.7161" x="302.9373" y="379.2893">:helper:AuthHelper</text><rect fill="#E2E2F0" height="22.8348" rx="1.75" ry="1.75" style="stroke:#181818;stroke-width:0.3499999999999999;" width="133.9892" x="396.5534" y="62.7348"/><text fill="#000000" font-family="sans-serif" font-size="9.8" lengthAdjust="spacing" textLength="124.1892" x="401.4534" y="78.21">:service:AppointmentService</text><rect fill="#E2E2F0" height="22.8348" rx="1.75" ry="1.75" style="stroke:#181818;stroke-width:0.3499999999999999;" width="133.9892" x="396.5534" y="363.8141"/><text fill="#000000" font-family="sans-serif" font-size="9.8" lengthAdjust="spacing" textLength="124.1892" x="401.4534" y="379.2893">:service:AppointmentService</text><rect fill="#E2E2F0" height="22.8348" rx="1.75" ry="1.75" style="stroke:#181818;stroke-width:0.3499999999999999;" width="136.7263" x="603.3774" y="62.7348"/><text fill="#000000" font-family="sans-serif" font-size="9.8" lengthAdjust="spacing" textLength="126.9263" x="608.2774" y="78.21">:repo:AppointmentRepository</text><rect fill="#E2E2F0" height="22.8348" rx="1.75" ry="1.75" style="stroke:#181818;stroke-width:0.3499999999999999;" width="136.7263" x="603.3774" y="363.8141"/><text fill="#000000" font-family="sans-serif" font-size="9.8" lengthAdjust="spacing" textLength="126.9263" x="608.2774" y="379.2893">:repo:AppointmentRepository</text><rect fill="#E2E2F0" height="22.8348" rx="1.75" ry="1.75" style="stroke:#181818;stroke-width:0.3499999999999999;" width="136.7263" x="747.1037" y="62.7348"/><text fill="#000000" font-family="sans-serif" font-size="9.8" lengthAdjust="spacing" textLength="126.9263" x="752.0037" y="78.21">:mapper:AppointmentMapper</text><rect fill="#E2E2F0" height="22.8348" rx="1.75" ry="1.75" style="stroke:#181818;stroke-width:0.3499999999999999;" width="136.7263" x="747.1037" y="363.8141"/><text fill="#000000" font-family="sans-serif" font-size="9.8" lengthAdjust="spacing" textLength="126.9263" x="752.0037" y="379.2893">:mapper:AppointmentMapper</text><rect fill="#FFFFFF" height="197.1334" style="stroke:#181818;stroke-width:0.6999999999999998;" width="7" x="211.0083" y="109.5732"/><rect fill="#FFFFFF" height="21.9037" style="stroke:#181818;stroke-width:0.6999999999999998;" width="7" x="340.2954" y="131.477"/><rect fill="#FFFFFF" height="109.5186" style="stroke:#181818;stroke-width:0.6999999999999998;" width="7" x="460.048" y="175.2844"/><rect fill="#FFFFFF" height="21.9037" style="stroke:#181818;stroke-width:0.6999999999999998;" width="7" x="668.2406" y="197.1881"/><rect fill="#FFFFFF" height="21.9037" style="stroke:#181818;stroke-width:0.6999999999999998;" width="7" x="811.9668" y="240.9955"/><polygon fill="#181818" points="202.6083,106.7732,209.6083,109.5732,202.6083,112.3732,205.4083,109.5732" style="stroke:#181818;stroke-width:0.6999999999999998;"/><line style="stroke:#181818;stroke-width:0.6999999999999998;" x1="44.9641" x2="206.8083" y1="109.5732" y2="109.5732"/><text fill="#000000" font-family="sans-serif" font-size="9.1" font-weight="bold" lengthAdjust="spacing" textLength="5.061" x="49.8641" y="105.8894">1</text><text fill="#000000" font-family="sans-serif" font-size="9.1" lengthAdjust="spacing" textLength="135.0559" x="57.725" y="105.8894">GET /api/appointments/upcoming</text><polygon fill="#181818" points="331.8954,128.677,338.8954,131.477,331.8954,134.277,334.6954,131.477" style="stroke:#181818;stroke-width:0.6999999999999998;"/><line style="stroke:#181818;stroke-width:0.6999999999999998;" x1="218.0083" x2="336.0954" y1="131.477" y2="131.477"/><text fill="#000000" font-family="sans-serif" font-size="9.1" font-weight="bold" lengthAdjust="spacing" textLength="5.061" x="222.9083" y="127.7931">2</text><text fill="#000000" font-family="sans-serif" font-size="9.1" lengthAdjust="spacing" textLength="68.2678" x="230.7693" y="127.7931">getCurrentUser()</text><polygon fill="#181818" points="225.7083,150.5807,218.7083,153.3807,225.7083,156.1807,222.9083,153.3807" style="stroke:#181818;stroke-width:0.6999999999999998;"/><line style="stroke:#181818;stroke-width:0.6999999999999998;stroke-dasharray:2.0,2.0;" x1="221.5083" x2="343.0954" y1="153.3807" y2="153.3807"/><text fill="#000000" font-family="sans-serif" font-size="9.1" font-weight="bold" lengthAdjust="spacing" textLength="5.061" x="229.9083" y="149.6968">3</text><text fill="#000000" font-family="sans-serif" font-size="9.1" lengthAdjust="spacing" textLength="19.2131" x="237.7693" y="149.6968">User</text><polygon fill="#181818" points="451.648,172.4844,458.648,175.2844,451.648,178.0844,454.448,175.2844" style="stroke:#181818;stroke-width:0.6999999999999998;"/><line style="stroke:#181818;stroke-width:0.6999999999999998;" x1="218.0083" x2="455.848" y1="175.2844" y2="175.2844"/><text fill="#000000" font-family="sans-serif" font-size="9.1" font-weight="bold" lengthAdjust="spacing" textLength="5.061" x="222.9083" y="171.6005">4</text><text fill="#000000" font-family="sans-serif" font-size="9.1" lengthAdjust="spacing" textLength="113.7944" x="230.7693" y="171.6005">listUpcomingAppointments()</text><polygon fill="#181818" points="659.8406,194.3881,666.8406,197.1881,659.8406,199.9881,662.6406,197.1881" style="stroke:#181818;stroke-width:0.6999999999999998;"/><line style="stroke:#181818;stroke-width:0.6999999999999998;" x1="467.048" x2="664.0406" y1="197.1881" y2="197.1881"/><text fill="#000000" font-family="sans-serif" font-size="9.1" font-weight="bold" lengthAdjust="spacing" textLength="5.061" x="471.948" y="193.5042">5</text><text fill="#000000" font-family="sans-serif" font-size="9.1" lengthAdjust="spacing" textLength="180.0316" x="479.809" y="193.5042">findByDateTimeAfterOrderByDateTime(now)</text><polygon fill="#181818" points="474.748,216.2918,467.748,219.0918,474.748,221.8918,471.948,219.0918" style="stroke:#181818;stroke-width:0.6999999999999998;"/><line style="stroke:#181818;stroke-width:0.6999999999999998;stroke-dasharray:2.0,2.0;" x1="470.548" x2="671.0406" y1="219.0918" y2="219.0918"/><text fill="#000000" font-family="sans-serif" font-size="9.1" font-weight="bold" lengthAdjust="spacing" textLength="5.061" x="478.948" y="215.4079">6</text><text fill="#000000" font-family="sans-serif" font-size="9.1" lengthAdjust="spacing" textLength="75.8837" x="486.809" y="215.4079">List&lt;Appointment&gt;</text><polygon fill="#181818" points="803.5668,238.1955,810.5668,240.9955,803.5668,243.7955,806.3668,240.9955" style="stroke:#181818;stroke-width:0.6999999999999998;"/><line style="stroke:#181818;stroke-width:0.6999999999999998;" x1="467.048" x2="807.7668" y1="240.9955" y2="240.9955"/><text fill="#000000" font-family="sans-serif" font-size="9.1" font-weight="bold" lengthAdjust="spacing" textLength="5.061" x="471.948" y="237.3116">7</text><text fill="#000000" font-family="sans-serif" font-size="9.1" lengthAdjust="spacing" textLength="101.6552" x="479.809" y="237.3116">toListDTO(appointments)</text><polygon fill="#181818" points="474.748,260.0992,467.748,262.8992,474.748,265.6992,471.948,262.8992" style="stroke:#181818;stroke-width:0.6999999999999998;"/><line style="stroke:#181818;stroke-width:0.6999999999999998;stroke-dasharray:2.0,2.0;" x1="470.548" x2="814.7668" y1="262.8992" y2="262.8992"/><text fill="#000000" font-family="sans-serif" font-size="9.1" font-weight="bold" lengthAdjust="spacing" textLength="5.061" x="478.948" y="259.2153">8</text><text fill="#000000" font-family="sans-serif" font-size="9.1" lengthAdjust="spacing" textLength="95.0923" x="486.809" y="259.2153">List&lt;AppointmentDTO&gt;</text><polygon fill="#181818" points="225.7083,282.0029,218.7083,284.8029,225.7083,287.6029,222.9083,284.8029" style="stroke:#181818;stroke-width:0.6999999999999998;"/><line style="stroke:#181818;stroke-width:0.6999999999999998;stroke-dasharray:2.0,2.0;" x1="221.5083" x2="462.848" y1="284.8029" y2="284.8029"/><text fill="#000000" font-family="sans-serif" font-size="9.1" font-weight="bold" lengthAdjust="spacing" textLength="5.061" x="229.9083" y="281.119">9</text><text fill="#000000" font-family="sans-serif" font-size="9.1" lengthAdjust="spacing" textLength="95.0923" x="237.7693" y="281.119">List&lt;AppointmentDTO&gt;</text><polygon fill="#181818" points="52.6641,303.9066,45.6641,306.7066,52.6641,309.5066,49.8641,306.7066" style="stroke:#181818;stroke-width:0.6999999999999998;"/><line style="stroke:#181818;stroke-width:0.6999999999999998;stroke-dasharray:2.0,2.0;" x1="48.4641" x2="213.8083" y1="306.7066" y2="306.7066"/><text fill="#000000" font-family="sans-serif" font-size="9.1" font-weight="bold" lengthAdjust="spacing" textLength="10.122" x="56.8641" y="303.0228">10</text><text fill="#000000" font-family="sans-serif" font-size="9.1" lengthAdjust="spacing" textLength="136.3223" x="69.786" y="303.0228">200 OK + List&lt;AppointmentDTO&gt;</text><path d="M7,317.2066 L49.1196,317.2066 L49.1196,323.7104 L42.1196,330.7104 L7,330.7104 L7,317.2066 " fill="#EEEEEE" style="stroke:#000000;stroke-width:1.0499999999999998;"/><rect fill="none" height="35.4074" style="stroke:#000000;stroke-width:1.0499999999999998;" width="291.0373" x="7" y="317.2066"/><text fill="#000000" font-family="sans-serif" font-size="9.1" font-weight="bold" lengthAdjust="spacing" textLength="10.6196" x="17.5" y="327.7265">alt</text><text fill="#000000" font-family="sans-serif" font-size="7.7" font-weight="bold" lengthAdjust="spacing" textLength="44.4743" x="59.6196" y="326.9157">[not ADMIN]</text><polygon fill="#181818" points="52.6641,344.2141,45.6641,347.0141,52.6641,349.8141,49.8641,347.0141" style="stroke:#181818;stroke-width:0.6999999999999998;"/><line style="stroke:#181818;stroke-width:0.6999999999999998;stroke-dasharray:2.0,2.0;" x1="48.4641" x2="213.8083" y1="347.0141" y2="347.0141"/><text fill="#000000" font-family="sans-serif" font-size="9.1" font-weight="bold" lengthAdjust="spacing" textLength="10.122" x="56.8641" y="343.3302">11</text><text fill="#000000" font-family="sans-serif" font-size="9.1" lengthAdjust="spacing" textLength="58.6879" x="69.786" y="343.3302">403 Forbidden</text><!--SRC=[bPFRRi8m38RlynHMhvWcH7UugYOa1Zjf1wG13n3Q097I94fT9jv-BcKqX0wsIbJOyV_PiLsKg0JC9bSnT64oejURB11cDZMvr4iOM6kanbneB62uSaORPPOovKfj62_Hy1JbcgC0exUsBlEvS8pSna4qo8X2GCV9Z9Zb3cKgBTS8KP8QZSue9LpYfHdklH7m0bfF0j1AA5j1IbmzR__MohqPX1V2hMKg_AIJsXLctBa3lHFM-E9FiWj95zo4-kOaGEJSsiDhlsyz8Q3sCh-pGK-Xss_l4IJmz3257hUIViqKU-LkjgnTLl7sdIF8Kk2mT8w2PjIupWNpJhidabVH9r8SDPaaYcxritd-ubL9Z-CFAKsh2RIGEhlVZ6Wjfp8NWmKADtQPS8sleytN0TNJTt-hh_eqxhoJ_lcowW6I5asb7at77NyO1oNiOl-Sdc3j5PoOoZc6FoN2XCkMm7KSm_WLBjj9N25eWp0OlRzyCA3dF-pR-0OUZPlBB1EQCIPqzWq0]--></g></svg>