<svg xmlns="http://www.w3.org/2000/svg" xmlns:xlink="http://www.w3.org/1999/xlink" contentStyleType="text/css" height="456px" preserveAspectRatio="none" style="width:616px;height:456px;background:#FFFFFF;" version="1.1" viewBox="0 0 616 456" width="616px" zoomAndPan="magnify"><title>US15 - SSD - View Appointment Details</title><defs/><g><text fill="#000000" font-family="sans-serif" font-size="14" font-weight="bold" lengthAdjust="spacing" textLength="260.5996" x="176.2996" y="30.1074">US15 - SSD - View Appointment Details</text><rect fill="#FFFFFF" height="230.668" style="stroke:#181818;stroke-width:1.0;" width="10" x="32.7793" y="133.2422"/><rect fill="#FFFFFF" height="31.291" style="stroke:#181818;stroke-width:1.0;" width="10" x="300.6553" y="156.5332"/><rect fill="none" height="98.5039" style="stroke:#000000;stroke-width:1.5;" width="340.2759" x="10" y="202.8242"/><line style="stroke:#181818;stroke-width:0.5;stroke-dasharray:5.0,5.0;" x1="37" x2="37" y1="123.2422" y2="372.9102"/><line style="stroke:#181818;stroke-width:0.5;stroke-dasharray:5.0,5.0;" x1="305.0347" x2="305.0347" y1="123.2422" y2="372.9102"/><text fill="#000000" font-family="sans-serif" font-size="14" lengthAdjust="spacing" textLength="29.5586" x="20" y="119.7285">User</text><ellipse cx="37.7793" cy="53.1211" fill="#E2E2F0" rx="8" ry="8" style="stroke:#181818;stroke-width:0.5;"/><path d="M37.7793,61.1211 L37.7793,88.1211 M24.7793,69.1211 L50.7793,69.1211 M37.7793,88.1211 L24.7793,103.1211 M37.7793,88.1211 L50.7793,103.1211 " fill="none" style="stroke:#181818;stroke-width:0.5;"/><text fill="#000000" font-family="sans-serif" font-size="14" lengthAdjust="spacing" textLength="29.5586" x="20" y="387.0176">User</text><ellipse cx="37.7793" cy="399.0313" fill="#E2E2F0" rx="8" ry="8" style="stroke:#181818;stroke-width:0.5;"/><path d="M37.7793,407.0313 L37.7793,434.0313 M24.7793,415.0313 L50.7793,415.0313 M37.7793,434.0313 L24.7793,449.0313 M37.7793,434.0313 L50.7793,449.0313 " fill="none" style="stroke:#181818;stroke-width:0.5;"/><rect fill="#E2E2F0" height="32.6211" rx="2.5" ry="2.5" style="stroke:#181818;stroke-width:0.5;" width="69.2412" x="271.0347" y="89.6211"/><text fill="#000000" font-family="sans-serif" font-size="14" lengthAdjust="spacing" textLength="55.2412" x="278.0347" y="111.7285">:RestAPI</text><rect fill="#E2E2F0" height="32.6211" rx="2.5" ry="2.5" style="stroke:#181818;stroke-width:0.5;" width="69.2412" x="271.0347" y="371.9102"/><text fill="#000000" font-family="sans-serif" font-size="14" lengthAdjust="spacing" textLength="55.2412" x="278.0347" y="394.0176">:RestAPI</text><rect fill="#FFFFFF" height="230.668" style="stroke:#181818;stroke-width:1.0;" width="10" x="32.7793" y="133.2422"/><rect fill="#FFFFFF" height="31.291" style="stroke:#181818;stroke-width:1.0;" width="10" x="300.6553" y="156.5332"/><polygon fill="#181818" points="288.6553,152.5332,298.6553,156.5332,288.6553,160.5332,292.6553,156.5332" style="stroke:#181818;stroke-width:1.0;"/><line style="stroke:#181818;stroke-width:1.0;" x1="42.7793" x2="294.6553" y1="156.5332" y2="156.5332"/><text fill="#000000" font-family="sans-serif" font-size="13" font-weight="bold" lengthAdjust="spacing" textLength="7.23" x="49.7793" y="151.2705">1</text><text fill="#000000" font-family="sans-serif" font-size="13" lengthAdjust="spacing" textLength="227.646" x="61.0093" y="151.2705">GET /api/appointments/{appointmentId}</text><polygon fill="#181818" points="53.7793,183.8242,43.7793,187.8242,53.7793,191.8242,49.7793,187.8242" style="stroke:#181818;stroke-width:1.0;"/><line style="stroke:#181818;stroke-width:1.0;stroke-dasharray:2.0,2.0;" x1="47.7793" x2="304.6553" y1="187.8242" y2="187.8242"/><text fill="#000000" font-family="sans-serif" font-size="13" font-weight="bold" lengthAdjust="spacing" textLength="7.23" x="59.7793" y="182.5615">2</text><text fill="#000000" font-family="sans-serif" font-size="13" lengthAdjust="spacing" textLength="156.7871" x="71.0093" y="182.5615">200 OK (AppointmentDTO)</text><path d="M10,202.8242 L70.1709,202.8242 L70.1709,212.1152 L60.1709,222.1152 L10,222.1152 L10,202.8242 " fill="#EEEEEE" style="stroke:#000000;stroke-width:1.5;"/><rect fill="none" height="98.5039" style="stroke:#000000;stroke-width:1.5;" width="340.2759" x="10" y="202.8242"/><text fill="#000000" font-family="sans-serif" font-size="13" font-weight="bold" lengthAdjust="spacing" textLength="15.1709" x="25" y="217.8525">alt</text><text fill="#000000" font-family="sans-serif" font-size="11" font-weight="bold" lengthAdjust="spacing" textLength="168.0454" x="85.1709" y="216.6943">[Not authenticated or forbidden]</text><polygon fill="#181818" points="53.7793,241.4063,43.7793,245.4063,53.7793,249.4063,49.7793,245.4063" style="stroke:#181818;stroke-width:1.0;"/><line style="stroke:#181818;stroke-width:1.0;stroke-dasharray:2.0,2.0;" x1="47.7793" x2="304.6553" y1="245.4063" y2="245.4063"/><text fill="#000000" font-family="sans-serif" font-size="13" font-weight="bold" lengthAdjust="spacing" textLength="7.23" x="59.7793" y="240.1436">3</text><text fill="#000000" font-family="sans-serif" font-size="13" lengthAdjust="spacing" textLength="83.8398" x="71.0093" y="240.1436">403 Forbidden</text><line style="stroke:#000000;stroke-width:1.0;stroke-dasharray:2.0,2.0;" x1="10" x2="350.2759" y1="254.4063" y2="254.4063"/><text fill="#000000" font-family="sans-serif" font-size="11" font-weight="bold" lengthAdjust="spacing" textLength="144.7939" x="15" y="266.2764">[alt Appointment not found]</text><polygon fill="#181818" points="53.7793,289.3281,43.7793,293.3281,53.7793,297.3281,49.7793,293.3281" style="stroke:#181818;stroke-width:1.0;"/><line style="stroke:#181818;stroke-width:1.0;stroke-dasharray:2.0,2.0;" x1="47.7793" x2="304.6553" y1="293.3281" y2="293.3281"/><text fill="#000000" font-family="sans-serif" font-size="13" font-weight="bold" lengthAdjust="spacing" textLength="7.23" x="59.7793" y="288.0654">4</text><text fill="#000000" font-family="sans-serif" font-size="13" lengthAdjust="spacing" textLength="86.0044" x="71.0093" y="288.0654">404 Not Found</text><path d="M310,313.3281 L310,357.3281 L609,357.3281 L609,323.3281 L599,313.3281 L310,313.3281 " fill="#FEFFDD" style="stroke:#181818;stroke-width:0.5;"/><path d="M599,313.3281 L599,323.3281 L609,323.3281 L599,313.3281 " fill="#FEFFDD" style="stroke:#181818;stroke-width:0.5;"/><text fill="#000000" font-family="sans-serif" font-size="13" lengthAdjust="spacing" textLength="248.5552" x="316" y="332.3564">- Administrator: Can view any appointment.</text><text fill="#000000" font-family="sans-serif" font-size="13" lengthAdjust="spacing" textLength="278.1987" x="316" y="349.6475">- Patient: Can only view their own appointments.</text><!--SRC=[TL71QiCm3BtxAnuvROUitTPTSXYKTHrbi9QbtTrDr5MGsC5MMyhOlqz9kn8OCqXOrjFJaomi5M6LtpuWHPvFr7ym7J1k6izEQdA22OdbAXfZT-9j8RotGl2kYzskNbFGN24-85b52ebfR10kkB5QdMJl56Myc2Mm4Van2jKT_4JJ5XZJUgIFvpGol3mlCR0Dgrs4nC5NBvgLt-OCJxMoOyXmDnnY_eghdlx9SdvjR2LuymALlDKtBhHt2LMyyM7DPKdEGCzVmj7m7jCBXgf8QBdw-t7Ak_4xL_vBCUfwJpiCgHaj8GJ-t0hyvdSfASPbpOwZ1AlBpF1a7VRjRrXtH6_q6uKkhB1UJo3lgkC9gTDnW3-uFZxUj5rRdMH-0000]--></g></svg>