<svg xmlns="http://www.w3.org/2000/svg" xmlns:xlink="http://www.w3.org/1999/xlink" contentStyleType="text/css" height="968px" preserveAspectRatio="none" style="width:1184px;height:968px;background:#FFFFFF;" version="1.1" viewBox="0 0 1184 968" width="1184px" zoomAndPan="magnify"><title>US14 - SD - View Appointment Details</title><defs/><g><text fill="#000000" font-family="sans-serif" font-size="14" font-weight="bold" lengthAdjust="spacing" textLength="251.2617" x="467.7588" y="30.1074">US14 - SD - View Appointment Details</text><rect fill="#FFFFFF" height="631.4512" style="stroke:#181818;stroke-width:1.0;" width="10" x="32.7793" y="133.2422"/><rect fill="#FFFFFF" height="307.9102" style="stroke:#181818;stroke-width:1.0;" width="10" x="300.6553" y="156.5332"/><rect fill="#FFFFFF" height="31.291" style="stroke:#181818;stroke-width:1.0;" width="10" x="485.3511" y="187.8242"/><rect fill="#FFFFFF" height="182.7461" style="stroke:#181818;stroke-width:1.0;" width="10" x="656.4263" y="250.4063"/><rect fill="#FFFFFF" height="31.291" style="stroke:#181818;stroke-width:1.0;" width="10" x="859.7944" y="307.9883"/><rect fill="#FFFFFF" height="31.291" style="stroke:#181818;stroke-width:1.0;" width="10" x="859.7944" y="512.3652"/><rect fill="#FFFFFF" height="31.291" style="stroke:#181818;stroke-width:1.0;" width="10" x="1065.1177" y="370.5703"/><rect fill="#FFFFFF" height="31.291" style="stroke:#181818;stroke-width:1.0;" width="10" x="1065.1177" y="574.9473"/><rect fill="none" height="411.4141" style="stroke:#000000;stroke-width:1.5;" width="1167.7793" x="10" y="265.4063"/><rect fill="none" height="81.873" style="stroke:#000000;stroke-width:1.5;" width="757.1328" x="10" y="690.8203"/><rect fill="none" height="81.873" style="stroke:#000000;stroke-width:1.5;" width="757.1328" x="10" y="786.6934"/><line style="stroke:#181818;stroke-width:0.5;stroke-dasharray:5.0,5.0;" x1="37" x2="37" y1="123.2422" y2="885.5664"/><line style="stroke:#181818;stroke-width:0.5;stroke-dasharray:5.0,5.0;" x1="305.3281" x2="305.3281" y1="123.2422" y2="885.5664"/><line style="stroke:#181818;stroke-width:0.5;stroke-dasharray:5.0,5.0;" x1="489.9824" x2="489.9824" y1="123.2422" y2="885.5664"/><line style="stroke:#181818;stroke-width:0.5;stroke-dasharray:5.0,5.0;" x1="660.7197" x2="660.7197" y1="123.2422" y2="885.5664"/><line style="stroke:#181818;stroke-width:0.5;stroke-dasharray:5.0,5.0;" x1="864.1328" x2="864.1328" y1="123.2422" y2="885.5664"/><line style="stroke:#181818;stroke-width:0.5;stroke-dasharray:5.0,5.0;" x1="1069.4561" x2="1069.4561" y1="123.2422" y2="885.5664"/><text fill="#000000" font-family="sans-serif" font-size="14" lengthAdjust="spacing" textLength="29.5586" x="20" y="119.7285">User</text><ellipse cx="37.7793" cy="53.1211" fill="#E2E2F0" rx="8" ry="8" style="stroke:#181818;stroke-width:0.5;"/><path d="M37.7793,61.1211 L37.7793,88.1211 M24.7793,69.1211 L50.7793,69.1211 M37.7793,88.1211 L24.7793,103.1211 M37.7793,88.1211 L50.7793,103.1211 " fill="none" style="stroke:#181818;stroke-width:0.5;"/><text fill="#000000" font-family="sans-serif" font-size="14" lengthAdjust="spacing" textLength="29.5586" x="20" y="899.6738">User</text><ellipse cx="37.7793" cy="911.6875" fill="#E2E2F0" rx="8" ry="8" style="stroke:#181818;stroke-width:0.5;"/><path d="M37.7793,919.6875 L37.7793,946.6875 M24.7793,927.6875 L50.7793,927.6875 M37.7793,946.6875 L24.7793,961.6875 M37.7793,946.6875 L50.7793,961.6875 " fill="none" style="stroke:#181818;stroke-width:0.5;"/><rect fill="#E2E2F0" height="32.6211" rx="2.5" ry="2.5" style="stroke:#181818;stroke-width:0.5;" width="218.6543" x="196.3281" y="89.6211"/><text fill="#000000" font-family="sans-serif" font-size="14" lengthAdjust="spacing" textLength="204.6543" x="203.3281" y="111.7285">:controller:AppointmentController</text><rect fill="#E2E2F0" height="32.6211" rx="2.5" ry="2.5" style="stroke:#181818;stroke-width:0.5;" width="218.6543" x="196.3281" y="884.5664"/><text fill="#000000" font-family="sans-serif" font-size="14" lengthAdjust="spacing" textLength="204.6543" x="203.3281" y="906.6738">:controller:AppointmentController</text><rect fill="#E2E2F0" height="32.6211" rx="2.5" ry="2.5" style="stroke:#181818;stroke-width:0.5;" width="130.7373" x="424.9824" y="89.6211"/><text fill="#000000" font-family="sans-serif" font-size="14" lengthAdjust="spacing" textLength="116.7373" x="431.9824" y="111.7285">:helper:AuthHelper</text><rect fill="#E2E2F0" height="32.6211" rx="2.5" ry="2.5" style="stroke:#181818;stroke-width:0.5;" width="130.7373" x="424.9824" y="884.5664"/><text fill="#000000" font-family="sans-serif" font-size="14" lengthAdjust="spacing" textLength="116.7373" x="431.9824" y="906.6738">:helper:AuthHelper</text><rect fill="#E2E2F0" height="32.6211" rx="2.5" ry="2.5" style="stroke:#181818;stroke-width:0.5;" width="191.4131" x="565.7197" y="89.6211"/><text fill="#000000" font-family="sans-serif" font-size="14" lengthAdjust="spacing" textLength="177.4131" x="572.7197" y="111.7285">:service:AppointmentService</text><rect fill="#E2E2F0" height="32.6211" rx="2.5" ry="2.5" style="stroke:#181818;stroke-width:0.5;" width="191.4131" x="565.7197" y="884.5664"/><text fill="#000000" font-family="sans-serif" font-size="14" lengthAdjust="spacing" textLength="177.4131" x="572.7197" y="906.6738">:service:AppointmentService</text><rect fill="#E2E2F0" height="32.6211" rx="2.5" ry="2.5" style="stroke:#181818;stroke-width:0.5;" width="195.3232" x="767.1328" y="89.6211"/><text fill="#000000" font-family="sans-serif" font-size="14" lengthAdjust="spacing" textLength="181.3232" x="774.1328" y="111.7285">:repo:AppointmentRepository</text><rect fill="#E2E2F0" height="32.6211" rx="2.5" ry="2.5" style="stroke:#181818;stroke-width:0.5;" width="195.3232" x="767.1328" y="884.5664"/><text fill="#000000" font-family="sans-serif" font-size="14" lengthAdjust="spacing" textLength="181.3232" x="774.1328" y="906.6738">:repo:AppointmentRepository</text><rect fill="#E2E2F0" height="32.6211" rx="2.5" ry="2.5" style="stroke:#181818;stroke-width:0.5;" width="195.3232" x="972.4561" y="89.6211"/><text fill="#000000" font-family="sans-serif" font-size="14" lengthAdjust="spacing" textLength="181.3232" x="979.4561" y="111.7285">:mapper:AppointmentMapper</text><rect fill="#E2E2F0" height="32.6211" rx="2.5" ry="2.5" style="stroke:#181818;stroke-width:0.5;" width="195.3232" x="972.4561" y="884.5664"/><text fill="#000000" font-family="sans-serif" font-size="14" lengthAdjust="spacing" textLength="181.3232" x="979.4561" y="906.6738">:mapper:AppointmentMapper</text><rect fill="#FFFFFF" height="631.4512" style="stroke:#181818;stroke-width:1.0;" width="10" x="32.7793" y="133.2422"/><rect fill="#FFFFFF" height="307.9102" style="stroke:#181818;stroke-width:1.0;" width="10" x="300.6553" y="156.5332"/><rect fill="#FFFFFF" height="31.291" style="stroke:#181818;stroke-width:1.0;" width="10" x="485.3511" y="187.8242"/><rect fill="#FFFFFF" height="182.7461" style="stroke:#181818;stroke-width:1.0;" width="10" x="656.4263" y="250.4063"/><rect fill="#FFFFFF" height="31.291" style="stroke:#181818;stroke-width:1.0;" width="10" x="859.7944" y="307.9883"/><rect fill="#FFFFFF" height="31.291" style="stroke:#181818;stroke-width:1.0;" width="10" x="859.7944" y="512.3652"/><rect fill="#FFFFFF" height="31.291" style="stroke:#181818;stroke-width:1.0;" width="10" x="1065.1177" y="370.5703"/><rect fill="#FFFFFF" height="31.291" style="stroke:#181818;stroke-width:1.0;" width="10" x="1065.1177" y="574.9473"/><polygon fill="#181818" points="288.6553,152.5332,298.6553,156.5332,288.6553,160.5332,292.6553,156.5332" style="stroke:#181818;stroke-width:1.0;"/><line style="stroke:#181818;stroke-width:1.0;" x1="42.7793" x2="294.6553" y1="156.5332" y2="156.5332"/><text fill="#000000" font-family="sans-serif" font-size="13" font-weight="bold" lengthAdjust="spacing" textLength="7.23" x="49.7793" y="151.2705">1</text><text fill="#000000" font-family="sans-serif" font-size="13" lengthAdjust="spacing" textLength="227.646" x="61.0093" y="151.2705">GET /api/appointments/{appointmentId}</text><polygon fill="#181818" points="473.3511,183.8242,483.3511,187.8242,473.3511,191.8242,477.3511,187.8242" style="stroke:#181818;stroke-width:1.0;"/><line style="stroke:#181818;stroke-width:1.0;" x1="310.6553" x2="479.3511" y1="187.8242" y2="187.8242"/><text fill="#000000" font-family="sans-serif" font-size="13" font-weight="bold" lengthAdjust="spacing" textLength="7.23" x="317.6553" y="182.5615">2</text><text fill="#000000" font-family="sans-serif" font-size="13" lengthAdjust="spacing" textLength="97.5254" x="328.8853" y="182.5615">getCurrentUser()</text><polygon fill="#181818" points="321.6553,215.1152,311.6553,219.1152,321.6553,223.1152,317.6553,219.1152" style="stroke:#181818;stroke-width:1.0;"/><line style="stroke:#181818;stroke-width:1.0;stroke-dasharray:2.0,2.0;" x1="315.6553" x2="489.3511" y1="219.1152" y2="219.1152"/><text fill="#000000" font-family="sans-serif" font-size="13" font-weight="bold" lengthAdjust="spacing" textLength="7.23" x="327.6553" y="213.8525">3</text><text fill="#000000" font-family="sans-serif" font-size="13" lengthAdjust="spacing" textLength="104.749" x="338.8853" y="213.8525">User (role, userId)</text><polygon fill="#181818" points="644.4263,246.4063,654.4263,250.4063,644.4263,254.4063,648.4263,250.4063" style="stroke:#181818;stroke-width:1.0;"/><line style="stroke:#181818;stroke-width:1.0;" x1="310.6553" x2="650.4263" y1="250.4063" y2="250.4063"/><text fill="#000000" font-family="sans-serif" font-size="13" font-weight="bold" lengthAdjust="spacing" textLength="7.23" x="317.6553" y="245.1436">4</text><text fill="#000000" font-family="sans-serif" font-size="13" lengthAdjust="spacing" textLength="254.3633" x="328.8853" y="245.1436">getAppointmentDetails(appointmentId, user)</text><path d="M10,265.4063 L70.1709,265.4063 L70.1709,274.6973 L60.1709,284.6973 L10,284.6973 L10,265.4063 " fill="#EEEEEE" style="stroke:#000000;stroke-width:1.5;"/><rect fill="none" height="411.4141" style="stroke:#000000;stroke-width:1.5;" width="1167.7793" x="10" y="265.4063"/><text fill="#000000" font-family="sans-serif" font-size="13" font-weight="bold" lengthAdjust="spacing" textLength="15.1709" x="25" y="280.4346">alt</text><text fill="#000000" font-family="sans-serif" font-size="11" font-weight="bold" lengthAdjust="spacing" textLength="125.9038" x="85.1709" y="279.2764">[if (user.role == ADMIN)]</text><polygon fill="#181818" points="847.7944,303.9883,857.7944,307.9883,847.7944,311.9883,851.7944,307.9883" style="stroke:#181818;stroke-width:1.0;"/><line style="stroke:#181818;stroke-width:1.0;" x1="666.4263" x2="853.7944" y1="307.9883" y2="307.9883"/><text fill="#000000" font-family="sans-serif" font-size="13" font-weight="bold" lengthAdjust="spacing" textLength="7.23" x="673.4263" y="302.7256">5</text><text fill="#000000" font-family="sans-serif" font-size="13" lengthAdjust="spacing" textLength="138.0234" x="684.6563" y="302.7256">findById(appointmentId)</text><polygon fill="#181818" points="677.4263,335.2793,667.4263,339.2793,677.4263,343.2793,673.4263,339.2793" style="stroke:#181818;stroke-width:1.0;"/><line style="stroke:#181818;stroke-width:1.0;stroke-dasharray:2.0,2.0;" x1="671.4263" x2="863.7944" y1="339.2793" y2="339.2793"/><text fill="#000000" font-family="sans-serif" font-size="13" font-weight="bold" lengthAdjust="spacing" textLength="7.23" x="683.4263" y="334.0166">6</text><text fill="#000000" font-family="sans-serif" font-size="13" lengthAdjust="spacing" textLength="72.9917" x="694.6563" y="334.0166">Appointment</text><polygon fill="#181818" points="1053.1177,366.5703,1063.1177,370.5703,1053.1177,374.5703,1057.1177,370.5703" style="stroke:#181818;stroke-width:1.0;"/><line style="stroke:#181818;stroke-width:1.0;" x1="666.4263" x2="1059.1177" y1="370.5703" y2="370.5703"/><text fill="#000000" font-family="sans-serif" font-size="13" font-weight="bold" lengthAdjust="spacing" textLength="7.23" x="673.4263" y="365.3076">7</text><text fill="#000000" font-family="sans-serif" font-size="13" lengthAdjust="spacing" textLength="119.9326" x="684.6563" y="365.3076">toDTO(Appointment)</text><polygon fill="#181818" points="677.4263,397.8613,667.4263,401.8613,677.4263,405.8613,673.4263,401.8613" style="stroke:#181818;stroke-width:1.0;"/><line style="stroke:#181818;stroke-width:1.0;stroke-dasharray:2.0,2.0;" x1="671.4263" x2="1069.1177" y1="401.8613" y2="401.8613"/><text fill="#000000" font-family="sans-serif" font-size="13" font-weight="bold" lengthAdjust="spacing" textLength="7.23" x="683.4263" y="396.5986">8</text><text fill="#000000" font-family="sans-serif" font-size="13" lengthAdjust="spacing" textLength="100.4326" x="694.6563" y="396.5986">AppointmentDTO</text><polygon fill="#181818" points="321.6553,429.1523,311.6553,433.1523,321.6553,437.1523,317.6553,433.1523" style="stroke:#181818;stroke-width:1.0;"/><line style="stroke:#181818;stroke-width:1.0;stroke-dasharray:2.0,2.0;" x1="315.6553" x2="660.4263" y1="433.1523" y2="433.1523"/><text fill="#000000" font-family="sans-serif" font-size="13" font-weight="bold" lengthAdjust="spacing" textLength="7.23" x="327.6553" y="427.8896">9</text><text fill="#000000" font-family="sans-serif" font-size="13" lengthAdjust="spacing" textLength="100.4326" x="338.8853" y="427.8896">AppointmentDTO</text><polygon fill="#181818" points="53.7793,460.4434,43.7793,464.4434,53.7793,468.4434,49.7793,464.4434" style="stroke:#181818;stroke-width:1.0;"/><line style="stroke:#181818;stroke-width:1.0;stroke-dasharray:2.0,2.0;" x1="47.7793" x2="304.6553" y1="464.4434" y2="464.4434"/><text fill="#000000" font-family="sans-serif" font-size="13" font-weight="bold" lengthAdjust="spacing" textLength="14.46" x="59.7793" y="459.1807">10</text><text fill="#000000" font-family="sans-serif" font-size="13" lengthAdjust="spacing" textLength="44.0845" x="78.2393" y="459.1807">200 OK</text><line style="stroke:#000000;stroke-width:1.0;stroke-dasharray:2.0,2.0;" x1="10" x2="1177.7793" y1="473.4434" y2="473.4434"/><text fill="#000000" font-family="sans-serif" font-size="11" font-weight="bold" lengthAdjust="spacing" textLength="136.9092" x="15" y="485.3135">[if (user.role == PATIENT)]</text><polygon fill="#181818" points="847.7944,508.3652,857.7944,512.3652,847.7944,516.3652,851.7944,512.3652" style="stroke:#181818;stroke-width:1.0;"/><line style="stroke:#181818;stroke-width:1.0;" x1="661.4263" x2="853.7944" y1="512.3652" y2="512.3652"/><text fill="#000000" font-family="sans-serif" font-size="13" font-weight="bold" lengthAdjust="spacing" textLength="14.46" x="668.4263" y="507.1025">11</text><text fill="#000000" font-family="sans-serif" font-size="13" lengthAdjust="spacing" textLength="138.0234" x="686.8862" y="507.1025">findById(appointmentId)</text><polygon fill="#181818" points="672.4263,539.6563,662.4263,543.6563,672.4263,547.6563,668.4263,543.6563" style="stroke:#181818;stroke-width:1.0;"/><line style="stroke:#181818;stroke-width:1.0;stroke-dasharray:2.0,2.0;" x1="666.4263" x2="863.7944" y1="543.6563" y2="543.6563"/><text fill="#000000" font-family="sans-serif" font-size="13" font-weight="bold" lengthAdjust="spacing" textLength="14.46" x="678.4263" y="538.3936">12</text><text fill="#000000" font-family="sans-serif" font-size="13" lengthAdjust="spacing" textLength="72.9917" x="696.8862" y="538.3936">Appointment</text><polygon fill="#181818" points="1053.1177,570.9473,1063.1177,574.9473,1053.1177,578.9473,1057.1177,574.9473" style="stroke:#181818;stroke-width:1.0;"/><line style="stroke:#181818;stroke-width:1.0;" x1="661.4263" x2="1059.1177" y1="574.9473" y2="574.9473"/><text fill="#000000" font-family="sans-serif" font-size="13" font-weight="bold" lengthAdjust="spacing" textLength="14.46" x="668.4263" y="569.6846">13</text><text fill="#000000" font-family="sans-serif" font-size="13" lengthAdjust="spacing" textLength="119.9326" x="686.8862" y="569.6846">toDTO(Appointment)</text><polygon fill="#181818" points="672.4263,602.2383,662.4263,606.2383,672.4263,610.2383,668.4263,606.2383" style="stroke:#181818;stroke-width:1.0;"/><line style="stroke:#181818;stroke-width:1.0;stroke-dasharray:2.0,2.0;" x1="666.4263" x2="1069.1177" y1="606.2383" y2="606.2383"/><text fill="#000000" font-family="sans-serif" font-size="13" font-weight="bold" lengthAdjust="spacing" textLength="14.46" x="678.4263" y="600.9756">14</text><text fill="#000000" font-family="sans-serif" font-size="13" lengthAdjust="spacing" textLength="100.4326" x="696.8862" y="600.9756">AppointmentDTO</text><polygon fill="#181818" points="316.6553,633.5293,306.6553,637.5293,316.6553,641.5293,312.6553,637.5293" style="stroke:#181818;stroke-width:1.0;"/><line style="stroke:#181818;stroke-width:1.0;stroke-dasharray:2.0,2.0;" x1="310.6553" x2="660.4263" y1="637.5293" y2="637.5293"/><text fill="#000000" font-family="sans-serif" font-size="13" font-weight="bold" lengthAdjust="spacing" textLength="14.46" x="322.6553" y="632.2666">15</text><text fill="#000000" font-family="sans-serif" font-size="13" lengthAdjust="spacing" textLength="100.4326" x="341.1152" y="632.2666">AppointmentDTO</text><polygon fill="#181818" points="53.7793,664.8203,43.7793,668.8203,53.7793,672.8203,49.7793,668.8203" style="stroke:#181818;stroke-width:1.0;"/><line style="stroke:#181818;stroke-width:1.0;stroke-dasharray:2.0,2.0;" x1="47.7793" x2="304.6553" y1="668.8203" y2="668.8203"/><text fill="#000000" font-family="sans-serif" font-size="13" font-weight="bold" lengthAdjust="spacing" textLength="14.46" x="59.7793" y="663.5576">16</text><text fill="#000000" font-family="sans-serif" font-size="13" lengthAdjust="spacing" textLength="44.0845" x="78.2393" y="663.5576">200 OK</text><path d="M10,690.8203 L70.1709,690.8203 L70.1709,700.1113 L60.1709,710.1113 L10,710.1113 L10,690.8203 " fill="#EEEEEE" style="stroke:#000000;stroke-width:1.5;"/><rect fill="none" height="81.873" style="stroke:#000000;stroke-width:1.5;" width="757.1328" x="10" y="690.8203"/><text fill="#000000" font-family="sans-serif" font-size="13" font-weight="bold" lengthAdjust="spacing" textLength="15.1709" x="25" y="705.8486">alt</text><text fill="#000000" font-family="sans-serif" font-size="11" font-weight="bold" lengthAdjust="spacing" textLength="127.0747" x="85.1709" y="704.6904">[appointment not found]</text><polygon fill="#181818" points="316.6553,729.4023,306.6553,733.4023,316.6553,737.4023,312.6553,733.4023" style="stroke:#181818;stroke-width:1.0;"/><line style="stroke:#181818;stroke-width:1.0;stroke-dasharray:2.0,2.0;" x1="310.6553" x2="660.4263" y1="733.4023" y2="733.4023"/><text fill="#000000" font-family="sans-serif" font-size="13" font-weight="bold" lengthAdjust="spacing" textLength="14.46" x="322.6553" y="728.1396">17</text><text fill="#000000" font-family="sans-serif" font-size="13" lengthAdjust="spacing" textLength="86.0044" x="341.1152" y="728.1396">404 Not Found</text><polygon fill="#181818" points="48.7793,760.6934,38.7793,764.6934,48.7793,768.6934,44.7793,764.6934" style="stroke:#181818;stroke-width:1.0;"/><line style="stroke:#181818;stroke-width:1.0;stroke-dasharray:2.0,2.0;" x1="42.7793" x2="304.6553" y1="764.6934" y2="764.6934"/><text fill="#000000" font-family="sans-serif" font-size="13" font-weight="bold" lengthAdjust="spacing" textLength="14.46" x="54.7793" y="759.4307">18</text><text fill="#000000" font-family="sans-serif" font-size="13" lengthAdjust="spacing" textLength="86.0044" x="73.2393" y="759.4307">404 Not Found</text><path d="M10,786.6934 L70.1709,786.6934 L70.1709,795.9844 L60.1709,805.9844 L10,805.9844 L10,786.6934 " fill="#EEEEEE" style="stroke:#000000;stroke-width:1.5;"/><rect fill="none" height="81.873" style="stroke:#000000;stroke-width:1.5;" width="757.1328" x="10" y="786.6934"/><text fill="#000000" font-family="sans-serif" font-size="13" font-weight="bold" lengthAdjust="spacing" textLength="15.1709" x="25" y="801.7217">alt</text><text fill="#000000" font-family="sans-serif" font-size="11" font-weight="bold" lengthAdjust="spacing" textLength="76.4199" x="85.1709" y="800.5635">[acess denied]</text><polygon fill="#181818" points="316.6553,825.2754,306.6553,829.2754,316.6553,833.2754,312.6553,829.2754" style="stroke:#181818;stroke-width:1.0;"/><line style="stroke:#181818;stroke-width:1.0;stroke-dasharray:2.0,2.0;" x1="310.6553" x2="660.4263" y1="829.2754" y2="829.2754"/><text fill="#000000" font-family="sans-serif" font-size="13" font-weight="bold" lengthAdjust="spacing" textLength="14.46" x="322.6553" y="824.0127">19</text><text fill="#000000" font-family="sans-serif" font-size="13" lengthAdjust="spacing" textLength="83.8398" x="341.1152" y="824.0127">403 Forbidden</text><polygon fill="#181818" points="48.7793,856.5664,38.7793,860.5664,48.7793,864.5664,44.7793,860.5664" style="stroke:#181818;stroke-width:1.0;"/><line style="stroke:#181818;stroke-width:1.0;stroke-dasharray:2.0,2.0;" x1="42.7793" x2="304.6553" y1="860.5664" y2="860.5664"/><text fill="#000000" font-family="sans-serif" font-size="13" font-weight="bold" lengthAdjust="spacing" textLength="14.46" x="54.7793" y="855.3037">20</text><text fill="#000000" font-family="sans-serif" font-size="13" lengthAdjust="spacing" textLength="83.8398" x="73.2393" y="855.3037">403 Forbidden</text><!--SRC=[xLJDRzem5B_xhtZY5AHHsCO9YKeCsYsQ2bE1tjtaqLeAjkKudT2q_tqlCGt6IL2xoowBHCZx-7tulO0LDaFOhZ-EOG3h1TqU1Fw4cTPAIBj7QM61beiiPumNLl74YXTk4PIiObdi7z5GBR7AG6-Re-anpOqLYT2SqBr9egGrAilGJ3pQUPtj0S-XjH8GFMEcIvB2Fd-h7Xso3eDsil8Y4lH5rouLAXxJ0TwWLZxudk9Sq34F8VvK2IZsNElpOzzLcP30PQifkkcMSsIilCFWkdquC86lDniOSYteKpVamrzU5AU_MJkwfAqdHrnFQEU5CTHKgaPzvbK75pnK7YCAyGCKz1odVNP1iZ5q9-tbZwzRT7OAnqtCFBCWTX2LuLMf2jCfp1PtyRBFWAuMWNFPqwv8UITa-kKGf-TY3IOFC-WwX9Tycn6tSq9QjTYi8g_Iq3-slaMRg3hbBspnCeE_GoAfLZw1JwCHhBupXbcEpPtyc6tYc-Nc_rR-pLPGfjLlnHiXI6LXfmgg_8MNyMWCIoAuRIDejzA4f1ZymzKs4ynpAak1hlFrUhVBpoHd7aLAN5r4NMwxeA5hbtLVT80_]--></g></svg>