<svg xmlns="http://www.w3.org/2000/svg" xmlns:xlink="http://www.w3.org/1999/xlink" contentStyleType="text/css" height="603px" preserveAspectRatio="none" style="width:1282px;height:603px;background:#FFFFFF;" version="1.1" viewBox="0 0 1282 603" width="1282px" zoomAndPan="magnify"><title>US11 - SD - Calculate Average Appointment Duration per Physician</title><defs/><g><text fill="#000000" font-family="sans-serif" font-size="14" font-weight="bold" lengthAdjust="spacing" textLength="447.3232" x="416.5032" y="30.1074">US11 - SD - Calculate Average Appointment Duration per Physician</text><rect fill="#FFFFFF" height="281.6191" style="stroke:#181818;stroke-width:1.0;" width="10" x="332.5059" y="156.5332"/><rect fill="#FFFFFF" height="31.291" style="stroke:#181818;stroke-width:1.0;" width="10" x="517.2017" y="187.8242"/><rect fill="#FFFFFF" height="156.4551" style="stroke:#181818;stroke-width:1.0;" width="10" x="688.2769" y="250.4063"/><rect fill="#FFFFFF" height="31.291" style="stroke:#181818;stroke-width:1.0;" width="10" x="968.3447" y="281.6973"/><rect fill="#FFFFFF" height="31.291" style="stroke:#181818;stroke-width:1.0;" width="10" x="1173.668" y="344.2793"/><rect fill="none" height="50.582" style="stroke:#000000;stroke-width:1.5;" width="446.833" x="10" y="453.1523"/><line style="stroke:#181818;stroke-width:0.5;stroke-dasharray:5.0,5.0;" x1="64" x2="64" y1="123.2422" y2="520.7344"/><line style="stroke:#181818;stroke-width:0.5;stroke-dasharray:5.0,5.0;" x1="337.1787" x2="337.1787" y1="123.2422" y2="520.7344"/><line style="stroke:#181818;stroke-width:0.5;stroke-dasharray:5.0,5.0;" x1="521.833" x2="521.833" y1="123.2422" y2="520.7344"/><line style="stroke:#181818;stroke-width:0.5;stroke-dasharray:5.0,5.0;" x1="692.5703" x2="692.5703" y1="123.2422" y2="520.7344"/><line style="stroke:#181818;stroke-width:0.5;stroke-dasharray:5.0,5.0;" x1="972.6831" x2="972.6831" y1="123.2422" y2="520.7344"/><line style="stroke:#181818;stroke-width:0.5;stroke-dasharray:5.0,5.0;" x1="1178.0063" x2="1178.0063" y1="123.2422" y2="520.7344"/><text fill="#000000" font-family="sans-serif" font-size="14" lengthAdjust="spacing" textLength="82.4688" x="20" y="119.7285">Administrator</text><ellipse cx="64.2344" cy="53.1211" fill="#E2E2F0" rx="8" ry="8" style="stroke:#181818;stroke-width:0.5;"/><path d="M64.2344,61.1211 L64.2344,88.1211 M51.2344,69.1211 L77.2344,69.1211 M64.2344,88.1211 L51.2344,103.1211 M64.2344,88.1211 L77.2344,103.1211 " fill="none" style="stroke:#181818;stroke-width:0.5;"/><text fill="#000000" font-family="sans-serif" font-size="14" lengthAdjust="spacing" textLength="82.4688" x="20" y="534.8418">Administrator</text><ellipse cx="64.2344" cy="546.8555" fill="#E2E2F0" rx="8" ry="8" style="stroke:#181818;stroke-width:0.5;"/><path d="M64.2344,554.8555 L64.2344,581.8555 M51.2344,562.8555 L77.2344,562.8555 M64.2344,581.8555 L51.2344,596.8555 M64.2344,581.8555 L77.2344,596.8555 " fill="none" style="stroke:#181818;stroke-width:0.5;"/><rect fill="#E2E2F0" height="32.6211" rx="2.5" ry="2.5" style="stroke:#181818;stroke-width:0.5;" width="218.6543" x="228.1787" y="89.6211"/><text fill="#000000" font-family="sans-serif" font-size="14" lengthAdjust="spacing" textLength="204.6543" x="235.1787" y="111.7285">:controller:AppointmentController</text><rect fill="#E2E2F0" height="32.6211" rx="2.5" ry="2.5" style="stroke:#181818;stroke-width:0.5;" width="218.6543" x="228.1787" y="519.7344"/><text fill="#000000" font-family="sans-serif" font-size="14" lengthAdjust="spacing" textLength="204.6543" x="235.1787" y="541.8418">:controller:AppointmentController</text><rect fill="#E2E2F0" height="32.6211" rx="2.5" ry="2.5" style="stroke:#181818;stroke-width:0.5;" width="130.7373" x="456.833" y="89.6211"/><text fill="#000000" font-family="sans-serif" font-size="14" lengthAdjust="spacing" textLength="116.7373" x="463.833" y="111.7285">:helper:AuthHelper</text><rect fill="#E2E2F0" height="32.6211" rx="2.5" ry="2.5" style="stroke:#181818;stroke-width:0.5;" width="130.7373" x="456.833" y="519.7344"/><text fill="#000000" font-family="sans-serif" font-size="14" lengthAdjust="spacing" textLength="116.7373" x="463.833" y="541.8418">:helper:AuthHelper</text><rect fill="#E2E2F0" height="32.6211" rx="2.5" ry="2.5" style="stroke:#181818;stroke-width:0.5;" width="191.4131" x="597.5703" y="89.6211"/><text fill="#000000" font-family="sans-serif" font-size="14" lengthAdjust="spacing" textLength="177.4131" x="604.5703" y="111.7285">:service:AppointmentService</text><rect fill="#E2E2F0" height="32.6211" rx="2.5" ry="2.5" style="stroke:#181818;stroke-width:0.5;" width="191.4131" x="597.5703" y="519.7344"/><text fill="#000000" font-family="sans-serif" font-size="14" lengthAdjust="spacing" textLength="177.4131" x="604.5703" y="541.8418">:service:AppointmentService</text><rect fill="#E2E2F0" height="32.6211" rx="2.5" ry="2.5" style="stroke:#181818;stroke-width:0.5;" width="195.3232" x="875.6831" y="89.6211"/><text fill="#000000" font-family="sans-serif" font-size="14" lengthAdjust="spacing" textLength="181.3232" x="882.6831" y="111.7285">:repo:AppointmentRepository</text><rect fill="#E2E2F0" height="32.6211" rx="2.5" ry="2.5" style="stroke:#181818;stroke-width:0.5;" width="195.3232" x="875.6831" y="519.7344"/><text fill="#000000" font-family="sans-serif" font-size="14" lengthAdjust="spacing" textLength="181.3232" x="882.6831" y="541.8418">:repo:AppointmentRepository</text><rect fill="#E2E2F0" height="32.6211" rx="2.5" ry="2.5" style="stroke:#181818;stroke-width:0.5;" width="195.3232" x="1081.0063" y="89.6211"/><text fill="#000000" font-family="sans-serif" font-size="14" lengthAdjust="spacing" textLength="181.3232" x="1088.0063" y="111.7285">:mapper:AppointmentMapper</text><rect fill="#E2E2F0" height="32.6211" rx="2.5" ry="2.5" style="stroke:#181818;stroke-width:0.5;" width="195.3232" x="1081.0063" y="519.7344"/><text fill="#000000" font-family="sans-serif" font-size="14" lengthAdjust="spacing" textLength="181.3232" x="1088.0063" y="541.8418">:mapper:AppointmentMapper</text><rect fill="#FFFFFF" height="281.6191" style="stroke:#181818;stroke-width:1.0;" width="10" x="332.5059" y="156.5332"/><rect fill="#FFFFFF" height="31.291" style="stroke:#181818;stroke-width:1.0;" width="10" x="517.2017" y="187.8242"/><rect fill="#FFFFFF" height="156.4551" style="stroke:#181818;stroke-width:1.0;" width="10" x="688.2769" y="250.4063"/><rect fill="#FFFFFF" height="31.291" style="stroke:#181818;stroke-width:1.0;" width="10" x="968.3447" y="281.6973"/><rect fill="#FFFFFF" height="31.291" style="stroke:#181818;stroke-width:1.0;" width="10" x="1173.668" y="344.2793"/><polygon fill="#181818" points="320.5059,152.5332,330.5059,156.5332,320.5059,160.5332,324.5059,156.5332" style="stroke:#181818;stroke-width:1.0;"/><line style="stroke:#181818;stroke-width:1.0;" x1="64.2344" x2="326.5059" y1="156.5332" y2="156.5332"/><text fill="#000000" font-family="sans-serif" font-size="13" font-weight="bold" lengthAdjust="spacing" textLength="7.23" x="71.2344" y="151.2705">1</text><text fill="#000000" font-family="sans-serif" font-size="13" lengthAdjust="spacing" textLength="234.8569" x="82.4644" y="151.2705">GET /api/appointments/average-duration</text><polygon fill="#181818" points="505.2017,183.8242,515.2017,187.8242,505.2017,191.8242,509.2017,187.8242" style="stroke:#181818;stroke-width:1.0;"/><line style="stroke:#181818;stroke-width:1.0;" x1="342.5059" x2="511.2017" y1="187.8242" y2="187.8242"/><text fill="#000000" font-family="sans-serif" font-size="13" font-weight="bold" lengthAdjust="spacing" textLength="7.23" x="349.5059" y="182.5615">2</text><text fill="#000000" font-family="sans-serif" font-size="13" lengthAdjust="spacing" textLength="97.5254" x="360.7358" y="182.5615">getCurrentUser()</text><polygon fill="#181818" points="353.5059,215.1152,343.5059,219.1152,353.5059,223.1152,349.5059,219.1152" style="stroke:#181818;stroke-width:1.0;"/><line style="stroke:#181818;stroke-width:1.0;stroke-dasharray:2.0,2.0;" x1="347.5059" x2="521.2017" y1="219.1152" y2="219.1152"/><text fill="#000000" font-family="sans-serif" font-size="13" font-weight="bold" lengthAdjust="spacing" textLength="7.23" x="359.5059" y="213.8525">3</text><text fill="#000000" font-family="sans-serif" font-size="13" lengthAdjust="spacing" textLength="27.4473" x="370.7358" y="213.8525">User</text><polygon fill="#181818" points="676.2769,246.4063,686.2769,250.4063,676.2769,254.4063,680.2769,250.4063" style="stroke:#181818;stroke-width:1.0;"/><line style="stroke:#181818;stroke-width:1.0;" x1="342.5059" x2="682.2769" y1="250.4063" y2="250.4063"/><text fill="#000000" font-family="sans-serif" font-size="13" font-weight="bold" lengthAdjust="spacing" textLength="7.23" x="349.5059" y="245.1436">4</text><text fill="#000000" font-family="sans-serif" font-size="13" lengthAdjust="spacing" textLength="206.6543" x="360.7358" y="245.1436">getAverageDurationsPerPhysician()</text><polygon fill="#181818" points="956.3447,277.6973,966.3447,281.6973,956.3447,285.6973,960.3447,281.6973" style="stroke:#181818;stroke-width:1.0;"/><line style="stroke:#181818;stroke-width:1.0;" x1="698.2769" x2="962.3447" y1="281.6973" y2="281.6973"/><text fill="#000000" font-family="sans-serif" font-size="13" font-weight="bold" lengthAdjust="spacing" textLength="7.23" x="705.2769" y="276.4346">5</text><text fill="#000000" font-family="sans-serif" font-size="13" lengthAdjust="spacing" textLength="203.0425" x="716.5068" y="276.4346">findAverageDurationPerPhysician()</text><polygon fill="#181818" points="709.2769,308.9883,699.2769,312.9883,709.2769,316.9883,705.2769,312.9883" style="stroke:#181818;stroke-width:1.0;"/><line style="stroke:#181818;stroke-width:1.0;stroke-dasharray:2.0,2.0;" x1="703.2769" x2="972.3447" y1="312.9883" y2="312.9883"/><text fill="#000000" font-family="sans-serif" font-size="13" font-weight="bold" lengthAdjust="spacing" textLength="7.23" x="715.2769" y="307.7256">6</text><text fill="#000000" font-family="sans-serif" font-size="13" lengthAdjust="spacing" textLength="234.8379" x="726.5068" y="307.7256">List&lt;Object[]&gt; (physicianId, avgDuration)</text><polygon fill="#181818" points="1161.668,340.2793,1171.668,344.2793,1161.668,348.2793,1165.668,344.2793" style="stroke:#181818;stroke-width:1.0;"/><line style="stroke:#181818;stroke-width:1.0;" x1="698.2769" x2="1167.668" y1="344.2793" y2="344.2793"/><text fill="#000000" font-family="sans-serif" font-size="13" font-weight="bold" lengthAdjust="spacing" textLength="7.23" x="705.2769" y="339.0166">7</text><text fill="#000000" font-family="sans-serif" font-size="13" lengthAdjust="spacing" textLength="195.7998" x="716.5068" y="339.0166">toAverageDTOList(List&lt;Object[]&gt;)</text><polygon fill="#181818" points="709.2769,371.5703,699.2769,375.5703,709.2769,379.5703,705.2769,375.5703" style="stroke:#181818;stroke-width:1.0;"/><line style="stroke:#181818;stroke-width:1.0;stroke-dasharray:2.0,2.0;" x1="703.2769" x2="1177.668" y1="375.5703" y2="375.5703"/><text fill="#000000" font-family="sans-serif" font-size="13" font-weight="bold" lengthAdjust="spacing" textLength="7.23" x="715.2769" y="370.3076">8</text><text fill="#000000" font-family="sans-serif" font-size="13" lengthAdjust="spacing" textLength="166.9116" x="726.5068" y="370.3076">List&lt;PhysicianAverageDTO&gt;</text><polygon fill="#181818" points="353.5059,402.8613,343.5059,406.8613,353.5059,410.8613,349.5059,406.8613" style="stroke:#181818;stroke-width:1.0;"/><line style="stroke:#181818;stroke-width:1.0;stroke-dasharray:2.0,2.0;" x1="347.5059" x2="692.2769" y1="406.8613" y2="406.8613"/><text fill="#000000" font-family="sans-serif" font-size="13" font-weight="bold" lengthAdjust="spacing" textLength="7.23" x="359.5059" y="401.5986">9</text><text fill="#000000" font-family="sans-serif" font-size="13" lengthAdjust="spacing" textLength="166.9116" x="370.7358" y="401.5986">List&lt;PhysicianAverageDTO&gt;</text><polygon fill="#181818" points="75.2344,434.1523,65.2344,438.1523,75.2344,442.1523,71.2344,438.1523" style="stroke:#181818;stroke-width:1.0;"/><line style="stroke:#181818;stroke-width:1.0;stroke-dasharray:2.0,2.0;" x1="69.2344" x2="336.5059" y1="438.1523" y2="438.1523"/><text fill="#000000" font-family="sans-serif" font-size="13" font-weight="bold" lengthAdjust="spacing" textLength="14.46" x="81.2344" y="432.8896">10</text><text fill="#000000" font-family="sans-serif" font-size="13" lengthAdjust="spacing" textLength="225.8115" x="99.6943" y="432.8896">200 OK + List&lt;PhysicianAverageDTO&gt;</text><path d="M10,453.1523 L70.1709,453.1523 L70.1709,462.4434 L60.1709,472.4434 L10,472.4434 L10,453.1523 " fill="#EEEEEE" style="stroke:#000000;stroke-width:1.5;"/><rect fill="none" height="50.582" style="stroke:#000000;stroke-width:1.5;" width="446.833" x="10" y="453.1523"/><text fill="#000000" font-family="sans-serif" font-size="13" font-weight="bold" lengthAdjust="spacing" textLength="15.1709" x="25" y="468.1807">alt</text><text fill="#000000" font-family="sans-serif" font-size="11" font-weight="bold" lengthAdjust="spacing" textLength="103.2808" x="85.1709" y="467.0225">[User is not ADMIN]</text><polygon fill="#181818" points="75.2344,491.7344,65.2344,495.7344,75.2344,499.7344,71.2344,495.7344" style="stroke:#181818;stroke-width:1.0;"/><line style="stroke:#181818;stroke-width:1.0;stroke-dasharray:2.0,2.0;" x1="69.2344" x2="336.5059" y1="495.7344" y2="495.7344"/><text fill="#000000" font-family="sans-serif" font-size="13" font-weight="bold" lengthAdjust="spacing" textLength="14.46" x="81.2344" y="490.4717">11</text><text fill="#000000" font-family="sans-serif" font-size="13" lengthAdjust="spacing" textLength="83.8398" x="99.6943" y="490.4717">403 Forbidden</text><!--SRC=[ZP9DRy8m38Rl-HKM9wQj0hQTgWa9mJxGna03JjCEeSqWKvj4gOl4lv_Rqb82L5JgbvFtUHtRA34Ii9ptUk31V4IF8O-2DE8eOB0Lbg_fROoM2cEX44QfvIYr0YCip3QxH0QIAyPJr3n0kSrqMZ780YgDLy8oYciBhK4OIoKJ9BssBU09v15ck4M264xqbXzeXLP7aR1-pNPOHGlXkHK7j16HoI0fRjxopq9P_JhR4s6tCX1rqtaHSXttOKTlXT5ryHVz9v9EkdFrXnK74NDZZeyzoICke8WoLYinoqi9NlzyQS27r-S5TBYHT5SRaWulEko5-wwoy_ACMnMEO6k1mzHQshIakhLlM6tLQqWYsyqOq7NPvwJGXTz-5ilnIsR2LjD72JZCKdeCF5IUcBzIXGwqcLbJUvSI_Q3vVfgk_aI0tpzzQ9iIDmxlW6_NfTEL2HUT9YxgCjN5DFDe7nkTuFR2vZohinxO_OjvDNJrQbYzqnaldraVxhjTcBx3RGE8HvWF3yW4b4OOZ2RZpolnZzq7UD5s9SDGA2PKoFu1]--></g></svg>