<svg xmlns="http://www.w3.org/2000/svg" xmlns:xlink="http://www.w3.org/1999/xlink" contentStyleType="text/css" data-diagram-type="DESCRIPTION" height="921.0938px" preserveAspectRatio="none" style="width:790px;height:921px;background:#FFFFFF;" version="1.1" viewBox="0 0 790 921" width="790.625px" zoomAndPan="magnify"><title>Physical Deployment View &#8212; Dev (Localhost)</title><defs/><g><g class="title" data-source-line="11"><text fill="#000000" font-family="sans-serif" font-size="10.9375" font-weight="bold" lengthAdjust="spacing" textLength="237.0415" x="271.7094" y="19.6152">Physical Deployment View &#8212; Dev (Localhost)</text></g><!--cluster DEV--><g class="cluster" data-entity="DEV" data-source-line="21" data-uid="ent0003" id="cluster_DEV"><polygon fill="none" points="12.5,43.454,20.3125,35.6415,648.4375,35.6415,648.4375,825.0946,640.625,832.9071,12.5,832.9071,12.5,43.454" style="stroke:#181818;stroke-width:0.7813;"/><line style="stroke:#181818;stroke-width:0.7813;" x1="640.625" x2="648.4375" y1="43.454" y2="35.6415"/><line style="stroke:#181818;stroke-width:0.7813;" x1="12.5" x2="640.625" y1="43.454" y2="43.454"/><line style="stroke:#181818;stroke-width:0.7813;" x1="640.625" x2="640.625" y1="43.454" y2="832.9071"/><text fill="#000000" font-family="sans-serif" font-size="10.9375" font-weight="bold" lengthAdjust="spacing" textLength="99.6872" x="277.5002" y="57.6004">Developer Machine</text></g><!--cluster LOCAL--><g class="cluster" data-entity="LOCAL" data-source-line="22" data-uid="ent0004" id="cluster_LOCAL"><polygon fill="none" points="31.25,82.5165,39.0625,74.704,629.6875,74.704,629.6875,806.3446,621.875,814.1571,31.25,814.1571,31.25,82.5165" style="stroke:#181818;stroke-width:0.7813;"/><line style="stroke:#181818;stroke-width:0.7813;" x1="621.875" x2="629.6875" y1="82.5165" y2="74.704"/><line style="stroke:#181818;stroke-width:0.7813;" x1="31.25" x2="621.875" y1="82.5165" y2="82.5165"/><line style="stroke:#181818;stroke-width:0.7813;" x1="621.875" x2="621.875" y1="82.5165" y2="814.1571"/><text fill="#000000" font-family="sans-serif" font-size="10.9375" font-weight="bold" lengthAdjust="spacing" textLength="107.5912" x="273.5481" y="96.6629">Localhost (127.0.0.1)</text></g><!--cluster R1--><g class="cluster" data-entity="R1" data-source-line="23" data-uid="ent0005" id="cluster_R1"><rect fill="none" height="417.1875" rx="1.9531" ry="1.9531" style="stroke:#181818;stroke-width:0.7813;" width="250" x="269.5313" y="221.1884"/><path d="M417.7315,221.1884 L417.7315,230.2673 L409.919,238.0798 L269.5313,238.0798" fill="none" style="stroke:#181818;stroke-width:0.7813;"/><text fill="#000000" font-family="sans-serif" font-size="10.9375" font-weight="bold" lengthAdjust="spacing" textLength="140.3877" x="271.875" y="233.7723">Runtime - instance1 profile</text></g><!--cluster R2--><g class="cluster" data-entity="R2" data-source-line="30" data-uid="ent0010" id="cluster_R2"><rect fill="none" height="98.4375" rx="1.9531" ry="1.9531" style="stroke:#181818;stroke-width:0.7813;" width="548.4375" x="56.25" y="690.7196"/><path d="M204.4502,690.7196 L204.4502,699.7986 L196.6377,707.6111 L56.25,707.6111" fill="none" style="stroke:#181818;stroke-width:0.7813;"/><text fill="#000000" font-family="sans-serif" font-size="10.9375" font-weight="bold" lengthAdjust="spacing" textLength="140.3877" x="58.5938" y="703.3035">Runtime - instance2 profile</text></g><!--entity H2--><g class="entity" data-entity="H2" data-source-line="37" data-uid="ent0015" id="entity_H2"><path d="M87.1094,115.329 C87.1094,107.5165 149.3237,107.5165 149.3237,107.5165 C149.3237,107.5165 211.5379,107.5165 211.5379,115.329 L211.5379,151.4557 C211.5379,159.2682 149.3237,159.2682 149.3237,159.2682 C149.3237,159.2682 87.1094,159.2682 87.1094,151.4557 L87.1094,115.329" fill="#F1F1F1" style="stroke:#181818;stroke-width:0.3906;"/><path d="M87.1094,115.329 C87.1094,123.1415 149.3237,123.1415 149.3237,123.1415 C149.3237,123.1415 211.5379,123.1415 211.5379,115.329" fill="none" style="stroke:#181818;stroke-width:0.3906;"/><text fill="#000000" font-family="sans-serif" font-size="10.9375" lengthAdjust="spacing" textLength="13.9816" x="111.3441" y="138.0692">H2</text><text fill="#000000" font-family="sans-serif" font-size="10.9375" lengthAdjust="spacing" textLength="3.0388" x="125.3258" y="138.0692">&#160;</text><text fill="#000000" font-family="sans-serif" font-size="10.9375" lengthAdjust="spacing" textLength="58.9386" x="128.3646" y="138.0692">(in-memory)</text><text fill="#000000" font-family="sans-serif" font-size="10.9375" lengthAdjust="spacing" textLength="6.0829" x="94.9219" y="152.6169">1</text><text fill="#000000" font-family="sans-serif" font-size="10.9375" lengthAdjust="spacing" textLength="3.0388" x="101.0048" y="152.6169">&#160;</text><text fill="#000000" font-family="sans-serif" font-size="10.9375" lengthAdjust="spacing" textLength="15.1939" x="104.0436" y="152.6169">DB</text><text fill="#000000" font-family="sans-serif" font-size="10.9375" lengthAdjust="spacing" textLength="3.0388" x="119.2375" y="152.6169">&#160;</text><text fill="#000000" font-family="sans-serif" font-size="10.9375" lengthAdjust="spacing" textLength="15.8081" x="122.2763" y="152.6169">por</text><text fill="#000000" font-family="sans-serif" font-size="10.9375" lengthAdjust="spacing" textLength="3.0388" x="138.0844" y="152.6169">&#160;</text><text fill="#000000" font-family="sans-serif" font-size="10.9375" lengthAdjust="spacing" textLength="34.6443" x="141.1232" y="152.6169">servi&#231;o</text><text fill="#000000" font-family="sans-serif" font-size="10.9375" lengthAdjust="spacing" textLength="3.0388" x="175.7675" y="152.6169">&#160;</text><text fill="#000000" font-family="sans-serif" font-size="10.9375" lengthAdjust="spacing" textLength="24.9191" x="178.8063" y="152.6169">(dev)</text></g><!--entity AUTH1--><g class="entity" data-entity="AUTH1" data-source-line="24" data-uid="ent0006" id="entity_AUTH1"><rect fill="#F1F1F1" height="44.7205" rx="1.9531" ry="1.9531" style="stroke:#181818;stroke-width:0.3906;" width="92.8551" x="391.0156" y="575.0946"/><text fill="#000000" font-family="sans-serif" font-size="10.9375" lengthAdjust="spacing" textLength="43.1786" x="415.8539" y="594.7098">hap-auth</text><text fill="#000000" font-family="sans-serif" font-size="10.9375" lengthAdjust="spacing" textLength="46.8208" x="398.8281" y="609.2575">instance1</text><text fill="#000000" font-family="sans-serif" font-size="10.9375" lengthAdjust="spacing" textLength="3.0388" x="445.649" y="609.2575">&#160;</text><text fill="#000000" font-family="sans-serif" font-size="10.9375" lengthAdjust="spacing" textLength="27.3705" x="448.6877" y="609.2575">:8084</text></g><!--entity PAT1--><g class="entity" data-entity="PAT1" data-source-line="25" data-uid="ent0007" id="entity_PAT1"><rect fill="#F1F1F1" height="44.7205" rx="1.9531" ry="1.9531" style="stroke:#181818;stroke-width:0.3906;" width="92.8551" x="396.4844" y="468.8446"/><text fill="#000000" font-family="sans-serif" font-size="10.9375" lengthAdjust="spacing" textLength="60.199" x="412.8124" y="488.4598">hap-patients</text><text fill="#000000" font-family="sans-serif" font-size="10.9375" lengthAdjust="spacing" textLength="46.8208" x="404.2969" y="503.0075">instance1</text><text fill="#000000" font-family="sans-serif" font-size="10.9375" lengthAdjust="spacing" textLength="3.0388" x="451.1177" y="503.0075">&#160;</text><text fill="#000000" font-family="sans-serif" font-size="10.9375" lengthAdjust="spacing" textLength="27.3705" x="454.1565" y="503.0075">:8082</text></g><!--entity REC1--><g class="entity" data-entity="REC1" data-source-line="26" data-uid="ent0008" id="entity_REC1"><rect fill="#F1F1F1" height="44.7205" rx="1.9531" ry="1.9531" style="stroke:#181818;stroke-width:0.3906;" width="134.1858" x="343.75" y="256.3446"/><text fill="#000000" font-family="sans-serif" font-size="10.9375" lengthAdjust="spacing" textLength="118.5608" x="351.5625" y="275.9598">hap-appointmentrecords</text><text fill="#000000" font-family="sans-serif" font-size="10.9375" lengthAdjust="spacing" textLength="46.8208" x="372.2279" y="290.5075">instance1</text><text fill="#000000" font-family="sans-serif" font-size="10.9375" lengthAdjust="spacing" textLength="3.0388" x="419.0487" y="290.5075">&#160;</text><text fill="#000000" font-family="sans-serif" font-size="10.9375" lengthAdjust="spacing" textLength="27.3705" x="422.0875" y="290.5075">:8083</text></g><!--entity PHY1--><g class="entity" data-entity="PHY1" data-source-line="27" data-uid="ent0009" id="entity_PHY1"><rect fill="#F1F1F1" height="44.7205" rx="1.9531" ry="1.9531" style="stroke:#181818;stroke-width:0.3906;" width="92.8551" x="294.9219" y="362.5946"/><text fill="#000000" font-family="sans-serif" font-size="10.9375" lengthAdjust="spacing" textLength="72.9576" x="304.8706" y="382.2098">hap-physicians</text><text fill="#000000" font-family="sans-serif" font-size="10.9375" lengthAdjust="spacing" textLength="46.8208" x="302.7344" y="396.7575">instance1</text><text fill="#000000" font-family="sans-serif" font-size="10.9375" lengthAdjust="spacing" textLength="3.0388" x="349.5552" y="396.7575">&#160;</text><text fill="#000000" font-family="sans-serif" font-size="10.9375" lengthAdjust="spacing" textLength="27.3705" x="352.594" y="396.7575">:8081</text></g><!--entity AUTH2--><g class="entity" data-entity="AUTH2" data-source-line="31" data-uid="ent0011" id="entity_AUTH2"><rect fill="#F1F1F1" height="44.7205" rx="1.9531" ry="1.9531" style="stroke:#181818;stroke-width:0.3906;" width="92.8551" x="372.2656" y="725.8759"/><text fill="#000000" font-family="sans-serif" font-size="10.9375" lengthAdjust="spacing" textLength="43.1786" x="397.1039" y="745.491">hap-auth</text><text fill="#000000" font-family="sans-serif" font-size="10.9375" lengthAdjust="spacing" textLength="46.8208" x="380.0781" y="760.0388">instance2</text><text fill="#000000" font-family="sans-serif" font-size="10.9375" lengthAdjust="spacing" textLength="3.0388" x="426.899" y="760.0388">&#160;</text><text fill="#000000" font-family="sans-serif" font-size="10.9375" lengthAdjust="spacing" textLength="27.3705" x="429.9377" y="760.0388">:8089</text></g><!--entity PAT2--><g class="entity" data-entity="PAT2" data-source-line="32" data-uid="ent0012" id="entity_PAT2"><rect fill="#F1F1F1" height="44.7205" rx="1.9531" ry="1.9531" style="stroke:#181818;stroke-width:0.3906;" width="92.8551" x="492.5781" y="725.8759"/><text fill="#000000" font-family="sans-serif" font-size="10.9375" lengthAdjust="spacing" textLength="60.199" x="508.9062" y="745.491">hap-patients</text><text fill="#000000" font-family="sans-serif" font-size="10.9375" lengthAdjust="spacing" textLength="46.8208" x="500.3906" y="760.0388">instance2</text><text fill="#000000" font-family="sans-serif" font-size="10.9375" lengthAdjust="spacing" textLength="3.0388" x="547.2115" y="760.0388">&#160;</text><text fill="#000000" font-family="sans-serif" font-size="10.9375" lengthAdjust="spacing" textLength="27.3705" x="550.2502" y="760.0388">:8088</text></g><!--entity REC2--><g class="entity" data-entity="REC2" data-source-line="33" data-uid="ent0013" id="entity_REC2"><rect fill="#F1F1F1" height="44.7205" rx="1.9531" ry="1.9531" style="stroke:#181818;stroke-width:0.3906;" width="134.1858" x="89.8438" y="725.8759"/><text fill="#000000" font-family="sans-serif" font-size="10.9375" lengthAdjust="spacing" textLength="118.5608" x="97.6563" y="745.491">hap-appointmentrecords</text><text fill="#000000" font-family="sans-serif" font-size="10.9375" lengthAdjust="spacing" textLength="46.8208" x="118.3216" y="760.0388">instance2</text><text fill="#000000" font-family="sans-serif" font-size="10.9375" lengthAdjust="spacing" textLength="3.0388" x="165.1424" y="760.0388">&#160;</text><text fill="#000000" font-family="sans-serif" font-size="10.9375" lengthAdjust="spacing" textLength="27.3705" x="168.1812" y="760.0388">:8090</text></g><!--entity PHY2--><g class="entity" data-entity="PHY2" data-source-line="34" data-uid="ent0014" id="entity_PHY2"><rect fill="#F1F1F1" height="44.7205" rx="1.9531" ry="1.9531" style="stroke:#181818;stroke-width:0.3906;" width="92.8551" x="251.9531" y="725.8759"/><text fill="#000000" font-family="sans-serif" font-size="10.9375" lengthAdjust="spacing" textLength="72.9576" x="261.9019" y="745.491">hap-physicians</text><text fill="#000000" font-family="sans-serif" font-size="10.9375" lengthAdjust="spacing" textLength="46.8208" x="259.7656" y="760.0388">instance2</text><text fill="#000000" font-family="sans-serif" font-size="10.9375" lengthAdjust="spacing" textLength="3.0388" x="306.5865" y="760.0388">&#160;</text><text fill="#000000" font-family="sans-serif" font-size="10.9375" lengthAdjust="spacing" textLength="27.3705" x="309.6252" y="760.0388">:8087</text></g><!--entity CLIENT--><g class="entity" data-entity="CLIENT" data-source-line="19" data-uid="ent0002" id="entity_CLIENT"><ellipse cx="723.6286" cy="109.079" fill="#F1F1F1" rx="6.25" ry="6.25" style="stroke:#181818;stroke-width:0.3906;"/><path d="M723.6286,115.329 L723.6286,136.4227 M713.4724,121.579 L733.7849,121.579 M723.6286,136.4227 L713.4724,148.1415 M723.6286,136.4227 L733.7849,148.1415" fill="none" style="stroke:#181818;stroke-width:0.3906;"/><text fill="#000000" font-family="sans-serif" font-size="10.9375" lengthAdjust="spacing" textLength="27.9633" x="661.3281" y="161.116">Client</text><text fill="#000000" font-family="sans-serif" font-size="10.9375" lengthAdjust="spacing" textLength="3.0388" x="689.2914" y="161.116">&#160;</text><text fill="#000000" font-family="sans-serif" font-size="10.9375" lengthAdjust="spacing" textLength="93.5989" x="692.3302" y="161.116">(Browser/Postman)</text></g><!--link CLIENT to PHY1--><g class="link" data-entity-1="CLIENT" data-entity-2="PHY1" data-source-line="42" data-uid="lnk16" id="link_CLIENT_PHY1"><path d="M664.25,164.2743 C651.0938,171.5243 637.3828,179.5243 625,187.5946 C539.6719,243.1962 539.5078,285.204 453.125,339.1571 C433,351.7274 413.1646,360.3796 392.4146,367.9031" fill="none" id="CLIENT-to-PHY1" style="stroke:#181818;stroke-width:0.7813;"/><polygon fill="#181818" points="388.0078,369.5009,395.6832,370.042,391.6801,368.1694,393.5528,364.1663,388.0078,369.5009" style="stroke:#181818;stroke-width:0.7813;"/><text fill="#000000" font-family="sans-serif" font-size="10.1563" lengthAdjust="spacing" textLength="26.5163" x="595.3125" y="282.9292">HTTP</text></g><!--link CLIENT to PAT1--><g class="link" data-entity-1="CLIENT" data-entity-2="PAT1" data-source-line="43" data-uid="lnk17" id="link_CLIENT_PAT1"><path d="M708.9609,164.3524 C691.8438,198.8524 661.4297,256.2352 628.125,300.8759 C589.0625,353.2352 572.2891,360.4696 526.5625,407.1259 C505.9219,428.1884 485.3923,448.5845 468.4548,465.2876" fill="none" id="CLIENT-to-PAT1" style="stroke:#181818;stroke-width:0.7813;"/><polygon fill="#181818" points="465.1172,468.579,472.3178,465.8669,467.8985,465.8362,467.9293,461.4168,465.1172,468.579" style="stroke:#181818;stroke-width:0.7813;"/><text fill="#000000" font-family="sans-serif" font-size="10.1563" lengthAdjust="spacing" textLength="26.5163" x="609.375" y="336.0542">HTTP</text></g><!--link CLIENT to REC1--><g class="link" data-entity-1="CLIENT" data-entity-2="REC1" data-source-line="44" data-uid="lnk18" id="link_CLIENT_REC1"><path d="M661.1875,155.1102 C650.7266,158.3368 639.9453,161.4852 629.6875,164.1571 C578.9531,177.3915 561.0625,164.3446 514.0625,187.5946 C480.0547,204.4227 451.5475,231.8404 432.5084,252.7389" fill="none" id="CLIENT-to-REC1" style="stroke:#181818;stroke-width:0.7813;"/><polygon fill="#181818" points="429.3516,256.204,436.3969,253.1108,431.9823,253.3164,431.7767,248.9017,429.3516,256.204" style="stroke:#181818;stroke-width:0.7813;"/><text fill="#000000" font-family="sans-serif" font-size="10.1563" lengthAdjust="spacing" textLength="26.5163" x="514.8438" y="199.3355">HTTP</text></g><!--link CLIENT to AUTH1--><g class="link" data-entity-1="CLIENT" data-entity-2="AUTH1" data-source-line="45" data-uid="lnk19" id="link_CLIENT_AUTH1"><path d="M722.6563,164.368 C721.9766,193.454 721.0938,238.6415 721.0938,277.829 C721.0938,277.829 721.0938,277.829 721.0938,491.8915 C721.0938,504.3759 568.933,554.6888 488.4799,580.4466" fill="none" id="CLIENT-to-AUTH1" style="stroke:#181818;stroke-width:0.7813;"/><polygon fill="#181818" points="484.0156,581.8759,491.6649,582.7081,487.7359,580.6848,489.7592,576.7557,484.0156,581.8759" style="stroke:#181818;stroke-width:0.7813;"/><text fill="#000000" font-family="sans-serif" font-size="10.1563" lengthAdjust="spacing" textLength="26.5163" x="721.875" y="389.1792">HTTP</text></g><!--link PHY1 to PAT1--><g class="link" data-entity-1="PHY1" data-entity-2="PAT1" data-source-line="48" data-uid="lnk20" id="link_PHY1_PAT1"><path d="M351.8828,407.3212 C358.375,419.3759 367.4922,434.1727 378.125,445.4071 C386.3125,454.0634 392.5702,459.3562 402.3515,466.0984" fill="none" id="PHY1-to-PAT1" style="stroke:#181818;stroke-width:0.7813;"/><polygon fill="#181818" points="406.2109,468.7587,402.1953,462.1952,402.9947,466.5417,398.6482,467.3412,406.2109,468.7587" style="stroke:#181818;stroke-width:0.7813;"/><text fill="#000000" font-family="sans-serif" font-size="10.1563" lengthAdjust="spacing" textLength="56.4247" x="378.9063" y="442.3042">HTTP/REST</text></g><!--link PHY1 to REC1--><g class="link" data-entity-1="PHY1" data-entity-2="REC1" data-source-line="49" data-uid="lnk21" id="link_PHY1_REC1"><path d="M324.3516,362.3524 C317.2734,350.5634 312.2266,336.0399 319.5313,324.3134 C325.5625,314.6337 330.3616,309.4377 340.1429,303.4064" fill="none" id="PHY1-to-REC1" style="stroke:#181818;stroke-width:0.7813;"/><polygon fill="#181818" points="344.1328,300.9462,336.5077,301.9766,340.8078,302.9964,339.788,307.2965,344.1328,300.9462" style="stroke:#181818;stroke-width:0.7813;"/><text fill="#000000" font-family="sans-serif" font-size="10.1563" lengthAdjust="spacing" textLength="56.4247" x="320.3125" y="336.0542">HTTP/REST</text></g><!--link REC1 to PHY1--><g class="link" data-entity-1="REC1" data-entity-2="PHY1" data-source-line="52" data-uid="lnk24" id="link_REC1_PHY1"><path d="M401.4297,301.1259 C395.9453,312.7899 388.5469,327.1884 380.4688,339.1571 C375.0313,347.2118 371.433,351.8954 365.1127,359.0438" fill="none" id="REC1-to-PHY1" style="stroke:#181818;stroke-width:0.7813;"/><polygon fill="#181818" points="362.0078,362.5555,369.0063,359.3579,364.5952,359.6291,364.324,355.218,362.0078,362.5555" style="stroke:#181818;stroke-width:0.7813;"/><text fill="#000000" font-family="sans-serif" font-size="10.1563" lengthAdjust="spacing" textLength="56.4247" x="389.8438" y="336.0542">HTTP/REST</text></g><!--link PAT1 to AUTH1--><g class="link" data-entity-1="PAT1" data-entity-2="AUTH1" data-source-line="50" data-uid="lnk22" id="link_PAT1_AUTH1"><path d="M441.8359,513.579 C440.8984,531.5477 439.8147,552.2729 438.8772,570.2338" fill="none" id="PAT1-to-AUTH1" style="stroke:#181818;stroke-width:0.7813;"/><polygon fill="#181818" points="438.6328,574.9149,442.1201,568.0561,438.8364,571.014,435.8786,567.7303,438.6328,574.9149" style="stroke:#181818;stroke-width:0.7813;"/><text fill="#000000" font-family="sans-serif" font-size="10.1563" lengthAdjust="spacing" textLength="56.4247" x="440.625" y="548.5542">HTTP/REST</text></g><!--link REC1 to PAT1--><g class="link" data-entity-1="REC1" data-entity-2="PAT1" data-source-line="51" data-uid="lnk23" id="link_REC1_PAT1"><path d="M437.3359,300.9618 C443.7266,307.6962 449.6953,315.6571 453.125,324.3134 C472.4219,373.0399 460.536,431.6182 451.2392,464.2042" fill="none" id="REC1-to-PAT1" style="stroke:#181818;stroke-width:0.7813;"/><polygon fill="#181818" points="449.9531,468.7118,454.8873,462.8077,451.0248,464.9554,448.8771,461.093,449.9531,468.7118" style="stroke:#181818;stroke-width:0.7813;"/><text fill="#000000" font-family="sans-serif" font-size="10.1563" lengthAdjust="spacing" textLength="56.4247" x="463.2813" y="389.1792">HTTP/REST</text></g><!--link PHY1 to PHY2--><g class="link" data-entity-1="PHY1" data-entity-2="PHY2" data-source-line="55" data-uid="lnk25" id="link_PHY1_PHY2"><path d="M338.2908,411.8431 C330.658,476.1009 309.2173,656.6352 301.5611,721.0492" fill="none" id="PHY1-PHY2" style="stroke:#181818;stroke-width:0.7813;"/><polygon fill="#181818" points="338.8438,407.1884,334.9112,413.8019,338.383,411.0673,341.1176,414.5391,338.8438,407.1884" style="stroke:#181818;stroke-width:0.7813;"/><polygon fill="#181818" points="301.0078,725.704,304.9409,719.0907,301.4689,721.825,298.7345,718.353,301.0078,725.704" style="stroke:#181818;stroke-width:0.7813;"/><text fill="#000000" font-family="sans-serif" font-size="10.1563" lengthAdjust="spacing" textLength="71.6938" x="323.4375" y="548.5542">Peer forwarding</text></g><!--link PAT1 to PAT2--><g class="link" data-entity-1="PAT1" data-entity-2="PAT2" data-source-line="56" data-uid="lnk26" id="link_PAT1_PAT2"><path d="M484.5308,516.3842 C493.1949,522.8842 497.8672,527.8837 503.9063,536.8134 C543.8828,595.8993 543.9156,680.4947 541.3219,721.151" fill="none" id="PAT1-PAT2" style="stroke:#181818;stroke-width:0.7813;"/><polygon fill="#181818" points="480.7813,513.5712,484.5303,520.2905,483.9059,515.9154,488.281,515.291,480.7813,513.5712" style="stroke:#181818;stroke-width:0.7813;"/><polygon fill="#181818" points="541.0234,725.829,544.5898,719.011,541.2721,721.9307,538.3524,718.613,541.0234,725.829" style="stroke:#181818;stroke-width:0.7813;"/><text fill="#000000" font-family="sans-serif" font-size="10.1563" lengthAdjust="spacing" textLength="71.6938" x="539.8438" y="601.6792">Peer forwarding</text></g><!--link REC1 to REC2--><g class="link" data-entity-1="REC1" data-entity-2="REC2" data-source-line="57" data-uid="lnk27" id="link_REC1_REC2"><path d="M343.9225,302.5176 C274.735,327.2755 177.3438,365.3055 177.3438,384.079 C177.3438,384.079 177.3438,384.079 177.3438,598.1415 C177.3438,631.0009 177.8125,639.4071 173.4375,671.9696 C170.9766,690.2899 167.5208,706.2153 163.8255,721.1997" fill="none" id="REC1-REC2" style="stroke:#181818;stroke-width:0.7813;"/><polygon fill="#181818" points="348.3359,300.9384,340.6629,300.365,344.6581,302.2544,342.7686,306.2496,348.3359,300.9384" style="stroke:#181818;stroke-width:0.7813;"/><polygon fill="#181818" points="162.7031,725.7509,167.4208,719.6724,163.6384,721.9582,161.3526,718.1759,162.7031,725.7509" style="stroke:#181818;stroke-width:0.7813;"/><text fill="#000000" font-family="sans-serif" font-size="10.1563" lengthAdjust="spacing" textLength="71.6938" x="178.125" y="495.4292">Peer forwarding</text></g><!--link AUTH1 to AUTH2--><g class="link" data-entity-1="AUTH1" data-entity-2="AUTH2" data-source-line="58" data-uid="lnk28" id="link_AUTH1_AUTH2"><path d="M434.1892,624.4877 C430.6345,652.7846 425.6244,692.6782 422.0619,720.9829" fill="none" id="AUTH1-AUTH2" style="stroke:#181818;stroke-width:0.7813;"/><polygon fill="#181818" points="434.7734,619.8368,430.7964,626.4237,434.2866,623.7126,436.9977,627.2027,434.7734,619.8368" style="stroke:#181818;stroke-width:0.7813;"/><polygon fill="#181818" points="421.4766,725.6337,425.4551,719.0477,421.9644,721.758,419.2541,718.2672,421.4766,725.6337" style="stroke:#181818;stroke-width:0.7813;"/><text fill="#000000" font-family="sans-serif" font-size="10.1563" lengthAdjust="spacing" textLength="99.3755" x="430.4688" y="668.8667">(redundant endpoints)</text></g><!--link H2 to R1--><!--link H2 to R2--><g class="legend" data-source-line="13"><rect fill="#DDDDDD" height="51.4557" rx="5.8594" ry="5.8594" style="stroke:#000000;stroke-width:0.7813;" width="410.2463" x="9.375" y="854.7821"/><text fill="#000000" font-family="sans-serif" font-size="10.9375" lengthAdjust="spacing" textLength="327.0782" x="50.959" y="870.491">Containers (services) run as Spring Boot apps on a single machine.</text><text fill="#000000" font-family="sans-serif" font-size="10.9375" lengthAdjust="spacing" textLength="311.2595" x="58.8684" y="885.0388">Each service can run two instances (peers) using different ports.</text><text fill="#000000" font-family="sans-serif" font-size="10.9375" lengthAdjust="spacing" textLength="402.4338" x="13.2813" y="899.5865">Communication is HTTP/REST; peers use the same public endpoints (no /internal).</text></g><!--SRC=[bLLTRXCn47xtAKPvIVOXRNO1zOSAgKqY5Qb0rOGYH7bmTsUx5hksPJjDArI9Gt073i9DE0bZU_FJDa1Hf2gTcMzcliypaoxhmcbrQqNEQnYXhjLjWzB1kS0v_FhsdMpNM2iTZBqJHM6LiYuXsAHISmkkGd1p1K9QnsME5deQqTW4L0d8ymfo9HqN4Wqe2Hoia5SrGX7pahMX87ApBhDVXDJSy0PinGirfqWeUMrnpPEhHYj9tKpSBQKnc5DPIhWMKc39PxMRueqxhCML3Btdz0VDMjJSSFr15Aw2T7UmZjO2qXS3nfnmLE1VujmJXTLuXRA06al7XWlU98b5Sor8d0JCZ4ImCD76ipjIoW7NsjxJfbLaYuszVYqMSYu3UhFQCu-5GfGb6j-ZLiRPBMgYQMQI23X15OI5u-dqTFjiF9c-X80a88P7jBn1qBFBMkH07BGIqb5wgM1RUEaahvCjHfx8aJ6UEsMWCwn5c8qZG-E0PlkKb6YuJ3gUvl3azVZjb36f2eJEQFdcRoB343CQdyDN1X1Zbcf2ByrsjWRqIMEkatV3mvCG2L0QtstdR2QTe2_zfI0fQADAKSVKPsaR3wkvWKx5TP_FN7KXLwZztS7kyu0vV3yzJZU3DAb8_zY7m2m0Jm-dVy3H0tir_UpGl2fJFChmBBOx7lwfSfX2mUKZP1fh7t-Co3lsTtso-_faJzCd2wNsblfaJzKd0dSN-cJ_hq_8i3TOw9CzNPzOUsUXJxQkJy4Tl-Gq-PtZ37f2zXjibBbDBcGAeoE_F77jVlvGqADJ5ISmyBvZbACBxTZpd9QGrWHlUADfTGCHlubkjQHfmk8UGB__AZmLx8Szl6UcwTbWzYEnmHo6T67ttHXbRNzrQMc7Qkk9BKQbxSycBDH_K34SX9LdhMZhyQ4FwqPNYDsORkLPCOuU_vj3jmTAPURS55wkItHpHBb-sC91Mb9g6pze4zBZFimHkpneUzaK43ewQ1bk2eZq3XPCVKZFO36J1QUtNbx5n3COqGY1fHD8lKhba55u_rCbYWBbPryYVMJ9s6y0]--></g></svg>