<svg xmlns="http://www.w3.org/2000/svg" xmlns:xlink="http://www.w3.org/1999/xlink" contentStyleType="text/css" height="834.4px" preserveAspectRatio="none" style="width:941px;height:834px;background:#FFFFFF;" version="1.1" viewBox="0 0 941 834" width="941.6px" zoomAndPan="magnify"><title>US13 - SD - Update or Cancel an Appointment</title><defs/><g><text fill="#000000" font-family="sans-serif" font-size="11.2" font-weight="bold" lengthAdjust="spacing" textLength="243.9391" x="350.1346" y="24.0859">US13 - SD - Update or Cancel an Appointment</text><rect fill="#FFFFFF" height="654.8531" style="stroke:#181818;stroke-width:0.8000000000000002;" width="8" x="26.2234" y="106.5938"/><rect fill="#FFFFFF" height="296.3938" style="stroke:#181818;stroke-width:0.8000000000000002;" width="8" x="235.309" y="125.2266"/><rect fill="#FFFFFF" height="296.3938" style="stroke:#181818;stroke-width:0.8000000000000002;" width="8" x="235.309" y="452.2531"/><rect fill="#FFFFFF" height="25.0328" style="stroke:#181818;stroke-width:0.8000000000000002;" width="8" x="383.0656" y="150.2594"/><rect fill="#FFFFFF" height="25.0328" style="stroke:#181818;stroke-width:0.8000000000000002;" width="8" x="383.0656" y="477.2859"/><rect fill="#FFFFFF" height="175.2297" style="stroke:#181818;stroke-width:0.8000000000000002;" width="8" x="519.9258" y="221.3578"/><rect fill="#FFFFFF" height="175.2297" style="stroke:#181818;stroke-width:0.8000000000000002;" width="8" x="519.9258" y="548.3844"/><rect fill="#FFFFFF" height="25.0328" style="stroke:#181818;stroke-width:0.8000000000000002;" width="8" x="682.6203" y="246.3906"/><rect fill="#FFFFFF" height="25.0328" style="stroke:#181818;stroke-width:0.8000000000000002;" width="8" x="682.6203" y="296.4563"/><rect fill="#FFFFFF" height="25.0328" style="stroke:#181818;stroke-width:0.8000000000000002;" width="8" x="682.6203" y="573.4172"/><rect fill="#FFFFFF" height="25.0328" style="stroke:#181818;stroke-width:0.8000000000000002;" width="8" x="682.6203" y="623.4828"/><rect fill="#FFFFFF" height="25.0328" style="stroke:#181818;stroke-width:0.8000000000000002;" width="8" x="846.8789" y="346.5219"/><rect fill="#FFFFFF" height="25.0328" style="stroke:#181818;stroke-width:0.8000000000000002;" width="8" x="846.8789" y="673.5484"/><rect fill="none" height="240.7281" style="stroke:#000000;stroke-width:1.2000000000000002;" width="929.0082" x="8" y="187.2922"/><rect fill="none" height="240.7281" style="stroke:#000000;stroke-width:1.2000000000000002;" width="929.0082" x="8" y="514.3188"/><line style="stroke:#181818;stroke-width:0.4000000000000001;stroke-dasharray:5.0,5.0;" x1="29.6" x2="29.6" y1="98.5938" y2="768.6469"/><line style="stroke:#181818;stroke-width:0.4000000000000001;stroke-dasharray:5.0,5.0;" x1="239.0473" x2="239.0473" y1="98.5938" y2="768.6469"/><line style="stroke:#181818;stroke-width:0.4000000000000001;stroke-dasharray:5.0,5.0;" x1="386.7707" x2="386.7707" y1="98.5938" y2="768.6469"/><line style="stroke:#181818;stroke-width:0.4000000000000001;stroke-dasharray:5.0,5.0;" x1="523.3605" x2="523.3605" y1="98.5938" y2="768.6469"/><line style="stroke:#181818;stroke-width:0.4000000000000001;stroke-dasharray:5.0,5.0;" x1="686.091" x2="686.091" y1="98.5938" y2="768.6469"/><line style="stroke:#181818;stroke-width:0.4000000000000001;stroke-dasharray:5.0,5.0;" x1="850.3496" x2="850.3496" y1="98.5938" y2="768.6469"/><text fill="#000000" font-family="sans-serif" font-size="11.2" lengthAdjust="spacing" textLength="23.6469" x="16" y="95.7828">User</text><ellipse cx="30.2234" cy="42.4969" fill="#E2E2F0" rx="6.4" ry="6.4" style="stroke:#181818;stroke-width:0.4000000000000001;"/><path d="M30.2234,48.8969 L30.2234,70.4969 M19.8234,55.2969 L40.6234,55.2969 M30.2234,70.4969 L19.8234,82.4969 M30.2234,70.4969 L40.6234,82.4969 " fill="none" style="stroke:#181818;stroke-width:0.4000000000000001;"/><text fill="#000000" font-family="sans-serif" font-size="11.2" lengthAdjust="spacing" textLength="23.6469" x="16" y="779.9328">User</text><ellipse cx="30.2234" cy="789.5438" fill="#E2E2F0" rx="6.4" ry="6.4" style="stroke:#181818;stroke-width:0.4000000000000001;"/><path d="M30.2234,795.9438 L30.2234,817.5438 M19.8234,802.3438 L40.6234,802.3438 M30.2234,817.5438 L19.8234,829.5438 M30.2234,817.5438 L40.6234,829.5438 " fill="none" style="stroke:#181818;stroke-width:0.4000000000000001;"/><rect fill="#E2E2F0" height="26.0969" rx="2" ry="2" style="stroke:#181818;stroke-width:0.4000000000000001;" width="174.9234" x="151.8473" y="71.6969"/><text fill="#000000" font-family="sans-serif" font-size="11.2" lengthAdjust="spacing" textLength="163.7234" x="157.4473" y="89.3828">:controller:AppointmentController</text><rect fill="#E2E2F0" height="26.0969" rx="2" ry="2" style="stroke:#181818;stroke-width:0.4000000000000001;" width="174.9234" x="151.8473" y="767.8469"/><text fill="#000000" font-family="sans-serif" font-size="11.2" lengthAdjust="spacing" textLength="163.7234" x="157.4473" y="785.5328">:controller:AppointmentController</text><rect fill="#E2E2F0" height="26.0969" rx="2" ry="2" style="stroke:#181818;stroke-width:0.4000000000000001;" width="104.5898" x="334.7707" y="71.6969"/><text fill="#000000" font-family="sans-serif" font-size="11.2" lengthAdjust="spacing" textLength="93.3898" x="340.3707" y="89.3828">:helper:AuthHelper</text><rect fill="#E2E2F0" height="26.0969" rx="2" ry="2" style="stroke:#181818;stroke-width:0.4000000000000001;" width="104.5898" x="334.7707" y="767.8469"/><text fill="#000000" font-family="sans-serif" font-size="11.2" lengthAdjust="spacing" textLength="93.3898" x="340.3707" y="785.5328">:helper:AuthHelper</text><rect fill="#E2E2F0" height="26.0969" rx="2" ry="2" style="stroke:#181818;stroke-width:0.4000000000000001;" width="153.1305" x="447.3605" y="71.6969"/><text fill="#000000" font-family="sans-serif" font-size="11.2" lengthAdjust="spacing" textLength="141.9305" x="452.9605" y="89.3828">:service:AppointmentService</text><rect fill="#E2E2F0" height="26.0969" rx="2" ry="2" style="stroke:#181818;stroke-width:0.4000000000000001;" width="153.1305" x="447.3605" y="767.8469"/><text fill="#000000" font-family="sans-serif" font-size="11.2" lengthAdjust="spacing" textLength="141.9305" x="452.9605" y="785.5328">:service:AppointmentService</text><rect fill="#E2E2F0" height="26.0969" rx="2" ry="2" style="stroke:#181818;stroke-width:0.4000000000000001;" width="156.2586" x="608.491" y="71.6969"/><text fill="#000000" font-family="sans-serif" font-size="11.2" lengthAdjust="spacing" textLength="145.0586" x="614.091" y="89.3828">:repo:AppointmentRepository</text><rect fill="#E2E2F0" height="26.0969" rx="2" ry="2" style="stroke:#181818;stroke-width:0.4000000000000001;" width="156.2586" x="608.491" y="767.8469"/><text fill="#000000" font-family="sans-serif" font-size="11.2" lengthAdjust="spacing" textLength="145.0586" x="614.091" y="785.5328">:repo:AppointmentRepository</text><rect fill="#E2E2F0" height="26.0969" rx="2" ry="2" style="stroke:#181818;stroke-width:0.4000000000000001;" width="156.2586" x="772.7496" y="71.6969"/><text fill="#000000" font-family="sans-serif" font-size="11.2" lengthAdjust="spacing" textLength="145.0586" x="778.3496" y="89.3828">:mapper:AppointmentMapper</text><rect fill="#E2E2F0" height="26.0969" rx="2" ry="2" style="stroke:#181818;stroke-width:0.4000000000000001;" width="156.2586" x="772.7496" y="767.8469"/><text fill="#000000" font-family="sans-serif" font-size="11.2" lengthAdjust="spacing" textLength="145.0586" x="778.3496" y="785.5328">:mapper:AppointmentMapper</text><rect fill="#FFFFFF" height="654.8531" style="stroke:#181818;stroke-width:0.8000000000000002;" width="8" x="26.2234" y="106.5938"/><rect fill="#FFFFFF" height="296.3938" style="stroke:#181818;stroke-width:0.8000000000000002;" width="8" x="235.309" y="125.2266"/><rect fill="#FFFFFF" height="296.3938" style="stroke:#181818;stroke-width:0.8000000000000002;" width="8" x="235.309" y="452.2531"/><rect fill="#FFFFFF" height="25.0328" style="stroke:#181818;stroke-width:0.8000000000000002;" width="8" x="383.0656" y="150.2594"/><rect fill="#FFFFFF" height="25.0328" style="stroke:#181818;stroke-width:0.8000000000000002;" width="8" x="383.0656" y="477.2859"/><rect fill="#FFFFFF" height="175.2297" style="stroke:#181818;stroke-width:0.8000000000000002;" width="8" x="519.9258" y="221.3578"/><rect fill="#FFFFFF" height="175.2297" style="stroke:#181818;stroke-width:0.8000000000000002;" width="8" x="519.9258" y="548.3844"/><rect fill="#FFFFFF" height="25.0328" style="stroke:#181818;stroke-width:0.8000000000000002;" width="8" x="682.6203" y="246.3906"/><rect fill="#FFFFFF" height="25.0328" style="stroke:#181818;stroke-width:0.8000000000000002;" width="8" x="682.6203" y="296.4563"/><rect fill="#FFFFFF" height="25.0328" style="stroke:#181818;stroke-width:0.8000000000000002;" width="8" x="682.6203" y="573.4172"/><rect fill="#FFFFFF" height="25.0328" style="stroke:#181818;stroke-width:0.8000000000000002;" width="8" x="682.6203" y="623.4828"/><rect fill="#FFFFFF" height="25.0328" style="stroke:#181818;stroke-width:0.8000000000000002;" width="8" x="846.8789" y="346.5219"/><rect fill="#FFFFFF" height="25.0328" style="stroke:#181818;stroke-width:0.8000000000000002;" width="8" x="846.8789" y="673.5484"/><polygon fill="#181818" points="225.709,122.0266,233.709,125.2266,225.709,128.4266,228.909,125.2266" style="stroke:#181818;stroke-width:0.8000000000000002;"/><line style="stroke:#181818;stroke-width:0.8000000000000002;" x1="34.2234" x2="230.509" y1="125.2266" y2="125.2266"/><text fill="#000000" font-family="sans-serif" font-size="10.4" font-weight="bold" lengthAdjust="spacing" textLength="5.784" x="39.8234" y="121.0164">1</text><text fill="#000000" font-family="sans-serif" font-size="10.4" lengthAdjust="spacing" textLength="138.1656" x="48.8074" y="121.0164">PATCH /api/appointments/{id}</text><polygon fill="#181818" points="373.4656,147.0594,381.4656,150.2594,373.4656,153.4594,376.6656,150.2594" style="stroke:#181818;stroke-width:0.8000000000000002;"/><line style="stroke:#181818;stroke-width:0.8000000000000002;" x1="243.309" x2="378.2656" y1="150.2594" y2="150.2594"/><text fill="#000000" font-family="sans-serif" font-size="10.4" font-weight="bold" lengthAdjust="spacing" textLength="5.784" x="248.909" y="146.0492">2</text><text fill="#000000" font-family="sans-serif" font-size="10.4" lengthAdjust="spacing" textLength="78.0203" x="257.893" y="146.0492">getCurrentUser()</text><polygon fill="#181818" points="252.109,172.0922,244.109,175.2922,252.109,178.4922,248.909,175.2922" style="stroke:#181818;stroke-width:0.8000000000000002;"/><line style="stroke:#181818;stroke-width:0.8000000000000002;stroke-dasharray:2.0,2.0;" x1="247.309" x2="386.2656" y1="175.2922" y2="175.2922"/><text fill="#000000" font-family="sans-serif" font-size="10.4" font-weight="bold" lengthAdjust="spacing" textLength="5.784" x="256.909" y="171.082">3</text><text fill="#000000" font-family="sans-serif" font-size="10.4" lengthAdjust="spacing" textLength="49.1156" x="265.893" y="171.082">User (role)</text><path d="M8,187.2922 L56.1367,187.2922 L56.1367,194.725 L48.1367,202.725 L8,202.725 L8,187.2922 " fill="#EEEEEE" style="stroke:#000000;stroke-width:1.2000000000000002;"/><rect fill="none" height="240.7281" style="stroke:#000000;stroke-width:1.2000000000000002;" width="929.0082" x="8" y="187.2922"/><text fill="#000000" font-family="sans-serif" font-size="10.4" font-weight="bold" lengthAdjust="spacing" textLength="12.1367" x="20" y="199.3148">alt</text><text fill="#000000" font-family="sans-serif" font-size="8.8" font-weight="bold" lengthAdjust="spacing" textLength="152.0578" x="68.1367" y="198.3883">[if (user.role == ADMIN or PATIENT)]</text><polygon fill="#181818" points="510.3258,218.1578,518.3258,221.3578,510.3258,224.5578,513.5258,221.3578" style="stroke:#181818;stroke-width:0.8000000000000002;"/><line style="stroke:#181818;stroke-width:0.8000000000000002;" x1="243.309" x2="515.1258" y1="221.3578" y2="221.3578"/><text fill="#000000" font-family="sans-serif" font-size="10.4" font-weight="bold" lengthAdjust="spacing" textLength="5.784" x="248.909" y="217.1477">4</text><text fill="#000000" font-family="sans-serif" font-size="10.4" lengthAdjust="spacing" textLength="170.5641" x="257.893" y="217.1477">updateAppointment(id, updatedData)</text><polygon fill="#181818" points="673.0203,243.1906,681.0203,246.3906,673.0203,249.5906,676.2203,246.3906" style="stroke:#181818;stroke-width:0.8000000000000002;"/><line style="stroke:#181818;stroke-width:0.8000000000000002;" x1="527.9258" x2="677.8203" y1="246.3906" y2="246.3906"/><text fill="#000000" font-family="sans-serif" font-size="10.4" font-weight="bold" lengthAdjust="spacing" textLength="5.784" x="533.5258" y="242.1805">5</text><text fill="#000000" font-family="sans-serif" font-size="10.4" lengthAdjust="spacing" textLength="52.5992" x="542.5098" y="242.1805">findById(id)</text><polygon fill="#181818" points="536.7258,268.2234,528.7258,271.4234,536.7258,274.6234,533.5258,271.4234" style="stroke:#181818;stroke-width:0.8000000000000002;"/><line style="stroke:#181818;stroke-width:0.8000000000000002;stroke-dasharray:2.0,2.0;" x1="531.9258" x2="685.8203" y1="271.4234" y2="271.4234"/><text fill="#000000" font-family="sans-serif" font-size="10.4" font-weight="bold" lengthAdjust="spacing" textLength="5.784" x="541.5258" y="267.2133">6</text><text fill="#000000" font-family="sans-serif" font-size="10.4" lengthAdjust="spacing" textLength="58.3934" x="550.5098" y="267.2133">Appointment</text><polygon fill="#181818" points="673.0203,293.2563,681.0203,296.4563,673.0203,299.6563,676.2203,296.4563" style="stroke:#181818;stroke-width:0.8000000000000002;"/><line style="stroke:#181818;stroke-width:0.8000000000000002;" x1="527.9258" x2="677.8203" y1="296.4563" y2="296.4563"/><text fill="#000000" font-family="sans-serif" font-size="10.4" font-weight="bold" lengthAdjust="spacing" textLength="5.784" x="533.5258" y="292.2461">7</text><text fill="#000000" font-family="sans-serif" font-size="10.4" lengthAdjust="spacing" textLength="124.8813" x="542.5098" y="292.2461">save(updatedAppointment)</text><polygon fill="#181818" points="536.7258,318.2891,528.7258,321.4891,536.7258,324.6891,533.5258,321.4891" style="stroke:#181818;stroke-width:0.8000000000000002;"/><line style="stroke:#181818;stroke-width:0.8000000000000002;stroke-dasharray:2.0,2.0;" x1="531.9258" x2="685.8203" y1="321.4891" y2="321.4891"/><text fill="#000000" font-family="sans-serif" font-size="10.4" font-weight="bold" lengthAdjust="spacing" textLength="5.784" x="541.5258" y="317.2789">8</text><text fill="#000000" font-family="sans-serif" font-size="10.4" lengthAdjust="spacing" textLength="95.9867" x="550.5098" y="317.2789">updatedAppointment</text><polygon fill="#181818" points="837.2789,343.3219,845.2789,346.5219,837.2789,349.7219,840.4789,346.5219" style="stroke:#181818;stroke-width:0.8000000000000002;"/><line style="stroke:#181818;stroke-width:0.8000000000000002;" x1="527.9258" x2="842.0789" y1="346.5219" y2="346.5219"/><text fill="#000000" font-family="sans-serif" font-size="10.4" font-weight="bold" lengthAdjust="spacing" textLength="5.784" x="533.5258" y="342.3117">9</text><text fill="#000000" font-family="sans-serif" font-size="10.4" lengthAdjust="spacing" textLength="133.5395" x="542.5098" y="342.3117">toDTO(updatedAppointment)</text><polygon fill="#181818" points="536.7258,368.3547,528.7258,371.5547,536.7258,374.7547,533.5258,371.5547" style="stroke:#181818;stroke-width:0.8000000000000002;"/><line style="stroke:#181818;stroke-width:0.8000000000000002;stroke-dasharray:2.0,2.0;" x1="531.9258" x2="850.0789" y1="371.5547" y2="371.5547"/><text fill="#000000" font-family="sans-serif" font-size="10.4" font-weight="bold" lengthAdjust="spacing" textLength="11.568" x="541.5258" y="367.3445">10</text><text fill="#000000" font-family="sans-serif" font-size="10.4" lengthAdjust="spacing" textLength="80.3461" x="556.2938" y="367.3445">AppointmentDTO</text><polygon fill="#181818" points="252.109,393.3875,244.109,396.5875,252.109,399.7875,248.909,396.5875" style="stroke:#181818;stroke-width:0.8000000000000002;"/><line style="stroke:#181818;stroke-width:0.8000000000000002;stroke-dasharray:2.0,2.0;" x1="247.309" x2="523.1258" y1="396.5875" y2="396.5875"/><text fill="#000000" font-family="sans-serif" font-size="10.4" font-weight="bold" lengthAdjust="spacing" textLength="11.568" x="256.909" y="392.3773">11</text><text fill="#000000" font-family="sans-serif" font-size="10.4" lengthAdjust="spacing" textLength="80.3461" x="271.677" y="392.3773">AppointmentDTO</text><polygon fill="#181818" points="43.0234,418.4203,35.0234,421.6203,43.0234,424.8203,39.8234,421.6203" style="stroke:#181818;stroke-width:0.8000000000000002;"/><line style="stroke:#181818;stroke-width:0.8000000000000002;stroke-dasharray:2.0,2.0;" x1="38.2234" x2="238.509" y1="421.6203" y2="421.6203"/><text fill="#000000" font-family="sans-serif" font-size="10.4" font-weight="bold" lengthAdjust="spacing" textLength="11.568" x="47.8234" y="417.4102">12</text><text fill="#000000" font-family="sans-serif" font-size="10.4" lengthAdjust="spacing" textLength="35.2676" x="62.5914" y="417.4102">200 OK</text><polygon fill="#181818" points="225.709,449.0531,233.709,452.2531,225.709,455.4531,228.909,452.2531" style="stroke:#181818;stroke-width:0.8000000000000002;"/><line style="stroke:#181818;stroke-width:0.8000000000000002;" x1="34.2234" x2="230.509" y1="452.2531" y2="452.2531"/><text fill="#000000" font-family="sans-serif" font-size="10.4" font-weight="bold" lengthAdjust="spacing" textLength="11.568" x="39.8234" y="448.043">13</text><text fill="#000000" font-family="sans-serif" font-size="10.4" lengthAdjust="spacing" textLength="171.1176" x="54.5914" y="448.043">PATCH /api/appointments/{id}/cancel</text><polygon fill="#181818" points="373.4656,474.0859,381.4656,477.2859,373.4656,480.4859,376.6656,477.2859" style="stroke:#181818;stroke-width:0.8000000000000002;"/><line style="stroke:#181818;stroke-width:0.8000000000000002;" x1="243.309" x2="378.2656" y1="477.2859" y2="477.2859"/><text fill="#000000" font-family="sans-serif" font-size="10.4" font-weight="bold" lengthAdjust="spacing" textLength="11.568" x="248.909" y="473.0758">14</text><text fill="#000000" font-family="sans-serif" font-size="10.4" lengthAdjust="spacing" textLength="78.0203" x="263.677" y="473.0758">getCurrentUser()</text><polygon fill="#181818" points="252.109,499.1188,244.109,502.3188,252.109,505.5188,248.909,502.3188" style="stroke:#181818;stroke-width:0.8000000000000002;"/><line style="stroke:#181818;stroke-width:0.8000000000000002;stroke-dasharray:2.0,2.0;" x1="247.309" x2="386.2656" y1="502.3188" y2="502.3188"/><text fill="#000000" font-family="sans-serif" font-size="10.4" font-weight="bold" lengthAdjust="spacing" textLength="11.568" x="256.909" y="498.1086">15</text><text fill="#000000" font-family="sans-serif" font-size="10.4" lengthAdjust="spacing" textLength="49.1156" x="271.677" y="498.1086">User (role)</text><path d="M8,514.3188 L56.1367,514.3188 L56.1367,521.7516 L48.1367,529.7516 L8,529.7516 L8,514.3188 " fill="#EEEEEE" style="stroke:#000000;stroke-width:1.2000000000000002;"/><rect fill="none" height="240.7281" style="stroke:#000000;stroke-width:1.2000000000000002;" width="929.0082" x="8" y="514.3188"/><text fill="#000000" font-family="sans-serif" font-size="10.4" font-weight="bold" lengthAdjust="spacing" textLength="12.1367" x="20" y="526.3414">alt</text><text fill="#000000" font-family="sans-serif" font-size="8.8" font-weight="bold" lengthAdjust="spacing" textLength="152.0578" x="68.1367" y="525.4148">[if (user.role == ADMIN or PATIENT)]</text><polygon fill="#181818" points="510.3258,545.1844,518.3258,548.3844,510.3258,551.5844,513.5258,548.3844" style="stroke:#181818;stroke-width:0.8000000000000002;"/><line style="stroke:#181818;stroke-width:0.8000000000000002;" x1="243.309" x2="515.1258" y1="548.3844" y2="548.3844"/><text fill="#000000" font-family="sans-serif" font-size="10.4" font-weight="bold" lengthAdjust="spacing" textLength="11.568" x="248.909" y="544.1742">16</text><text fill="#000000" font-family="sans-serif" font-size="10.4" lengthAdjust="spacing" textLength="103.477" x="263.677" y="544.1742">cancelAppointment(id)</text><polygon fill="#181818" points="673.0203,570.2172,681.0203,573.4172,673.0203,576.6172,676.2203,573.4172" style="stroke:#181818;stroke-width:0.8000000000000002;"/><line style="stroke:#181818;stroke-width:0.8000000000000002;" x1="527.9258" x2="677.8203" y1="573.4172" y2="573.4172"/><text fill="#000000" font-family="sans-serif" font-size="10.4" font-weight="bold" lengthAdjust="spacing" textLength="11.568" x="533.5258" y="569.207">17</text><text fill="#000000" font-family="sans-serif" font-size="10.4" lengthAdjust="spacing" textLength="52.5992" x="548.2938" y="569.207">findById(id)</text><polygon fill="#181818" points="536.7258,595.25,528.7258,598.45,536.7258,601.65,533.5258,598.45" style="stroke:#181818;stroke-width:0.8000000000000002;"/><line style="stroke:#181818;stroke-width:0.8000000000000002;stroke-dasharray:2.0,2.0;" x1="531.9258" x2="685.8203" y1="598.45" y2="598.45"/><text fill="#000000" font-family="sans-serif" font-size="10.4" font-weight="bold" lengthAdjust="spacing" textLength="11.568" x="541.5258" y="594.2398">18</text><text fill="#000000" font-family="sans-serif" font-size="10.4" lengthAdjust="spacing" textLength="58.3934" x="556.2938" y="594.2398">Appointment</text><polygon fill="#181818" points="673.0203,620.2828,681.0203,623.4828,673.0203,626.6828,676.2203,623.4828" style="stroke:#181818;stroke-width:0.8000000000000002;"/><line style="stroke:#181818;stroke-width:0.8000000000000002;" x1="527.9258" x2="677.8203" y1="623.4828" y2="623.4828"/><text fill="#000000" font-family="sans-serif" font-size="10.4" font-weight="bold" lengthAdjust="spacing" textLength="11.568" x="533.5258" y="619.2727">19</text><text fill="#000000" font-family="sans-serif" font-size="10.4" lengthAdjust="spacing" textLength="122.1289" x="548.2938" y="619.2727">save(status = "Cancelled")</text><polygon fill="#181818" points="536.7258,645.3156,528.7258,648.5156,536.7258,651.7156,533.5258,648.5156" style="stroke:#181818;stroke-width:0.8000000000000002;"/><line style="stroke:#181818;stroke-width:0.8000000000000002;stroke-dasharray:2.0,2.0;" x1="531.9258" x2="685.8203" y1="648.5156" y2="648.5156"/><text fill="#000000" font-family="sans-serif" font-size="10.4" font-weight="bold" lengthAdjust="spacing" textLength="11.568" x="541.5258" y="644.3055">20</text><text fill="#000000" font-family="sans-serif" font-size="10.4" lengthAdjust="spacing" textLength="58.9723" x="556.2938" y="644.3055">StatusSaved</text><polygon fill="#181818" points="837.2789,670.3484,845.2789,673.5484,837.2789,676.7484,840.4789,673.5484" style="stroke:#181818;stroke-width:0.8000000000000002;"/><line style="stroke:#181818;stroke-width:0.8000000000000002;" x1="527.9258" x2="842.0789" y1="673.5484" y2="673.5484"/><text fill="#000000" font-family="sans-serif" font-size="10.4" font-weight="bold" lengthAdjust="spacing" textLength="11.568" x="533.5258" y="669.3383">21</text><text fill="#000000" font-family="sans-serif" font-size="10.4" lengthAdjust="spacing" textLength="139.8871" x="548.2938" y="669.3383">toDTO(cancelledAppointment)</text><polygon fill="#181818" points="536.7258,695.3813,528.7258,698.5813,536.7258,701.7813,533.5258,698.5813" style="stroke:#181818;stroke-width:0.8000000000000002;"/><line style="stroke:#181818;stroke-width:0.8000000000000002;stroke-dasharray:2.0,2.0;" x1="531.9258" x2="850.0789" y1="698.5813" y2="698.5813"/><text fill="#000000" font-family="sans-serif" font-size="10.4" font-weight="bold" lengthAdjust="spacing" textLength="11.568" x="541.5258" y="694.3711">22</text><text fill="#000000" font-family="sans-serif" font-size="10.4" lengthAdjust="spacing" textLength="80.3461" x="556.2938" y="694.3711">AppointmentDTO</text><polygon fill="#181818" points="252.109,720.4141,244.109,723.6141,252.109,726.8141,248.909,723.6141" style="stroke:#181818;stroke-width:0.8000000000000002;"/><line style="stroke:#181818;stroke-width:0.8000000000000002;stroke-dasharray:2.0,2.0;" x1="247.309" x2="523.1258" y1="723.6141" y2="723.6141"/><text fill="#000000" font-family="sans-serif" font-size="10.4" font-weight="bold" lengthAdjust="spacing" textLength="11.568" x="256.909" y="719.4039">23</text><text fill="#000000" font-family="sans-serif" font-size="10.4" lengthAdjust="spacing" textLength="80.3461" x="271.677" y="719.4039">AppointmentDTO</text><polygon fill="#181818" points="43.0234,745.4469,35.0234,748.6469,43.0234,751.8469,39.8234,748.6469" style="stroke:#181818;stroke-width:0.8000000000000002;"/><line style="stroke:#181818;stroke-width:0.8000000000000002;stroke-dasharray:2.0,2.0;" x1="38.2234" x2="238.509" y1="748.6469" y2="748.6469"/><text fill="#000000" font-family="sans-serif" font-size="10.4" font-weight="bold" lengthAdjust="spacing" textLength="11.568" x="47.8234" y="744.4367">24</text><text fill="#000000" font-family="sans-serif" font-size="10.4" lengthAdjust="spacing" textLength="35.2676" x="62.5914" y="744.4367">200 OK</text><!--SRC=[tLLjIyCm4FwUNt7qKmVM-V9jC66kWaESOhSV49keWIuDwNKWud_tciwQjTkOyzCij3Htzpptv7BNei9CmZmvluG8afWUSoCuIiWjZBbEPGPSmyYON6bSI8sCyH9pdg9QkZ3jrhfSF4jBlXG96CmBQGDck4MLAiCrGZ18Suqspp9f1nxTkB46m0lOw6aHlSdCL2GbljswrnhPB5lX96MfKkadJMfJE-FAtC9RQN8V_4JhGj4stzlu7q-BOi6DMT_slREq2Mghgs9TtQgEZ5LFYAus5mS6y3YQZM-XpusYkmaf-XzAVBBDe8gjAHXHl4eSbzPIK9Kix37F6-r8xQI5j9GzafqXg1S8IpAULZOO3c4Ktq-cLJUHoidDTDPZGDTsLPtZe2obQqdF5IfnihAAc2Fla7vZrnb_3eX8NvGMr-yJGLmTk1SORHFbpyJlinTyASFL3hoOWvHqQPYGJGzjRj2z5DVzI1amZsSF-yXT8VOf6Z5kLR6ZutOp-Cr49Auz1t1nTWOFTqngyRTXwgVkY_WlPghUolfC7UaO5SYnB608GVt7ogG83jAIEAA4ECL10v9-fp_g4Va2]--></g></svg>