<svg xmlns="http://www.w3.org/2000/svg" xmlns:xlink="http://www.w3.org/1999/xlink" contentStyleType="text/css" height="418px" preserveAspectRatio="none" style="width:462px;height:418px;background:#FFFFFF;" version="1.1" viewBox="0 0 462 418" width="462px" zoomAndPan="magnify"><title>US14 - SSD - Record Appointment Details</title><defs/><g><text fill="#000000" font-family="sans-serif" font-size="14" font-weight="bold" lengthAdjust="spacing" textLength="276.9307" x="93.9163" y="30.1074">US14 - SSD - Record Appointment Details</text><rect fill="#FFFFFF" height="193.377" style="stroke:#181818;stroke-width:1.0;" width="10" x="47.9585" y="133.2422"/><rect fill="#FFFFFF" height="31.291" style="stroke:#181818;stroke-width:1.0;" width="10" x="406.1426" y="173.8242"/><rect fill="none" height="98.5039" style="stroke:#000000;stroke-width:1.5;" width="445.7632" x="10" y="220.1152"/><line style="stroke:#181818;stroke-width:0.5;stroke-dasharray:5.0,5.0;" x1="52" x2="52" y1="123.2422" y2="335.6191"/><line style="stroke:#181818;stroke-width:0.5;stroke-dasharray:5.0,5.0;" x1="410.522" x2="410.522" y1="123.2422" y2="335.6191"/><text fill="#000000" font-family="sans-serif" font-size="14" lengthAdjust="spacing" textLength="59.917" x="20" y="119.7285">Physician</text><ellipse cx="52.9585" cy="53.1211" fill="#E2E2F0" rx="8" ry="8" style="stroke:#181818;stroke-width:0.5;"/><path d="M52.9585,61.1211 L52.9585,88.1211 M39.9585,69.1211 L65.9585,69.1211 M52.9585,88.1211 L39.9585,103.1211 M52.9585,88.1211 L65.9585,103.1211 " fill="none" style="stroke:#181818;stroke-width:0.5;"/><text fill="#000000" font-family="sans-serif" font-size="14" lengthAdjust="spacing" textLength="59.917" x="20" y="349.7266">Physician</text><ellipse cx="52.9585" cy="361.7402" fill="#E2E2F0" rx="8" ry="8" style="stroke:#181818;stroke-width:0.5;"/><path d="M52.9585,369.7402 L52.9585,396.7402 M39.9585,377.7402 L65.9585,377.7402 M52.9585,396.7402 L39.9585,411.7402 M52.9585,396.7402 L65.9585,411.7402 " fill="none" style="stroke:#181818;stroke-width:0.5;"/><rect fill="#E2E2F0" height="32.6211" rx="2.5" ry="2.5" style="stroke:#181818;stroke-width:0.5;" width="69.2412" x="376.522" y="89.6211"/><text fill="#000000" font-family="sans-serif" font-size="14" lengthAdjust="spacing" textLength="55.2412" x="383.522" y="111.7285">:RestAPI</text><rect fill="#E2E2F0" height="32.6211" rx="2.5" ry="2.5" style="stroke:#181818;stroke-width:0.5;" width="69.2412" x="376.522" y="334.6191"/><text fill="#000000" font-family="sans-serif" font-size="14" lengthAdjust="spacing" textLength="55.2412" x="383.522" y="356.7266">:RestAPI</text><rect fill="#FFFFFF" height="193.377" style="stroke:#181818;stroke-width:1.0;" width="10" x="47.9585" y="133.2422"/><rect fill="#FFFFFF" height="31.291" style="stroke:#181818;stroke-width:1.0;" width="10" x="406.1426" y="173.8242"/><polygon fill="#181818" points="394.1426,169.8242,404.1426,173.8242,394.1426,177.8242,398.1426,173.8242" style="stroke:#181818;stroke-width:1.0;"/><line style="stroke:#181818;stroke-width:1.0;" x1="57.9585" x2="400.1426" y1="173.8242" y2="173.8242"/><text fill="#000000" font-family="sans-serif" font-size="13" font-weight="bold" lengthAdjust="spacing" textLength="7.23" x="64.9585" y="159.916">1</text><text fill="#000000" font-family="sans-serif" font-size="13" lengthAdjust="spacing" textLength="317.9541" x="76.1885" y="151.2705">POST /api/appointment-records/{appointmentId}/record</text><text fill="#000000" font-family="sans-serif" font-size="13" lengthAdjust="spacing" textLength="179.1943" x="76.1885" y="168.5615">Body: AppointmentRecordDTO</text><polygon fill="#181818" points="68.9585,201.1152,58.9585,205.1152,68.9585,209.1152,64.9585,205.1152" style="stroke:#181818;stroke-width:1.0;"/><line style="stroke:#181818;stroke-width:1.0;stroke-dasharray:2.0,2.0;" x1="62.9585" x2="410.1426" y1="205.1152" y2="205.1152"/><text fill="#000000" font-family="sans-serif" font-size="13" font-weight="bold" lengthAdjust="spacing" textLength="7.23" x="74.9585" y="199.8525">2</text><text fill="#000000" font-family="sans-serif" font-size="13" lengthAdjust="spacing" textLength="237.0215" x="86.1885" y="199.8525">201 Created (AppointmentRecord saved)</text><path d="M10,220.1152 L70.1709,220.1152 L70.1709,229.4063 L60.1709,239.4063 L10,239.4063 L10,220.1152 " fill="#EEEEEE" style="stroke:#000000;stroke-width:1.5;"/><rect fill="none" height="98.5039" style="stroke:#000000;stroke-width:1.5;" width="445.7632" x="10" y="220.1152"/><text fill="#000000" font-family="sans-serif" font-size="13" font-weight="bold" lengthAdjust="spacing" textLength="15.1709" x="25" y="235.1436">alt</text><text fill="#000000" font-family="sans-serif" font-size="11" font-weight="bold" lengthAdjust="spacing" textLength="198.0215" x="85.1709" y="233.9854">[Not authenticated or not a Physician]</text><polygon fill="#181818" points="68.9585,258.6973,58.9585,262.6973,68.9585,266.6973,64.9585,262.6973" style="stroke:#181818;stroke-width:1.0;"/><line style="stroke:#181818;stroke-width:1.0;stroke-dasharray:2.0,2.0;" x1="62.9585" x2="410.1426" y1="262.6973" y2="262.6973"/><text fill="#000000" font-family="sans-serif" font-size="13" font-weight="bold" lengthAdjust="spacing" textLength="7.23" x="74.9585" y="257.4346">3</text><text fill="#000000" font-family="sans-serif" font-size="13" lengthAdjust="spacing" textLength="83.8398" x="86.1885" y="257.4346">403 Forbidden</text><line style="stroke:#000000;stroke-width:1.0;stroke-dasharray:2.0,2.0;" x1="10" x2="455.7632" y1="271.6973" y2="271.6973"/><text fill="#000000" font-family="sans-serif" font-size="11" font-weight="bold" lengthAdjust="spacing" textLength="196.7485" x="15" y="283.5674">[alt Appointment not found or invalid]</text><polygon fill="#181818" points="68.9585,306.6191,58.9585,310.6191,68.9585,314.6191,64.9585,310.6191" style="stroke:#181818;stroke-width:1.0;"/><line style="stroke:#181818;stroke-width:1.0;stroke-dasharray:2.0,2.0;" x1="62.9585" x2="410.1426" y1="310.6191" y2="310.6191"/><text fill="#000000" font-family="sans-serif" font-size="13" font-weight="bold" lengthAdjust="spacing" textLength="7.23" x="74.9585" y="305.3564">4</text><text fill="#000000" font-family="sans-serif" font-size="13" lengthAdjust="spacing" textLength="86.0044" x="86.1885" y="305.3564">404 Not Found</text><!--SRC=[VL31QiCm3BtxAqHEso6atNBAOT0j57fPGztTTb5ZZHeIEzXA88pz-nndom9ZCzZ8ajxJUsBD3S6BtEQGWfHbU4zKMwTWrtLM6sx9C9J4g1il1FPiiMOz81DO4_-cRo_aGgrcwo2fhgFNjKQJY0uTXx33G94K9_Aygmu9e0SvUgOsOcQk1IN44aBwyDK81LH7UOOCEntk8YnrKQlFtbV9W_h8vlohURHgBDPMPdFb-IY-gTCmvMTa0NURBJmv2g8KtFn2WiU1rAt0Xk7PCeG5N4DHrx4_-3TJScK7mlbZKhwvXxrr5wqK6K6D9vXerukVsDviRoArDWCsMlrFcKTP-maZoAXF]--></g></svg>