<svg xmlns="http://www.w3.org/2000/svg" xmlns:xlink="http://www.w3.org/1999/xlink" contentStyleType="text/css" height="762px" preserveAspectRatio="none" style="width:1561px;height:762px;background:#FFFFFF;" version="1.1" viewBox="0 0 1561 762" width="1561px" zoomAndPan="magnify"><title>US14 - SD - Record Appointment Details</title><defs/><g><text fill="#000000" font-family="sans-serif" font-size="14" font-weight="bold" lengthAdjust="spacing" textLength="267.5928" x="645.9985" y="30.1074">US14 - SD - Record Appointment Details</text><rect fill="#FFFFFF" height="367.4922" style="stroke:#181818;stroke-width:1.0;" width="10" x="47.9585" y="133.2422"/><rect fill="#FFFFFF" height="344.2012" style="stroke:#181818;stroke-width:1.0;" width="10" x="325.1846" y="156.5332"/><rect fill="#FFFFFF" height="31.291" style="stroke:#181818;stroke-width:1.0;" width="10" x="532.4458" y="187.8242"/><rect fill="#FFFFFF" height="219.0371" style="stroke:#181818;stroke-width:1.0;" width="10" x="726.0864" y="250.4063"/><rect fill="#FFFFFF" height="31.291" style="stroke:#181818;stroke-width:1.0;" width="10" x="952.02" y="281.6973"/><rect fill="#FFFFFF" height="31.291" style="stroke:#181818;stroke-width:1.0;" width="10" x="1179.9087" y="406.8613"/><rect fill="#FFFFFF" height="31.291" style="stroke:#181818;stroke-width:1.0;" width="10" x="1430.3628" y="344.2793"/><rect fill="none" height="81.873" style="stroke:#000000;stroke-width:1.5;" width="849.3584" x="10" y="515.7344"/><rect fill="none" height="50.582" style="stroke:#000000;stroke-width:1.5;" width="462.0771" x="10" y="611.6074"/><line style="stroke:#181818;stroke-width:0.5;stroke-dasharray:5.0,5.0;" x1="52" x2="52" y1="123.2422" y2="679.1895"/><line style="stroke:#181818;stroke-width:0.5;stroke-dasharray:5.0,5.0;" x1="329.292" x2="329.292" y1="123.2422" y2="679.1895"/><line style="stroke:#181818;stroke-width:0.5;stroke-dasharray:5.0,5.0;" x1="537.0771" x2="537.0771" y1="123.2422" y2="679.1895"/><line style="stroke:#181818;stroke-width:0.5;stroke-dasharray:5.0,5.0;" x1="730.8145" x2="730.8145" y1="123.2422" y2="679.1895"/><line style="stroke:#181818;stroke-width:0.5;stroke-dasharray:5.0,5.0;" x1="956.3584" x2="956.3584" y1="123.2422" y2="679.1895"/><line style="stroke:#181818;stroke-width:0.5;stroke-dasharray:5.0,5.0;" x1="1184.6816" x2="1184.6816" y1="123.2422" y2="679.1895"/><line style="stroke:#181818;stroke-width:0.5;stroke-dasharray:5.0,5.0;" x1="1435.1357" x2="1435.1357" y1="123.2422" y2="679.1895"/><text fill="#000000" font-family="sans-serif" font-size="14" lengthAdjust="spacing" textLength="59.917" x="20" y="119.7285">Physician</text><ellipse cx="52.9585" cy="53.1211" fill="#E2E2F0" rx="8" ry="8" style="stroke:#181818;stroke-width:0.5;"/><path d="M52.9585,61.1211 L52.9585,88.1211 M39.9585,69.1211 L65.9585,69.1211 M52.9585,88.1211 L39.9585,103.1211 M52.9585,88.1211 L65.9585,103.1211 " fill="none" style="stroke:#181818;stroke-width:0.5;"/><text fill="#000000" font-family="sans-serif" font-size="14" lengthAdjust="spacing" textLength="59.917" x="20" y="693.2969">Physician</text><ellipse cx="52.9585" cy="705.3105" fill="#E2E2F0" rx="8" ry="8" style="stroke:#181818;stroke-width:0.5;"/><path d="M52.9585,713.3105 L52.9585,740.3105 M39.9585,721.3105 L65.9585,721.3105 M52.9585,740.3105 L39.9585,755.3105 M52.9585,740.3105 L65.9585,755.3105 " fill="none" style="stroke:#181818;stroke-width:0.5;"/><rect fill="#E2E2F0" height="32.6211" rx="2.5" ry="2.5" style="stroke:#181818;stroke-width:0.5;" width="263.7852" x="198.292" y="89.6211"/><text fill="#000000" font-family="sans-serif" font-size="14" lengthAdjust="spacing" textLength="249.7852" x="205.292" y="111.7285">:controller:AppointmentRecordController</text><rect fill="#E2E2F0" height="32.6211" rx="2.5" ry="2.5" style="stroke:#181818;stroke-width:0.5;" width="263.7852" x="198.292" y="678.1895"/><text fill="#000000" font-family="sans-serif" font-size="14" lengthAdjust="spacing" textLength="249.7852" x="205.292" y="700.2969">:controller:AppointmentRecordController</text><rect fill="#E2E2F0" height="32.6211" rx="2.5" ry="2.5" style="stroke:#181818;stroke-width:0.5;" width="130.7373" x="472.0771" y="89.6211"/><text fill="#000000" font-family="sans-serif" font-size="14" lengthAdjust="spacing" textLength="116.7373" x="479.0771" y="111.7285">:helper:AuthHelper</text><rect fill="#E2E2F0" height="32.6211" rx="2.5" ry="2.5" style="stroke:#181818;stroke-width:0.5;" width="130.7373" x="472.0771" y="678.1895"/><text fill="#000000" font-family="sans-serif" font-size="14" lengthAdjust="spacing" textLength="116.7373" x="479.0771" y="700.2969">:helper:AuthHelper</text><rect fill="#E2E2F0" height="32.6211" rx="2.5" ry="2.5" style="stroke:#181818;stroke-width:0.5;" width="236.5439" x="612.8145" y="89.6211"/><text fill="#000000" font-family="sans-serif" font-size="14" lengthAdjust="spacing" textLength="222.5439" x="619.8145" y="111.7285">:service:AppointmentRecordService</text><rect fill="#E2E2F0" height="32.6211" rx="2.5" ry="2.5" style="stroke:#181818;stroke-width:0.5;" width="236.5439" x="612.8145" y="678.1895"/><text fill="#000000" font-family="sans-serif" font-size="14" lengthAdjust="spacing" textLength="222.5439" x="619.8145" y="700.2969">:service:AppointmentRecordService</text><rect fill="#E2E2F0" height="32.6211" rx="2.5" ry="2.5" style="stroke:#181818;stroke-width:0.5;" width="195.3232" x="859.3584" y="89.6211"/><text fill="#000000" font-family="sans-serif" font-size="14" lengthAdjust="spacing" textLength="181.3232" x="866.3584" y="111.7285">:repo:AppointmentRepository</text><rect fill="#E2E2F0" height="32.6211" rx="2.5" ry="2.5" style="stroke:#181818;stroke-width:0.5;" width="195.3232" x="859.3584" y="678.1895"/><text fill="#000000" font-family="sans-serif" font-size="14" lengthAdjust="spacing" textLength="181.3232" x="866.3584" y="700.2969">:repo:AppointmentRepository</text><rect fill="#E2E2F0" height="32.6211" rx="2.5" ry="2.5" style="stroke:#181818;stroke-width:0.5;" width="240.4541" x="1064.6816" y="89.6211"/><text fill="#000000" font-family="sans-serif" font-size="14" lengthAdjust="spacing" textLength="226.4541" x="1071.6816" y="111.7285">:repo:AppointmentRecordRepository</text><rect fill="#E2E2F0" height="32.6211" rx="2.5" ry="2.5" style="stroke:#181818;stroke-width:0.5;" width="240.4541" x="1064.6816" y="678.1895"/><text fill="#000000" font-family="sans-serif" font-size="14" lengthAdjust="spacing" textLength="226.4541" x="1071.6816" y="700.2969">:repo:AppointmentRecordRepository</text><rect fill="#E2E2F0" height="32.6211" rx="2.5" ry="2.5" style="stroke:#181818;stroke-width:0.5;" width="240.4541" x="1315.1357" y="89.6211"/><text fill="#000000" font-family="sans-serif" font-size="14" lengthAdjust="spacing" textLength="226.4541" x="1322.1357" y="111.7285">:mapper:AppointmentRecordMapper</text><rect fill="#E2E2F0" height="32.6211" rx="2.5" ry="2.5" style="stroke:#181818;stroke-width:0.5;" width="240.4541" x="1315.1357" y="678.1895"/><text fill="#000000" font-family="sans-serif" font-size="14" lengthAdjust="spacing" textLength="226.4541" x="1322.1357" y="700.2969">:mapper:AppointmentRecordMapper</text><rect fill="#FFFFFF" height="367.4922" style="stroke:#181818;stroke-width:1.0;" width="10" x="47.9585" y="133.2422"/><rect fill="#FFFFFF" height="344.2012" style="stroke:#181818;stroke-width:1.0;" width="10" x="325.1846" y="156.5332"/><rect fill="#FFFFFF" height="31.291" style="stroke:#181818;stroke-width:1.0;" width="10" x="532.4458" y="187.8242"/><rect fill="#FFFFFF" height="219.0371" style="stroke:#181818;stroke-width:1.0;" width="10" x="726.0864" y="250.4063"/><rect fill="#FFFFFF" height="31.291" style="stroke:#181818;stroke-width:1.0;" width="10" x="952.02" y="281.6973"/><rect fill="#FFFFFF" height="31.291" style="stroke:#181818;stroke-width:1.0;" width="10" x="1179.9087" y="406.8613"/><rect fill="#FFFFFF" height="31.291" style="stroke:#181818;stroke-width:1.0;" width="10" x="1430.3628" y="344.2793"/><polygon fill="#181818" points="313.1846,152.5332,323.1846,156.5332,313.1846,160.5332,317.1846,156.5332" style="stroke:#181818;stroke-width:1.0;"/><line style="stroke:#181818;stroke-width:1.0;" x1="57.9585" x2="319.1846" y1="156.5332" y2="156.5332"/><text fill="#000000" font-family="sans-serif" font-size="13" font-weight="bold" lengthAdjust="spacing" textLength="7.23" x="64.9585" y="151.2705">1</text><text fill="#000000" font-family="sans-serif" font-size="13" lengthAdjust="spacing" textLength="236.9961" x="76.1885" y="151.2705">POST /api/appointment-records/id/record</text><polygon fill="#181818" points="520.4458,183.8242,530.4458,187.8242,520.4458,191.8242,524.4458,187.8242" style="stroke:#181818;stroke-width:1.0;"/><line style="stroke:#181818;stroke-width:1.0;" x1="335.1846" x2="526.4458" y1="187.8242" y2="187.8242"/><text fill="#000000" font-family="sans-serif" font-size="13" font-weight="bold" lengthAdjust="spacing" textLength="7.23" x="342.1846" y="182.5615">2</text><text fill="#000000" font-family="sans-serif" font-size="13" lengthAdjust="spacing" textLength="97.5254" x="353.4146" y="182.5615">getCurrentUser()</text><polygon fill="#181818" points="346.1846,215.1152,336.1846,219.1152,346.1846,223.1152,342.1846,219.1152" style="stroke:#181818;stroke-width:1.0;"/><line style="stroke:#181818;stroke-width:1.0;stroke-dasharray:2.0,2.0;" x1="340.1846" x2="536.4458" y1="219.1152" y2="219.1152"/><text fill="#000000" font-family="sans-serif" font-size="13" font-weight="bold" lengthAdjust="spacing" textLength="7.23" x="352.1846" y="213.8525">3</text><text fill="#000000" font-family="sans-serif" font-size="13" lengthAdjust="spacing" textLength="78.7363" x="363.4146" y="213.8525">User (role, id)</text><polygon fill="#181818" points="714.0864,246.4063,724.0864,250.4063,714.0864,254.4063,718.0864,250.4063" style="stroke:#181818;stroke-width:1.0;"/><line style="stroke:#181818;stroke-width:1.0;" x1="335.1846" x2="720.0864" y1="250.4063" y2="250.4063"/><text fill="#000000" font-family="sans-serif" font-size="13" font-weight="bold" lengthAdjust="spacing" textLength="7.23" x="342.1846" y="245.1436">4</text><text fill="#000000" font-family="sans-serif" font-size="13" lengthAdjust="spacing" textLength="266.646" x="353.4146" y="245.1436">createRecord(appointmentId, dto, physicianId)</text><polygon fill="#181818" points="940.02,277.6973,950.02,281.6973,940.02,285.6973,944.02,281.6973" style="stroke:#181818;stroke-width:1.0;"/><line style="stroke:#181818;stroke-width:1.0;" x1="736.0864" x2="946.02" y1="281.6973" y2="281.6973"/><text fill="#000000" font-family="sans-serif" font-size="13" font-weight="bold" lengthAdjust="spacing" textLength="7.23" x="743.0864" y="276.4346">5</text><text fill="#000000" font-family="sans-serif" font-size="13" lengthAdjust="spacing" textLength="138.0234" x="754.3164" y="276.4346">findById(appointmentId)</text><polygon fill="#181818" points="747.0864,308.9883,737.0864,312.9883,747.0864,316.9883,743.0864,312.9883" style="stroke:#181818;stroke-width:1.0;"/><line style="stroke:#181818;stroke-width:1.0;stroke-dasharray:2.0,2.0;" x1="741.0864" x2="956.02" y1="312.9883" y2="312.9883"/><text fill="#000000" font-family="sans-serif" font-size="13" font-weight="bold" lengthAdjust="spacing" textLength="7.23" x="753.0864" y="307.7256">6</text><text fill="#000000" font-family="sans-serif" font-size="13" lengthAdjust="spacing" textLength="136.5952" x="764.3164" y="307.7256">Optional&lt;Appointment&gt;</text><polygon fill="#181818" points="1418.3628,340.2793,1428.3628,344.2793,1418.3628,348.2793,1422.3628,344.2793" style="stroke:#181818;stroke-width:1.0;"/><line style="stroke:#181818;stroke-width:1.0;" x1="736.0864" x2="1424.3628" y1="344.2793" y2="344.2793"/><text fill="#000000" font-family="sans-serif" font-size="13" font-weight="bold" lengthAdjust="spacing" textLength="7.23" x="743.0864" y="339.0166">7</text><text fill="#000000" font-family="sans-serif" font-size="13" lengthAdjust="spacing" textLength="82.3672" x="754.3164" y="339.0166">toDomain(dto)</text><polygon fill="#181818" points="747.0864,371.5703,737.0864,375.5703,747.0864,379.5703,743.0864,375.5703" style="stroke:#181818;stroke-width:1.0;"/><line style="stroke:#181818;stroke-width:1.0;stroke-dasharray:2.0,2.0;" x1="741.0864" x2="1434.3628" y1="375.5703" y2="375.5703"/><text fill="#000000" font-family="sans-serif" font-size="13" font-weight="bold" lengthAdjust="spacing" textLength="7.23" x="753.0864" y="370.3076">8</text><text fill="#000000" font-family="sans-serif" font-size="13" lengthAdjust="spacing" textLength="114.8989" x="764.3164" y="370.3076">AppointmentRecord</text><polygon fill="#181818" points="1167.9087,402.8613,1177.9087,406.8613,1167.9087,410.8613,1171.9087,406.8613" style="stroke:#181818;stroke-width:1.0;"/><line style="stroke:#181818;stroke-width:1.0;" x1="736.0864" x2="1173.9087" y1="406.8613" y2="406.8613"/><text fill="#000000" font-family="sans-serif" font-size="13" font-weight="bold" lengthAdjust="spacing" textLength="7.23" x="743.0864" y="401.5986">9</text><text fill="#000000" font-family="sans-serif" font-size="13" lengthAdjust="spacing" textLength="151.0171" x="754.3164" y="401.5986">save(AppointmentRecord)</text><polygon fill="#181818" points="747.0864,434.1523,737.0864,438.1523,747.0864,442.1523,743.0864,438.1523" style="stroke:#181818;stroke-width:1.0;"/><line style="stroke:#181818;stroke-width:1.0;stroke-dasharray:2.0,2.0;" x1="741.0864" x2="1183.9087" y1="438.1523" y2="438.1523"/><text fill="#000000" font-family="sans-serif" font-size="13" font-weight="bold" lengthAdjust="spacing" textLength="14.46" x="753.0864" y="432.8896">10</text><text fill="#000000" font-family="sans-serif" font-size="13" lengthAdjust="spacing" textLength="166.8989" x="771.5464" y="432.8896">AppointmentRecord (with ID)</text><polygon fill="#181818" points="346.1846,465.4434,336.1846,469.4434,346.1846,473.4434,342.1846,469.4434" style="stroke:#181818;stroke-width:1.0;"/><line style="stroke:#181818;stroke-width:1.0;stroke-dasharray:2.0,2.0;" x1="340.1846" x2="730.0864" y1="469.4434" y2="469.4434"/><text fill="#000000" font-family="sans-serif" font-size="13" font-weight="bold" lengthAdjust="spacing" textLength="14.46" x="352.1846" y="464.1807">11</text><text fill="#000000" font-family="sans-serif" font-size="13" lengthAdjust="spacing" textLength="146.6943" x="370.6445" y="464.1807">RecordCreatedResponse</text><polygon fill="#181818" points="63.9585,496.7344,53.9585,500.7344,63.9585,504.7344,59.9585,500.7344" style="stroke:#181818;stroke-width:1.0;"/><line style="stroke:#181818;stroke-width:1.0;stroke-dasharray:2.0,2.0;" x1="57.9585" x2="329.1846" y1="500.7344" y2="500.7344"/><text fill="#000000" font-family="sans-serif" font-size="13" font-weight="bold" lengthAdjust="spacing" textLength="14.46" x="69.9585" y="495.4717">12</text><text fill="#000000" font-family="sans-serif" font-size="13" lengthAdjust="spacing" textLength="71.5508" x="88.4185" y="495.4717">201 Created</text><path d="M10,515.7344 L70.1709,515.7344 L70.1709,525.0254 L60.1709,535.0254 L10,535.0254 L10,515.7344 " fill="#EEEEEE" style="stroke:#000000;stroke-width:1.5;"/><rect fill="none" height="81.873" style="stroke:#000000;stroke-width:1.5;" width="849.3584" x="10" y="515.7344"/><text fill="#000000" font-family="sans-serif" font-size="13" font-weight="bold" lengthAdjust="spacing" textLength="15.1709" x="25" y="530.7627">alt</text><text fill="#000000" font-family="sans-serif" font-size="11" font-weight="bold" lengthAdjust="spacing" textLength="127.0747" x="85.1709" y="529.6045">[appointment not found]</text><polygon fill="#181818" points="341.1846,554.3164,331.1846,558.3164,341.1846,562.3164,337.1846,558.3164" style="stroke:#181818;stroke-width:1.0;"/><line style="stroke:#181818;stroke-width:1.0;stroke-dasharray:2.0,2.0;" x1="335.1846" x2="730.0864" y1="558.3164" y2="558.3164"/><text fill="#000000" font-family="sans-serif" font-size="13" font-weight="bold" lengthAdjust="spacing" textLength="14.46" x="347.1846" y="553.0537">13</text><text fill="#000000" font-family="sans-serif" font-size="13" lengthAdjust="spacing" textLength="86.0044" x="365.6445" y="553.0537">404 Not Found</text><polygon fill="#181818" points="63.9585,585.6074,53.9585,589.6074,63.9585,593.6074,59.9585,589.6074" style="stroke:#181818;stroke-width:1.0;"/><line style="stroke:#181818;stroke-width:1.0;stroke-dasharray:2.0,2.0;" x1="57.9585" x2="329.1846" y1="589.6074" y2="589.6074"/><text fill="#000000" font-family="sans-serif" font-size="13" font-weight="bold" lengthAdjust="spacing" textLength="14.46" x="69.9585" y="584.3447">14</text><text fill="#000000" font-family="sans-serif" font-size="13" lengthAdjust="spacing" textLength="86.0044" x="88.4185" y="584.3447">404 Not Found</text><path d="M10,611.6074 L70.1709,611.6074 L70.1709,620.8984 L60.1709,630.8984 L10,630.8984 L10,611.6074 " fill="#EEEEEE" style="stroke:#000000;stroke-width:1.5;"/><rect fill="none" height="50.582" style="stroke:#000000;stroke-width:1.5;" width="462.0771" x="10" y="611.6074"/><text fill="#000000" font-family="sans-serif" font-size="13" font-weight="bold" lengthAdjust="spacing" textLength="15.1709" x="25" y="626.6357">alt</text><text fill="#000000" font-family="sans-serif" font-size="11" font-weight="bold" lengthAdjust="spacing" textLength="129.8892" x="85.1709" y="625.4775">[user.role != PHYSICIAN]</text><polygon fill="#181818" points="63.9585,650.1895,53.9585,654.1895,63.9585,658.1895,59.9585,654.1895" style="stroke:#181818;stroke-width:1.0;"/><line style="stroke:#181818;stroke-width:1.0;stroke-dasharray:2.0,2.0;" x1="57.9585" x2="329.1846" y1="654.1895" y2="654.1895"/><text fill="#000000" font-family="sans-serif" font-size="13" font-weight="bold" lengthAdjust="spacing" textLength="14.46" x="69.9585" y="648.9268">15</text><text fill="#000000" font-family="sans-serif" font-size="13" lengthAdjust="spacing" textLength="83.8398" x="88.4185" y="648.9268">403 Forbidden</text><!--SRC=[ZL9DRzim3BthLt0vkK2yz2EdO2lG9HZgGzjWNWyxgXQx270aGQOpvD-NjlDXorhRWms9r7kFv2DfAX6Uywivf92l-FSB2-iLt3bdjQ4j6e8LajHb9MHDLXQaTv8Gh6dlfjw-e1U2uzR3PBtPLxhGqao4avxuw2GpJ1Q5DUHjMQ9VzAWxiUKfDm5PGHWCc3POkeQbfirzUsn1vslml4A_qmMELVCkqPCyH082ZyuEqSvMchlTTyAnp8SKZLn050O3ZgrqBZQyXpRUO-W2hIETKoTFX3WT8RqTpHaMi7xAVyDCEitVIIVrxSDgfjMiEueHbEdE3Z3HNwHbxJsZdzc0v4BqicbSkta82Lzn2bfTH3K6FZ6cyCWTTj6aLtAcfg38Ji4T6ywOKGpXJSqnyvZtLHlrOvy5dDn5z7qQgUp9aRP6bjzwaDj81NtF64PsPRTIcuIhFuxWa8ofZBRXlmg3zYgvmsI4FUfzqDa81ya_JHl8LkC9nvq-X5hlMArorbGOyPlHvuLTmFNb5Hn0Gc5ilML9q7CCZ2LujRLH0k1JbSqlv_38e9y3q3irXO1eNSYfjhQQL_nhi-7mvJkix__asJAxU_oSpWrh-1Uj59ftTDu0]--></g></svg>