<svg xmlns="http://www.w3.org/2000/svg" xmlns:xlink="http://www.w3.org/1999/xlink" contentStyleType="text/css" height="673px" preserveAspectRatio="none" style="width:454px;height:673px;background:#FFFFFF;" version="1.1" viewBox="0 0 454 673" width="454px" zoomAndPan="magnify"><title>US05 - SSD - Register a Patient with Photo and Health Concerns</title><defs/><g><text fill="#000000" font-family="sans-serif" font-size="14" font-weight="bold" lengthAdjust="spacing" textLength="426.2959" x="10" y="30.1074">US05 - SSD - Register a Patient with Photo and Health Concerns</text><rect fill="none" height="384.3359" style="stroke:#000000;stroke-width:1.5;" width="376.1016" x="35.5972" y="188.8242"/><rect fill="none" height="300.4629" style="stroke:#000000;stroke-width:1.5;" width="356.1016" x="45.5972" y="265.6973"/><rect fill="none" height="216.5898" style="stroke:#000000;stroke-width:1.5;" width="336.1016" x="55.5972" y="342.5703"/><rect fill="none" height="132.7168" style="stroke:#000000;stroke-width:1.5;" width="316.1016" x="65.5972" y="419.4434"/><line style="stroke:#181818;stroke-width:0.5;stroke-dasharray:5.0,5.0;" x1="131.5972" x2="131.5972" y1="123.2422" y2="590.1602"/><line style="stroke:#181818;stroke-width:0.5;stroke-dasharray:5.0,5.0;" x1="329.3604" x2="329.3604" y1="123.2422" y2="590.1602"/><text fill="#000000" font-family="sans-serif" font-size="14" lengthAdjust="spacing" textLength="107.3789" x="75.5972" y="119.7285">Anonymous User</text><ellipse cx="132.2866" cy="53.1211" fill="#E2E2F0" rx="8" ry="8" style="stroke:#181818;stroke-width:0.5;"/><path d="M132.2866,61.1211 L132.2866,88.1211 M119.2866,69.1211 L145.2866,69.1211 M132.2866,88.1211 L119.2866,103.1211 M132.2866,88.1211 L145.2866,103.1211 " fill="none" style="stroke:#181818;stroke-width:0.5;"/><text fill="#000000" font-family="sans-serif" font-size="14" lengthAdjust="spacing" textLength="107.3789" x="75.5972" y="604.2676">Anonymous User</text><ellipse cx="132.2866" cy="616.2813" fill="#E2E2F0" rx="8" ry="8" style="stroke:#181818;stroke-width:0.5;"/><path d="M132.2866,624.2813 L132.2866,651.2813 M119.2866,632.2813 L145.2866,632.2813 M132.2866,651.2813 L119.2866,666.2813 M132.2866,651.2813 L145.2866,666.2813 " fill="none" style="stroke:#181818;stroke-width:0.5;"/><rect fill="#E2E2F0" height="32.6211" rx="2.5" ry="2.5" style="stroke:#181818;stroke-width:0.5;" width="60.6758" x="299.3604" y="89.6211"/><text fill="#000000" font-family="sans-serif" font-size="14" lengthAdjust="spacing" textLength="46.6758" x="306.3604" y="111.7285">System</text><rect fill="#E2E2F0" height="32.6211" rx="2.5" ry="2.5" style="stroke:#181818;stroke-width:0.5;" width="60.6758" x="299.3604" y="589.1602"/><text fill="#000000" font-family="sans-serif" font-size="14" lengthAdjust="spacing" textLength="46.6758" x="306.3604" y="611.2676">System</text><polygon fill="#181818" points="317.6982,169.8242,327.6982,173.8242,317.6982,177.8242,321.6982,173.8242" style="stroke:#181818;stroke-width:1.0;"/><line style="stroke:#181818;stroke-width:1.0;" x1="132.2866" x2="323.6982" y1="173.8242" y2="173.8242"/><text fill="#000000" font-family="sans-serif" font-size="13" lengthAdjust="spacing" textLength="173.4116" x="139.2866" y="151.2705">POST /api/v2/patients/register</text><text fill="#000000" font-family="sans-serif" font-size="13" lengthAdjust="spacing" textLength="125.7153" x="139.2866" y="168.5615">Body: FullPatientDTO</text><path d="M35.5972,188.8242 L95.7681,188.8242 L95.7681,198.1152 L85.7681,208.1152 L35.5972,208.1152 L35.5972,188.8242 " fill="#EEEEEE" style="stroke:#000000;stroke-width:1.5;"/><rect fill="none" height="384.3359" style="stroke:#000000;stroke-width:1.5;" width="376.1016" x="35.5972" y="188.8242"/><text fill="#000000" font-family="sans-serif" font-size="13" font-weight="bold" lengthAdjust="spacing" textLength="15.1709" x="50.5972" y="203.8525">alt</text><text fill="#000000" font-family="sans-serif" font-size="11" font-weight="bold" lengthAdjust="spacing" textLength="148.543" x="110.7681" y="202.6943">[dataConsentGiven == false]</text><polygon fill="#181818" points="143.2866,244.6973,133.2866,248.6973,143.2866,252.6973,139.2866,248.6973" style="stroke:#181818;stroke-width:1.0;"/><line style="stroke:#181818;stroke-width:1.0;stroke-dasharray:2.0,2.0;" x1="137.2866" x2="328.6982" y1="248.6973" y2="248.6973"/><text fill="#000000" font-family="sans-serif" font-size="13" lengthAdjust="spacing" textLength="100.4644" x="149.2866" y="226.1436">400 Bad Request</text><text fill="#000000" font-family="sans-serif" font-size="13" lengthAdjust="spacing" textLength="150.1411" x="149.2866" y="243.4346">"Data consent is required"</text><line style="stroke:#000000;stroke-width:1.0;stroke-dasharray:2.0,2.0;" x1="35.5972" x2="411.6987" y1="257.6973" y2="257.6973"/><path d="M45.5972,265.6973 L105.7681,265.6973 L105.7681,274.9883 L95.7681,284.9883 L45.5972,284.9883 L45.5972,265.6973 " fill="#EEEEEE" style="stroke:#000000;stroke-width:1.5;"/><rect fill="none" height="300.4629" style="stroke:#000000;stroke-width:1.5;" width="356.1016" x="45.5972" y="265.6973"/><text fill="#000000" font-family="sans-serif" font-size="13" font-weight="bold" lengthAdjust="spacing" textLength="15.1709" x="60.5972" y="280.7256">alt</text><text fill="#000000" font-family="sans-serif" font-size="11" font-weight="bold" lengthAdjust="spacing" textLength="111.2837" x="120.7681" y="279.5674">[email already exists]</text><polygon fill="#181818" points="143.2866,321.5703,133.2866,325.5703,143.2866,329.5703,139.2866,325.5703" style="stroke:#181818;stroke-width:1.0;"/><line style="stroke:#181818;stroke-width:1.0;stroke-dasharray:2.0,2.0;" x1="137.2866" x2="328.6982" y1="325.5703" y2="325.5703"/><text fill="#000000" font-family="sans-serif" font-size="13" lengthAdjust="spacing" textLength="68.6499" x="149.2866" y="303.0166">409 Conflict</text><text fill="#000000" font-family="sans-serif" font-size="13" lengthAdjust="spacing" textLength="126.2866" x="149.2866" y="320.3076">"Email already in use"</text><line style="stroke:#000000;stroke-width:1.0;stroke-dasharray:2.0,2.0;" x1="45.5972" x2="401.6987" y1="334.5703" y2="334.5703"/><path d="M55.5972,342.5703 L115.7681,342.5703 L115.7681,351.8613 L105.7681,361.8613 L55.5972,361.8613 L55.5972,342.5703 " fill="#EEEEEE" style="stroke:#000000;stroke-width:1.5;"/><rect fill="none" height="216.5898" style="stroke:#000000;stroke-width:1.5;" width="336.1016" x="55.5972" y="342.5703"/><text fill="#000000" font-family="sans-serif" font-size="13" font-weight="bold" lengthAdjust="spacing" textLength="15.1709" x="70.5972" y="357.5986">alt</text><text fill="#000000" font-family="sans-serif" font-size="11" font-weight="bold" lengthAdjust="spacing" textLength="133.8584" x="130.7681" y="356.4404">[missing mandatory data]</text><polygon fill="#181818" points="143.2866,398.4434,133.2866,402.4434,143.2866,406.4434,139.2866,402.4434" style="stroke:#181818;stroke-width:1.0;"/><line style="stroke:#181818;stroke-width:1.0;stroke-dasharray:2.0,2.0;" x1="137.2866" x2="328.6982" y1="402.4434" y2="402.4434"/><text fill="#000000" font-family="sans-serif" font-size="13" lengthAdjust="spacing" textLength="100.4644" x="149.2866" y="379.8896">400 Bad Request</text><text fill="#000000" font-family="sans-serif" font-size="13" lengthAdjust="spacing" textLength="133.5166" x="149.2866" y="397.1807">"Missing required data"</text><line style="stroke:#000000;stroke-width:1.0;stroke-dasharray:2.0,2.0;" x1="55.5972" x2="391.6987" y1="411.4434" y2="411.4434"/><path d="M65.5972,419.4434 L125.7681,419.4434 L125.7681,428.7344 L115.7681,438.7344 L65.5972,438.7344 L65.5972,419.4434 " fill="#EEEEEE" style="stroke:#000000;stroke-width:1.5;"/><rect fill="none" height="132.7168" style="stroke:#000000;stroke-width:1.5;" width="316.1016" x="65.5972" y="419.4434"/><text fill="#000000" font-family="sans-serif" font-size="13" font-weight="bold" lengthAdjust="spacing" textLength="15.1709" x="80.5972" y="434.4717">alt</text><text fill="#000000" font-family="sans-serif" font-size="11" font-weight="bold" lengthAdjust="spacing" textLength="235.9307" x="140.7681" y="433.3135">[invalid health concern (e.g. ongoing == false</text><text fill="#000000" font-family="sans-serif" font-size="11" font-weight="bold" lengthAdjust="spacing" textLength="113.0669" x="140.7681" y="447.9443">but no resolvedDate)]</text><polygon fill="#181818" points="143.2866,489.5781,133.2866,493.5781,143.2866,497.5781,139.2866,493.5781" style="stroke:#181818;stroke-width:1.0;"/><line style="stroke:#181818;stroke-width:1.0;stroke-dasharray:2.0,2.0;" x1="137.2866" x2="328.6982" y1="493.5781" y2="493.5781"/><text fill="#000000" font-family="sans-serif" font-size="13" lengthAdjust="spacing" textLength="100.4644" x="149.2866" y="471.0244">400 Bad Request</text><text fill="#000000" font-family="sans-serif" font-size="13" lengthAdjust="spacing" textLength="164.6138" x="149.2866" y="488.3154">"Invalid health concern data"</text><line style="stroke:#000000;stroke-width:1.0;stroke-dasharray:2.0,2.0;" x1="65.5972" x2="381.6987" y1="502.5781" y2="502.5781"/><polygon fill="#181818" points="143.2866,540.1602,133.2866,544.1602,143.2866,548.1602,139.2866,544.1602" style="stroke:#181818;stroke-width:1.0;"/><line style="stroke:#181818;stroke-width:1.0;stroke-dasharray:2.0,2.0;" x1="137.2866" x2="328.6982" y1="544.1602" y2="544.1602"/><text fill="#000000" font-family="sans-serif" font-size="13" lengthAdjust="spacing" textLength="71.5508" x="149.2866" y="521.6064">201 Created</text><text fill="#000000" font-family="sans-serif" font-size="13" lengthAdjust="spacing" textLength="162.6079" x="149.2866" y="538.8975">Body: { patientId, message }</text><!--SRC=[dPB1Qjj048Rl-nG_EZLGnqve3pKaqCH9cqE9gPARBnFjH1vOxRgxAxUYzDqxikIOX49A3bg97V5z_ynkbkmOz-Ni8oOeouMktxcMb3c2iAGix3D-IbvZkGuvWBp5LoQd6vV1LnnzCbJb455yzi5tJMWJxXF7mcmePgbaGqeeoawPJM7CozymEN-gOexbRNc7AMrakZsTRWP_ciOnqyfV1DlDSTqwDuPRtDqQetbWAPD6IhhtHRRiSNQ6HtA93Gw2IMzxcM2E3xCPBiXgxpzQJddbYuNIK0quI4BKYaIsXU41sIkv8N7w5Pbi1_wb6PEM_iVtgH_VevEgbrqzuuX7cxXGqAWQP8sa9Bv6eqT0El1kr_6k_9O6lusuVMCxMh73FMa7iVWjER5O3yTU3SUETtnS7oFuElIO_R1N_g7Dy46vARWjMnqa7usqj-Iy-RVzaFPPtjSDfxCJNEgWCzlzRVgDyQBTsFTeE2Mg6N_sS6_DuTsl-lm5]--></g></svg>