<svg xmlns="http://www.w3.org/2000/svg" xmlns:xlink="http://www.w3.org/1999/xlink" contentStyleType="text/css" height="993px" preserveAspectRatio="none" style="width:1278px;height:993px;background:#FFFFFF;" version="1.1" viewBox="0 0 1278 993" width="1278px" zoomAndPan="magnify"><title>US05 - SD - Register a Patient with Photo and Health Concerns</title><defs/><g><text fill="#000000" font-family="sans-serif" font-size="14" font-weight="bold" lengthAdjust="spacing" textLength="416.958" x="431.7412" y="30.1074">US05 - SD - Register a Patient with Photo and Health Concerns</text><rect fill="#FFFFFF" height="143.4551" style="stroke:#181818;stroke-width:1.0;" width="10" x="101.6895" y="133.2422"/><rect fill="#FFFFFF" height="120.1641" style="stroke:#181818;stroke-width:1.0;" width="10" x="315.3311" y="156.5332"/><rect fill="#FFFFFF" height="57.582" style="stroke:#181818;stroke-width:1.0;" width="10" x="635.1392" y="187.8242"/><rect fill="#FFFFFF" height="31.291" style="stroke:#181818;stroke-width:1.0;" width="10" x="812.6836" y="309.9883"/><rect fill="#FFFFFF" height="31.291" style="stroke:#181818;stroke-width:1.0;" width="10" x="812.6836" y="770.3535"/><rect fill="#FFFFFF" height="31.291" style="stroke:#181818;stroke-width:1.0;" width="10" x="979.4863" y="645.1895"/><rect fill="#FFFFFF" height="31.291" style="stroke:#181818;stroke-width:1.0;" width="10" x="1146.2891" y="707.7715"/><rect fill="none" height="690.4023" style="stroke:#000000;stroke-width:1.5;" width="1261.4404" x="10" y="202.8242"/><rect fill="none" height="529.9473" style="stroke:#000000;stroke-width:1.5;" width="1241.4404" x="20" y="356.2793"/><rect fill="none" height="432.0742" style="stroke:#000000;stroke-width:1.5;" width="1221.4404" x="30" y="447.1523"/><rect fill="none" height="334.2012" style="stroke:#000000;stroke-width:1.5;" width="1201.4404" x="40" y="538.0254"/><line style="stroke:#181818;stroke-width:0.5;stroke-dasharray:5.0,5.0;" x1="106" x2="106" y1="123.2422" y2="910.2266"/><line style="stroke:#181818;stroke-width:0.5;stroke-dasharray:5.0,5.0;" x1="319.5142" x2="319.5142" y1="123.2422" y2="910.2266"/><line style="stroke:#181818;stroke-width:0.5;stroke-dasharray:5.0,5.0;" x1="639.9429" x2="639.9429" y1="123.2422" y2="910.2266"/><line style="stroke:#181818;stroke-width:0.5;stroke-dasharray:5.0,5.0;" x1="817.5322" x2="817.5322" y1="123.2422" y2="910.2266"/><line style="stroke:#181818;stroke-width:0.5;stroke-dasharray:5.0,5.0;" x1="983.835" x2="983.835" y1="123.2422" y2="910.2266"/><line style="stroke:#181818;stroke-width:0.5;stroke-dasharray:5.0,5.0;" x1="1151.1377" x2="1151.1377" y1="123.2422" y2="910.2266"/><text fill="#000000" font-family="sans-serif" font-size="14" lengthAdjust="spacing" textLength="107.3789" x="50" y="119.7285">Anonymous User</text><ellipse cx="106.6895" cy="53.1211" fill="#E2E2F0" rx="8" ry="8" style="stroke:#181818;stroke-width:0.5;"/><path d="M106.6895,61.1211 L106.6895,88.1211 M93.6895,69.1211 L119.6895,69.1211 M106.6895,88.1211 L93.6895,103.1211 M106.6895,88.1211 L119.6895,103.1211 " fill="none" style="stroke:#181818;stroke-width:0.5;"/><text fill="#000000" font-family="sans-serif" font-size="14" lengthAdjust="spacing" textLength="107.3789" x="50" y="924.334">Anonymous User</text><ellipse cx="106.6895" cy="936.3477" fill="#E2E2F0" rx="8" ry="8" style="stroke:#181818;stroke-width:0.5;"/><path d="M106.6895,944.3477 L106.6895,971.3477 M93.6895,952.3477 L119.6895,952.3477 M106.6895,971.3477 L93.6895,986.3477 M106.6895,971.3477 L119.6895,986.3477 " fill="none" style="stroke:#181818;stroke-width:0.5;"/><rect fill="#E2E2F0" height="32.6211" rx="2.5" ry="2.5" style="stroke:#181818;stroke-width:0.5;" width="183.6338" x="228.5142" y="89.6211"/><text fill="#000000" font-family="sans-serif" font-size="14" lengthAdjust="spacing" textLength="169.6338" x="235.5142" y="111.7285">:controller:PatientController</text><rect fill="#E2E2F0" height="32.6211" rx="2.5" ry="2.5" style="stroke:#181818;stroke-width:0.5;" width="183.6338" x="228.5142" y="909.2266"/><text fill="#000000" font-family="sans-serif" font-size="14" lengthAdjust="spacing" textLength="169.6338" x="235.5142" y="931.334">:controller:PatientController</text><rect fill="#E2E2F0" height="32.6211" rx="2.5" ry="2.5" style="stroke:#181818;stroke-width:0.5;" width="156.3926" x="561.9429" y="89.6211"/><text fill="#000000" font-family="sans-serif" font-size="14" lengthAdjust="spacing" textLength="142.3926" x="568.9429" y="111.7285">:service:PatientService</text><rect fill="#E2E2F0" height="32.6211" rx="2.5" ry="2.5" style="stroke:#181818;stroke-width:0.5;" width="156.3926" x="561.9429" y="909.2266"/><text fill="#000000" font-family="sans-serif" font-size="14" lengthAdjust="spacing" textLength="142.3926" x="568.9429" y="931.334">:service:PatientService</text><rect fill="#E2E2F0" height="32.6211" rx="2.5" ry="2.5" style="stroke:#181818;stroke-width:0.5;" width="160.3027" x="737.5322" y="89.6211"/><text fill="#000000" font-family="sans-serif" font-size="14" lengthAdjust="spacing" textLength="146.3027" x="744.5322" y="111.7285">:repo:PatientRepository</text><rect fill="#E2E2F0" height="32.6211" rx="2.5" ry="2.5" style="stroke:#181818;stroke-width:0.5;" width="160.3027" x="737.5322" y="909.2266"/><text fill="#000000" font-family="sans-serif" font-size="14" lengthAdjust="spacing" textLength="146.3027" x="744.5322" y="931.334">:repo:PatientRepository</text><rect fill="#E2E2F0" height="32.6211" rx="2.5" ry="2.5" style="stroke:#181818;stroke-width:0.5;" width="153.3027" x="907.835" y="89.6211"/><text fill="#000000" font-family="sans-serif" font-size="14" lengthAdjust="spacing" textLength="139.3027" x="914.835" y="111.7285">:repo:PhotoRepository</text><rect fill="#E2E2F0" height="32.6211" rx="2.5" ry="2.5" style="stroke:#181818;stroke-width:0.5;" width="153.3027" x="907.835" y="909.2266"/><text fill="#000000" font-family="sans-serif" font-size="14" lengthAdjust="spacing" textLength="139.3027" x="914.835" y="931.334">:repo:PhotoRepository</text><rect fill="#E2E2F0" height="32.6211" rx="2.5" ry="2.5" style="stroke:#181818;stroke-width:0.5;" width="160.3027" x="1071.1377" y="89.6211"/><text fill="#000000" font-family="sans-serif" font-size="14" lengthAdjust="spacing" textLength="146.3027" x="1078.1377" y="111.7285">:mapper:PatientMapper</text><rect fill="#E2E2F0" height="32.6211" rx="2.5" ry="2.5" style="stroke:#181818;stroke-width:0.5;" width="160.3027" x="1071.1377" y="909.2266"/><text fill="#000000" font-family="sans-serif" font-size="14" lengthAdjust="spacing" textLength="146.3027" x="1078.1377" y="931.334">:mapper:PatientMapper</text><rect fill="#FFFFFF" height="143.4551" style="stroke:#181818;stroke-width:1.0;" width="10" x="101.6895" y="133.2422"/><rect fill="#FFFFFF" height="120.1641" style="stroke:#181818;stroke-width:1.0;" width="10" x="315.3311" y="156.5332"/><rect fill="#FFFFFF" height="57.582" style="stroke:#181818;stroke-width:1.0;" width="10" x="635.1392" y="187.8242"/><rect fill="#FFFFFF" height="31.291" style="stroke:#181818;stroke-width:1.0;" width="10" x="812.6836" y="309.9883"/><rect fill="#FFFFFF" height="31.291" style="stroke:#181818;stroke-width:1.0;" width="10" x="812.6836" y="770.3535"/><rect fill="#FFFFFF" height="31.291" style="stroke:#181818;stroke-width:1.0;" width="10" x="979.4863" y="645.1895"/><rect fill="#FFFFFF" height="31.291" style="stroke:#181818;stroke-width:1.0;" width="10" x="1146.2891" y="707.7715"/><polygon fill="#181818" points="303.3311,152.5332,313.3311,156.5332,303.3311,160.5332,307.3311,156.5332" style="stroke:#181818;stroke-width:1.0;"/><line style="stroke:#181818;stroke-width:1.0;" x1="111.6895" x2="309.3311" y1="156.5332" y2="156.5332"/><text fill="#000000" font-family="sans-serif" font-size="13" font-weight="bold" lengthAdjust="spacing" textLength="7.23" x="118.6895" y="151.2705">1</text><text fill="#000000" font-family="sans-serif" font-size="13" lengthAdjust="spacing" textLength="173.4116" x="129.9194" y="151.2705">POST /api/v2/patients/register</text><polygon fill="#181818" points="623.1392,183.8242,633.1392,187.8242,623.1392,191.8242,627.1392,187.8242" style="stroke:#181818;stroke-width:1.0;"/><line style="stroke:#181818;stroke-width:1.0;" x1="325.3311" x2="629.1392" y1="187.8242" y2="187.8242"/><text fill="#000000" font-family="sans-serif" font-size="13" font-weight="bold" lengthAdjust="spacing" textLength="7.23" x="332.3311" y="182.5615">2</text><text fill="#000000" font-family="sans-serif" font-size="13" lengthAdjust="spacing" textLength="110.5508" x="343.561" y="182.5615">registerPatient(dto)</text><path d="M10,202.8242 L70.1709,202.8242 L70.1709,212.1152 L60.1709,222.1152 L10,222.1152 L10,202.8242 " fill="#EEEEEE" style="stroke:#000000;stroke-width:1.5;"/><rect fill="none" height="690.4023" style="stroke:#000000;stroke-width:1.5;" width="1261.4404" x="10" y="202.8242"/><text fill="#000000" font-family="sans-serif" font-size="13" font-weight="bold" lengthAdjust="spacing" textLength="15.1709" x="25" y="217.8525">alt</text><text fill="#000000" font-family="sans-serif" font-size="11" font-weight="bold" lengthAdjust="spacing" textLength="148.543" x="85.1709" y="216.6943">[dataConsentGiven == false]</text><polygon fill="#181818" points="336.3311,241.4063,326.3311,245.4063,336.3311,249.4063,332.3311,245.4063" style="stroke:#181818;stroke-width:1.0;"/><line style="stroke:#181818;stroke-width:1.0;stroke-dasharray:2.0,2.0;" x1="330.3311" x2="639.1392" y1="245.4063" y2="245.4063"/><text fill="#000000" font-family="sans-serif" font-size="13" font-weight="bold" lengthAdjust="spacing" textLength="7.23" x="342.3311" y="240.1436">3</text><text fill="#000000" font-family="sans-serif" font-size="13" lengthAdjust="spacing" textLength="262.8755" x="353.561" y="240.1436">400 Bad Request ("Data consent is required")</text><polygon fill="#181818" points="117.6895,272.6973,107.6895,276.6973,117.6895,280.6973,113.6895,276.6973" style="stroke:#181818;stroke-width:1.0;"/><line style="stroke:#181818;stroke-width:1.0;stroke-dasharray:2.0,2.0;" x1="111.6895" x2="319.3311" y1="276.6973" y2="276.6973"/><text fill="#000000" font-family="sans-serif" font-size="13" font-weight="bold" lengthAdjust="spacing" textLength="7.23" x="123.6895" y="271.4346">4</text><text fill="#000000" font-family="sans-serif" font-size="13" lengthAdjust="spacing" textLength="100.4644" x="134.9194" y="271.4346">400 Bad Request</text><line style="stroke:#000000;stroke-width:1.0;stroke-dasharray:2.0,2.0;" x1="10" x2="1271.4404" y1="285.6973" y2="285.6973"/><polygon fill="#181818" points="800.6836,305.9883,810.6836,309.9883,800.6836,313.9883,804.6836,309.9883" style="stroke:#181818;stroke-width:1.0;"/><line style="stroke:#181818;stroke-width:1.0;" x1="640.1392" x2="806.6836" y1="309.9883" y2="309.9883"/><text fill="#000000" font-family="sans-serif" font-size="13" font-weight="bold" lengthAdjust="spacing" textLength="7.23" x="647.1392" y="304.7256">5</text><text fill="#000000" font-family="sans-serif" font-size="13" lengthAdjust="spacing" textLength="142.3145" x="658.3691" y="304.7256">existsByEmail(dto.email)</text><polygon fill="#181818" points="651.1392,337.2793,641.1392,341.2793,651.1392,345.2793,647.1392,341.2793" style="stroke:#181818;stroke-width:1.0;"/><line style="stroke:#181818;stroke-width:1.0;stroke-dasharray:2.0,2.0;" x1="645.1392" x2="816.6836" y1="341.2793" y2="341.2793"/><text fill="#000000" font-family="sans-serif" font-size="13" font-weight="bold" lengthAdjust="spacing" textLength="7.23" x="657.1392" y="336.0166">6</text><text fill="#000000" font-family="sans-serif" font-size="13" lengthAdjust="spacing" textLength="125.7153" x="668.3691" y="336.0166">Boolean (emailExists)</text><path d="M20,356.2793 L80.1709,356.2793 L80.1709,365.5703 L70.1709,375.5703 L20,375.5703 L20,356.2793 " fill="#EEEEEE" style="stroke:#000000;stroke-width:1.5;"/><rect fill="none" height="529.9473" style="stroke:#000000;stroke-width:1.5;" width="1241.4404" x="20" y="356.2793"/><text fill="#000000" font-family="sans-serif" font-size="13" font-weight="bold" lengthAdjust="spacing" textLength="15.1709" x="35" y="371.3076">alt</text><text fill="#000000" font-family="sans-serif" font-size="11" font-weight="bold" lengthAdjust="spacing" textLength="111.2837" x="95.1709" y="370.1494">[email already exists]</text><polygon fill="#181818" points="331.3311,394.8613,321.3311,398.8613,331.3311,402.8613,327.3311,398.8613" style="stroke:#181818;stroke-width:1.0;"/><line style="stroke:#181818;stroke-width:1.0;stroke-dasharray:2.0,2.0;" x1="325.3311" x2="639.1392" y1="398.8613" y2="398.8613"/><text fill="#000000" font-family="sans-serif" font-size="13" font-weight="bold" lengthAdjust="spacing" textLength="7.23" x="337.3311" y="393.5986">7</text><text fill="#000000" font-family="sans-serif" font-size="13" lengthAdjust="spacing" textLength="207.2065" x="348.561" y="393.5986">409 Conflict ("Email already in use")</text><polygon fill="#181818" points="117.6895,426.1523,107.6895,430.1523,117.6895,434.1523,113.6895,430.1523" style="stroke:#181818;stroke-width:1.0;"/><line style="stroke:#181818;stroke-width:1.0;stroke-dasharray:2.0,2.0;" x1="111.6895" x2="319.3311" y1="430.1523" y2="430.1523"/><text fill="#000000" font-family="sans-serif" font-size="13" font-weight="bold" lengthAdjust="spacing" textLength="7.23" x="123.6895" y="424.8896">8</text><text fill="#000000" font-family="sans-serif" font-size="13" lengthAdjust="spacing" textLength="68.6499" x="134.9194" y="424.8896">409 Conflict</text><line style="stroke:#000000;stroke-width:1.0;stroke-dasharray:2.0,2.0;" x1="20" x2="1261.4404" y1="439.1523" y2="439.1523"/><path d="M30,447.1523 L90.1709,447.1523 L90.1709,456.4434 L80.1709,466.4434 L30,466.4434 L30,447.1523 " fill="#EEEEEE" style="stroke:#000000;stroke-width:1.5;"/><rect fill="none" height="432.0742" style="stroke:#000000;stroke-width:1.5;" width="1221.4404" x="30" y="447.1523"/><text fill="#000000" font-family="sans-serif" font-size="13" font-weight="bold" lengthAdjust="spacing" textLength="15.1709" x="45" y="462.1807">alt</text><text fill="#000000" font-family="sans-serif" font-size="11" font-weight="bold" lengthAdjust="spacing" textLength="252.4521" x="105.1709" y="461.0225">[missing required health concerns or insurance]</text><polygon fill="#181818" points="331.3311,485.7344,321.3311,489.7344,331.3311,493.7344,327.3311,489.7344" style="stroke:#181818;stroke-width:1.0;"/><line style="stroke:#181818;stroke-width:1.0;stroke-dasharray:2.0,2.0;" x1="325.3311" x2="639.1392" y1="489.7344" y2="489.7344"/><text fill="#000000" font-family="sans-serif" font-size="13" font-weight="bold" lengthAdjust="spacing" textLength="7.23" x="337.3311" y="484.4717">9</text><text fill="#000000" font-family="sans-serif" font-size="13" lengthAdjust="spacing" textLength="246.251" x="348.561" y="484.4717">400 Bad Request ("Missing required data")</text><polygon fill="#181818" points="117.6895,517.0254,107.6895,521.0254,117.6895,525.0254,113.6895,521.0254" style="stroke:#181818;stroke-width:1.0;"/><line style="stroke:#181818;stroke-width:1.0;stroke-dasharray:2.0,2.0;" x1="111.6895" x2="319.3311" y1="521.0254" y2="521.0254"/><text fill="#000000" font-family="sans-serif" font-size="13" font-weight="bold" lengthAdjust="spacing" textLength="14.46" x="123.6895" y="515.7627">10</text><text fill="#000000" font-family="sans-serif" font-size="13" lengthAdjust="spacing" textLength="100.4644" x="142.1494" y="515.7627">400 Bad Request</text><line style="stroke:#000000;stroke-width:1.0;stroke-dasharray:2.0,2.0;" x1="30" x2="1251.4404" y1="530.0254" y2="530.0254"/><path d="M40,538.0254 L100.1709,538.0254 L100.1709,547.3164 L90.1709,557.3164 L40,557.3164 L40,538.0254 " fill="#EEEEEE" style="stroke:#000000;stroke-width:1.5;"/><rect fill="none" height="334.2012" style="stroke:#000000;stroke-width:1.5;" width="1201.4404" x="40" y="538.0254"/><text fill="#000000" font-family="sans-serif" font-size="13" font-weight="bold" lengthAdjust="spacing" textLength="15.1709" x="55" y="553.0537">alt</text><text fill="#000000" font-family="sans-serif" font-size="11" font-weight="bold" lengthAdjust="spacing" textLength="382.6152" x="115.1709" y="551.8955">[some healthConcern invalid (e.g. ongoing == false but no resolvedDate)]</text><polygon fill="#181818" points="331.3311,576.6074,321.3311,580.6074,331.3311,584.6074,327.3311,580.6074" style="stroke:#181818;stroke-width:1.0;"/><line style="stroke:#181818;stroke-width:1.0;stroke-dasharray:2.0,2.0;" x1="325.3311" x2="639.1392" y1="580.6074" y2="580.6074"/><text fill="#000000" font-family="sans-serif" font-size="13" font-weight="bold" lengthAdjust="spacing" textLength="14.46" x="337.3311" y="575.3447">11</text><text fill="#000000" font-family="sans-serif" font-size="13" lengthAdjust="spacing" textLength="277.3481" x="355.791" y="575.3447">400 Bad Request ("Invalid health concern data")</text><polygon fill="#181818" points="117.6895,607.8984,107.6895,611.8984,117.6895,615.8984,113.6895,611.8984" style="stroke:#181818;stroke-width:1.0;"/><line style="stroke:#181818;stroke-width:1.0;stroke-dasharray:2.0,2.0;" x1="111.6895" x2="319.3311" y1="611.8984" y2="611.8984"/><text fill="#000000" font-family="sans-serif" font-size="13" font-weight="bold" lengthAdjust="spacing" textLength="14.46" x="123.6895" y="606.6357">12</text><text fill="#000000" font-family="sans-serif" font-size="13" lengthAdjust="spacing" textLength="100.4644" x="142.1494" y="606.6357">400 Bad Request</text><line style="stroke:#000000;stroke-width:1.0;stroke-dasharray:2.0,2.0;" x1="40" x2="1241.4404" y1="620.8984" y2="620.8984"/><polygon fill="#181818" points="967.4863,641.1895,977.4863,645.1895,967.4863,649.1895,971.4863,645.1895" style="stroke:#181818;stroke-width:1.0;"/><line style="stroke:#181818;stroke-width:1.0;" x1="640.1392" x2="973.4863" y1="645.1895" y2="645.1895"/><text fill="#000000" font-family="sans-serif" font-size="13" font-weight="bold" lengthAdjust="spacing" textLength="14.46" x="647.1392" y="639.9268">13</text><text fill="#000000" font-family="sans-serif" font-size="13" lengthAdjust="spacing" textLength="68.6499" x="665.5991" y="639.9268">save(photo)</text><polygon fill="#181818" points="651.1392,672.4805,641.1392,676.4805,651.1392,680.4805,647.1392,676.4805" style="stroke:#181818;stroke-width:1.0;"/><line style="stroke:#181818;stroke-width:1.0;stroke-dasharray:2.0,2.0;" x1="645.1392" x2="983.4863" y1="676.4805" y2="676.4805"/><text fill="#000000" font-family="sans-serif" font-size="13" font-weight="bold" lengthAdjust="spacing" textLength="14.46" x="657.1392" y="671.2178">14</text><text fill="#000000" font-family="sans-serif" font-size="13" lengthAdjust="spacing" textLength="33.9727" x="675.5991" y="671.2178">Photo</text><polygon fill="#181818" points="1134.2891,703.7715,1144.2891,707.7715,1134.2891,711.7715,1138.2891,707.7715" style="stroke:#181818;stroke-width:1.0;"/><line style="stroke:#181818;stroke-width:1.0;" x1="640.1392" x2="1140.2891" y1="707.7715" y2="707.7715"/><text fill="#000000" font-family="sans-serif" font-size="13" font-weight="bold" lengthAdjust="spacing" textLength="14.46" x="647.1392" y="702.5088">15</text><text fill="#000000" font-family="sans-serif" font-size="13" lengthAdjust="spacing" textLength="82.3672" x="665.5991" y="702.5088">toDomain(dto)</text><polygon fill="#181818" points="651.1392,735.0625,641.1392,739.0625,651.1392,743.0625,647.1392,739.0625" style="stroke:#181818;stroke-width:1.0;"/><line style="stroke:#181818;stroke-width:1.0;stroke-dasharray:2.0,2.0;" x1="645.1392" x2="1150.2891" y1="739.0625" y2="739.0625"/><text fill="#000000" font-family="sans-serif" font-size="13" font-weight="bold" lengthAdjust="spacing" textLength="14.46" x="657.1392" y="733.7998">16</text><text fill="#000000" font-family="sans-serif" font-size="13" lengthAdjust="spacing" textLength="40.4727" x="675.5991" y="733.7998">Patient</text><polygon fill="#181818" points="800.6836,766.3535,810.6836,770.3535,800.6836,774.3535,804.6836,770.3535" style="stroke:#181818;stroke-width:1.0;"/><line style="stroke:#181818;stroke-width:1.0;" x1="640.1392" x2="806.6836" y1="770.3535" y2="770.3535"/><text fill="#000000" font-family="sans-serif" font-size="13" font-weight="bold" lengthAdjust="spacing" textLength="14.46" x="647.1392" y="765.0908">17</text><text fill="#000000" font-family="sans-serif" font-size="13" lengthAdjust="spacing" textLength="76.5908" x="665.5991" y="765.0908">save(Patient)</text><polygon fill="#181818" points="651.1392,797.6445,641.1392,801.6445,651.1392,805.6445,647.1392,801.6445" style="stroke:#181818;stroke-width:1.0;"/><line style="stroke:#181818;stroke-width:1.0;stroke-dasharray:2.0,2.0;" x1="645.1392" x2="816.6836" y1="801.6445" y2="801.6445"/><text fill="#000000" font-family="sans-serif" font-size="13" font-weight="bold" lengthAdjust="spacing" textLength="14.46" x="657.1392" y="796.3818">18</text><text fill="#000000" font-family="sans-serif" font-size="13" lengthAdjust="spacing" textLength="92.4727" x="675.5991" y="796.3818">Patient (with ID)</text><polygon fill="#181818" points="331.3311,828.9355,321.3311,832.9355,331.3311,836.9355,327.3311,832.9355" style="stroke:#181818;stroke-width:1.0;"/><line style="stroke:#181818;stroke-width:1.0;stroke-dasharray:2.0,2.0;" x1="325.3311" x2="639.1392" y1="832.9355" y2="832.9355"/><text fill="#000000" font-family="sans-serif" font-size="13" font-weight="bold" lengthAdjust="spacing" textLength="14.46" x="337.3311" y="827.6729">19</text><text fill="#000000" font-family="sans-serif" font-size="13" lengthAdjust="spacing" textLength="109.8525" x="355.791" y="827.6729">PatientIdResponse</text><polygon fill="#181818" points="117.6895,860.2266,107.6895,864.2266,117.6895,868.2266,113.6895,864.2266" style="stroke:#181818;stroke-width:1.0;"/><line style="stroke:#181818;stroke-width:1.0;stroke-dasharray:2.0,2.0;" x1="111.6895" x2="319.3311" y1="864.2266" y2="864.2266"/><text fill="#000000" font-family="sans-serif" font-size="13" font-weight="bold" lengthAdjust="spacing" textLength="14.46" x="123.6895" y="858.9639">20</text><text fill="#000000" font-family="sans-serif" font-size="13" lengthAdjust="spacing" textLength="71.5508" x="142.1494" y="858.9639">201 Created</text><!--SRC=[fLLDR-8m4BtxLunoWWCVM-qU5gcLbW-r7Af5iFq1RZ85IuwTsavs-VSxYGs492r570ZsPDwRcUVnn0ad4LusunymWCsS7clS2klG08SLTmALWx_2xM2rqqu3Lmay8PTac6aLer6MyTnf7ZjHS8UWLRLNUVgAXZ6oQmFHBwNLFjMvXHUB9c8PDqx48kF47arYhPpHKgAPX92peoK2Rg5bRH0GPo5YFA0tVbk71bC3Pp3J1z2QrbPGjliwxcJjX9QQD87djWOivLbsAlEvsjNZUKkbczUp9HrhMc3mq1O89h3wlVa38vw9KN4toho37Pbml8orCIUY81Un7Fp3YrxYT9_IamuIxZY1BLaVHO4Axk_XZKkB39eqWmzI_3uUmvGdr7FlELe7lMXEf11xLX2Mmh_dmc0IzK-izOo9kAL7YvUW2NwiA7Rd_D3k0QB6VoI7dUuNAHUoL6E8vQgMNirzqANeL6k9N46l0YugFf8Ke1Irij7A84_s8HYzkaBHd-N5V9CYBkLSdD491Rd5Iighn3nHLiZFj0G8QlfoKc6jKDlZCSBEpuuup0wWuI2KpGsdVOMweNUUcy7A3WtLtjGybukkbUqBjph5K6oOarHdmQL8wDo7so7DoQqkaprS6dZD7IXDoLij2qpe8k0XzHiqMOQWvxgVAtEpDfVL2VeS_Jjls_dWf6YM5zZBIdE_ZcpuTLwooeanzacu-i0bXDDpJRT5-GdNm0Mlxb3Uy8LOxUB2YrQyY-M5BtEl-ZGlvtrsRQi4sp9PeytAUNjzCzoDly6C9el3v9f6KDxR_vTF-lq7]--></g></svg>