<svg xmlns="http://www.w3.org/2000/svg" xmlns:xlink="http://www.w3.org/1999/xlink" contentStyleType="text/css" height="651px" preserveAspectRatio="none" style="width:1014px;height:651px;background:#FFFFFF;" version="1.1" viewBox="0 0 1014 651" width="1014px" zoomAndPan="magnify"><title>US04 - SD - View Physician Details</title><defs/><g><text fill="#000000" font-family="sans-serif" font-size="14" font-weight="bold" lengthAdjust="spacing" textLength="230.3096" x="393.2139" y="30.1074">US04 - SD - View Physician Details</text><rect fill="#FFFFFF" height="426.4141" style="stroke:#181818;stroke-width:1.0;" width="10" x="17.7793" y="133.2422"/><rect fill="#FFFFFF" height="394.123" style="stroke:#181818;stroke-width:1.0;" width="10" x="196.0264" y="156.5332"/><rect fill="#FFFFFF" height="31.291" style="stroke:#181818;stroke-width:1.0;" width="10" x="371.3774" y="187.8242"/><rect fill="#FFFFFF" height="268.959" style="stroke:#181818;stroke-width:1.0;" width="10" x="533.1079" y="250.4063"/><rect fill="#FFFFFF" height="31.291" style="stroke:#181818;stroke-width:1.0;" width="10" x="717.7866" y="281.6973"/><rect fill="#FFFFFF" height="31.291" style="stroke:#181818;stroke-width:1.0;" width="10" x="904.4204" y="370.5703"/><rect fill="#FFFFFF" height="31.291" style="stroke:#181818;stroke-width:1.0;" width="10" x="904.4204" y="449.7832"/><rect fill="none" height="161.0859" style="stroke:#000000;stroke-width:1.5;" width="565.9912" x="441.7461" y="327.9883"/><line style="stroke:#181818;stroke-width:0.5;stroke-dasharray:5.0,5.0;" x1="22" x2="22" y1="123.2422" y2="568.6563"/><line style="stroke:#181818;stroke-width:0.5;stroke-dasharray:5.0,5.0;" x1="200.0439" x2="200.0439" y1="123.2422" y2="568.6563"/><line style="stroke:#181818;stroke-width:0.5;stroke-dasharray:5.0,5.0;" x1="376.0088" x2="376.0088" y1="123.2422" y2="568.6563"/><line style="stroke:#181818;stroke-width:0.5;stroke-dasharray:5.0,5.0;" x1="537.7461" x2="537.7461" y1="123.2422" y2="568.6563"/><line style="stroke:#181818;stroke-width:0.5;stroke-dasharray:5.0,5.0;" x1="722.4697" x2="722.4697" y1="123.2422" y2="568.6563"/><line style="stroke:#181818;stroke-width:0.5;stroke-dasharray:5.0,5.0;" x1="909.1035" x2="909.1035" y1="123.2422" y2="568.6563"/><text fill="#000000" font-family="sans-serif" font-size="14" lengthAdjust="spacing" textLength="29.5586" x="5" y="119.7285">User</text><ellipse cx="22.7793" cy="53.1211" fill="#E2E2F0" rx="8" ry="8" style="stroke:#181818;stroke-width:0.5;"/><path d="M22.7793,61.1211 L22.7793,88.1211 M9.7793,69.1211 L35.7793,69.1211 M22.7793,88.1211 L9.7793,103.1211 M22.7793,88.1211 L35.7793,103.1211 " fill="none" style="stroke:#181818;stroke-width:0.5;"/><text fill="#000000" font-family="sans-serif" font-size="14" lengthAdjust="spacing" textLength="29.5586" x="5" y="582.7637">User</text><ellipse cx="22.7793" cy="594.7773" fill="#E2E2F0" rx="8" ry="8" style="stroke:#181818;stroke-width:0.5;"/><path d="M22.7793,602.7773 L22.7793,629.7773 M9.7793,610.7773 L35.7793,610.7773 M22.7793,629.7773 L9.7793,644.7773 M22.7793,629.7773 L35.7793,644.7773 " fill="none" style="stroke:#181818;stroke-width:0.5;"/><rect fill="#E2E2F0" height="32.6211" rx="2.5" ry="2.5" style="stroke:#181818;stroke-width:0.5;" width="199.9648" x="101.0439" y="89.6211"/><text fill="#000000" font-family="sans-serif" font-size="14" lengthAdjust="spacing" textLength="185.9648" x="108.0439" y="111.7285">:controller:PhysicianController</text><rect fill="#E2E2F0" height="32.6211" rx="2.5" ry="2.5" style="stroke:#181818;stroke-width:0.5;" width="199.9648" x="101.0439" y="567.6563"/><text fill="#000000" font-family="sans-serif" font-size="14" lengthAdjust="spacing" textLength="185.9648" x="108.0439" y="589.7637">:controller:PhysicianController</text><rect fill="#E2E2F0" height="32.6211" rx="2.5" ry="2.5" style="stroke:#181818;stroke-width:0.5;" width="130.7373" x="311.0088" y="89.6211"/><text fill="#000000" font-family="sans-serif" font-size="14" lengthAdjust="spacing" textLength="116.7373" x="318.0088" y="111.7285">:helper:AuthHelper</text><rect fill="#E2E2F0" height="32.6211" rx="2.5" ry="2.5" style="stroke:#181818;stroke-width:0.5;" width="130.7373" x="311.0088" y="567.6563"/><text fill="#000000" font-family="sans-serif" font-size="14" lengthAdjust="spacing" textLength="116.7373" x="318.0088" y="589.7637">:helper:AuthHelper</text><rect fill="#E2E2F0" height="32.6211" rx="2.5" ry="2.5" style="stroke:#181818;stroke-width:0.5;" width="172.7236" x="451.7461" y="89.6211"/><text fill="#000000" font-family="sans-serif" font-size="14" lengthAdjust="spacing" textLength="158.7236" x="458.7461" y="111.7285">:service:PhysicianService</text><rect fill="#E2E2F0" height="32.6211" rx="2.5" ry="2.5" style="stroke:#181818;stroke-width:0.5;" width="172.7236" x="451.7461" y="567.6563"/><text fill="#000000" font-family="sans-serif" font-size="14" lengthAdjust="spacing" textLength="158.7236" x="458.7461" y="589.7637">:service:PhysicianService</text><rect fill="#E2E2F0" height="32.6211" rx="2.5" ry="2.5" style="stroke:#181818;stroke-width:0.5;" width="176.6338" x="634.4697" y="89.6211"/><text fill="#000000" font-family="sans-serif" font-size="14" lengthAdjust="spacing" textLength="162.6338" x="641.4697" y="111.7285">:repo:PhysicianRepository</text><rect fill="#E2E2F0" height="32.6211" rx="2.5" ry="2.5" style="stroke:#181818;stroke-width:0.5;" width="176.6338" x="634.4697" y="567.6563"/><text fill="#000000" font-family="sans-serif" font-size="14" lengthAdjust="spacing" textLength="162.6338" x="641.4697" y="589.7637">:repo:PhysicianRepository</text><rect fill="#E2E2F0" height="32.6211" rx="2.5" ry="2.5" style="stroke:#181818;stroke-width:0.5;" width="176.6338" x="821.1035" y="89.6211"/><text fill="#000000" font-family="sans-serif" font-size="14" lengthAdjust="spacing" textLength="162.6338" x="828.1035" y="111.7285">:mapper:PhysicianMapper</text><rect fill="#E2E2F0" height="32.6211" rx="2.5" ry="2.5" style="stroke:#181818;stroke-width:0.5;" width="176.6338" x="821.1035" y="567.6563"/><text fill="#000000" font-family="sans-serif" font-size="14" lengthAdjust="spacing" textLength="162.6338" x="828.1035" y="589.7637">:mapper:PhysicianMapper</text><rect fill="#FFFFFF" height="426.4141" style="stroke:#181818;stroke-width:1.0;" width="10" x="17.7793" y="133.2422"/><rect fill="#FFFFFF" height="394.123" style="stroke:#181818;stroke-width:1.0;" width="10" x="196.0264" y="156.5332"/><rect fill="#FFFFFF" height="31.291" style="stroke:#181818;stroke-width:1.0;" width="10" x="371.3774" y="187.8242"/><rect fill="#FFFFFF" height="268.959" style="stroke:#181818;stroke-width:1.0;" width="10" x="533.1079" y="250.4063"/><rect fill="#FFFFFF" height="31.291" style="stroke:#181818;stroke-width:1.0;" width="10" x="717.7866" y="281.6973"/><rect fill="#FFFFFF" height="31.291" style="stroke:#181818;stroke-width:1.0;" width="10" x="904.4204" y="370.5703"/><rect fill="#FFFFFF" height="31.291" style="stroke:#181818;stroke-width:1.0;" width="10" x="904.4204" y="449.7832"/><polygon fill="#181818" points="184.0264,152.5332,194.0264,156.5332,184.0264,160.5332,188.0264,156.5332" style="stroke:#181818;stroke-width:1.0;"/><line style="stroke:#181818;stroke-width:1.0;" x1="27.7793" x2="190.0264" y1="156.5332" y2="156.5332"/><text fill="#000000" font-family="sans-serif" font-size="13" font-weight="bold" lengthAdjust="spacing" textLength="7.23" x="34.7793" y="151.2705">1</text><text fill="#000000" font-family="sans-serif" font-size="13" lengthAdjust="spacing" textLength="138.0171" x="46.0093" y="151.2705">GET /api/physicians/{id}</text><polygon fill="#181818" points="359.3774,183.8242,369.3774,187.8242,359.3774,191.8242,363.3774,187.8242" style="stroke:#181818;stroke-width:1.0;"/><line style="stroke:#181818;stroke-width:1.0;" x1="206.0264" x2="365.3774" y1="187.8242" y2="187.8242"/><text fill="#000000" font-family="sans-serif" font-size="13" font-weight="bold" lengthAdjust="spacing" textLength="7.23" x="213.0264" y="182.5615">2</text><text fill="#000000" font-family="sans-serif" font-size="13" lengthAdjust="spacing" textLength="97.5254" x="224.2563" y="182.5615">getCurrentUser()</text><polygon fill="#181818" points="217.0264,215.1152,207.0264,219.1152,217.0264,223.1152,213.0264,219.1152" style="stroke:#181818;stroke-width:1.0;"/><line style="stroke:#181818;stroke-width:1.0;stroke-dasharray:2.0,2.0;" x1="211.0264" x2="375.3774" y1="219.1152" y2="219.1152"/><text fill="#000000" font-family="sans-serif" font-size="13" font-weight="bold" lengthAdjust="spacing" textLength="7.23" x="223.0264" y="213.8525">3</text><text fill="#000000" font-family="sans-serif" font-size="13" lengthAdjust="spacing" textLength="61.3945" x="234.2563" y="213.8525">User (role)</text><polygon fill="#181818" points="521.1079,246.4063,531.1079,250.4063,521.1079,254.4063,525.1079,250.4063" style="stroke:#181818;stroke-width:1.0;"/><line style="stroke:#181818;stroke-width:1.0;" x1="206.0264" x2="527.1079" y1="250.4063" y2="250.4063"/><text fill="#000000" font-family="sans-serif" font-size="13" font-weight="bold" lengthAdjust="spacing" textLength="7.23" x="213.0264" y="245.1436">4</text><text fill="#000000" font-family="sans-serif" font-size="13" lengthAdjust="spacing" textLength="164.7344" x="224.2563" y="245.1436">getPhysicianDetails(id, user)</text><polygon fill="#181818" points="705.7866,277.6973,715.7866,281.6973,705.7866,285.6973,709.7866,281.6973" style="stroke:#181818;stroke-width:1.0;"/><line style="stroke:#181818;stroke-width:1.0;" x1="543.1079" x2="711.7866" y1="281.6973" y2="281.6973"/><text fill="#000000" font-family="sans-serif" font-size="13" font-weight="bold" lengthAdjust="spacing" textLength="7.23" x="550.1079" y="276.4346">5</text><text fill="#000000" font-family="sans-serif" font-size="13" lengthAdjust="spacing" textLength="65.749" x="561.3379" y="276.4346">findById(id)</text><polygon fill="#181818" points="554.1079,308.9883,544.1079,312.9883,554.1079,316.9883,550.1079,312.9883" style="stroke:#181818;stroke-width:1.0;"/><line style="stroke:#181818;stroke-width:1.0;stroke-dasharray:2.0,2.0;" x1="548.1079" x2="721.7866" y1="312.9883" y2="312.9883"/><text fill="#000000" font-family="sans-serif" font-size="13" font-weight="bold" lengthAdjust="spacing" textLength="7.23" x="560.1079" y="307.7256">6</text><text fill="#000000" font-family="sans-serif" font-size="13" lengthAdjust="spacing" textLength="55.6372" x="571.3379" y="307.7256">Physician</text><path d="M441.7461,327.9883 L501.917,327.9883 L501.917,337.2793 L491.917,347.2793 L441.7461,347.2793 L441.7461,327.9883 " fill="#EEEEEE" style="stroke:#000000;stroke-width:1.5;"/><rect fill="none" height="161.0859" style="stroke:#000000;stroke-width:1.5;" width="565.9912" x="441.7461" y="327.9883"/><text fill="#000000" font-family="sans-serif" font-size="13" font-weight="bold" lengthAdjust="spacing" textLength="15.1709" x="456.7461" y="343.0166">alt</text><text fill="#000000" font-family="sans-serif" font-size="11" font-weight="bold" lengthAdjust="spacing" textLength="122.8477" x="516.917" y="341.8584">[if(user.role == ADMIN)]</text><polygon fill="#181818" points="892.4204,366.5703,902.4204,370.5703,892.4204,374.5703,896.4204,370.5703" style="stroke:#181818;stroke-width:1.0;"/><line style="stroke:#181818;stroke-width:1.0;" x1="543.1079" x2="898.4204" y1="370.5703" y2="370.5703"/><text fill="#000000" font-family="sans-serif" font-size="13" font-weight="bold" lengthAdjust="spacing" textLength="7.23" x="550.1079" y="365.3076">7</text><text fill="#000000" font-family="sans-serif" font-size="13" lengthAdjust="spacing" textLength="123.5254" x="561.3379" y="365.3076">toFullDTO(Physician)</text><polygon fill="#181818" points="554.1079,397.8613,544.1079,401.8613,554.1079,405.8613,550.1079,401.8613" style="stroke:#181818;stroke-width:1.0;"/><line style="stroke:#181818;stroke-width:1.0;stroke-dasharray:2.0,2.0;" x1="548.1079" x2="908.4204" y1="401.8613" y2="401.8613"/><text fill="#000000" font-family="sans-serif" font-size="13" font-weight="bold" lengthAdjust="spacing" textLength="7.23" x="560.1079" y="396.5986">8</text><text fill="#000000" font-family="sans-serif" font-size="13" lengthAdjust="spacing" textLength="104.0254" x="571.3379" y="396.5986">FullPhysicianDTO</text><line style="stroke:#000000;stroke-width:1.0;stroke-dasharray:2.0,2.0;" x1="441.7461" x2="1007.7373" y1="410.8613" y2="410.8613"/><text fill="#000000" font-family="sans-serif" font-size="11" font-weight="bold" lengthAdjust="spacing" textLength="133.853" x="446.7461" y="422.7314">[if(user.role == PATIENT)]</text><polygon fill="#181818" points="892.4204,445.7832,902.4204,449.7832,892.4204,453.7832,896.4204,449.7832" style="stroke:#181818;stroke-width:1.0;"/><line style="stroke:#181818;stroke-width:1.0;" x1="543.1079" x2="898.4204" y1="449.7832" y2="449.7832"/><text fill="#000000" font-family="sans-serif" font-size="13" font-weight="bold" lengthAdjust="spacing" textLength="7.23" x="550.1079" y="444.5205">9</text><text fill="#000000" font-family="sans-serif" font-size="13" lengthAdjust="spacing" textLength="144.4854" x="561.3379" y="444.5205">toLimitedDTO(Physician)</text><polygon fill="#181818" points="554.1079,477.0742,544.1079,481.0742,554.1079,485.0742,550.1079,481.0742" style="stroke:#181818;stroke-width:1.0;"/><line style="stroke:#181818;stroke-width:1.0;stroke-dasharray:2.0,2.0;" x1="548.1079" x2="908.4204" y1="481.0742" y2="481.0742"/><text fill="#000000" font-family="sans-serif" font-size="13" font-weight="bold" lengthAdjust="spacing" textLength="14.46" x="560.1079" y="475.8115">10</text><text fill="#000000" font-family="sans-serif" font-size="13" lengthAdjust="spacing" textLength="124.9854" x="578.5679" y="475.8115">LimitedPhysicianDTO</text><polygon fill="#181818" points="217.0264,515.3652,207.0264,519.3652,217.0264,523.3652,213.0264,519.3652" style="stroke:#181818;stroke-width:1.0;"/><line style="stroke:#181818;stroke-width:1.0;stroke-dasharray:2.0,2.0;" x1="211.0264" x2="537.1079" y1="519.3652" y2="519.3652"/><text fill="#000000" font-family="sans-serif" font-size="13" font-weight="bold" lengthAdjust="spacing" textLength="14.46" x="223.0264" y="514.1025">11</text><text fill="#000000" font-family="sans-serif" font-size="13" lengthAdjust="spacing" textLength="83.0781" x="241.4863" y="514.1025">PhysicianDTO</text><polygon fill="#181818" points="38.7793,546.6563,28.7793,550.6563,38.7793,554.6563,34.7793,550.6563" style="stroke:#181818;stroke-width:1.0;"/><line style="stroke:#181818;stroke-width:1.0;stroke-dasharray:2.0,2.0;" x1="32.7793" x2="200.0264" y1="550.6563" y2="550.6563"/><text fill="#000000" font-family="sans-serif" font-size="13" font-weight="bold" lengthAdjust="spacing" textLength="14.46" x="44.7793" y="545.3936">12</text><text fill="#000000" font-family="sans-serif" font-size="13" lengthAdjust="spacing" textLength="44.0845" x="63.2393" y="545.3936">200 OK</text><!--SRC=[dLB9JiCm4BtxAqOv9HAX5U8KgKY55AYWYsZAtIGkjUGwbkCKLOX_PxAGhGaIv61bblVc-NaCDuB1TZE-1XSsFXwld7t0UdzAUCYf19yPoaL224rDJ4F3ZzGmY6KUo_JmnZJMGXDhiBO9qnPHL1l4AYeDM5uOIwDZ8PZsAjAxAcS1JQ0dto7PCw6GO9gQ_MF-c-FgiDEECeuyPFN0JP5eJokJ7QncAgw1BnWb72ztQcFhV0T-e4erhxh8upQuoEMk5MvclX6IdU3UzDa17ZpC0XXHnKVgfvoCFddqHVhQaQKs1y7lpDobMZDfiY6sGnfLTt1aBiZ6a3b3Kxfc5hEgRBayDeyk84KsXv0pH9EbjXM9Tbn6jwTvXEZ6_4QBso-WIg73mW3VsTdeo-mUC9d0r5_Cbmu1_7xLKhmIyfduFXN23rPsLUl0ozO1FHcwTYHO4IOITYPhFGtcisNmDs7F_C0DY_wlhIHeovDHtpCDhaaBtBid2CrtoOEhyHXMJ-GR]--></g></svg>