<svg xmlns="http://www.w3.org/2000/svg" xmlns:xlink="http://www.w3.org/1999/xlink" contentStyleType="text/css" height="557px" preserveAspectRatio="none" style="width:411px;height:557px;background:#FFFFFF;" version="1.1" viewBox="0 0 411 557" width="411px" zoomAndPan="magnify"><title>US11 - SSD - Schedule an Appointment</title><defs/><g><text fill="#000000" font-family="sans-serif" font-size="14" font-weight="bold" lengthAdjust="spacing" textLength="261.3652" x="76.1699" y="30.1074">US11 - SSD - Schedule an Appointment</text><rect fill="none" height="268.9102" style="stroke:#000000;stroke-width:1.5;" width="394.7051" x="10" y="188.8242"/><rect fill="none" height="185.0371" style="stroke:#000000;stroke-width:1.5;" width="374.7051" x="20" y="265.6973"/><rect fill="none" height="118.4551" style="stroke:#000000;stroke-width:1.5;" width="354.7051" x="30" y="325.2793"/><line style="stroke:#181818;stroke-width:0.5;stroke-dasharray:5.0,5.0;" x1="84" x2="84" y1="123.2422" y2="474.7344"/><line style="stroke:#181818;stroke-width:0.5;stroke-dasharray:5.0,5.0;" x1="344.0293" x2="344.0293" y1="123.2422" y2="474.7344"/><text fill="#000000" font-family="sans-serif" font-size="14" lengthAdjust="spacing" textLength="82.4688" x="40" y="119.7285">Administrator</text><ellipse cx="84.2344" cy="53.1211" fill="#E2E2F0" rx="8" ry="8" style="stroke:#181818;stroke-width:0.5;"/><path d="M84.2344,61.1211 L84.2344,88.1211 M71.2344,69.1211 L97.2344,69.1211 M84.2344,88.1211 L71.2344,103.1211 M84.2344,88.1211 L97.2344,103.1211 " fill="none" style="stroke:#181818;stroke-width:0.5;"/><text fill="#000000" font-family="sans-serif" font-size="14" lengthAdjust="spacing" textLength="82.4688" x="40" y="488.8418">Administrator</text><ellipse cx="84.2344" cy="500.8555" fill="#E2E2F0" rx="8" ry="8" style="stroke:#181818;stroke-width:0.5;"/><path d="M84.2344,508.8555 L84.2344,535.8555 M71.2344,516.8555 L97.2344,516.8555 M84.2344,535.8555 L71.2344,550.8555 M84.2344,535.8555 L97.2344,550.8555 " fill="none" style="stroke:#181818;stroke-width:0.5;"/><rect fill="#E2E2F0" height="32.6211" rx="2.5" ry="2.5" style="stroke:#181818;stroke-width:0.5;" width="60.6758" x="314.0293" y="89.6211"/><text fill="#000000" font-family="sans-serif" font-size="14" lengthAdjust="spacing" textLength="46.6758" x="321.0293" y="111.7285">System</text><rect fill="#E2E2F0" height="32.6211" rx="2.5" ry="2.5" style="stroke:#181818;stroke-width:0.5;" width="60.6758" x="314.0293" y="473.7344"/><text fill="#000000" font-family="sans-serif" font-size="14" lengthAdjust="spacing" textLength="46.6758" x="321.0293" y="495.8418">System</text><polygon fill="#181818" points="332.3672,169.8242,342.3672,173.8242,332.3672,177.8242,336.3672,173.8242" style="stroke:#181818;stroke-width:1.0;"/><line style="stroke:#181818;stroke-width:1.0;" x1="84.2344" x2="338.3672" y1="173.8242" y2="173.8242"/><text fill="#000000" font-family="sans-serif" font-size="13" lengthAdjust="spacing" textLength="141.6289" x="91.2344" y="151.2705">POST /api/appointments</text><text fill="#000000" font-family="sans-serif" font-size="13" lengthAdjust="spacing" textLength="137.2871" x="91.2344" y="168.5615">Body: AppointmentDTO</text><path d="M10,188.8242 L70.1709,188.8242 L70.1709,198.1152 L60.1709,208.1152 L10,208.1152 L10,188.8242 " fill="#EEEEEE" style="stroke:#000000;stroke-width:1.5;"/><rect fill="none" height="268.9102" style="stroke:#000000;stroke-width:1.5;" width="394.7051" x="10" y="188.8242"/><text fill="#000000" font-family="sans-serif" font-size="13" font-weight="bold" lengthAdjust="spacing" textLength="15.1709" x="25" y="203.8525">alt</text><text fill="#000000" font-family="sans-serif" font-size="11" font-weight="bold" lengthAdjust="spacing" textLength="136.2861" x="85.1709" y="202.6943">[consultationType invalid]</text><polygon fill="#181818" points="95.2344,244.6973,85.2344,248.6973,95.2344,252.6973,91.2344,248.6973" style="stroke:#181818;stroke-width:1.0;"/><line style="stroke:#181818;stroke-width:1.0;stroke-dasharray:2.0,2.0;" x1="89.2344" x2="343.3672" y1="248.6973" y2="248.6973"/><text fill="#000000" font-family="sans-serif" font-size="13" lengthAdjust="spacing" textLength="100.4644" x="101.2344" y="226.1436">400 Bad Request</text><text fill="#000000" font-family="sans-serif" font-size="13" lengthAdjust="spacing" textLength="147.9829" x="101.2344" y="243.4346">"Invalid consultation type"</text><line style="stroke:#000000;stroke-width:1.0;stroke-dasharray:2.0,2.0;" x1="10" x2="404.7051" y1="257.6973" y2="257.6973"/><path d="M20,265.6973 L80.1709,265.6973 L80.1709,274.9883 L70.1709,284.9883 L20,284.9883 L20,265.6973 " fill="#EEEEEE" style="stroke:#000000;stroke-width:1.5;"/><rect fill="none" height="185.0371" style="stroke:#000000;stroke-width:1.5;" width="374.7051" x="20" y="265.6973"/><text fill="#000000" font-family="sans-serif" font-size="13" font-weight="bold" lengthAdjust="spacing" textLength="15.1709" x="35" y="280.7256">alt</text><text fill="#000000" font-family="sans-serif" font-size="11" font-weight="bold" lengthAdjust="spacing" textLength="164.9893" x="95.1709" y="279.5674">[patient or physician not found]</text><polygon fill="#181818" points="95.2344,304.2793,85.2344,308.2793,95.2344,312.2793,91.2344,308.2793" style="stroke:#181818;stroke-width:1.0;"/><line style="stroke:#181818;stroke-width:1.0;stroke-dasharray:2.0,2.0;" x1="89.2344" x2="343.3672" y1="308.2793" y2="308.2793"/><text fill="#000000" font-family="sans-serif" font-size="13" lengthAdjust="spacing" textLength="86.0044" x="101.2344" y="303.0166">404 Not Found</text><line style="stroke:#000000;stroke-width:1.0;stroke-dasharray:2.0,2.0;" x1="20" x2="394.7051" y1="317.2793" y2="317.2793"/><path d="M30,325.2793 L90.1709,325.2793 L90.1709,334.5703 L80.1709,344.5703 L30,344.5703 L30,325.2793 " fill="#EEEEEE" style="stroke:#000000;stroke-width:1.5;"/><rect fill="none" height="118.4551" style="stroke:#000000;stroke-width:1.5;" width="354.7051" x="30" y="325.2793"/><text fill="#000000" font-family="sans-serif" font-size="13" font-weight="bold" lengthAdjust="spacing" textLength="15.1709" x="45" y="340.3076">alt</text><text fill="#000000" font-family="sans-serif" font-size="11" font-weight="bold" lengthAdjust="spacing" textLength="210.8369" x="105.1709" y="339.1494">[time conflict with existing appointment]</text><polygon fill="#181818" points="95.2344,381.1523,85.2344,385.1523,95.2344,389.1523,91.2344,385.1523" style="stroke:#181818;stroke-width:1.0;"/><line style="stroke:#181818;stroke-width:1.0;stroke-dasharray:2.0,2.0;" x1="89.2344" x2="343.3672" y1="385.1523" y2="385.1523"/><text fill="#000000" font-family="sans-serif" font-size="13" lengthAdjust="spacing" textLength="68.6499" x="101.2344" y="362.5986">409 Conflict</text><text fill="#000000" font-family="sans-serif" font-size="13" lengthAdjust="spacing" textLength="236.1328" x="101.2344" y="379.8896">"Physician not available at selected time"</text><line style="stroke:#000000;stroke-width:1.0;stroke-dasharray:2.0,2.0;" x1="30" x2="384.7051" y1="394.1523" y2="394.1523"/><polygon fill="#181818" points="95.2344,431.7344,85.2344,435.7344,95.2344,439.7344,91.2344,435.7344" style="stroke:#181818;stroke-width:1.0;"/><line style="stroke:#181818;stroke-width:1.0;stroke-dasharray:2.0,2.0;" x1="89.2344" x2="343.3672" y1="435.7344" y2="435.7344"/><text fill="#000000" font-family="sans-serif" font-size="13" lengthAdjust="spacing" textLength="71.5508" x="101.2344" y="413.1807">201 Created</text><text fill="#000000" font-family="sans-serif" font-size="13" lengthAdjust="spacing" textLength="177.0615" x="101.2344" y="430.4717">Body: { appointmentId, status }</text><!--SRC=[ZP4_Ry8m4CLtVugdp4M5YgKCbVYZIYm5DNHZSPEZdEGuRdoXZQf-zru8fS1I1blosU_ztfs5nH5Uqi40FQJfhDspBUMrLgt7E8IIlHJanHYRILaX6US5UuvIMJqc9jXAEEDWlI19coXK9CPSl4BluNY94PQBT8LR6rZN4H3NVbBcpUWKEbijbEi4MUbZxSGAbtxL10BxdNMS6_pvzbh81NU4OR-FYStnJEyrHLdxPDv9ppmXQfeOSf7KiYK6hMi2QCjXsqHjKUVXIy6ch7tBlO8yn9CA7W-2WtbdBrnGcs3ZE1Dyi6n1dwfc_uQJeUpVNq6wn_JWfGqkp_BQdMLdNziF5KHob0dbUtwoTp_6-XTprnzWMf5L_UzVVPs6dUStY3hFEkAxi-xwrbtN3m00]--></g></svg>