<svg xmlns="http://www.w3.org/2000/svg" xmlns:xlink="http://www.w3.org/1999/xlink" contentStyleType="text/css" height="797px" preserveAspectRatio="none" style="width:1361px;height:797px;background:#FFFFFF;" version="1.1" viewBox="0 0 1361 797" width="1361px" zoomAndPan="magnify"><title>US11 - SD - Schedule an Appointment</title><defs/><g><text fill="#000000" font-family="sans-serif" font-size="14" font-weight="bold" lengthAdjust="spacing" textLength="252.0273" x="555.6946" y="30.1074">US11 - SD - Schedule an Appointment</text><rect fill="#FFFFFF" height="571.2383" style="stroke:#181818;stroke-width:1.0;" width="10" x="69.2344" y="133.2422"/><rect fill="#FFFFFF" height="525.9473" style="stroke:#181818;stroke-width:1.0;" width="10" x="251.0933" y="156.5332"/><rect fill="#FFFFFF" height="182.7461" style="stroke:#181818;stroke-width:1.0;" width="10" x="466.127" y="187.8242"/><rect fill="#FFFFFF" height="31.291" style="stroke:#181818;stroke-width:1.0;" width="10" x="651.9849" y="219.1152"/><rect fill="#FFFFFF" height="31.291" style="stroke:#181818;stroke-width:1.0;" width="10" x="830.4531" y="281.6973"/><rect fill="#FFFFFF" height="31.291" style="stroke:#181818;stroke-width:1.0;" width="10" x="1026.4316" y="403.8613"/><rect fill="#FFFFFF" height="31.291" style="stroke:#181818;stroke-width:1.0;" width="10" x="1026.4316" y="588.6074"/><rect fill="#FFFFFF" height="31.291" style="stroke:#181818;stroke-width:1.0;" width="10" x="1231.7549" y="526.0254"/><rect fill="none" height="369.4922" style="stroke:#000000;stroke-width:1.5;" width="1344.4165" x="10" y="327.9883"/><rect fill="none" height="240.3281" style="stroke:#000000;stroke-width:1.5;" width="1324.4165" x="20" y="450.1523"/><line style="stroke:#181818;stroke-width:0.5;stroke-dasharray:5.0,5.0;" x1="74" x2="74" y1="123.2422" y2="714.4805"/><line style="stroke:#181818;stroke-width:0.5;stroke-dasharray:5.0,5.0;" x1="255.7661" x2="255.7661" y1="123.2422" y2="714.4805"/><line style="stroke:#181818;stroke-width:0.5;stroke-dasharray:5.0,5.0;" x1="470.4204" x2="470.4204" y1="123.2422" y2="714.4805"/><line style="stroke:#181818;stroke-width:0.5;stroke-dasharray:5.0,5.0;" x1="656.8335" x2="656.8335" y1="123.2422" y2="714.4805"/><line style="stroke:#181818;stroke-width:0.5;stroke-dasharray:5.0,5.0;" x1="835.1362" x2="835.1362" y1="123.2422" y2="714.4805"/><line style="stroke:#181818;stroke-width:0.5;stroke-dasharray:5.0,5.0;" x1="1030.77" x2="1030.77" y1="123.2422" y2="714.4805"/><line style="stroke:#181818;stroke-width:0.5;stroke-dasharray:5.0,5.0;" x1="1236.0933" x2="1236.0933" y1="123.2422" y2="714.4805"/><text fill="#000000" font-family="sans-serif" font-size="14" lengthAdjust="spacing" textLength="82.4688" x="30" y="119.7285">Administrator</text><ellipse cx="74.2344" cy="53.1211" fill="#E2E2F0" rx="8" ry="8" style="stroke:#181818;stroke-width:0.5;"/><path d="M74.2344,61.1211 L74.2344,88.1211 M61.2344,69.1211 L87.2344,69.1211 M74.2344,88.1211 L61.2344,103.1211 M74.2344,88.1211 L87.2344,103.1211 " fill="none" style="stroke:#181818;stroke-width:0.5;"/><text fill="#000000" font-family="sans-serif" font-size="14" lengthAdjust="spacing" textLength="82.4688" x="30" y="728.5879">Administrator</text><ellipse cx="74.2344" cy="740.6016" fill="#E2E2F0" rx="8" ry="8" style="stroke:#181818;stroke-width:0.5;"/><path d="M74.2344,748.6016 L74.2344,775.6016 M61.2344,756.6016 L87.2344,756.6016 M74.2344,775.6016 L61.2344,790.6016 M74.2344,775.6016 L87.2344,790.6016 " fill="none" style="stroke:#181818;stroke-width:0.5;"/><rect fill="#E2E2F0" height="32.6211" rx="2.5" ry="2.5" style="stroke:#181818;stroke-width:0.5;" width="218.6543" x="146.7661" y="89.6211"/><text fill="#000000" font-family="sans-serif" font-size="14" lengthAdjust="spacing" textLength="204.6543" x="153.7661" y="111.7285">:controller:AppointmentController</text><rect fill="#E2E2F0" height="32.6211" rx="2.5" ry="2.5" style="stroke:#181818;stroke-width:0.5;" width="218.6543" x="146.7661" y="713.4805"/><text fill="#000000" font-family="sans-serif" font-size="14" lengthAdjust="spacing" textLength="204.6543" x="153.7661" y="735.5879">:controller:AppointmentController</text><rect fill="#E2E2F0" height="32.6211" rx="2.5" ry="2.5" style="stroke:#181818;stroke-width:0.5;" width="191.4131" x="375.4204" y="89.6211"/><text fill="#000000" font-family="sans-serif" font-size="14" lengthAdjust="spacing" textLength="177.4131" x="382.4204" y="111.7285">:service:AppointmentService</text><rect fill="#E2E2F0" height="32.6211" rx="2.5" ry="2.5" style="stroke:#181818;stroke-width:0.5;" width="191.4131" x="375.4204" y="713.4805"/><text fill="#000000" font-family="sans-serif" font-size="14" lengthAdjust="spacing" textLength="177.4131" x="382.4204" y="735.5879">:service:AppointmentService</text><rect fill="#E2E2F0" height="32.6211" rx="2.5" ry="2.5" style="stroke:#181818;stroke-width:0.5;" width="160.3027" x="576.8335" y="89.6211"/><text fill="#000000" font-family="sans-serif" font-size="14" lengthAdjust="spacing" textLength="146.3027" x="583.8335" y="111.7285">:repo:PatientRepository</text><rect fill="#E2E2F0" height="32.6211" rx="2.5" ry="2.5" style="stroke:#181818;stroke-width:0.5;" width="160.3027" x="576.8335" y="713.4805"/><text fill="#000000" font-family="sans-serif" font-size="14" lengthAdjust="spacing" textLength="146.3027" x="583.8335" y="735.5879">:repo:PatientRepository</text><rect fill="#E2E2F0" height="32.6211" rx="2.5" ry="2.5" style="stroke:#181818;stroke-width:0.5;" width="176.6338" x="747.1362" y="89.6211"/><text fill="#000000" font-family="sans-serif" font-size="14" lengthAdjust="spacing" textLength="162.6338" x="754.1362" y="111.7285">:repo:PhysicianRepository</text><rect fill="#E2E2F0" height="32.6211" rx="2.5" ry="2.5" style="stroke:#181818;stroke-width:0.5;" width="176.6338" x="747.1362" y="713.4805"/><text fill="#000000" font-family="sans-serif" font-size="14" lengthAdjust="spacing" textLength="162.6338" x="754.1362" y="735.5879">:repo:PhysicianRepository</text><rect fill="#E2E2F0" height="32.6211" rx="2.5" ry="2.5" style="stroke:#181818;stroke-width:0.5;" width="195.3232" x="933.77" y="89.6211"/><text fill="#000000" font-family="sans-serif" font-size="14" lengthAdjust="spacing" textLength="181.3232" x="940.77" y="111.7285">:repo:AppointmentRepository</text><rect fill="#E2E2F0" height="32.6211" rx="2.5" ry="2.5" style="stroke:#181818;stroke-width:0.5;" width="195.3232" x="933.77" y="713.4805"/><text fill="#000000" font-family="sans-serif" font-size="14" lengthAdjust="spacing" textLength="181.3232" x="940.77" y="735.5879">:repo:AppointmentRepository</text><rect fill="#E2E2F0" height="32.6211" rx="2.5" ry="2.5" style="stroke:#181818;stroke-width:0.5;" width="195.3232" x="1139.0933" y="89.6211"/><text fill="#000000" font-family="sans-serif" font-size="14" lengthAdjust="spacing" textLength="181.3232" x="1146.0933" y="111.7285">:mapper:AppointmentMapper</text><rect fill="#E2E2F0" height="32.6211" rx="2.5" ry="2.5" style="stroke:#181818;stroke-width:0.5;" width="195.3232" x="1139.0933" y="713.4805"/><text fill="#000000" font-family="sans-serif" font-size="14" lengthAdjust="spacing" textLength="181.3232" x="1146.0933" y="735.5879">:mapper:AppointmentMapper</text><rect fill="#FFFFFF" height="571.2383" style="stroke:#181818;stroke-width:1.0;" width="10" x="69.2344" y="133.2422"/><rect fill="#FFFFFF" height="525.9473" style="stroke:#181818;stroke-width:1.0;" width="10" x="251.0933" y="156.5332"/><rect fill="#FFFFFF" height="182.7461" style="stroke:#181818;stroke-width:1.0;" width="10" x="466.127" y="187.8242"/><rect fill="#FFFFFF" height="31.291" style="stroke:#181818;stroke-width:1.0;" width="10" x="651.9849" y="219.1152"/><rect fill="#FFFFFF" height="31.291" style="stroke:#181818;stroke-width:1.0;" width="10" x="830.4531" y="281.6973"/><rect fill="#FFFFFF" height="31.291" style="stroke:#181818;stroke-width:1.0;" width="10" x="1026.4316" y="403.8613"/><rect fill="#FFFFFF" height="31.291" style="stroke:#181818;stroke-width:1.0;" width="10" x="1026.4316" y="588.6074"/><rect fill="#FFFFFF" height="31.291" style="stroke:#181818;stroke-width:1.0;" width="10" x="1231.7549" y="526.0254"/><polygon fill="#181818" points="239.0933,152.5332,249.0933,156.5332,239.0933,160.5332,243.0933,156.5332" style="stroke:#181818;stroke-width:1.0;"/><line style="stroke:#181818;stroke-width:1.0;" x1="79.2344" x2="245.0933" y1="156.5332" y2="156.5332"/><text fill="#000000" font-family="sans-serif" font-size="13" font-weight="bold" lengthAdjust="spacing" textLength="7.23" x="86.2344" y="151.2705">1</text><text fill="#000000" font-family="sans-serif" font-size="13" lengthAdjust="spacing" textLength="141.6289" x="97.4644" y="151.2705">POST /api/appointments</text><polygon fill="#181818" points="454.127,183.8242,464.127,187.8242,454.127,191.8242,458.127,187.8242" style="stroke:#181818;stroke-width:1.0;"/><line style="stroke:#181818;stroke-width:1.0;" x1="261.0933" x2="460.127" y1="187.8242" y2="187.8242"/><text fill="#000000" font-family="sans-serif" font-size="13" font-weight="bold" lengthAdjust="spacing" textLength="7.23" x="268.0933" y="182.5615">2</text><text fill="#000000" font-family="sans-serif" font-size="13" lengthAdjust="spacing" textLength="151.7598" x="279.3232" y="182.5615">scheduleAppointment(dto)</text><polygon fill="#181818" points="639.9849,215.1152,649.9849,219.1152,639.9849,223.1152,643.9849,219.1152" style="stroke:#181818;stroke-width:1.0;"/><line style="stroke:#181818;stroke-width:1.0;" x1="476.127" x2="645.9849" y1="219.1152" y2="219.1152"/><text fill="#000000" font-family="sans-serif" font-size="13" font-weight="bold" lengthAdjust="spacing" textLength="7.23" x="483.127" y="213.8525">3</text><text fill="#000000" font-family="sans-serif" font-size="13" lengthAdjust="spacing" textLength="127.188" x="494.3569" y="213.8525">findById(dto.patientId)</text><polygon fill="#181818" points="487.127,246.4063,477.127,250.4063,487.127,254.4063,483.127,250.4063" style="stroke:#181818;stroke-width:1.0;"/><line style="stroke:#181818;stroke-width:1.0;stroke-dasharray:2.0,2.0;" x1="481.127" x2="655.9849" y1="250.4063" y2="250.4063"/><text fill="#000000" font-family="sans-serif" font-size="13" font-weight="bold" lengthAdjust="spacing" textLength="7.23" x="493.127" y="245.1436">4</text><text fill="#000000" font-family="sans-serif" font-size="13" lengthAdjust="spacing" textLength="47.7026" x="504.3569" y="245.1436">Patient?</text><polygon fill="#181818" points="818.4531,277.6973,828.4531,281.6973,818.4531,285.6973,822.4531,281.6973" style="stroke:#181818;stroke-width:1.0;"/><line style="stroke:#181818;stroke-width:1.0;" x1="476.127" x2="824.4531" y1="281.6973" y2="281.6973"/><text fill="#000000" font-family="sans-serif" font-size="13" font-weight="bold" lengthAdjust="spacing" textLength="7.23" x="483.127" y="276.4346">5</text><text fill="#000000" font-family="sans-serif" font-size="13" lengthAdjust="spacing" textLength="142.3525" x="494.3569" y="276.4346">findById(dto.physicianId)</text><polygon fill="#181818" points="487.127,308.9883,477.127,312.9883,487.127,316.9883,483.127,312.9883" style="stroke:#181818;stroke-width:1.0;"/><line style="stroke:#181818;stroke-width:1.0;stroke-dasharray:2.0,2.0;" x1="481.127" x2="834.4531" y1="312.9883" y2="312.9883"/><text fill="#000000" font-family="sans-serif" font-size="13" font-weight="bold" lengthAdjust="spacing" textLength="7.23" x="493.127" y="307.7256">6</text><text fill="#000000" font-family="sans-serif" font-size="13" lengthAdjust="spacing" textLength="62.8672" x="504.3569" y="307.7256">Physician?</text><path d="M10,327.9883 L70.1709,327.9883 L70.1709,337.2793 L60.1709,347.2793 L10,347.2793 L10,327.9883 " fill="#EEEEEE" style="stroke:#000000;stroke-width:1.5;"/><rect fill="none" height="369.4922" style="stroke:#000000;stroke-width:1.5;" width="1344.4165" x="10" y="327.9883"/><text fill="#000000" font-family="sans-serif" font-size="13" font-weight="bold" lengthAdjust="spacing" textLength="15.1709" x="25" y="343.0166">alt</text><text fill="#000000" font-family="sans-serif" font-size="11" font-weight="bold" lengthAdjust="spacing" textLength="164.9893" x="85.1709" y="341.8584">[patient or physician not found]</text><polygon fill="#181818" points="272.0933,366.5703,262.0933,370.5703,272.0933,374.5703,268.0933,370.5703" style="stroke:#181818;stroke-width:1.0;"/><line style="stroke:#181818;stroke-width:1.0;stroke-dasharray:2.0,2.0;" x1="266.0933" x2="470.127" y1="370.5703" y2="370.5703"/><text fill="#000000" font-family="sans-serif" font-size="13" font-weight="bold" lengthAdjust="spacing" textLength="7.23" x="278.0933" y="365.3076">7</text><text fill="#000000" font-family="sans-serif" font-size="13" lengthAdjust="spacing" textLength="86.0044" x="289.3232" y="365.3076">404 Not Found</text><line style="stroke:#000000;stroke-width:1.0;stroke-dasharray:2.0,2.0;" x1="10" x2="1354.4165" y1="379.5703" y2="379.5703"/><polygon fill="#181818" points="1014.4316,399.8613,1024.4316,403.8613,1014.4316,407.8613,1018.4316,403.8613" style="stroke:#181818;stroke-width:1.0;"/><line style="stroke:#181818;stroke-width:1.0;" x1="471.127" x2="1020.4316" y1="403.8613" y2="403.8613"/><text fill="#000000" font-family="sans-serif" font-size="13" font-weight="bold" lengthAdjust="spacing" textLength="7.23" x="478.127" y="398.5986">8</text><text fill="#000000" font-family="sans-serif" font-size="13" lengthAdjust="spacing" textLength="361.9941" x="489.3569" y="398.5986">existsByPhysicianAndDateTime(dto.physicianId, dto.dateTime)</text><polygon fill="#181818" points="482.127,431.1523,472.127,435.1523,482.127,439.1523,478.127,435.1523" style="stroke:#181818;stroke-width:1.0;"/><line style="stroke:#181818;stroke-width:1.0;stroke-dasharray:2.0,2.0;" x1="476.127" x2="1030.4316" y1="435.1523" y2="435.1523"/><text fill="#000000" font-family="sans-serif" font-size="13" font-weight="bold" lengthAdjust="spacing" textLength="7.23" x="488.127" y="429.8896">9</text><text fill="#000000" font-family="sans-serif" font-size="13" lengthAdjust="spacing" textLength="100.439" x="499.3569" y="429.8896">Boolean (conflict)</text><path d="M20,450.1523 L80.1709,450.1523 L80.1709,459.4434 L70.1709,469.4434 L20,469.4434 L20,450.1523 " fill="#EEEEEE" style="stroke:#000000;stroke-width:1.5;"/><rect fill="none" height="240.3281" style="stroke:#000000;stroke-width:1.5;" width="1324.4165" x="20" y="450.1523"/><text fill="#000000" font-family="sans-serif" font-size="13" font-weight="bold" lengthAdjust="spacing" textLength="15.1709" x="35" y="465.1807">alt</text><text fill="#000000" font-family="sans-serif" font-size="11" font-weight="bold" lengthAdjust="spacing" textLength="80.0347" x="95.1709" y="464.0225">[conflict found]</text><polygon fill="#181818" points="272.0933,488.7344,262.0933,492.7344,272.0933,496.7344,268.0933,492.7344" style="stroke:#181818;stroke-width:1.0;"/><line style="stroke:#181818;stroke-width:1.0;stroke-dasharray:2.0,2.0;" x1="266.0933" x2="470.127" y1="492.7344" y2="492.7344"/><text fill="#000000" font-family="sans-serif" font-size="13" font-weight="bold" lengthAdjust="spacing" textLength="14.46" x="278.0933" y="487.4717">10</text><text fill="#000000" font-family="sans-serif" font-size="13" lengthAdjust="spacing" textLength="68.6499" x="296.5532" y="487.4717">409 Conflict</text><line style="stroke:#000000;stroke-width:1.0;stroke-dasharray:2.0,2.0;" x1="20" x2="1344.4165" y1="501.7344" y2="501.7344"/><polygon fill="#181818" points="1219.7549,522.0254,1229.7549,526.0254,1219.7549,530.0254,1223.7549,526.0254" style="stroke:#181818;stroke-width:1.0;"/><line style="stroke:#181818;stroke-width:1.0;" x1="471.127" x2="1225.7549" y1="526.0254" y2="526.0254"/><text fill="#000000" font-family="sans-serif" font-size="13" font-weight="bold" lengthAdjust="spacing" textLength="14.46" x="478.127" y="520.7627">11</text><text fill="#000000" font-family="sans-serif" font-size="13" lengthAdjust="spacing" textLength="190.0425" x="496.5869" y="520.7627">toDomain(dto, patient, physician)</text><polygon fill="#181818" points="482.127,553.3164,472.127,557.3164,482.127,561.3164,478.127,557.3164" style="stroke:#181818;stroke-width:1.0;"/><line style="stroke:#181818;stroke-width:1.0;stroke-dasharray:2.0,2.0;" x1="476.127" x2="1235.7549" y1="557.3164" y2="557.3164"/><text fill="#000000" font-family="sans-serif" font-size="13" font-weight="bold" lengthAdjust="spacing" textLength="14.46" x="488.127" y="552.0537">12</text><text fill="#000000" font-family="sans-serif" font-size="13" lengthAdjust="spacing" textLength="72.9917" x="506.5869" y="552.0537">Appointment</text><polygon fill="#181818" points="1014.4316,584.6074,1024.4316,588.6074,1014.4316,592.6074,1018.4316,588.6074" style="stroke:#181818;stroke-width:1.0;"/><line style="stroke:#181818;stroke-width:1.0;" x1="471.127" x2="1020.4316" y1="588.6074" y2="588.6074"/><text fill="#000000" font-family="sans-serif" font-size="13" font-weight="bold" lengthAdjust="spacing" textLength="14.46" x="478.127" y="583.3447">13</text><text fill="#000000" font-family="sans-serif" font-size="13" lengthAdjust="spacing" textLength="109.1099" x="496.5869" y="583.3447">save(Appointment)</text><polygon fill="#181818" points="482.127,615.8984,472.127,619.8984,482.127,623.8984,478.127,619.8984" style="stroke:#181818;stroke-width:1.0;"/><line style="stroke:#181818;stroke-width:1.0;stroke-dasharray:2.0,2.0;" x1="476.127" x2="1030.4316" y1="619.8984" y2="619.8984"/><text fill="#000000" font-family="sans-serif" font-size="13" font-weight="bold" lengthAdjust="spacing" textLength="14.46" x="488.127" y="614.6357">14</text><text fill="#000000" font-family="sans-serif" font-size="13" lengthAdjust="spacing" textLength="124.9917" x="506.5869" y="614.6357">Appointment (with ID)</text><polygon fill="#181818" points="272.0933,647.1895,262.0933,651.1895,272.0933,655.1895,268.0933,651.1895" style="stroke:#181818;stroke-width:1.0;"/><line style="stroke:#181818;stroke-width:1.0;stroke-dasharray:2.0,2.0;" x1="266.0933" x2="470.127" y1="651.1895" y2="651.1895"/><text fill="#000000" font-family="sans-serif" font-size="13" font-weight="bold" lengthAdjust="spacing" textLength="14.46" x="278.0933" y="645.9268">15</text><text fill="#000000" font-family="sans-serif" font-size="13" lengthAdjust="spacing" textLength="142.3716" x="296.5532" y="645.9268">AppointmentIdResponse</text><polygon fill="#181818" points="90.2344,678.4805,80.2344,682.4805,90.2344,686.4805,86.2344,682.4805" style="stroke:#181818;stroke-width:1.0;"/><line style="stroke:#181818;stroke-width:1.0;stroke-dasharray:2.0,2.0;" x1="84.2344" x2="255.0933" y1="682.4805" y2="682.4805"/><text fill="#000000" font-family="sans-serif" font-size="13" font-weight="bold" lengthAdjust="spacing" textLength="14.46" x="96.2344" y="677.2178">16</text><text fill="#000000" font-family="sans-serif" font-size="13" lengthAdjust="spacing" textLength="71.5508" x="114.6943" y="677.2178">201 Created</text><!--SRC=[dPJBRjim44Nt_8g1LnPWDt6GJRH8uGS2UD4cYDCFOCKnJ40Y2P9swx_FIA9KFQZ2o4A6TJbpXhmpefS-H_XrMArW2OTT-PETK9n9v0hMncYfV87ACtxsccTUNhX7qAfwL-VYDrh6IDSMPcjHI2MTjvnUPynmwsKc3LSUPcccbRSwpz6c7UosLMV07KHN1Y27zY8px58EjJH417cGRz7ez8rxIH7lzDz9sksroXsfqTJJrP74rJ1vhCVIE_iR0A8h0qJ1ZUax-ADIXe1QhJfJTwpN6yPwhx1yZZiFARoz7ZxWZXj9JnlX212DxuE2_qHnOQWwYtFXTTBZDE446JM264UfnEQw5sNYDrC7x4N2nh7BgMs4qE-JPSSj71LkGghIaVZfuaqmbUUvXt048FzRA2ZjuQZFIZ28KPR_wTJZ_IFyfFINAXrpXnECv_Ya4GB_qaYupRNTwbg97KtFXonmUFe5b888gqc_rYr-RBJEaOuyfvlXcClCqpG0bCuqGkl45xnuWcsWK7umumOxwk-625xlTC6bAe-zQ7gr-DUfPCWBcPF7xTwbj-sbrnh7BpZlB8xgts9vHuJv7-bFiDybx2i6T_IzU4Tdj1fRtBqOIbRlpadXuNu5MuiqGMMFiHnQUfZ0-ANr2G00]--></g></svg>