<svg xmlns="http://www.w3.org/2000/svg" xmlns:xlink="http://www.w3.org/1999/xlink" contentStyleType="text/css" height="491px" preserveAspectRatio="none" style="width:471px;height:491px;background:#FFFFFF;" version="1.1" viewBox="0 0 471 491" width="471px" zoomAndPan="magnify"><title>US06 - SSD - Update Contact Details as a Patient</title><defs/><g><text fill="#000000" font-family="sans-serif" font-size="14" font-weight="bold" lengthAdjust="spacing" textLength="323.6406" x="75.1458" y="30.1074">US06 - SSD - Update Contact Details as a Patient</text><rect fill="none" height="202.3281" style="stroke:#000000;stroke-width:1.5;" width="454.9321" x="10" y="188.8242"/><rect fill="none" height="118.4551" style="stroke:#000000;stroke-width:1.5;" width="434.9321" x="20" y="265.6973"/><line style="stroke:#181818;stroke-width:0.5;stroke-dasharray:5.0,5.0;" x1="99" x2="99" y1="123.2422" y2="408.1523"/><line style="stroke:#181818;stroke-width:0.5;stroke-dasharray:5.0,5.0;" x1="414.2563" x2="414.2563" y1="123.2422" y2="408.1523"/><text fill="#000000" font-family="sans-serif" font-size="14" lengthAdjust="spacing" textLength="133.0957" x="30" y="119.7285">Authenticated Patient</text><ellipse cx="99.5479" cy="53.1211" fill="#E2E2F0" rx="8" ry="8" style="stroke:#181818;stroke-width:0.5;"/><path d="M99.5479,61.1211 L99.5479,88.1211 M86.5479,69.1211 L112.5479,69.1211 M99.5479,88.1211 L86.5479,103.1211 M99.5479,88.1211 L112.5479,103.1211 " fill="none" style="stroke:#181818;stroke-width:0.5;"/><text fill="#000000" font-family="sans-serif" font-size="14" lengthAdjust="spacing" textLength="133.0957" x="30" y="422.2598">Authenticated Patient</text><ellipse cx="99.5479" cy="434.2734" fill="#E2E2F0" rx="8" ry="8" style="stroke:#181818;stroke-width:0.5;"/><path d="M99.5479,442.2734 L99.5479,469.2734 M86.5479,450.2734 L112.5479,450.2734 M99.5479,469.2734 L86.5479,484.2734 M99.5479,469.2734 L112.5479,484.2734 " fill="none" style="stroke:#181818;stroke-width:0.5;"/><rect fill="#E2E2F0" height="32.6211" rx="2.5" ry="2.5" style="stroke:#181818;stroke-width:0.5;" width="60.6758" x="384.2563" y="89.6211"/><text fill="#000000" font-family="sans-serif" font-size="14" lengthAdjust="spacing" textLength="46.6758" x="391.2563" y="111.7285">System</text><rect fill="#E2E2F0" height="32.6211" rx="2.5" ry="2.5" style="stroke:#181818;stroke-width:0.5;" width="60.6758" x="384.2563" y="407.1523"/><text fill="#000000" font-family="sans-serif" font-size="14" lengthAdjust="spacing" textLength="46.6758" x="391.2563" y="429.2598">System</text><polygon fill="#181818" points="402.5942,169.8242,412.5942,173.8242,402.5942,177.8242,406.5942,173.8242" style="stroke:#181818;stroke-width:1.0;"/><line style="stroke:#181818;stroke-width:1.0;" x1="99.5479" x2="408.5942" y1="173.8242" y2="173.8242"/><text fill="#000000" font-family="sans-serif" font-size="13" lengthAdjust="spacing" textLength="139.4453" x="106.5479" y="151.2705">PATCH /api/patients/me</text><text fill="#000000" font-family="sans-serif" font-size="13" lengthAdjust="spacing" textLength="148.8335" x="106.5479" y="168.5615">Body: ContactDetailsDTO</text><path d="M10,188.8242 L70.1709,188.8242 L70.1709,198.1152 L60.1709,208.1152 L10,208.1152 L10,188.8242 " fill="#EEEEEE" style="stroke:#000000;stroke-width:1.5;"/><rect fill="none" height="202.3281" style="stroke:#000000;stroke-width:1.5;" width="454.9321" x="10" y="188.8242"/><text fill="#000000" font-family="sans-serif" font-size="13" font-weight="bold" lengthAdjust="spacing" textLength="15.1709" x="25" y="203.8525">alt</text><text fill="#000000" font-family="sans-serif" font-size="11" font-weight="bold" lengthAdjust="spacing" textLength="123.46" x="85.1709" y="202.6943">[invalid fields provided]</text><polygon fill="#181818" points="110.5479,244.6973,100.5479,248.6973,110.5479,252.6973,106.5479,248.6973" style="stroke:#181818;stroke-width:1.0;"/><line style="stroke:#181818;stroke-width:1.0;stroke-dasharray:2.0,2.0;" x1="104.5479" x2="413.5942" y1="248.6973" y2="248.6973"/><text fill="#000000" font-family="sans-serif" font-size="13" lengthAdjust="spacing" textLength="100.4644" x="116.5479" y="226.1436">400 Bad Request</text><text fill="#000000" font-family="sans-serif" font-size="13" lengthAdjust="spacing" textLength="75.7212" x="116.5479" y="243.4346">"Invalid data"</text><line style="stroke:#000000;stroke-width:1.0;stroke-dasharray:2.0,2.0;" x1="10" x2="464.9321" y1="257.6973" y2="257.6973"/><path d="M20,265.6973 L80.1709,265.6973 L80.1709,274.9883 L70.1709,284.9883 L20,284.9883 L20,265.6973 " fill="#EEEEEE" style="stroke:#000000;stroke-width:1.5;"/><rect fill="none" height="118.4551" style="stroke:#000000;stroke-width:1.5;" width="434.9321" x="20" y="265.6973"/><text fill="#000000" font-family="sans-serif" font-size="13" font-weight="bold" lengthAdjust="spacing" textLength="15.1709" x="35" y="280.7256">alt</text><text fill="#000000" font-family="sans-serif" font-size="11" font-weight="bold" lengthAdjust="spacing" textLength="92.8877" x="95.1709" y="279.5674">[photo is present]</text><polygon fill="#181818" points="110.5479,321.5703,100.5479,325.5703,110.5479,329.5703,106.5479,325.5703" style="stroke:#181818;stroke-width:1.0;"/><line style="stroke:#181818;stroke-width:1.0;stroke-dasharray:2.0,2.0;" x1="104.5479" x2="413.5942" y1="325.5703" y2="325.5703"/><text fill="#000000" font-family="sans-serif" font-size="13" lengthAdjust="spacing" textLength="44.0845" x="116.5479" y="303.0166">200 OK</text><text fill="#000000" font-family="sans-serif" font-size="13" lengthAdjust="spacing" textLength="291.0464" x="116.5479" y="320.3076">"Contact details updated successfully (with photo)"</text><line style="stroke:#000000;stroke-width:1.0;stroke-dasharray:2.0,2.0;" x1="20" x2="454.9321" y1="334.5703" y2="334.5703"/><polygon fill="#181818" points="110.5479,372.1523,100.5479,376.1523,110.5479,380.1523,106.5479,376.1523" style="stroke:#181818;stroke-width:1.0;"/><line style="stroke:#181818;stroke-width:1.0;stroke-dasharray:2.0,2.0;" x1="104.5479" x2="413.5942" y1="376.1523" y2="376.1523"/><text fill="#000000" font-family="sans-serif" font-size="13" lengthAdjust="spacing" textLength="44.0845" x="116.5479" y="353.5986">200 OK</text><text fill="#000000" font-family="sans-serif" font-size="13" lengthAdjust="spacing" textLength="219.5146" x="116.5479" y="370.8896">"Contact details updated successfully"</text><!--SRC=[jP0nQyCm58Ht_Of3KpkOc58wU2WayP3I8Q5EjYp2Ui4F55crdbFyxoidTZi5kXGaWVHEznqdB8vmgF8NPAYgCfs7O8qGrgqNKmjA4iCkmgI5dH4cBoeDsWvwsKkJhbod3tOUQXLCbzuu62_GrH25pbgfEsfahpyY5DWjz-iD5YRm8jmKSN6cer-rTYZcK5EcShzLoZW1-ujnR75YSZOYTEs5BLc5N-TinDn9KE0vpx4o5X_qsLEKezTlasNgmcX5Bb9o6rcXQQK5ZnIAOnV0dp5F2RDzJ-vpkNOgjxzsRX7xkgOOJxrp0nw-M9eRxr4dp1JYVsXNWBSgxMy0]--></g></svg>