<svg xmlns="http://www.w3.org/2000/svg" xmlns:xlink="http://www.w3.org/1999/xlink" contentStyleType="text/css" height="733px" preserveAspectRatio="none" style="width:1103px;height:733px;background:#FFFFFF;" version="1.1" viewBox="0 0 1103 733" width="1103px" zoomAndPan="magnify"><title>US06 - SD - Update Contact Details as a Patient</title><defs/><g><text fill="#000000" font-family="sans-serif" font-size="14" font-weight="bold" lengthAdjust="spacing" textLength="314.3027" x="395.5085" y="30.1074">US06 - SD - Update Contact Details as a Patient</text><rect fill="#FFFFFF" height="206.0371" style="stroke:#181818;stroke-width:1.0;" width="10" x="84.5479" y="133.2422"/><rect fill="#FFFFFF" height="182.7461" style="stroke:#181818;stroke-width:1.0;" width="10" x="264.2231" y="156.5332"/><rect fill="#FFFFFF" height="120.1641" style="stroke:#181818;stroke-width:1.0;" width="10" x="497.9087" y="187.8242"/><rect fill="#FFFFFF" height="31.291" style="stroke:#181818;stroke-width:1.0;" width="10" x="667.563" y="219.1152"/><rect fill="#FFFFFF" height="31.291" style="stroke:#181818;stroke-width:1.0;" width="10" x="667.563" y="531.0254"/><rect fill="#FFFFFF" height="31.291" style="stroke:#181818;stroke-width:1.0;" width="10" x="834.3657" y="398.8613"/><rect fill="#FFFFFF" height="31.291" style="stroke:#181818;stroke-width:1.0;" width="10" x="1001.1685" y="468.4434"/><rect fill="none" height="367.4922" style="stroke:#000000;stroke-width:1.5;" width="1086.3198" x="10" y="265.4063"/><rect fill="none" height="81.873" style="stroke:#000000;stroke-width:1.5;" width="511.3047" x="414.7124" y="356.2793"/><line style="stroke:#181818;stroke-width:0.5;stroke-dasharray:5.0,5.0;" x1="89" x2="89" y1="123.2422" y2="649.8984"/><line style="stroke:#181818;stroke-width:0.5;stroke-dasharray:5.0,5.0;" x1="268.4063" x2="268.4063" y1="123.2422" y2="649.8984"/><line style="stroke:#181818;stroke-width:0.5;stroke-dasharray:5.0,5.0;" x1="502.7124" x2="502.7124" y1="123.2422" y2="649.8984"/><line style="stroke:#181818;stroke-width:0.5;stroke-dasharray:5.0,5.0;" x1="672.4116" x2="672.4116" y1="123.2422" y2="649.8984"/><line style="stroke:#181818;stroke-width:0.5;stroke-dasharray:5.0,5.0;" x1="838.7144" x2="838.7144" y1="123.2422" y2="649.8984"/><line style="stroke:#181818;stroke-width:0.5;stroke-dasharray:5.0,5.0;" x1="1006.0171" x2="1006.0171" y1="123.2422" y2="649.8984"/><text fill="#000000" font-family="sans-serif" font-size="14" lengthAdjust="spacing" textLength="133.0957" x="20" y="119.7285">Authenticated Patient</text><ellipse cx="89.5479" cy="53.1211" fill="#E2E2F0" rx="8" ry="8" style="stroke:#181818;stroke-width:0.5;"/><path d="M89.5479,61.1211 L89.5479,88.1211 M76.5479,69.1211 L102.5479,69.1211 M89.5479,88.1211 L76.5479,103.1211 M89.5479,88.1211 L102.5479,103.1211 " fill="none" style="stroke:#181818;stroke-width:0.5;"/><text fill="#000000" font-family="sans-serif" font-size="14" lengthAdjust="spacing" textLength="133.0957" x="20" y="664.0059">Authenticated Patient</text><ellipse cx="89.5479" cy="676.0195" fill="#E2E2F0" rx="8" ry="8" style="stroke:#181818;stroke-width:0.5;"/><path d="M89.5479,684.0195 L89.5479,711.0195 M76.5479,692.0195 L102.5479,692.0195 M89.5479,711.0195 L76.5479,726.0195 M89.5479,711.0195 L102.5479,726.0195 " fill="none" style="stroke:#181818;stroke-width:0.5;"/><rect fill="#E2E2F0" height="32.6211" rx="2.5" ry="2.5" style="stroke:#181818;stroke-width:0.5;" width="183.6338" x="177.4063" y="89.6211"/><text fill="#000000" font-family="sans-serif" font-size="14" lengthAdjust="spacing" textLength="169.6338" x="184.4063" y="111.7285">:controller:PatientController</text><rect fill="#E2E2F0" height="32.6211" rx="2.5" ry="2.5" style="stroke:#181818;stroke-width:0.5;" width="183.6338" x="177.4063" y="648.8984"/><text fill="#000000" font-family="sans-serif" font-size="14" lengthAdjust="spacing" textLength="169.6338" x="184.4063" y="671.0059">:controller:PatientController</text><rect fill="#E2E2F0" height="32.6211" rx="2.5" ry="2.5" style="stroke:#181818;stroke-width:0.5;" width="156.3926" x="424.7124" y="89.6211"/><text fill="#000000" font-family="sans-serif" font-size="14" lengthAdjust="spacing" textLength="142.3926" x="431.7124" y="111.7285">:service:PatientService</text><rect fill="#E2E2F0" height="32.6211" rx="2.5" ry="2.5" style="stroke:#181818;stroke-width:0.5;" width="156.3926" x="424.7124" y="648.8984"/><text fill="#000000" font-family="sans-serif" font-size="14" lengthAdjust="spacing" textLength="142.3926" x="431.7124" y="671.0059">:service:PatientService</text><rect fill="#E2E2F0" height="32.6211" rx="2.5" ry="2.5" style="stroke:#181818;stroke-width:0.5;" width="160.3027" x="592.4116" y="89.6211"/><text fill="#000000" font-family="sans-serif" font-size="14" lengthAdjust="spacing" textLength="146.3027" x="599.4116" y="111.7285">:repo:PatientRepository</text><rect fill="#E2E2F0" height="32.6211" rx="2.5" ry="2.5" style="stroke:#181818;stroke-width:0.5;" width="160.3027" x="592.4116" y="648.8984"/><text fill="#000000" font-family="sans-serif" font-size="14" lengthAdjust="spacing" textLength="146.3027" x="599.4116" y="671.0059">:repo:PatientRepository</text><rect fill="#E2E2F0" height="32.6211" rx="2.5" ry="2.5" style="stroke:#181818;stroke-width:0.5;" width="153.3027" x="762.7144" y="89.6211"/><text fill="#000000" font-family="sans-serif" font-size="14" lengthAdjust="spacing" textLength="139.3027" x="769.7144" y="111.7285">:repo:PhotoRepository</text><rect fill="#E2E2F0" height="32.6211" rx="2.5" ry="2.5" style="stroke:#181818;stroke-width:0.5;" width="153.3027" x="762.7144" y="648.8984"/><text fill="#000000" font-family="sans-serif" font-size="14" lengthAdjust="spacing" textLength="139.3027" x="769.7144" y="671.0059">:repo:PhotoRepository</text><rect fill="#E2E2F0" height="32.6211" rx="2.5" ry="2.5" style="stroke:#181818;stroke-width:0.5;" width="160.3027" x="926.0171" y="89.6211"/><text fill="#000000" font-family="sans-serif" font-size="14" lengthAdjust="spacing" textLength="146.3027" x="933.0171" y="111.7285">:mapper:PatientMapper</text><rect fill="#E2E2F0" height="32.6211" rx="2.5" ry="2.5" style="stroke:#181818;stroke-width:0.5;" width="160.3027" x="926.0171" y="648.8984"/><text fill="#000000" font-family="sans-serif" font-size="14" lengthAdjust="spacing" textLength="146.3027" x="933.0171" y="671.0059">:mapper:PatientMapper</text><rect fill="#FFFFFF" height="206.0371" style="stroke:#181818;stroke-width:1.0;" width="10" x="84.5479" y="133.2422"/><rect fill="#FFFFFF" height="182.7461" style="stroke:#181818;stroke-width:1.0;" width="10" x="264.2231" y="156.5332"/><rect fill="#FFFFFF" height="120.1641" style="stroke:#181818;stroke-width:1.0;" width="10" x="497.9087" y="187.8242"/><rect fill="#FFFFFF" height="31.291" style="stroke:#181818;stroke-width:1.0;" width="10" x="667.563" y="219.1152"/><rect fill="#FFFFFF" height="31.291" style="stroke:#181818;stroke-width:1.0;" width="10" x="667.563" y="531.0254"/><rect fill="#FFFFFF" height="31.291" style="stroke:#181818;stroke-width:1.0;" width="10" x="834.3657" y="398.8613"/><rect fill="#FFFFFF" height="31.291" style="stroke:#181818;stroke-width:1.0;" width="10" x="1001.1685" y="468.4434"/><polygon fill="#181818" points="252.2231,152.5332,262.2231,156.5332,252.2231,160.5332,256.2231,156.5332" style="stroke:#181818;stroke-width:1.0;"/><line style="stroke:#181818;stroke-width:1.0;" x1="94.5479" x2="258.2231" y1="156.5332" y2="156.5332"/><text fill="#000000" font-family="sans-serif" font-size="13" font-weight="bold" lengthAdjust="spacing" textLength="7.23" x="101.5479" y="151.2705">1</text><text fill="#000000" font-family="sans-serif" font-size="13" lengthAdjust="spacing" textLength="139.4453" x="112.7778" y="151.2705">PATCH /api/patients/me</text><polygon fill="#181818" points="485.9087,183.8242,495.9087,187.8242,485.9087,191.8242,489.9087,187.8242" style="stroke:#181818;stroke-width:1.0;"/><line style="stroke:#181818;stroke-width:1.0;" x1="274.2231" x2="491.9087" y1="187.8242" y2="187.8242"/><text fill="#000000" font-family="sans-serif" font-size="13" font-weight="bold" lengthAdjust="spacing" textLength="7.23" x="281.2231" y="182.5615">2</text><text fill="#000000" font-family="sans-serif" font-size="13" lengthAdjust="spacing" textLength="190.0552" x="292.4531" y="182.5615">updateContactDetails(dto, token)</text><polygon fill="#181818" points="655.563,215.1152,665.563,219.1152,655.563,223.1152,659.563,219.1152" style="stroke:#181818;stroke-width:1.0;"/><line style="stroke:#181818;stroke-width:1.0;" x1="507.9087" x2="661.563" y1="219.1152" y2="219.1152"/><text fill="#000000" font-family="sans-serif" font-size="13" font-weight="bold" lengthAdjust="spacing" textLength="7.23" x="514.9087" y="213.8525">3</text><text fill="#000000" font-family="sans-serif" font-size="13" lengthAdjust="spacing" textLength="112.7217" x="526.1387" y="213.8525">findByToken(token)</text><polygon fill="#181818" points="518.9087,246.4063,508.9087,250.4063,518.9087,254.4063,514.9087,250.4063" style="stroke:#181818;stroke-width:1.0;"/><line style="stroke:#181818;stroke-width:1.0;stroke-dasharray:2.0,2.0;" x1="512.9087" x2="671.563" y1="250.4063" y2="250.4063"/><text fill="#000000" font-family="sans-serif" font-size="13" font-weight="bold" lengthAdjust="spacing" textLength="7.23" x="524.9087" y="245.1436">4</text><text fill="#000000" font-family="sans-serif" font-size="13" lengthAdjust="spacing" textLength="100.4136" x="536.1387" y="245.1436">Patient (from DB)</text><path d="M10,265.4063 L70.1709,265.4063 L70.1709,274.6973 L60.1709,284.6973 L10,284.6973 L10,265.4063 " fill="#EEEEEE" style="stroke:#000000;stroke-width:1.5;"/><rect fill="none" height="367.4922" style="stroke:#000000;stroke-width:1.5;" width="1086.3198" x="10" y="265.4063"/><text fill="#000000" font-family="sans-serif" font-size="13" font-weight="bold" lengthAdjust="spacing" textLength="15.1709" x="25" y="280.4346">alt</text><text fill="#000000" font-family="sans-serif" font-size="11" font-weight="bold" lengthAdjust="spacing" textLength="123.46" x="85.1709" y="279.2764">[invalid fields provided]</text><polygon fill="#181818" points="285.2231,303.9883,275.2231,307.9883,285.2231,311.9883,281.2231,307.9883" style="stroke:#181818;stroke-width:1.0;"/><line style="stroke:#181818;stroke-width:1.0;stroke-dasharray:2.0,2.0;" x1="279.2231" x2="501.9087" y1="307.9883" y2="307.9883"/><text fill="#000000" font-family="sans-serif" font-size="13" font-weight="bold" lengthAdjust="spacing" textLength="7.23" x="291.2231" y="302.7256">5</text><text fill="#000000" font-family="sans-serif" font-size="13" lengthAdjust="spacing" textLength="188.4556" x="302.4531" y="302.7256">400 Bad Request ("Invalid data")</text><polygon fill="#181818" points="100.5479,335.2793,90.5479,339.2793,100.5479,343.2793,96.5479,339.2793" style="stroke:#181818;stroke-width:1.0;"/><line style="stroke:#181818;stroke-width:1.0;stroke-dasharray:2.0,2.0;" x1="94.5479" x2="268.2231" y1="339.2793" y2="339.2793"/><text fill="#000000" font-family="sans-serif" font-size="13" font-weight="bold" lengthAdjust="spacing" textLength="7.23" x="106.5479" y="334.0166">6</text><text fill="#000000" font-family="sans-serif" font-size="13" lengthAdjust="spacing" textLength="100.4644" x="117.7778" y="334.0166">400 Bad Request</text><line style="stroke:#000000;stroke-width:1.0;stroke-dasharray:2.0,2.0;" x1="10" x2="1096.3198" y1="348.2793" y2="348.2793"/><path d="M414.7124,356.2793 L474.8833,356.2793 L474.8833,365.5703 L464.8833,375.5703 L414.7124,375.5703 L414.7124,356.2793 " fill="#EEEEEE" style="stroke:#000000;stroke-width:1.5;"/><rect fill="none" height="81.873" style="stroke:#000000;stroke-width:1.5;" width="511.3047" x="414.7124" y="356.2793"/><text fill="#000000" font-family="sans-serif" font-size="13" font-weight="bold" lengthAdjust="spacing" textLength="15.1709" x="429.7124" y="371.3076">alt</text><text fill="#000000" font-family="sans-serif" font-size="11" font-weight="bold" lengthAdjust="spacing" textLength="92.8877" x="489.8833" y="370.1494">[photo is present]</text><polygon fill="#181818" points="822.3657,394.8613,832.3657,398.8613,822.3657,402.8613,826.3657,398.8613" style="stroke:#181818;stroke-width:1.0;"/><line style="stroke:#181818;stroke-width:1.0;" x1="502.9087" x2="828.3657" y1="398.8613" y2="398.8613"/><text fill="#000000" font-family="sans-serif" font-size="13" font-weight="bold" lengthAdjust="spacing" textLength="7.23" x="509.9087" y="393.5986">7</text><text fill="#000000" font-family="sans-serif" font-size="13" lengthAdjust="spacing" textLength="68.6499" x="521.1387" y="393.5986">save(photo)</text><polygon fill="#181818" points="513.9087,426.1523,503.9087,430.1523,513.9087,434.1523,509.9087,430.1523" style="stroke:#181818;stroke-width:1.0;"/><line style="stroke:#181818;stroke-width:1.0;stroke-dasharray:2.0,2.0;" x1="507.9087" x2="838.3657" y1="430.1523" y2="430.1523"/><text fill="#000000" font-family="sans-serif" font-size="13" font-weight="bold" lengthAdjust="spacing" textLength="7.23" x="519.9087" y="424.8896">8</text><text fill="#000000" font-family="sans-serif" font-size="13" lengthAdjust="spacing" textLength="33.9727" x="531.1387" y="424.8896">Photo</text><polygon fill="#181818" points="989.1685,464.4434,999.1685,468.4434,989.1685,472.4434,993.1685,468.4434" style="stroke:#181818;stroke-width:1.0;"/><line style="stroke:#181818;stroke-width:1.0;" x1="502.9087" x2="995.1685" y1="468.4434" y2="468.4434"/><text fill="#000000" font-family="sans-serif" font-size="13" font-weight="bold" lengthAdjust="spacing" textLength="7.23" x="509.9087" y="463.1807">9</text><text fill="#000000" font-family="sans-serif" font-size="13" lengthAdjust="spacing" textLength="147.4243" x="521.1387" y="463.1807">updateFields(patient, dto)</text><polygon fill="#181818" points="513.9087,495.7344,503.9087,499.7344,513.9087,503.7344,509.9087,499.7344" style="stroke:#181818;stroke-width:1.0;"/><line style="stroke:#181818;stroke-width:1.0;stroke-dasharray:2.0,2.0;" x1="507.9087" x2="1005.1685" y1="499.7344" y2="499.7344"/><text fill="#000000" font-family="sans-serif" font-size="13" font-weight="bold" lengthAdjust="spacing" textLength="14.46" x="519.9087" y="494.4717">10</text><text fill="#000000" font-family="sans-serif" font-size="13" lengthAdjust="spacing" textLength="93.2344" x="538.3687" y="494.4717">Updated Patient</text><polygon fill="#181818" points="655.563,527.0254,665.563,531.0254,655.563,535.0254,659.563,531.0254" style="stroke:#181818;stroke-width:1.0;"/><line style="stroke:#181818;stroke-width:1.0;" x1="502.9087" x2="661.563" y1="531.0254" y2="531.0254"/><text fill="#000000" font-family="sans-serif" font-size="13" font-weight="bold" lengthAdjust="spacing" textLength="14.46" x="509.9087" y="525.7627">11</text><text fill="#000000" font-family="sans-serif" font-size="13" lengthAdjust="spacing" textLength="127.1943" x="528.3687" y="525.7627">save(updated Patient)</text><polygon fill="#181818" points="513.9087,558.3164,503.9087,562.3164,513.9087,566.3164,509.9087,562.3164" style="stroke:#181818;stroke-width:1.0;"/><line style="stroke:#181818;stroke-width:1.0;stroke-dasharray:2.0,2.0;" x1="507.9087" x2="671.563" y1="562.3164" y2="562.3164"/><text fill="#000000" font-family="sans-serif" font-size="13" font-weight="bold" lengthAdjust="spacing" textLength="14.46" x="519.9087" y="557.0537">12</text><text fill="#000000" font-family="sans-serif" font-size="13" lengthAdjust="spacing" textLength="40.4727" x="538.3687" y="557.0537">Patient</text><polygon fill="#181818" points="280.2231,589.6074,270.2231,593.6074,280.2231,597.6074,276.2231,593.6074" style="stroke:#181818;stroke-width:1.0;"/><line style="stroke:#181818;stroke-width:1.0;stroke-dasharray:2.0,2.0;" x1="274.2231" x2="501.9087" y1="593.6074" y2="593.6074"/><text fill="#000000" font-family="sans-serif" font-size="13" font-weight="bold" lengthAdjust="spacing" textLength="14.46" x="286.2231" y="588.3447">13</text><text fill="#000000" font-family="sans-serif" font-size="13" lengthAdjust="spacing" textLength="105.4917" x="304.6831" y="588.3447">Success message</text><polygon fill="#181818" points="100.5479,620.8984,90.5479,624.8984,100.5479,628.8984,96.5479,624.8984" style="stroke:#181818;stroke-width:1.0;"/><line style="stroke:#181818;stroke-width:1.0;stroke-dasharray:2.0,2.0;" x1="94.5479" x2="268.2231" y1="624.8984" y2="624.8984"/><text fill="#000000" font-family="sans-serif" font-size="13" font-weight="bold" lengthAdjust="spacing" textLength="14.46" x="106.5479" y="619.6357">14</text><text fill="#000000" font-family="sans-serif" font-size="13" lengthAdjust="spacing" textLength="44.0845" x="125.0078" y="619.6357">200 OK</text><!--SRC=[dLHTQy8m57tFhxZqgOAYZB477mPJ6HjZR4pt0xBcEiFQ94lIWlz-jssqjQsR3AIOs_FHUppLIvyYlAzdDp21zOekxqPmZx3KolF4mmezbwa3JXzuvLwYyepdNjDDMPH8hQgpohCFj8pHN5k8xdA_8wXC228En8WPRcac3LSUedb29bQdATfvG2oFawYqx4qx0Wvj8HCyiDVriKqDemxFej47qXjzTv8UUj_cDTD1wavxtIMUpZgqZ1lJhFbSdTf-zQIAhuxrN8Bip0sOtFRZWZcytcsM3p3bHavDVTjDCsIiZsq4GcZ4pgisX3A4BiJ2wp5u_OLgTDGvK1gH9WhIsKeb5ljDoOa3im-R33r1642yjJg3rO8iUUf1geAdKf0mfiA1iRgG0WM3hiBaJ2xNinaik80t_CxHaNxq62HfOnwD6gLsH2HsBl-U92a8_FFtnDGX8SkTJDaWaEKswCht3A2_pcstQ6JiU85nnHxLd0vYEDWIH71KWh51dtOpZrsuhmAFGvV686hJK_2WOVtFSbpzLzF-Ulafk-LvOOFOvTrOvqc2pa565_w9_wZ25LNXvUd21YZn0m00]--></g></svg>