<svg xmlns="http://www.w3.org/2000/svg" xmlns:xlink="http://www.w3.org/1999/xlink" contentStyleType="text/css" height="572px" preserveAspectRatio="none" style="width:941px;height:572px;background:#FFFFFF;" version="1.1" viewBox="0 0 941 572" width="941px" zoomAndPan="magnify"><title>US08 - SD - View patient&#180;s details</title><defs/><g><text fill="#000000" font-family="sans-serif" font-size="14" font-weight="bold" lengthAdjust="spacing" textLength="221.7236" x="361.3452" y="30.1074">US08 - SD - View patient&#180;s details</text><rect fill="#FFFFFF" height="347.2012" style="stroke:#181818;stroke-width:1.0;" width="10" x="17.7793" y="133.2422"/><rect fill="#FFFFFF" height="314.9102" style="stroke:#181818;stroke-width:1.0;" width="10" x="180.8618" y="156.5332"/><rect fill="#FFFFFF" height="31.291" style="stroke:#181818;stroke-width:1.0;" width="10" x="348.0474" y="187.8242"/><rect fill="#FFFFFF" height="156.4551" style="stroke:#181818;stroke-width:1.0;" width="10" x="501.6123" y="276.6973"/><rect fill="#FFFFFF" height="31.291" style="stroke:#181818;stroke-width:1.0;" width="10" x="669.96" y="307.9883"/><rect fill="#FFFFFF" height="31.291" style="stroke:#181818;stroke-width:1.0;" width="10" x="840.2627" y="370.5703"/><rect fill="none" height="207.0371" style="stroke:#000000;stroke-width:1.5;" width="851.3691" x="84.0449" y="234.1152"/><line style="stroke:#181818;stroke-width:0.5;stroke-dasharray:5.0,5.0;" x1="22" x2="22" y1="123.2422" y2="489.4434"/><line style="stroke:#181818;stroke-width:0.5;stroke-dasharray:5.0,5.0;" x1="185.0449" x2="185.0449" y1="123.2422" y2="489.4434"/><line style="stroke:#181818;stroke-width:0.5;stroke-dasharray:5.0,5.0;" x1="352.6787" x2="352.6787" y1="123.2422" y2="489.4434"/><line style="stroke:#181818;stroke-width:0.5;stroke-dasharray:5.0,5.0;" x1="506.416" x2="506.416" y1="123.2422" y2="489.4434"/><line style="stroke:#181818;stroke-width:0.5;stroke-dasharray:5.0,5.0;" x1="674.8086" x2="674.8086" y1="123.2422" y2="489.4434"/><line style="stroke:#181818;stroke-width:0.5;stroke-dasharray:5.0,5.0;" x1="845.1113" x2="845.1113" y1="123.2422" y2="489.4434"/><text fill="#000000" font-family="sans-serif" font-size="14" lengthAdjust="spacing" textLength="29.5586" x="5" y="119.7285">User</text><ellipse cx="22.7793" cy="53.1211" fill="#E2E2F0" rx="8" ry="8" style="stroke:#181818;stroke-width:0.5;"/><path d="M22.7793,61.1211 L22.7793,88.1211 M9.7793,69.1211 L35.7793,69.1211 M22.7793,88.1211 L9.7793,103.1211 M22.7793,88.1211 L35.7793,103.1211 " fill="none" style="stroke:#181818;stroke-width:0.5;"/><text fill="#000000" font-family="sans-serif" font-size="14" lengthAdjust="spacing" textLength="29.5586" x="5" y="503.5508">User</text><ellipse cx="22.7793" cy="515.5645" fill="#E2E2F0" rx="8" ry="8" style="stroke:#181818;stroke-width:0.5;"/><path d="M22.7793,523.5645 L22.7793,550.5645 M9.7793,531.5645 L35.7793,531.5645 M22.7793,550.5645 L9.7793,565.5645 M22.7793,550.5645 L35.7793,565.5645 " fill="none" style="stroke:#181818;stroke-width:0.5;"/><rect fill="#E2E2F0" height="32.6211" rx="2.5" ry="2.5" style="stroke:#181818;stroke-width:0.5;" width="183.6338" x="94.0449" y="89.6211"/><text fill="#000000" font-family="sans-serif" font-size="14" lengthAdjust="spacing" textLength="169.6338" x="101.0449" y="111.7285">:controller:PatientController</text><rect fill="#E2E2F0" height="32.6211" rx="2.5" ry="2.5" style="stroke:#181818;stroke-width:0.5;" width="183.6338" x="94.0449" y="488.4434"/><text fill="#000000" font-family="sans-serif" font-size="14" lengthAdjust="spacing" textLength="169.6338" x="101.0449" y="510.5508">:controller:PatientController</text><rect fill="#E2E2F0" height="32.6211" rx="2.5" ry="2.5" style="stroke:#181818;stroke-width:0.5;" width="130.7373" x="287.6787" y="89.6211"/><text fill="#000000" font-family="sans-serif" font-size="14" lengthAdjust="spacing" textLength="116.7373" x="294.6787" y="111.7285">:helper:AuthHelper</text><rect fill="#E2E2F0" height="32.6211" rx="2.5" ry="2.5" style="stroke:#181818;stroke-width:0.5;" width="130.7373" x="287.6787" y="488.4434"/><text fill="#000000" font-family="sans-serif" font-size="14" lengthAdjust="spacing" textLength="116.7373" x="294.6787" y="510.5508">:helper:AuthHelper</text><rect fill="#E2E2F0" height="32.6211" rx="2.5" ry="2.5" style="stroke:#181818;stroke-width:0.5;" width="156.3926" x="428.416" y="89.6211"/><text fill="#000000" font-family="sans-serif" font-size="14" lengthAdjust="spacing" textLength="142.3926" x="435.416" y="111.7285">:service:PatientService</text><rect fill="#E2E2F0" height="32.6211" rx="2.5" ry="2.5" style="stroke:#181818;stroke-width:0.5;" width="156.3926" x="428.416" y="488.4434"/><text fill="#000000" font-family="sans-serif" font-size="14" lengthAdjust="spacing" textLength="142.3926" x="435.416" y="510.5508">:service:PatientService</text><rect fill="#E2E2F0" height="32.6211" rx="2.5" ry="2.5" style="stroke:#181818;stroke-width:0.5;" width="160.3027" x="594.8086" y="89.6211"/><text fill="#000000" font-family="sans-serif" font-size="14" lengthAdjust="spacing" textLength="146.3027" x="601.8086" y="111.7285">:repo:PatientRepository</text><rect fill="#E2E2F0" height="32.6211" rx="2.5" ry="2.5" style="stroke:#181818;stroke-width:0.5;" width="160.3027" x="594.8086" y="488.4434"/><text fill="#000000" font-family="sans-serif" font-size="14" lengthAdjust="spacing" textLength="146.3027" x="601.8086" y="510.5508">:repo:PatientRepository</text><rect fill="#E2E2F0" height="32.6211" rx="2.5" ry="2.5" style="stroke:#181818;stroke-width:0.5;" width="160.3027" x="765.1113" y="89.6211"/><text fill="#000000" font-family="sans-serif" font-size="14" lengthAdjust="spacing" textLength="146.3027" x="772.1113" y="111.7285">:mapper:PatientMapper</text><rect fill="#E2E2F0" height="32.6211" rx="2.5" ry="2.5" style="stroke:#181818;stroke-width:0.5;" width="160.3027" x="765.1113" y="488.4434"/><text fill="#000000" font-family="sans-serif" font-size="14" lengthAdjust="spacing" textLength="146.3027" x="772.1113" y="510.5508">:mapper:PatientMapper</text><rect fill="#FFFFFF" height="347.2012" style="stroke:#181818;stroke-width:1.0;" width="10" x="17.7793" y="133.2422"/><rect fill="#FFFFFF" height="314.9102" style="stroke:#181818;stroke-width:1.0;" width="10" x="180.8618" y="156.5332"/><rect fill="#FFFFFF" height="31.291" style="stroke:#181818;stroke-width:1.0;" width="10" x="348.0474" y="187.8242"/><rect fill="#FFFFFF" height="156.4551" style="stroke:#181818;stroke-width:1.0;" width="10" x="501.6123" y="276.6973"/><rect fill="#FFFFFF" height="31.291" style="stroke:#181818;stroke-width:1.0;" width="10" x="669.96" y="307.9883"/><rect fill="#FFFFFF" height="31.291" style="stroke:#181818;stroke-width:1.0;" width="10" x="840.2627" y="370.5703"/><polygon fill="#181818" points="168.8618,152.5332,178.8618,156.5332,168.8618,160.5332,172.8618,156.5332" style="stroke:#181818;stroke-width:1.0;"/><line style="stroke:#181818;stroke-width:1.0;" x1="27.7793" x2="174.8618" y1="156.5332" y2="156.5332"/><text fill="#000000" font-family="sans-serif" font-size="13" font-weight="bold" lengthAdjust="spacing" textLength="7.23" x="34.7793" y="151.2705">1</text><text fill="#000000" font-family="sans-serif" font-size="13" lengthAdjust="spacing" textLength="122.8525" x="46.0093" y="151.2705">GET /api/patients/{id}</text><polygon fill="#181818" points="336.0474,183.8242,346.0474,187.8242,336.0474,191.8242,340.0474,187.8242" style="stroke:#181818;stroke-width:1.0;"/><line style="stroke:#181818;stroke-width:1.0;" x1="190.8618" x2="342.0474" y1="187.8242" y2="187.8242"/><text fill="#000000" font-family="sans-serif" font-size="13" font-weight="bold" lengthAdjust="spacing" textLength="7.23" x="197.8618" y="182.5615">2</text><text fill="#000000" font-family="sans-serif" font-size="13" lengthAdjust="spacing" textLength="97.5254" x="209.0918" y="182.5615">getCurrentUser()</text><polygon fill="#181818" points="201.8618,215.1152,191.8618,219.1152,201.8618,223.1152,197.8618,219.1152" style="stroke:#181818;stroke-width:1.0;"/><line style="stroke:#181818;stroke-width:1.0;stroke-dasharray:2.0,2.0;" x1="195.8618" x2="352.0474" y1="219.1152" y2="219.1152"/><text fill="#000000" font-family="sans-serif" font-size="13" font-weight="bold" lengthAdjust="spacing" textLength="7.23" x="207.8618" y="213.8525">3</text><text fill="#000000" font-family="sans-serif" font-size="13" lengthAdjust="spacing" textLength="61.3945" x="219.0918" y="213.8525">User (role)</text><path d="M84.0449,234.1152 L144.2158,234.1152 L144.2158,243.4063 L134.2158,253.4063 L84.0449,253.4063 L84.0449,234.1152 " fill="#EEEEEE" style="stroke:#000000;stroke-width:1.5;"/><rect fill="none" height="207.0371" style="stroke:#000000;stroke-width:1.5;" width="851.3691" x="84.0449" y="234.1152"/><text fill="#000000" font-family="sans-serif" font-size="13" font-weight="bold" lengthAdjust="spacing" textLength="15.1709" x="99.0449" y="249.1436">alt</text><text fill="#000000" font-family="sans-serif" font-size="11" font-weight="bold" lengthAdjust="spacing" textLength="116.1284" x="159.2158" y="247.9854">[(user.role == ADMIN)]</text><polygon fill="#181818" points="489.6123,272.6973,499.6123,276.6973,489.6123,280.6973,493.6123,276.6973" style="stroke:#181818;stroke-width:1.0;"/><line style="stroke:#181818;stroke-width:1.0;" x1="190.8618" x2="495.6123" y1="276.6973" y2="276.6973"/><text fill="#000000" font-family="sans-serif" font-size="13" font-weight="bold" lengthAdjust="spacing" textLength="7.23" x="197.8618" y="271.4346">4</text><text fill="#000000" font-family="sans-serif" font-size="13" lengthAdjust="spacing" textLength="117.0571" x="209.0918" y="271.4346">getPatientDetails(id)</text><polygon fill="#181818" points="657.96,303.9883,667.96,307.9883,657.96,311.9883,661.96,307.9883" style="stroke:#181818;stroke-width:1.0;"/><line style="stroke:#181818;stroke-width:1.0;" x1="511.6123" x2="663.96" y1="307.9883" y2="307.9883"/><text fill="#000000" font-family="sans-serif" font-size="13" font-weight="bold" lengthAdjust="spacing" textLength="7.23" x="518.6123" y="302.7256">5</text><text fill="#000000" font-family="sans-serif" font-size="13" lengthAdjust="spacing" textLength="65.749" x="529.8423" y="302.7256">findById(id)</text><polygon fill="#181818" points="522.6123,335.2793,512.6123,339.2793,522.6123,343.2793,518.6123,339.2793" style="stroke:#181818;stroke-width:1.0;"/><line style="stroke:#181818;stroke-width:1.0;stroke-dasharray:2.0,2.0;" x1="516.6123" x2="673.96" y1="339.2793" y2="339.2793"/><text fill="#000000" font-family="sans-serif" font-size="13" font-weight="bold" lengthAdjust="spacing" textLength="7.23" x="528.6123" y="334.0166">6</text><text fill="#000000" font-family="sans-serif" font-size="13" lengthAdjust="spacing" textLength="40.4727" x="539.8423" y="334.0166">Patient</text><polygon fill="#181818" points="828.2627,366.5703,838.2627,370.5703,828.2627,374.5703,832.2627,370.5703" style="stroke:#181818;stroke-width:1.0;"/><line style="stroke:#181818;stroke-width:1.0;" x1="511.6123" x2="834.2627" y1="370.5703" y2="370.5703"/><text fill="#000000" font-family="sans-serif" font-size="13" font-weight="bold" lengthAdjust="spacing" textLength="7.23" x="518.6123" y="365.3076">7</text><text fill="#000000" font-family="sans-serif" font-size="13" lengthAdjust="spacing" textLength="87.4136" x="529.8423" y="365.3076">toDTO(Patient)</text><polygon fill="#181818" points="522.6123,397.8613,512.6123,401.8613,522.6123,405.8613,518.6123,401.8613" style="stroke:#181818;stroke-width:1.0;"/><line style="stroke:#181818;stroke-width:1.0;stroke-dasharray:2.0,2.0;" x1="516.6123" x2="844.2627" y1="401.8613" y2="401.8613"/><text fill="#000000" font-family="sans-serif" font-size="13" font-weight="bold" lengthAdjust="spacing" textLength="7.23" x="528.6123" y="396.5986">8</text><text fill="#000000" font-family="sans-serif" font-size="13" lengthAdjust="spacing" textLength="67.9136" x="539.8423" y="396.5986">PatientDTO</text><polygon fill="#181818" points="201.8618,429.1523,191.8618,433.1523,201.8618,437.1523,197.8618,433.1523" style="stroke:#181818;stroke-width:1.0;"/><line style="stroke:#181818;stroke-width:1.0;stroke-dasharray:2.0,2.0;" x1="195.8618" x2="505.6123" y1="433.1523" y2="433.1523"/><text fill="#000000" font-family="sans-serif" font-size="13" font-weight="bold" lengthAdjust="spacing" textLength="7.23" x="207.8618" y="427.8896">9</text><text fill="#000000" font-family="sans-serif" font-size="13" lengthAdjust="spacing" textLength="67.9136" x="219.0918" y="427.8896">PatientDTO</text><polygon fill="#181818" points="38.7793,467.4434,28.7793,471.4434,38.7793,475.4434,34.7793,471.4434" style="stroke:#181818;stroke-width:1.0;"/><line style="stroke:#181818;stroke-width:1.0;stroke-dasharray:2.0,2.0;" x1="32.7793" x2="184.8618" y1="471.4434" y2="471.4434"/><text fill="#000000" font-family="sans-serif" font-size="13" font-weight="bold" lengthAdjust="spacing" textLength="14.46" x="44.7793" y="466.1807">10</text><text fill="#000000" font-family="sans-serif" font-size="13" lengthAdjust="spacing" textLength="44.0845" x="63.2393" y="466.1807">200 OK</text><!--SRC=[VP9DJiCm48NtFiKegtGHMh52aOfK6WGLAaNqPsyIGosbjkLCYYh4hJW19sDYfoHDVxA8FC_p-KsUWn9p0Slvu0OYc2VqMadn2OQZ50f_Vmh817AP5upn4ZLFKMuv2j3ArQhSl0bBUobg2y6o43PWXbkKgJHS8GHngXLQdUV2nY_-rF6_4W0lu4Zj7B0MkI5uLEBwqIqTrPITTXfXArEnDvlxikrKIntE2gFtq2kj2qcVj6jpZTf1DzoOvlEchcg3Nd4f-VIgd1YhtX3T7WS0CJpSBw3FZUpNDr7qlsJspOvRYM-Y8F13uBYqbfgguyCUQ-r6PypS826LeaT3vWWGbYHTLGeCXp1AffFd7WDwJWvmcAiVejOI__U4CZlWzwqDt8HB_BjKsTrkadMnLbDqohSMs6KhVntKZZfPpC9QFJ2gMowP47hQvqp8BKoex5oO1BlRYE5wC83P4sD_]--></g></svg>