<svg xmlns="http://www.w3.org/2000/svg" xmlns:xlink="http://www.w3.org/1999/xlink" contentStyleType="text/css" height="607px" preserveAspectRatio="none" style="width:1568px;height:607px;background:#FFFFFF;" version="1.1" viewBox="0 0 1568 607" width="1568px" zoomAndPan="magnify"><title>US03 - SD - View available appointment slots for a physician</title><defs/><g><text fill="#000000" font-family="sans-serif" font-size="14" font-weight="bold" lengthAdjust="spacing" textLength="401.4404" x="582.4214" y="30.1074">US03 - SD - View available appointment slots for a physician</text><rect fill="#FFFFFF" height="373.4922" style="stroke:#181818;stroke-width:1.0;" width="10" x="24.793" y="133.2422"/><rect fill="#FFFFFF" height="347.2012" style="stroke:#181818;stroke-width:1.0;" width="10" x="438.9253" y="159.5332"/><rect fill="#FFFFFF" height="281.6191" style="stroke:#181818;stroke-width:1.0;" width="10" x="712.5459" y="193.8242"/><rect fill="#FFFFFF" height="31.291" style="stroke:#181818;stroke-width:1.0;" width="10" x="906.5693" y="225.1152"/><rect fill="#FFFFFF" height="31.291" style="stroke:#181818;stroke-width:1.0;" width="10" x="1145.5054" y="287.6973"/><rect fill="#FFFFFF" height="31.291" style="stroke:#181818;stroke-width:1.0;" width="10" x="1329.8047" y="350.2793"/><rect fill="#FFFFFF" height="31.291" style="stroke:#181818;stroke-width:1.0;" width="10" x="1486.8628" y="412.8613"/><line style="stroke:#181818;stroke-width:0.5;stroke-dasharray:5.0,5.0;" x1="29" x2="29" y1="123.2422" y2="524.7344"/><line style="stroke:#181818;stroke-width:0.5;stroke-dasharray:5.0,5.0;" x1="443.5981" x2="443.5981" y1="123.2422" y2="524.7344"/><line style="stroke:#181818;stroke-width:0.5;stroke-dasharray:5.0,5.0;" x1="716.8394" x2="716.8394" y1="123.2422" y2="524.7344"/><line style="stroke:#181818;stroke-width:0.5;stroke-dasharray:5.0,5.0;" x1="911.2524" x2="911.2524" y1="123.2422" y2="524.7344"/><line style="stroke:#181818;stroke-width:0.5;stroke-dasharray:5.0,5.0;" x1="1149.8438" x2="1149.8438" y1="123.2422" y2="524.7344"/><line style="stroke:#181818;stroke-width:0.5;stroke-dasharray:5.0,5.0;" x1="1334.167" x2="1334.167" y1="123.2422" y2="524.7344"/><line style="stroke:#181818;stroke-width:0.5;stroke-dasharray:5.0,5.0;" x1="1491.4424" x2="1491.4424" y1="123.2422" y2="524.7344"/><text fill="#000000" font-family="sans-serif" font-size="14" lengthAdjust="spacing" textLength="43.5859" x="5" y="119.7285">Patient</text><ellipse cx="29.793" cy="53.1211" fill="#E2E2F0" rx="8" ry="8" style="stroke:#181818;stroke-width:0.5;"/><path d="M29.793,61.1211 L29.793,88.1211 M16.793,69.1211 L42.793,69.1211 M29.793,88.1211 L16.793,103.1211 M29.793,88.1211 L42.793,103.1211 " fill="none" style="stroke:#181818;stroke-width:0.5;"/><text fill="#000000" font-family="sans-serif" font-size="14" lengthAdjust="spacing" textLength="43.5859" x="5" y="538.8418">Patient</text><ellipse cx="29.793" cy="550.8555" fill="#E2E2F0" rx="8" ry="8" style="stroke:#181818;stroke-width:0.5;"/><path d="M29.793,558.8555 L29.793,585.8555 M16.793,566.8555 L42.793,566.8555 M29.793,585.8555 L16.793,600.8555 M29.793,585.8555 L42.793,600.8555 " fill="none" style="stroke:#181818;stroke-width:0.5;"/><rect fill="#E2E2F0" height="32.6211" rx="2.5" ry="2.5" style="stroke:#181818;stroke-width:0.5;" width="218.6543" x="334.5981" y="89.6211"/><text fill="#000000" font-family="sans-serif" font-size="14" lengthAdjust="spacing" textLength="204.6543" x="341.5981" y="111.7285">:controller:AppointmentController</text><rect fill="#E2E2F0" height="32.6211" rx="2.5" ry="2.5" style="stroke:#181818;stroke-width:0.5;" width="218.6543" x="334.5981" y="523.7344"/><text fill="#000000" font-family="sans-serif" font-size="14" lengthAdjust="spacing" textLength="204.6543" x="341.5981" y="545.8418">:controller:AppointmentController</text><rect fill="#E2E2F0" height="32.6211" rx="2.5" ry="2.5" style="stroke:#181818;stroke-width:0.5;" width="191.4131" x="621.8394" y="89.6211"/><text fill="#000000" font-family="sans-serif" font-size="14" lengthAdjust="spacing" textLength="177.4131" x="628.8394" y="111.7285">:service:AppointmentService</text><rect fill="#E2E2F0" height="32.6211" rx="2.5" ry="2.5" style="stroke:#181818;stroke-width:0.5;" width="191.4131" x="621.8394" y="523.7344"/><text fill="#000000" font-family="sans-serif" font-size="14" lengthAdjust="spacing" textLength="177.4131" x="628.8394" y="545.8418">:service:AppointmentService</text><rect fill="#E2E2F0" height="32.6211" rx="2.5" ry="2.5" style="stroke:#181818;stroke-width:0.5;" width="176.6338" x="823.2524" y="89.6211"/><text fill="#000000" font-family="sans-serif" font-size="14" lengthAdjust="spacing" textLength="162.6338" x="830.2524" y="111.7285">:repo:PhysicianRepository</text><rect fill="#E2E2F0" height="32.6211" rx="2.5" ry="2.5" style="stroke:#181818;stroke-width:0.5;" width="176.6338" x="823.2524" y="523.7344"/><text fill="#000000" font-family="sans-serif" font-size="14" lengthAdjust="spacing" textLength="162.6338" x="830.2524" y="545.8418">:repo:PhysicianRepository</text><rect fill="#E2E2F0" height="32.6211" rx="2.5" ry="2.5" style="stroke:#181818;stroke-width:0.5;" width="195.3232" x="1052.8438" y="89.6211"/><text fill="#000000" font-family="sans-serif" font-size="14" lengthAdjust="spacing" textLength="181.3232" x="1059.8438" y="111.7285">:repo:AppointmentRepository</text><rect fill="#E2E2F0" height="32.6211" rx="2.5" ry="2.5" style="stroke:#181818;stroke-width:0.5;" width="195.3232" x="1052.8438" y="523.7344"/><text fill="#000000" font-family="sans-serif" font-size="14" lengthAdjust="spacing" textLength="181.3232" x="1059.8438" y="545.8418">:repo:AppointmentRepository</text><rect fill="#E2E2F0" height="32.6211" rx="2.5" ry="2.5" style="stroke:#181818;stroke-width:0.5;" width="153.2754" x="1258.167" y="89.6211"/><text fill="#000000" font-family="sans-serif" font-size="14" lengthAdjust="spacing" textLength="139.2754" x="1265.167" y="111.7285">:service:SlotCalculator</text><rect fill="#E2E2F0" height="32.6211" rx="2.5" ry="2.5" style="stroke:#181818;stroke-width:0.5;" width="153.2754" x="1258.167" y="523.7344"/><text fill="#000000" font-family="sans-serif" font-size="14" lengthAdjust="spacing" textLength="139.2754" x="1265.167" y="545.8418">:service:SlotCalculator</text><rect fill="#E2E2F0" height="32.6211" rx="2.5" ry="2.5" style="stroke:#181818;stroke-width:0.5;" width="140.8408" x="1421.4424" y="89.6211"/><text fill="#000000" font-family="sans-serif" font-size="14" lengthAdjust="spacing" textLength="126.8408" x="1428.4424" y="111.7285">:mapper:SlotMapper</text><rect fill="#E2E2F0" height="32.6211" rx="2.5" ry="2.5" style="stroke:#181818;stroke-width:0.5;" width="140.8408" x="1421.4424" y="523.7344"/><text fill="#000000" font-family="sans-serif" font-size="14" lengthAdjust="spacing" textLength="126.8408" x="1428.4424" y="545.8418">:mapper:SlotMapper</text><rect fill="#FFFFFF" height="373.4922" style="stroke:#181818;stroke-width:1.0;" width="10" x="24.793" y="133.2422"/><rect fill="#FFFFFF" height="347.2012" style="stroke:#181818;stroke-width:1.0;" width="10" x="438.9253" y="159.5332"/><rect fill="#FFFFFF" height="281.6191" style="stroke:#181818;stroke-width:1.0;" width="10" x="712.5459" y="193.8242"/><rect fill="#FFFFFF" height="31.291" style="stroke:#181818;stroke-width:1.0;" width="10" x="906.5693" y="225.1152"/><rect fill="#FFFFFF" height="31.291" style="stroke:#181818;stroke-width:1.0;" width="10" x="1145.5054" y="287.6973"/><rect fill="#FFFFFF" height="31.291" style="stroke:#181818;stroke-width:1.0;" width="10" x="1329.8047" y="350.2793"/><rect fill="#FFFFFF" height="31.291" style="stroke:#181818;stroke-width:1.0;" width="10" x="1486.8628" y="412.8613"/><polygon fill="#181818" points="426.9253,155.5332,436.9253,159.5332,426.9253,163.5332,430.9253,159.5332" style="stroke:#181818;stroke-width:1.0;"/><line style="stroke:#181818;stroke-width:1.0;" x1="34.793" x2="432.9253" y1="159.5332" y2="159.5332"/><text fill="#000000" font-family="sans-serif" font-size="13" font-weight="bold" lengthAdjust="spacing" textLength="7.23" x="41.793" y="154.2705">1</text><text fill="#000000" font-family="sans-serif" font-size="13" lengthAdjust="spacing" textLength="373.9023" x="53.0229" y="154.2705">GET /api/appointments/physicians/{id}/slots?start=YYYY-MM-DD</text><path d="M453,138.2422 L453,165.2422 L721,165.2422 L721,148.2422 L711,138.2422 L453,138.2422 " fill="#FEFFDD" style="stroke:#181818;stroke-width:0.5;"/><path d="M711,138.2422 L711,148.2422 L721,148.2422 L711,138.2422 " fill="#FEFFDD" style="stroke:#181818;stroke-width:0.5;"/><text fill="#000000" font-family="sans-serif" font-size="13" lengthAdjust="spacing" textLength="247.0127" x="459" y="157.2705">@PreAuthorize("hasAuthority('PATIENT')")</text><polygon fill="#181818" points="700.5459,189.8242,710.5459,193.8242,700.5459,197.8242,704.5459,193.8242" style="stroke:#181818;stroke-width:1.0;"/><line style="stroke:#181818;stroke-width:1.0;" x1="448.9253" x2="706.5459" y1="193.8242" y2="193.8242"/><text fill="#000000" font-family="sans-serif" font-size="13" font-weight="bold" lengthAdjust="spacing" textLength="7.23" x="455.9253" y="188.5615">2</text><text fill="#000000" font-family="sans-serif" font-size="13" lengthAdjust="spacing" textLength="233.3906" x="467.1553" y="188.5615">getAvailableSlots(physicianId, startDate)</text><polygon fill="#181818" points="894.5693,221.1152,904.5693,225.1152,894.5693,229.1152,898.5693,225.1152" style="stroke:#181818;stroke-width:1.0;"/><line style="stroke:#181818;stroke-width:1.0;" x1="722.5459" x2="900.5693" y1="225.1152" y2="225.1152"/><text fill="#000000" font-family="sans-serif" font-size="13" font-weight="bold" lengthAdjust="spacing" textLength="7.23" x="729.5459" y="219.8525">3</text><text fill="#000000" font-family="sans-serif" font-size="13" lengthAdjust="spacing" textLength="120.6689" x="740.7759" y="219.8525">findById(physicianId)</text><polygon fill="#181818" points="733.5459,252.4063,723.5459,256.4063,733.5459,260.4063,729.5459,256.4063" style="stroke:#181818;stroke-width:1.0;"/><line style="stroke:#181818;stroke-width:1.0;stroke-dasharray:2.0,2.0;" x1="727.5459" x2="910.5693" y1="256.4063" y2="256.4063"/><text fill="#000000" font-family="sans-serif" font-size="13" font-weight="bold" lengthAdjust="spacing" textLength="7.23" x="739.5459" y="251.1436">4</text><text fill="#000000" font-family="sans-serif" font-size="13" lengthAdjust="spacing" textLength="55.6372" x="750.7759" y="251.1436">Physician</text><polygon fill="#181818" points="1133.5054,283.6973,1143.5054,287.6973,1133.5054,291.6973,1137.5054,287.6973" style="stroke:#181818;stroke-width:1.0;"/><line style="stroke:#181818;stroke-width:1.0;" x1="722.5459" x2="1139.5054" y1="287.6973" y2="287.6973"/><text fill="#000000" font-family="sans-serif" font-size="13" font-weight="bold" lengthAdjust="spacing" textLength="7.23" x="729.5459" y="282.4346">5</text><text fill="#000000" font-family="sans-serif" font-size="13" lengthAdjust="spacing" textLength="392.7295" x="740.7759" y="282.4346">findByPhysicianAndDateRange(physician, startDate, startDate + 10)</text><polygon fill="#181818" points="733.5459,314.9883,723.5459,318.9883,733.5459,322.9883,729.5459,318.9883" style="stroke:#181818;stroke-width:1.0;"/><line style="stroke:#181818;stroke-width:1.0;stroke-dasharray:2.0,2.0;" x1="727.5459" x2="1149.5054" y1="318.9883" y2="318.9883"/><text fill="#000000" font-family="sans-serif" font-size="13" font-weight="bold" lengthAdjust="spacing" textLength="7.23" x="739.5459" y="313.7256">6</text><text fill="#000000" font-family="sans-serif" font-size="13" lengthAdjust="spacing" textLength="108.4053" x="750.7759" y="313.7256">List&lt;Appointment&gt;</text><polygon fill="#181818" points="1317.8047,346.2793,1327.8047,350.2793,1317.8047,354.2793,1321.8047,350.2793" style="stroke:#181818;stroke-width:1.0;"/><line style="stroke:#181818;stroke-width:1.0;" x1="722.5459" x2="1323.8047" y1="350.2793" y2="350.2793"/><text fill="#000000" font-family="sans-serif" font-size="13" font-weight="bold" lengthAdjust="spacing" textLength="7.23" x="729.5459" y="345.0166">7</text><text fill="#000000" font-family="sans-serif" font-size="13" lengthAdjust="spacing" textLength="430.314" x="740.7759" y="345.0166">generateAvailableSlots(physician, appointments, startDate, startDate + 10)</text><polygon fill="#181818" points="733.5459,377.5703,723.5459,381.5703,733.5459,385.5703,729.5459,381.5703" style="stroke:#181818;stroke-width:1.0;"/><line style="stroke:#181818;stroke-width:1.0;stroke-dasharray:2.0,2.0;" x1="727.5459" x2="1333.8047" y1="381.5703" y2="381.5703"/><text fill="#000000" font-family="sans-serif" font-size="13" font-weight="bold" lengthAdjust="spacing" textLength="7.23" x="739.5459" y="376.3076">8</text><text fill="#000000" font-family="sans-serif" font-size="13" lengthAdjust="spacing" textLength="57.8145" x="750.7759" y="376.3076">List&lt;Slot&gt;</text><polygon fill="#181818" points="1474.8628,408.8613,1484.8628,412.8613,1474.8628,416.8613,1478.8628,412.8613" style="stroke:#181818;stroke-width:1.0;"/><line style="stroke:#181818;stroke-width:1.0;" x1="722.5459" x2="1480.8628" y1="412.8613" y2="412.8613"/><text fill="#000000" font-family="sans-serif" font-size="13" font-weight="bold" lengthAdjust="spacing" textLength="7.23" x="729.5459" y="407.5986">9</text><text fill="#000000" font-family="sans-serif" font-size="13" lengthAdjust="spacing" textLength="86.6899" x="740.7759" y="407.5986">toDtoList(slots)</text><polygon fill="#181818" points="733.5459,440.1523,723.5459,444.1523,733.5459,448.1523,729.5459,444.1523" style="stroke:#181818;stroke-width:1.0;"/><line style="stroke:#181818;stroke-width:1.0;stroke-dasharray:2.0,2.0;" x1="727.5459" x2="1490.8628" y1="444.1523" y2="444.1523"/><text fill="#000000" font-family="sans-serif" font-size="13" font-weight="bold" lengthAdjust="spacing" textLength="14.46" x="739.5459" y="438.8896">10</text><text fill="#000000" font-family="sans-serif" font-size="13" lengthAdjust="spacing" textLength="151.0361" x="758.0059" y="438.8896">List&lt;AppointmentSlotDto&gt;</text><polygon fill="#181818" points="459.9253,471.4434,449.9253,475.4434,459.9253,479.4434,455.9253,475.4434" style="stroke:#181818;stroke-width:1.0;"/><line style="stroke:#181818;stroke-width:1.0;stroke-dasharray:2.0,2.0;" x1="453.9253" x2="716.5459" y1="475.4434" y2="475.4434"/><text fill="#000000" font-family="sans-serif" font-size="13" font-weight="bold" lengthAdjust="spacing" textLength="14.46" x="465.9253" y="470.1807">11</text><text fill="#000000" font-family="sans-serif" font-size="13" lengthAdjust="spacing" textLength="151.0361" x="484.3853" y="470.1807">List&lt;AppointmentSlotDto&gt;</text><polygon fill="#181818" points="40.793,502.7344,30.793,506.7344,40.793,510.7344,36.793,506.7344" style="stroke:#181818;stroke-width:1.0;"/><line style="stroke:#181818;stroke-width:1.0;stroke-dasharray:2.0,2.0;" x1="34.793" x2="442.9253" y1="506.7344" y2="506.7344"/><text fill="#000000" font-family="sans-serif" font-size="13" font-weight="bold" lengthAdjust="spacing" textLength="14.46" x="46.793" y="501.4717">12</text><text fill="#000000" font-family="sans-serif" font-size="13" lengthAdjust="spacing" textLength="44.0845" x="65.2529" y="501.4717">200 OK</text><!--SRC=[ZLHDRzim3BthLn2-DC5gEDjknjRDguiXsB85JLPWHzPM4m6EP4XCXcpOVo_z4TSnvA0v11B9z_Zu8PEYGiAlrUmzXB1A-Uz1oJ-01rG5Fh8Boz8eJJkf2LnXoC6JiO1GRezEPGgrm3qPp4WTa2IOvgxtkqTfXM0xHmTB9CK4WIZH4gDAPBOWpemcQuf2sZXvINFRMGD01rxFWCX9Ur2PxBEi6jEGeZKFy5QM9bwUAhhdcrCi_5YZFNOVl9TaGE3rZ5ImuXRVOf7j2-Ie6dvk6k1sF1zkNnMpg8yTfBdM8sX6qmv1YFO0uOs_kH33rxirH5Ygg3T-5tKpTz4_bV-Fwdtuv8WLVVpDlt2n2DDKQCFPhDfiAORFIokJFMsDLN_b9DYYQszqd5mja_NyxiVwQXfCXV1BETVOJey5RYGbfnsjgdMJJjmyluPQKyfLdnEVyCpgcIhJFYcTVpdEypxRLFXYmp5bNV1OPkywTBaxUABpge1xr1lv8gTNMky8R-3jR2hypADAloj77tgUcp75vnjOTrzBotd7Hd3T_souYve7t9V5Li4NLJPBp-5aKZ8LPb8lQPEdzRww8HM6QKOoNdW-eqGZIrxjO_ieOtWtcy7FRqBaSlXqdm40]--></g></svg>