<svg xmlns="http://www.w3.org/2000/svg" xmlns:xlink="http://www.w3.org/1999/xlink" contentStyleType="text/css" height="635px" preserveAspectRatio="none" style="width:1675px;height:635px;background:#FFFFFF;" version="1.1" viewBox="0 0 1675 635" width="1675px" zoomAndPan="magnify"><title>US08 - SD - View Appointment History with Details</title><defs/><g><text fill="#000000" font-family="sans-serif" font-size="14" font-weight="bold" lengthAdjust="spacing" textLength="335.2686" x="669.0237" y="30.1074">US08 - SD - View Appointment History with Details</text><rect fill="#FFFFFF" height="400.7832" style="stroke:#181818;stroke-width:1.0;" width="10" x="69.5479" y="133.2422"/><rect fill="#FFFFFF" height="377.4922" style="stroke:#181818;stroke-width:1.0;" width="10" x="355.4512" y="156.5332"/><rect fill="#FFFFFF" height="31.291" style="stroke:#181818;stroke-width:1.0;" width="10" x="561.9263" y="187.8242"/><rect fill="#FFFFFF" height="252.3281" style="stroke:#181818;stroke-width:1.0;" width="10" x="733.0015" y="250.4063"/><rect fill="#FFFFFF" height="31.291" style="stroke:#181818;stroke-width:1.0;" width="10" x="1067.3184" y="281.6973"/><rect fill="#FFFFFF" height="31.291" style="stroke:#181818;stroke-width:1.0;" width="10" x="1295.207" y="370.5703"/><rect fill="#FFFFFF" height="31.291" style="stroke:#181818;stroke-width:1.0;" width="10" x="1544.875" y="440.1523"/><rect fill="none" height="81.873" style="stroke:#000000;stroke-width:1.5;" width="798.1392" x="632.2949" y="327.9883"/><line style="stroke:#181818;stroke-width:0.5;stroke-dasharray:5.0,5.0;" x1="74" x2="74" y1="123.2422" y2="552.0254"/><line style="stroke:#181818;stroke-width:0.5;stroke-dasharray:5.0,5.0;" x1="360.3447" x2="360.3447" y1="123.2422" y2="552.0254"/><line style="stroke:#181818;stroke-width:0.5;stroke-dasharray:5.0,5.0;" x1="566.5576" x2="566.5576" y1="123.2422" y2="552.0254"/><line style="stroke:#181818;stroke-width:0.5;stroke-dasharray:5.0,5.0;" x1="737.2949" x2="737.2949" y1="123.2422" y2="552.0254"/><line style="stroke:#181818;stroke-width:0.5;stroke-dasharray:5.0,5.0;" x1="1071.6567" x2="1071.6567" y1="123.2422" y2="552.0254"/><line style="stroke:#181818;stroke-width:0.5;stroke-dasharray:5.0,5.0;" x1="1299.98" x2="1299.98" y1="123.2422" y2="552.0254"/><line style="stroke:#181818;stroke-width:0.5;stroke-dasharray:5.0,5.0;" x1="1549.4341" x2="1549.4341" y1="123.2422" y2="552.0254"/><text fill="#000000" font-family="sans-serif" font-size="14" lengthAdjust="spacing" textLength="133.0957" x="5" y="119.7285">Authenticated Patient</text><ellipse cx="74.5479" cy="53.1211" fill="#E2E2F0" rx="8" ry="8" style="stroke:#181818;stroke-width:0.5;"/><path d="M74.5479,61.1211 L74.5479,88.1211 M61.5479,69.1211 L87.5479,69.1211 M74.5479,88.1211 L61.5479,103.1211 M74.5479,88.1211 L87.5479,103.1211 " fill="none" style="stroke:#181818;stroke-width:0.5;"/><text fill="#000000" font-family="sans-serif" font-size="14" lengthAdjust="spacing" textLength="133.0957" x="5" y="566.1328">Authenticated Patient</text><ellipse cx="74.5479" cy="578.1465" fill="#E2E2F0" rx="8" ry="8" style="stroke:#181818;stroke-width:0.5;"/><path d="M74.5479,586.1465 L74.5479,613.1465 M61.5479,594.1465 L87.5479,594.1465 M74.5479,613.1465 L61.5479,628.1465 M74.5479,613.1465 L87.5479,628.1465 " fill="none" style="stroke:#181818;stroke-width:0.5;"/><rect fill="#E2E2F0" height="32.6211" rx="2.5" ry="2.5" style="stroke:#181818;stroke-width:0.5;" width="262.2129" x="229.3447" y="89.6211"/><text fill="#000000" font-family="sans-serif" font-size="14" lengthAdjust="spacing" textLength="248.2129" x="236.3447" y="111.7285">:controller:AppointmentHistoryController</text><rect fill="#E2E2F0" height="32.6211" rx="2.5" ry="2.5" style="stroke:#181818;stroke-width:0.5;" width="262.2129" x="229.3447" y="551.0254"/><text fill="#000000" font-family="sans-serif" font-size="14" lengthAdjust="spacing" textLength="248.2129" x="236.3447" y="573.1328">:controller:AppointmentHistoryController</text><rect fill="#E2E2F0" height="32.6211" rx="2.5" ry="2.5" style="stroke:#181818;stroke-width:0.5;" width="130.7373" x="501.5576" y="89.6211"/><text fill="#000000" font-family="sans-serif" font-size="14" lengthAdjust="spacing" textLength="116.7373" x="508.5576" y="111.7285">:helper:AuthHelper</text><rect fill="#E2E2F0" height="32.6211" rx="2.5" ry="2.5" style="stroke:#181818;stroke-width:0.5;" width="130.7373" x="501.5576" y="551.0254"/><text fill="#000000" font-family="sans-serif" font-size="14" lengthAdjust="spacing" textLength="116.7373" x="508.5576" y="573.1328">:helper:AuthHelper</text><rect fill="#E2E2F0" height="32.6211" rx="2.5" ry="2.5" style="stroke:#181818;stroke-width:0.5;" width="191.4131" x="642.2949" y="89.6211"/><text fill="#000000" font-family="sans-serif" font-size="14" lengthAdjust="spacing" textLength="177.4131" x="649.2949" y="111.7285">:service:AppointmentService</text><rect fill="#E2E2F0" height="32.6211" rx="2.5" ry="2.5" style="stroke:#181818;stroke-width:0.5;" width="191.4131" x="642.2949" y="551.0254"/><text fill="#000000" font-family="sans-serif" font-size="14" lengthAdjust="spacing" textLength="177.4131" x="649.2949" y="573.1328">:service:AppointmentService</text><rect fill="#E2E2F0" height="32.6211" rx="2.5" ry="2.5" style="stroke:#181818;stroke-width:0.5;" width="195.3232" x="974.6567" y="89.6211"/><text fill="#000000" font-family="sans-serif" font-size="14" lengthAdjust="spacing" textLength="181.3232" x="981.6567" y="111.7285">:repo:AppointmentRepository</text><rect fill="#E2E2F0" height="32.6211" rx="2.5" ry="2.5" style="stroke:#181818;stroke-width:0.5;" width="195.3232" x="974.6567" y="551.0254"/><text fill="#000000" font-family="sans-serif" font-size="14" lengthAdjust="spacing" textLength="181.3232" x="981.6567" y="573.1328">:repo:AppointmentRepository</text><rect fill="#E2E2F0" height="32.6211" rx="2.5" ry="2.5" style="stroke:#181818;stroke-width:0.5;" width="240.4541" x="1179.98" y="89.6211"/><text fill="#000000" font-family="sans-serif" font-size="14" lengthAdjust="spacing" textLength="226.4541" x="1186.98" y="111.7285">:repo:AppointmentRecordRepository</text><rect fill="#E2E2F0" height="32.6211" rx="2.5" ry="2.5" style="stroke:#181818;stroke-width:0.5;" width="240.4541" x="1179.98" y="551.0254"/><text fill="#000000" font-family="sans-serif" font-size="14" lengthAdjust="spacing" textLength="226.4541" x="1186.98" y="573.1328">:repo:AppointmentRecordRepository</text><rect fill="#E2E2F0" height="32.6211" rx="2.5" ry="2.5" style="stroke:#181818;stroke-width:0.5;" width="238.8818" x="1430.4341" y="89.6211"/><text fill="#000000" font-family="sans-serif" font-size="14" lengthAdjust="spacing" textLength="224.8818" x="1437.4341" y="111.7285">:mapper:AppointmentHistoryMapper</text><rect fill="#E2E2F0" height="32.6211" rx="2.5" ry="2.5" style="stroke:#181818;stroke-width:0.5;" width="238.8818" x="1430.4341" y="551.0254"/><text fill="#000000" font-family="sans-serif" font-size="14" lengthAdjust="spacing" textLength="224.8818" x="1437.4341" y="573.1328">:mapper:AppointmentHistoryMapper</text><rect fill="#FFFFFF" height="400.7832" style="stroke:#181818;stroke-width:1.0;" width="10" x="69.5479" y="133.2422"/><rect fill="#FFFFFF" height="377.4922" style="stroke:#181818;stroke-width:1.0;" width="10" x="355.4512" y="156.5332"/><rect fill="#FFFFFF" height="31.291" style="stroke:#181818;stroke-width:1.0;" width="10" x="561.9263" y="187.8242"/><rect fill="#FFFFFF" height="252.3281" style="stroke:#181818;stroke-width:1.0;" width="10" x="733.0015" y="250.4063"/><rect fill="#FFFFFF" height="31.291" style="stroke:#181818;stroke-width:1.0;" width="10" x="1067.3184" y="281.6973"/><rect fill="#FFFFFF" height="31.291" style="stroke:#181818;stroke-width:1.0;" width="10" x="1295.207" y="370.5703"/><rect fill="#FFFFFF" height="31.291" style="stroke:#181818;stroke-width:1.0;" width="10" x="1544.875" y="440.1523"/><polygon fill="#181818" points="343.4512,152.5332,353.4512,156.5332,343.4512,160.5332,347.4512,156.5332" style="stroke:#181818;stroke-width:1.0;"/><line style="stroke:#181818;stroke-width:1.0;" x1="79.5479" x2="349.4512" y1="156.5332" y2="156.5332"/><text fill="#000000" font-family="sans-serif" font-size="13" font-weight="bold" lengthAdjust="spacing" textLength="7.23" x="86.5479" y="151.2705">1</text><text fill="#000000" font-family="sans-serif" font-size="13" lengthAdjust="spacing" textLength="245.6733" x="97.7778" y="151.2705">GET /api/patients/me/appointments/history</text><polygon fill="#181818" points="549.9263,183.8242,559.9263,187.8242,549.9263,191.8242,553.9263,187.8242" style="stroke:#181818;stroke-width:1.0;"/><line style="stroke:#181818;stroke-width:1.0;" x1="365.4512" x2="555.9263" y1="187.8242" y2="187.8242"/><text fill="#000000" font-family="sans-serif" font-size="13" font-weight="bold" lengthAdjust="spacing" textLength="7.23" x="372.4512" y="182.5615">2</text><text fill="#000000" font-family="sans-serif" font-size="13" lengthAdjust="spacing" textLength="121.3926" x="383.6812" y="182.5615">getCurrentPatientId()</text><polygon fill="#181818" points="376.4512,215.1152,366.4512,219.1152,376.4512,223.1152,372.4512,219.1152" style="stroke:#181818;stroke-width:1.0;"/><line style="stroke:#181818;stroke-width:1.0;stroke-dasharray:2.0,2.0;" x1="370.4512" x2="565.9263" y1="219.1152" y2="219.1152"/><text fill="#000000" font-family="sans-serif" font-size="13" font-weight="bold" lengthAdjust="spacing" textLength="7.23" x="382.4512" y="213.8525">3</text><text fill="#000000" font-family="sans-serif" font-size="13" lengthAdjust="spacing" textLength="49.8735" x="393.6812" y="213.8525">patientId</text><polygon fill="#181818" points="721.0015,246.4063,731.0015,250.4063,721.0015,254.4063,725.0015,250.4063" style="stroke:#181818;stroke-width:1.0;"/><line style="stroke:#181818;stroke-width:1.0;" x1="365.4512" x2="727.0015" y1="250.4063" y2="250.4063"/><text fill="#000000" font-family="sans-serif" font-size="13" font-weight="bold" lengthAdjust="spacing" textLength="7.23" x="372.4512" y="245.1436">4</text><text fill="#000000" font-family="sans-serif" font-size="13" lengthAdjust="spacing" textLength="284.6987" x="383.6812" y="245.1436">getCompletedAppointmentsWithDetails(patientId)</text><polygon fill="#181818" points="1055.3184,277.6973,1065.3184,281.6973,1055.3184,285.6973,1059.3184,281.6973" style="stroke:#181818;stroke-width:1.0;"/><line style="stroke:#181818;stroke-width:1.0;" x1="743.0015" x2="1061.3184" y1="281.6973" y2="281.6973"/><text fill="#000000" font-family="sans-serif" font-size="13" font-weight="bold" lengthAdjust="spacing" textLength="7.23" x="750.0015" y="276.4346">5</text><text fill="#000000" font-family="sans-serif" font-size="13" lengthAdjust="spacing" textLength="294.0869" x="761.2314" y="276.4346">findByPatientIdAndStatus(patientId, COMPLETED)</text><polygon fill="#181818" points="754.0015,308.9883,744.0015,312.9883,754.0015,316.9883,750.0015,312.9883" style="stroke:#181818;stroke-width:1.0;"/><line style="stroke:#181818;stroke-width:1.0;stroke-dasharray:2.0,2.0;" x1="748.0015" x2="1071.3184" y1="312.9883" y2="312.9883"/><text fill="#000000" font-family="sans-serif" font-size="13" font-weight="bold" lengthAdjust="spacing" textLength="7.23" x="760.0015" y="307.7256">6</text><text fill="#000000" font-family="sans-serif" font-size="13" lengthAdjust="spacing" textLength="108.4053" x="771.2314" y="307.7256">List&lt;Appointment&gt;</text><path d="M632.2949,327.9883 L704.7295,327.9883 L704.7295,337.2793 L694.7295,347.2793 L632.2949,347.2793 L632.2949,327.9883 " fill="#EEEEEE" style="stroke:#000000;stroke-width:1.5;"/><rect fill="none" height="81.873" style="stroke:#000000;stroke-width:1.5;" width="798.1392" x="632.2949" y="327.9883"/><text fill="#000000" font-family="sans-serif" font-size="13" font-weight="bold" lengthAdjust="spacing" textLength="27.4346" x="647.2949" y="343.0166">loop</text><text fill="#000000" font-family="sans-serif" font-size="11" font-weight="bold" lengthAdjust="spacing" textLength="120.9946" x="719.7295" y="341.8584">[for each Appointment]</text><polygon fill="#181818" points="1283.207,366.5703,1293.207,370.5703,1283.207,374.5703,1287.207,370.5703" style="stroke:#181818;stroke-width:1.0;"/><line style="stroke:#181818;stroke-width:1.0;" x1="743.0015" x2="1289.207" y1="370.5703" y2="370.5703"/><text fill="#000000" font-family="sans-serif" font-size="13" font-weight="bold" lengthAdjust="spacing" textLength="7.23" x="750.0015" y="365.3076">7</text><text fill="#000000" font-family="sans-serif" font-size="13" lengthAdjust="spacing" textLength="211.0151" x="761.2314" y="365.3076">findByAppointmentId(appointmentId)</text><polygon fill="#181818" points="754.0015,397.8613,744.0015,401.8613,754.0015,405.8613,750.0015,401.8613" style="stroke:#181818;stroke-width:1.0;"/><line style="stroke:#181818;stroke-width:1.0;stroke-dasharray:2.0,2.0;" x1="748.0015" x2="1299.207" y1="401.8613" y2="401.8613"/><text fill="#000000" font-family="sans-serif" font-size="13" font-weight="bold" lengthAdjust="spacing" textLength="7.23" x="760.0015" y="396.5986">8</text><text fill="#000000" font-family="sans-serif" font-size="13" lengthAdjust="spacing" textLength="178.5024" x="771.2314" y="396.5986">Optional&lt;AppointmentRecord&gt;</text><polygon fill="#181818" points="1532.875,436.1523,1542.875,440.1523,1532.875,444.1523,1536.875,440.1523" style="stroke:#181818;stroke-width:1.0;"/><line style="stroke:#181818;stroke-width:1.0;" x1="743.0015" x2="1538.875" y1="440.1523" y2="440.1523"/><text fill="#000000" font-family="sans-serif" font-size="13" font-weight="bold" lengthAdjust="spacing" textLength="7.23" x="750.0015" y="434.8896">9</text><text fill="#000000" font-family="sans-serif" font-size="13" lengthAdjust="spacing" textLength="188.5825" x="761.2314" y="434.8896">toDtoList(appointments, records)</text><polygon fill="#181818" points="754.0015,467.4434,744.0015,471.4434,754.0015,475.4434,750.0015,471.4434" style="stroke:#181818;stroke-width:1.0;"/><line style="stroke:#181818;stroke-width:1.0;stroke-dasharray:2.0,2.0;" x1="748.0015" x2="1548.875" y1="471.4434" y2="471.4434"/><text fill="#000000" font-family="sans-serif" font-size="13" font-weight="bold" lengthAdjust="spacing" textLength="14.46" x="760.0015" y="466.1807">10</text><text fill="#000000" font-family="sans-serif" font-size="13" lengthAdjust="spacing" textLength="176.2935" x="778.4614" y="466.1807">List&lt;AppointmentHistoryDTO&gt;</text><polygon fill="#181818" points="376.4512,498.7344,366.4512,502.7344,376.4512,506.7344,372.4512,502.7344" style="stroke:#181818;stroke-width:1.0;"/><line style="stroke:#181818;stroke-width:1.0;stroke-dasharray:2.0,2.0;" x1="370.4512" x2="737.0015" y1="502.7344" y2="502.7344"/><text fill="#000000" font-family="sans-serif" font-size="13" font-weight="bold" lengthAdjust="spacing" textLength="14.46" x="382.4512" y="497.4717">11</text><text fill="#000000" font-family="sans-serif" font-size="13" lengthAdjust="spacing" textLength="176.2935" x="400.9111" y="497.4717">List&lt;AppointmentHistoryDTO&gt;</text><polygon fill="#181818" points="85.5479,530.0254,75.5479,534.0254,85.5479,538.0254,81.5479,534.0254" style="stroke:#181818;stroke-width:1.0;"/><line style="stroke:#181818;stroke-width:1.0;stroke-dasharray:2.0,2.0;" x1="79.5479" x2="359.4512" y1="534.0254" y2="534.0254"/><text fill="#000000" font-family="sans-serif" font-size="13" font-weight="bold" lengthAdjust="spacing" textLength="14.46" x="91.5479" y="528.7627">12</text><text fill="#000000" font-family="sans-serif" font-size="13" lengthAdjust="spacing" textLength="44.0845" x="110.0078" y="528.7627">200 OK</text><!--SRC=[ZPDDRzim38Rl_1L4JZNG845FGr04oE9WBTOYHPDjPyrMPm6s94XqY_xxChRdABQrxcAO7-z3IgH8KIdnns7v1UTuIFdpKyatt5XhbAPAQi8xvScuTtnJL60gIQZIWwZ9Y8pKgo29HZUshglVqW6mtpYSRMegMAyoJidnIP1YQmPMEFOfAnWzMsL6apDbATqggDcLtFR16GgF8- -0LSZIdZXSzwxvRLHdSv3kfNjLcGph7bfNgnkv1tedhGd5psnxTUfmg3z7FaLankK3qD0vO5J2sidRUsm2uSsrdcP0xU1YCu980EVhyHHmXTzsHrm8gnQsJVIBIhBTT-GNHQk2iPgHvn4nwu-aRUqSgxggz_bL0a7AFDA4_PiEaIgZWNRLJ6LBoSSC4lmlNlPkrwzwS08m0Rb4d-V4z1Ubyw_l_JasEZ-Ge3f0NkDs__Zqi3lkqWIcCVDOxmzyojiWiWOeZR7umgzFYgm8LO0utVfmk_gkWtIUW0YjX6aZNRJDlILbj2XlHuk-1gdps9rUx2nZoAHaJaSEU_7Nw1gKJ-1IyD-tridIutuztKfatVx5cTW_fiGUrGflbalSVmV8vQTFymC0]--></g></svg>