<svg xmlns="http://www.w3.org/2000/svg" xmlns:xlink="http://www.w3.org/1999/xlink" contentStyleType="text/css" height="541px" preserveAspectRatio="none" style="width:989px;height:541px;background:#FFFFFF;" version="1.1" viewBox="0 0 989 541" width="989px" zoomAndPan="magnify"><title>US12 - SD - Generate Monthly Appointment Report</title><defs/><g><text fill="#000000" font-family="sans-serif" font-size="14" font-weight="bold" lengthAdjust="spacing" textLength="336.7998" x="325.2854" y="30.1074">US12 - SD - Generate Monthly Appointment Report</text><rect fill="#FFFFFF" height="315.9102" style="stroke:#181818;stroke-width:1.0;" width="10" x="59.2344" y="133.2422"/><rect fill="#FFFFFF" height="219.0371" style="stroke:#181818;stroke-width:1.0;" width="10" x="388.1177" y="156.5332"/><rect fill="#FFFFFF" height="31.291" style="stroke:#181818;stroke-width:1.0;" width="10" x="548.686" y="187.8242"/><rect fill="#FFFFFF" height="93.873" style="stroke:#181818;stroke-width:1.0;" width="10" x="695.6338" y="250.4063"/><rect fill="#FFFFFF" height="31.291" style="stroke:#181818;stroke-width:1.0;" width="10" x="880.709" y="281.6973"/><rect fill="none" height="50.582" style="stroke:#000000;stroke-width:1.5;" width="484.1519" x="10" y="390.5703"/><line style="stroke:#181818;stroke-width:0.5;stroke-dasharray:5.0,5.0;" x1="64" x2="64" y1="123.2422" y2="458.1523"/><line style="stroke:#181818;stroke-width:0.5;stroke-dasharray:5.0,5.0;" x1="393.0835" x2="393.0835" y1="123.2422" y2="458.1523"/><line style="stroke:#181818;stroke-width:0.5;stroke-dasharray:5.0,5.0;" x1="553.1519" x2="553.1519" y1="123.2422" y2="458.1523"/><line style="stroke:#181818;stroke-width:0.5;stroke-dasharray:5.0,5.0;" x1="700.2202" x2="700.2202" y1="123.2422" y2="458.1523"/><line style="stroke:#181818;stroke-width:0.5;stroke-dasharray:5.0,5.0;" x1="885.0474" x2="885.0474" y1="123.2422" y2="458.1523"/><text fill="#000000" font-family="sans-serif" font-size="14" lengthAdjust="spacing" textLength="82.4688" x="20" y="119.7285">Administrator</text><ellipse cx="64.2344" cy="53.1211" fill="#E2E2F0" rx="8" ry="8" style="stroke:#181818;stroke-width:0.5;"/><path d="M64.2344,61.1211 L64.2344,88.1211 M51.2344,69.1211 L77.2344,69.1211 M64.2344,88.1211 L51.2344,103.1211 M64.2344,88.1211 L77.2344,103.1211 " fill="none" style="stroke:#181818;stroke-width:0.5;"/><text fill="#000000" font-family="sans-serif" font-size="14" lengthAdjust="spacing" textLength="82.4688" x="20" y="472.2598">Administrator</text><ellipse cx="64.2344" cy="484.2734" fill="#E2E2F0" rx="8" ry="8" style="stroke:#181818;stroke-width:0.5;"/><path d="M64.2344,492.2734 L64.2344,519.2734 M51.2344,500.2734 L77.2344,500.2734 M64.2344,519.2734 L51.2344,534.2734 M64.2344,519.2734 L77.2344,534.2734 " fill="none" style="stroke:#181818;stroke-width:0.5;"/><rect fill="#E2E2F0" height="32.6211" rx="2.5" ry="2.5" style="stroke:#181818;stroke-width:0.5;" width="182.0684" x="302.0835" y="89.6211"/><text fill="#000000" font-family="sans-serif" font-size="14" lengthAdjust="spacing" textLength="168.0684" x="309.0835" y="111.7285">:controller:ReportController</text><rect fill="#E2E2F0" height="32.6211" rx="2.5" ry="2.5" style="stroke:#181818;stroke-width:0.5;" width="182.0684" x="302.0835" y="457.1523"/><text fill="#000000" font-family="sans-serif" font-size="14" lengthAdjust="spacing" textLength="168.0684" x="309.0835" y="479.2598">:controller:ReportController</text><rect fill="#E2E2F0" height="32.6211" rx="2.5" ry="2.5" style="stroke:#181818;stroke-width:0.5;" width="119.0684" x="494.1519" y="89.6211"/><text fill="#000000" font-family="sans-serif" font-size="14" lengthAdjust="spacing" textLength="105.0684" x="501.1519" y="111.7285">:auth:AuthHelper</text><rect fill="#E2E2F0" height="32.6211" rx="2.5" ry="2.5" style="stroke:#181818;stroke-width:0.5;" width="119.0684" x="494.1519" y="457.1523"/><text fill="#000000" font-family="sans-serif" font-size="14" lengthAdjust="spacing" textLength="105.0684" x="501.1519" y="479.2598">:auth:AuthHelper</text><rect fill="#E2E2F0" height="32.6211" rx="2.5" ry="2.5" style="stroke:#181818;stroke-width:0.5;" width="154.8271" x="623.2202" y="89.6211"/><text fill="#000000" font-family="sans-serif" font-size="14" lengthAdjust="spacing" textLength="140.8271" x="630.2202" y="111.7285">:service:ReportService</text><rect fill="#E2E2F0" height="32.6211" rx="2.5" ry="2.5" style="stroke:#181818;stroke-width:0.5;" width="154.8271" x="623.2202" y="457.1523"/><text fill="#000000" font-family="sans-serif" font-size="14" lengthAdjust="spacing" textLength="140.8271" x="630.2202" y="479.2598">:service:ReportService</text><rect fill="#E2E2F0" height="32.6211" rx="2.5" ry="2.5" style="stroke:#181818;stroke-width:0.5;" width="195.3232" x="788.0474" y="89.6211"/><text fill="#000000" font-family="sans-serif" font-size="14" lengthAdjust="spacing" textLength="181.3232" x="795.0474" y="111.7285">:repo:AppointmentRepository</text><rect fill="#E2E2F0" height="32.6211" rx="2.5" ry="2.5" style="stroke:#181818;stroke-width:0.5;" width="195.3232" x="788.0474" y="457.1523"/><text fill="#000000" font-family="sans-serif" font-size="14" lengthAdjust="spacing" textLength="181.3232" x="795.0474" y="479.2598">:repo:AppointmentRepository</text><rect fill="#FFFFFF" height="315.9102" style="stroke:#181818;stroke-width:1.0;" width="10" x="59.2344" y="133.2422"/><rect fill="#FFFFFF" height="219.0371" style="stroke:#181818;stroke-width:1.0;" width="10" x="388.1177" y="156.5332"/><rect fill="#FFFFFF" height="31.291" style="stroke:#181818;stroke-width:1.0;" width="10" x="548.686" y="187.8242"/><rect fill="#FFFFFF" height="93.873" style="stroke:#181818;stroke-width:1.0;" width="10" x="695.6338" y="250.4063"/><rect fill="#FFFFFF" height="31.291" style="stroke:#181818;stroke-width:1.0;" width="10" x="880.709" y="281.6973"/><polygon fill="#181818" points="376.1177,152.5332,386.1177,156.5332,376.1177,160.5332,380.1177,156.5332" style="stroke:#181818;stroke-width:1.0;"/><line style="stroke:#181818;stroke-width:1.0;" x1="69.2344" x2="382.1177" y1="156.5332" y2="156.5332"/><text fill="#000000" font-family="sans-serif" font-size="13" font-weight="bold" lengthAdjust="spacing" textLength="7.23" x="76.2344" y="151.2705">1</text><text fill="#000000" font-family="sans-serif" font-size="13" lengthAdjust="spacing" textLength="288.6533" x="87.4644" y="151.2705">GET /api/reports/appointments?month=YYYY-MM</text><polygon fill="#181818" points="536.686,183.8242,546.686,187.8242,536.686,191.8242,540.686,187.8242" style="stroke:#181818;stroke-width:1.0;"/><line style="stroke:#181818;stroke-width:1.0;" x1="398.1177" x2="542.686" y1="187.8242" y2="187.8242"/><text fill="#000000" font-family="sans-serif" font-size="13" font-weight="bold" lengthAdjust="spacing" textLength="7.23" x="405.1177" y="182.5615">2</text><text fill="#000000" font-family="sans-serif" font-size="13" lengthAdjust="spacing" textLength="97.5254" x="416.3477" y="182.5615">getCurrentUser()</text><polygon fill="#181818" points="409.1177,215.1152,399.1177,219.1152,409.1177,223.1152,405.1177,219.1152" style="stroke:#181818;stroke-width:1.0;"/><line style="stroke:#181818;stroke-width:1.0;stroke-dasharray:2.0,2.0;" x1="403.1177" x2="552.686" y1="219.1152" y2="219.1152"/><text fill="#000000" font-family="sans-serif" font-size="13" font-weight="bold" lengthAdjust="spacing" textLength="7.23" x="415.1177" y="213.8525">3</text><text fill="#000000" font-family="sans-serif" font-size="13" lengthAdjust="spacing" textLength="27.4473" x="426.3477" y="213.8525">User</text><polygon fill="#181818" points="683.6338,246.4063,693.6338,250.4063,683.6338,254.4063,687.6338,250.4063" style="stroke:#181818;stroke-width:1.0;"/><line style="stroke:#181818;stroke-width:1.0;" x1="398.1177" x2="689.6338" y1="250.4063" y2="250.4063"/><text fill="#000000" font-family="sans-serif" font-size="13" font-weight="bold" lengthAdjust="spacing" textLength="7.23" x="405.1177" y="245.1436">4</text><text fill="#000000" font-family="sans-serif" font-size="13" lengthAdjust="spacing" textLength="180.6479" x="416.3477" y="245.1436">generateMonthlyReport(month)</text><polygon fill="#181818" points="868.709,277.6973,878.709,281.6973,868.709,285.6973,872.709,281.6973" style="stroke:#181818;stroke-width:1.0;"/><line style="stroke:#181818;stroke-width:1.0;" x1="705.6338" x2="874.709" y1="281.6973" y2="281.6973"/><text fill="#000000" font-family="sans-serif" font-size="13" font-weight="bold" lengthAdjust="spacing" textLength="7.23" x="712.6338" y="276.4346">5</text><text fill="#000000" font-family="sans-serif" font-size="13" lengthAdjust="spacing" textLength="117.0508" x="723.8638" y="276.4346">findByMonth(month)</text><polygon fill="#181818" points="716.6338,308.9883,706.6338,312.9883,716.6338,316.9883,712.6338,312.9883" style="stroke:#181818;stroke-width:1.0;"/><line style="stroke:#181818;stroke-width:1.0;stroke-dasharray:2.0,2.0;" x1="710.6338" x2="884.709" y1="312.9883" y2="312.9883"/><text fill="#000000" font-family="sans-serif" font-size="13" font-weight="bold" lengthAdjust="spacing" textLength="7.23" x="722.6338" y="307.7256">6</text><text fill="#000000" font-family="sans-serif" font-size="13" lengthAdjust="spacing" textLength="108.4053" x="733.8638" y="307.7256">List&lt;Appointment&gt;</text><polygon fill="#181818" points="409.1177,340.2793,399.1177,344.2793,409.1177,348.2793,405.1177,344.2793" style="stroke:#181818;stroke-width:1.0;"/><line style="stroke:#181818;stroke-width:1.0;stroke-dasharray:2.0,2.0;" x1="403.1177" x2="699.6338" y1="344.2793" y2="344.2793"/><text fill="#000000" font-family="sans-serif" font-size="13" font-weight="bold" lengthAdjust="spacing" textLength="7.23" x="415.1177" y="339.0166">7</text><text fill="#000000" font-family="sans-serif" font-size="13" lengthAdjust="spacing" textLength="111.979" x="426.3477" y="339.0166">MonthlyReportDTO</text><polygon fill="#181818" points="80.2344,371.5703,70.2344,375.5703,80.2344,379.5703,76.2344,375.5703" style="stroke:#181818;stroke-width:1.0;"/><line style="stroke:#181818;stroke-width:1.0;stroke-dasharray:2.0,2.0;" x1="74.2344" x2="392.1177" y1="375.5703" y2="375.5703"/><text fill="#000000" font-family="sans-serif" font-size="13" font-weight="bold" lengthAdjust="spacing" textLength="7.23" x="86.2344" y="370.3076">8</text><text fill="#000000" font-family="sans-serif" font-size="13" lengthAdjust="spacing" textLength="44.0845" x="97.4644" y="370.3076">200 OK</text><path d="M10,390.5703 L70.1709,390.5703 L70.1709,399.8613 L60.1709,409.8613 L10,409.8613 L10,390.5703 " fill="#EEEEEE" style="stroke:#000000;stroke-width:1.5;"/><rect fill="none" height="50.582" style="stroke:#000000;stroke-width:1.5;" width="484.1519" x="10" y="390.5703"/><text fill="#000000" font-family="sans-serif" font-size="13" font-weight="bold" lengthAdjust="spacing" textLength="15.1709" x="25" y="405.5986">alt</text><text fill="#000000" font-family="sans-serif" font-size="11" font-weight="bold" lengthAdjust="spacing" textLength="75.77" x="85.1709" y="404.4404">[not an admin]</text><polygon fill="#181818" points="80.2344,429.1523,70.2344,433.1523,80.2344,437.1523,76.2344,433.1523" style="stroke:#181818;stroke-width:1.0;"/><line style="stroke:#181818;stroke-width:1.0;stroke-dasharray:2.0,2.0;" x1="74.2344" x2="392.1177" y1="433.1523" y2="433.1523"/><text fill="#000000" font-family="sans-serif" font-size="13" font-weight="bold" lengthAdjust="spacing" textLength="7.23" x="86.2344" y="427.8896">9</text><text fill="#000000" font-family="sans-serif" font-size="13" lengthAdjust="spacing" textLength="83.8398" x="97.4644" y="427.8896">403 Forbidden</text><!--SRC=[bL9DJm8n4BtFhvZi2GuR43rj58EWc2WX4JXuBBjLckosJNSWuTyx-o4ifHxieMbdvhqtyrfIb4lSh6v66EDgnjjSQka4ILmOJRlyY1DhZT9KI4tu8Qrn169FHgIa3bMTqO1LGE-BhNJ0SUCmccI5qgeafZ8k0YiSgLHPmIHHaZArCtakNT8mJa-124M9Vj23izekcV3sAdFRGivNhxYKxg1IsGgjcbj7fOruACUvf3DvLLig7kNOg8Ko09SsDFRuJe0Nm7XyDIycE7zUuq1ODN1rhkJpIR9yBAgtUVZa5IyMS0LdohCVJFOjQRftZg4RjgFNXqus3kjNXG20l4Bq5zxL2islQJzDa-xLRVOx9B-0gi6GXSpqfNJsTAnvklXmUHnevPsjlU-KZo7KG7ZgY_Pdw-KVypFOVyK4HyCXBjz0v8JQ40gDeYhv3yNTy1PVZDkgB9CQfCv-0000]--></g></svg>