<svg xmlns="http://www.w3.org/2000/svg" xmlns:xlink="http://www.w3.org/1999/xlink" contentStyleType="text/css" height="401px" preserveAspectRatio="none" style="width:400px;height:401px;background:#FFFFFF;" version="1.1" viewBox="0 0 400 401" width="400px" zoomAndPan="magnify"><title>US09 - SSD - Search Patient by Name</title><defs/><g><text fill="#000000" font-family="sans-serif" font-size="14" font-weight="bold" lengthAdjust="spacing" textLength="248.1992" x="77.2432" y="30.1074">US09 - SSD - Search Patient by Name</text><rect fill="#FFFFFF" height="176.0859" style="stroke:#181818;stroke-width:1.0;" width="10" x="59.2344" y="133.2422"/><rect fill="#FFFFFF" height="31.291" style="stroke:#181818;stroke-width:1.0;" width="10" x="344.0649" y="156.5332"/><rect fill="none" height="98.5039" style="stroke:#000000;stroke-width:1.5;" width="383.6855" x="10" y="202.8242"/><line style="stroke:#181818;stroke-width:0.5;stroke-dasharray:5.0,5.0;" x1="64" x2="64" y1="123.2422" y2="318.3281"/><line style="stroke:#181818;stroke-width:0.5;stroke-dasharray:5.0,5.0;" x1="348.4443" x2="348.4443" y1="123.2422" y2="318.3281"/><text fill="#000000" font-family="sans-serif" font-size="14" lengthAdjust="spacing" textLength="82.4688" x="20" y="119.7285">Administrator</text><ellipse cx="64.2344" cy="53.1211" fill="#E2E2F0" rx="8" ry="8" style="stroke:#181818;stroke-width:0.5;"/><path d="M64.2344,61.1211 L64.2344,88.1211 M51.2344,69.1211 L77.2344,69.1211 M64.2344,88.1211 L51.2344,103.1211 M64.2344,88.1211 L77.2344,103.1211 " fill="none" style="stroke:#181818;stroke-width:0.5;"/><text fill="#000000" font-family="sans-serif" font-size="14" lengthAdjust="spacing" textLength="82.4688" x="20" y="332.4355">Administrator</text><ellipse cx="64.2344" cy="344.4492" fill="#E2E2F0" rx="8" ry="8" style="stroke:#181818;stroke-width:0.5;"/><path d="M64.2344,352.4492 L64.2344,379.4492 M51.2344,360.4492 L77.2344,360.4492 M64.2344,379.4492 L51.2344,394.4492 M64.2344,379.4492 L77.2344,394.4492 " fill="none" style="stroke:#181818;stroke-width:0.5;"/><rect fill="#E2E2F0" height="32.6211" rx="2.5" ry="2.5" style="stroke:#181818;stroke-width:0.5;" width="69.2412" x="314.4443" y="89.6211"/><text fill="#000000" font-family="sans-serif" font-size="14" lengthAdjust="spacing" textLength="55.2412" x="321.4443" y="111.7285">:RestAPI</text><rect fill="#E2E2F0" height="32.6211" rx="2.5" ry="2.5" style="stroke:#181818;stroke-width:0.5;" width="69.2412" x="314.4443" y="317.3281"/><text fill="#000000" font-family="sans-serif" font-size="14" lengthAdjust="spacing" textLength="55.2412" x="321.4443" y="339.4355">:RestAPI</text><rect fill="#FFFFFF" height="176.0859" style="stroke:#181818;stroke-width:1.0;" width="10" x="59.2344" y="133.2422"/><rect fill="#FFFFFF" height="31.291" style="stroke:#181818;stroke-width:1.0;" width="10" x="344.0649" y="156.5332"/><polygon fill="#181818" points="332.0649,152.5332,342.0649,156.5332,332.0649,160.5332,336.0649,156.5332" style="stroke:#181818;stroke-width:1.0;"/><line style="stroke:#181818;stroke-width:1.0;" x1="69.2344" x2="338.0649" y1="156.5332" y2="156.5332"/><text fill="#000000" font-family="sans-serif" font-size="13" font-weight="bold" lengthAdjust="spacing" textLength="7.23" x="76.2344" y="151.2705">1</text><text fill="#000000" font-family="sans-serif" font-size="13" lengthAdjust="spacing" textLength="244.6006" x="87.4644" y="151.2705">GET /api/patients/search/by-name?name=</text><polygon fill="#181818" points="80.2344,183.8242,70.2344,187.8242,80.2344,191.8242,76.2344,187.8242" style="stroke:#181818;stroke-width:1.0;"/><line style="stroke:#181818;stroke-width:1.0;stroke-dasharray:2.0,2.0;" x1="74.2344" x2="348.0649" y1="187.8242" y2="187.8242"/><text fill="#000000" font-family="sans-serif" font-size="13" font-weight="bold" lengthAdjust="spacing" textLength="7.23" x="86.2344" y="182.5615">2</text><text fill="#000000" font-family="sans-serif" font-size="13" lengthAdjust="spacing" textLength="44.0845" x="97.4644" y="182.5615">200 OK</text><path d="M10,202.8242 L70.1709,202.8242 L70.1709,212.1152 L60.1709,222.1152 L10,222.1152 L10,202.8242 " fill="#EEEEEE" style="stroke:#000000;stroke-width:1.5;"/><rect fill="none" height="98.5039" style="stroke:#000000;stroke-width:1.5;" width="383.6855" x="10" y="202.8242"/><text fill="#000000" font-family="sans-serif" font-size="13" font-weight="bold" lengthAdjust="spacing" textLength="15.1709" x="25" y="217.8525">alt</text><text fill="#000000" font-family="sans-serif" font-size="11" font-weight="bold" lengthAdjust="spacing" textLength="199.8315" x="85.1709" y="216.6943">[User not authenticated or not ADMIN]</text><polygon fill="#181818" points="80.2344,241.4063,70.2344,245.4063,80.2344,249.4063,76.2344,245.4063" style="stroke:#181818;stroke-width:1.0;"/><line style="stroke:#181818;stroke-width:1.0;stroke-dasharray:2.0,2.0;" x1="74.2344" x2="348.0649" y1="245.4063" y2="245.4063"/><text fill="#000000" font-family="sans-serif" font-size="13" font-weight="bold" lengthAdjust="spacing" textLength="7.23" x="86.2344" y="240.1436">3</text><text fill="#000000" font-family="sans-serif" font-size="13" lengthAdjust="spacing" textLength="83.8398" x="97.4644" y="240.1436">403 Forbidden</text><line style="stroke:#000000;stroke-width:1.0;stroke-dasharray:2.0,2.0;" x1="10" x2="393.6855" y1="254.4063" y2="254.4063"/><text fill="#000000" font-family="sans-serif" font-size="11" font-weight="bold" lengthAdjust="spacing" textLength="113.647" x="15" y="266.2764">[alt Patient not found]</text><polygon fill="#181818" points="80.2344,289.3281,70.2344,293.3281,80.2344,297.3281,76.2344,293.3281" style="stroke:#181818;stroke-width:1.0;"/><line style="stroke:#181818;stroke-width:1.0;stroke-dasharray:2.0,2.0;" x1="74.2344" x2="348.0649" y1="293.3281" y2="293.3281"/><text fill="#000000" font-family="sans-serif" font-size="13" font-weight="bold" lengthAdjust="spacing" textLength="7.23" x="86.2344" y="288.0654">4</text><text fill="#000000" font-family="sans-serif" font-size="13" lengthAdjust="spacing" textLength="86.0044" x="97.4644" y="288.0654">404 Not Found</text><!--SRC=[TP11IyGm48Nl-HMFtakBxiM2Ic5TMSIwMFS7J9jPDj0c9PaA_VUcwNhJ72RCp7jV7X4Z0-FSbW_8qRRxjJBv_eeJYM4hw1OqDB9ID8kZNimt2SFPrDjvxDZ7NI_E8wlrQAm9uYcs6IWWJTH4Nanl9egyhFha8FNfcFRj4eJ71DZ0cq6b2_dJJO0AhozVA6WonRG52qL8GOjkoMqC-BoMHtNJvz6wCIhSbIK-tXGDWdDW3-i4CVmrGamVtzHmsx3UlnyRXNZ-eEpAUnoSxupMR1KFWR4IVxzfzL_SRFN__XsQA3ea4Llz0m00]--></g></svg>