<svg xmlns="http://www.w3.org/2000/svg" xmlns:xlink="http://www.w3.org/1999/xlink" contentStyleType="text/css" height="701px" preserveAspectRatio="none" style="width:1207px;height:701px;background:#FFFFFF;" version="1.1" viewBox="0 0 1207 701" width="1207px" zoomAndPan="magnify"><title>US09 - SD - Search Patient by Name</title><defs/><g><text fill="#000000" font-family="sans-serif" font-size="14" font-weight="bold" lengthAdjust="spacing" textLength="238.8613" x="483.4944" y="30.1074">US09 - SD - Search Patient by Name</text><rect fill="#FFFFFF" height="393.7832" style="stroke:#181818;stroke-width:1.0;" width="10" x="59.2344" y="133.2422"/><rect fill="#FFFFFF" height="187.7461" style="stroke:#181818;stroke-width:1.0;" width="10" x="344.0649" y="156.5332"/><rect fill="#FFFFFF" height="31.291" style="stroke:#181818;stroke-width:1.0;" width="10" x="511.2505" y="187.8242"/><rect fill="#FFFFFF" height="93.873" style="stroke:#181818;stroke-width:1.0;" width="10" x="664.8154" y="401.8613"/><rect fill="#FFFFFF" height="31.291" style="stroke:#181818;stroke-width:1.0;" width="10" x="946.396" y="433.1523"/><rect fill="#FFFFFF" height="31.291" style="stroke:#181818;stroke-width:1.0;" width="10" x="1116.6987" y="250.4063"/><rect fill="none" height="175.7461" style="stroke:#000000;stroke-width:1.5;" width="1031.5474" x="10" y="359.2793"/><rect fill="none" height="52.582" style="stroke:#000000;stroke-width:1.5;" width="440.8818" x="10" y="549.0254"/><line style="stroke:#181818;stroke-width:0.5;stroke-dasharray:5.0,5.0;" x1="64" x2="64" y1="123.2422" y2="618.6074"/><line style="stroke:#181818;stroke-width:0.5;stroke-dasharray:5.0,5.0;" x1="348.248" x2="348.248" y1="123.2422" y2="618.6074"/><line style="stroke:#181818;stroke-width:0.5;stroke-dasharray:5.0,5.0;" x1="515.8818" x2="515.8818" y1="123.2422" y2="618.6074"/><line style="stroke:#181818;stroke-width:0.5;stroke-dasharray:5.0,5.0;" x1="669.6191" x2="669.6191" y1="123.2422" y2="618.6074"/><line style="stroke:#181818;stroke-width:0.5;stroke-dasharray:5.0,5.0;" x1="951.2446" x2="951.2446" y1="123.2422" y2="618.6074"/><line style="stroke:#181818;stroke-width:0.5;stroke-dasharray:5.0,5.0;" x1="1121.5474" x2="1121.5474" y1="123.2422" y2="618.6074"/><text fill="#000000" font-family="sans-serif" font-size="14" lengthAdjust="spacing" textLength="82.4688" x="20" y="119.7285">Administrator</text><ellipse cx="64.2344" cy="53.1211" fill="#E2E2F0" rx="8" ry="8" style="stroke:#181818;stroke-width:0.5;"/><path d="M64.2344,61.1211 L64.2344,88.1211 M51.2344,69.1211 L77.2344,69.1211 M64.2344,88.1211 L51.2344,103.1211 M64.2344,88.1211 L77.2344,103.1211 " fill="none" style="stroke:#181818;stroke-width:0.5;"/><text fill="#000000" font-family="sans-serif" font-size="14" lengthAdjust="spacing" textLength="82.4688" x="20" y="632.7148">Administrator</text><ellipse cx="64.2344" cy="644.7285" fill="#E2E2F0" rx="8" ry="8" style="stroke:#181818;stroke-width:0.5;"/><path d="M64.2344,652.7285 L64.2344,679.7285 M51.2344,660.7285 L77.2344,660.7285 M64.2344,679.7285 L51.2344,694.7285 M64.2344,679.7285 L77.2344,694.7285 " fill="none" style="stroke:#181818;stroke-width:0.5;"/><rect fill="#E2E2F0" height="32.6211" rx="2.5" ry="2.5" style="stroke:#181818;stroke-width:0.5;" width="183.6338" x="257.248" y="89.6211"/><text fill="#000000" font-family="sans-serif" font-size="14" lengthAdjust="spacing" textLength="169.6338" x="264.248" y="111.7285">:controller:PatientController</text><rect fill="#E2E2F0" height="32.6211" rx="2.5" ry="2.5" style="stroke:#181818;stroke-width:0.5;" width="183.6338" x="257.248" y="617.6074"/><text fill="#000000" font-family="sans-serif" font-size="14" lengthAdjust="spacing" textLength="169.6338" x="264.248" y="639.7148">:controller:PatientController</text><rect fill="#E2E2F0" height="32.6211" rx="2.5" ry="2.5" style="stroke:#181818;stroke-width:0.5;" width="130.7373" x="450.8818" y="89.6211"/><text fill="#000000" font-family="sans-serif" font-size="14" lengthAdjust="spacing" textLength="116.7373" x="457.8818" y="111.7285">:helper:AuthHelper</text><rect fill="#E2E2F0" height="32.6211" rx="2.5" ry="2.5" style="stroke:#181818;stroke-width:0.5;" width="130.7373" x="450.8818" y="617.6074"/><text fill="#000000" font-family="sans-serif" font-size="14" lengthAdjust="spacing" textLength="116.7373" x="457.8818" y="639.7148">:helper:AuthHelper</text><rect fill="#E2E2F0" height="32.6211" rx="2.5" ry="2.5" style="stroke:#181818;stroke-width:0.5;" width="156.3926" x="591.6191" y="89.6211"/><text fill="#000000" font-family="sans-serif" font-size="14" lengthAdjust="spacing" textLength="142.3926" x="598.6191" y="111.7285">:service:PatientService</text><rect fill="#E2E2F0" height="32.6211" rx="2.5" ry="2.5" style="stroke:#181818;stroke-width:0.5;" width="156.3926" x="591.6191" y="617.6074"/><text fill="#000000" font-family="sans-serif" font-size="14" lengthAdjust="spacing" textLength="142.3926" x="598.6191" y="639.7148">:service:PatientService</text><rect fill="#E2E2F0" height="32.6211" rx="2.5" ry="2.5" style="stroke:#181818;stroke-width:0.5;" width="160.3027" x="871.2446" y="89.6211"/><text fill="#000000" font-family="sans-serif" font-size="14" lengthAdjust="spacing" textLength="146.3027" x="878.2446" y="111.7285">:repo:PatientRepository</text><rect fill="#E2E2F0" height="32.6211" rx="2.5" ry="2.5" style="stroke:#181818;stroke-width:0.5;" width="160.3027" x="871.2446" y="617.6074"/><text fill="#000000" font-family="sans-serif" font-size="14" lengthAdjust="spacing" textLength="146.3027" x="878.2446" y="639.7148">:repo:PatientRepository</text><rect fill="#E2E2F0" height="32.6211" rx="2.5" ry="2.5" style="stroke:#181818;stroke-width:0.5;" width="160.3027" x="1041.5474" y="89.6211"/><text fill="#000000" font-family="sans-serif" font-size="14" lengthAdjust="spacing" textLength="146.3027" x="1048.5474" y="111.7285">:mapper:PatientMapper</text><rect fill="#E2E2F0" height="32.6211" rx="2.5" ry="2.5" style="stroke:#181818;stroke-width:0.5;" width="160.3027" x="1041.5474" y="617.6074"/><text fill="#000000" font-family="sans-serif" font-size="14" lengthAdjust="spacing" textLength="146.3027" x="1048.5474" y="639.7148">:mapper:PatientMapper</text><rect fill="#FFFFFF" height="393.7832" style="stroke:#181818;stroke-width:1.0;" width="10" x="59.2344" y="133.2422"/><rect fill="#FFFFFF" height="187.7461" style="stroke:#181818;stroke-width:1.0;" width="10" x="344.0649" y="156.5332"/><rect fill="#FFFFFF" height="31.291" style="stroke:#181818;stroke-width:1.0;" width="10" x="511.2505" y="187.8242"/><rect fill="#FFFFFF" height="93.873" style="stroke:#181818;stroke-width:1.0;" width="10" x="664.8154" y="401.8613"/><rect fill="#FFFFFF" height="31.291" style="stroke:#181818;stroke-width:1.0;" width="10" x="946.396" y="433.1523"/><rect fill="#FFFFFF" height="31.291" style="stroke:#181818;stroke-width:1.0;" width="10" x="1116.6987" y="250.4063"/><polygon fill="#181818" points="332.0649,152.5332,342.0649,156.5332,332.0649,160.5332,336.0649,156.5332" style="stroke:#181818;stroke-width:1.0;"/><line style="stroke:#181818;stroke-width:1.0;" x1="69.2344" x2="338.0649" y1="156.5332" y2="156.5332"/><text fill="#000000" font-family="sans-serif" font-size="13" font-weight="bold" lengthAdjust="spacing" textLength="7.23" x="76.2344" y="151.2705">1</text><text fill="#000000" font-family="sans-serif" font-size="13" lengthAdjust="spacing" textLength="244.6006" x="87.4644" y="151.2705">GET /api/patients/search/by-name?name=</text><polygon fill="#181818" points="499.2505,183.8242,509.2505,187.8242,499.2505,191.8242,503.2505,187.8242" style="stroke:#181818;stroke-width:1.0;"/><line style="stroke:#181818;stroke-width:1.0;" x1="354.0649" x2="505.2505" y1="187.8242" y2="187.8242"/><text fill="#000000" font-family="sans-serif" font-size="13" font-weight="bold" lengthAdjust="spacing" textLength="7.23" x="361.0649" y="182.5615">2</text><text fill="#000000" font-family="sans-serif" font-size="13" lengthAdjust="spacing" textLength="97.5254" x="372.2949" y="182.5615">getCurrentUser()</text><polygon fill="#181818" points="365.0649,215.1152,355.0649,219.1152,365.0649,223.1152,361.0649,219.1152" style="stroke:#181818;stroke-width:1.0;"/><line style="stroke:#181818;stroke-width:1.0;stroke-dasharray:2.0,2.0;" x1="359.0649" x2="515.2505" y1="219.1152" y2="219.1152"/><text fill="#000000" font-family="sans-serif" font-size="13" font-weight="bold" lengthAdjust="spacing" textLength="7.23" x="371.0649" y="213.8525">3</text><text fill="#000000" font-family="sans-serif" font-size="13" lengthAdjust="spacing" textLength="61.3945" x="382.2949" y="213.8525">User (role)</text><polygon fill="#181818" points="1104.6987,246.4063,1114.6987,250.4063,1104.6987,254.4063,1108.6987,250.4063" style="stroke:#181818;stroke-width:1.0;"/><line style="stroke:#181818;stroke-width:1.0;" x1="669.8154" x2="1110.6987" y1="250.4063" y2="250.4063"/><text fill="#000000" font-family="sans-serif" font-size="13" font-weight="bold" lengthAdjust="spacing" textLength="7.23" x="676.8154" y="245.1436">4</text><text fill="#000000" font-family="sans-serif" font-size="13" lengthAdjust="spacing" textLength="112.7026" x="688.0454" y="245.1436">toDTOList(patients)</text><polygon fill="#181818" points="680.8154,277.6973,670.8154,281.6973,680.8154,285.6973,676.8154,281.6973" style="stroke:#181818;stroke-width:1.0;"/><line style="stroke:#181818;stroke-width:1.0;stroke-dasharray:2.0,2.0;" x1="674.8154" x2="1120.6987" y1="281.6973" y2="281.6973"/><text fill="#000000" font-family="sans-serif" font-size="13" font-weight="bold" lengthAdjust="spacing" textLength="7.23" x="686.8154" y="276.4346">5</text><text fill="#000000" font-family="sans-serif" font-size="13" lengthAdjust="spacing" textLength="103.3271" x="698.0454" y="276.4346">List&lt;PatientDTO&gt;</text><polygon fill="#181818" points="365.0649,308.9883,355.0649,312.9883,365.0649,316.9883,361.0649,312.9883" style="stroke:#181818;stroke-width:1.0;"/><line style="stroke:#181818;stroke-width:1.0;stroke-dasharray:2.0,2.0;" x1="359.0649" x2="668.8154" y1="312.9883" y2="312.9883"/><text fill="#000000" font-family="sans-serif" font-size="13" font-weight="bold" lengthAdjust="spacing" textLength="7.23" x="371.0649" y="307.7256">6</text><text fill="#000000" font-family="sans-serif" font-size="13" lengthAdjust="spacing" textLength="103.3271" x="382.2949" y="307.7256">List&lt;PatientDTO&gt;</text><polygon fill="#181818" points="80.2344,340.2793,70.2344,344.2793,80.2344,348.2793,76.2344,344.2793" style="stroke:#181818;stroke-width:1.0;"/><line style="stroke:#181818;stroke-width:1.0;stroke-dasharray:2.0,2.0;" x1="74.2344" x2="348.0649" y1="344.2793" y2="344.2793"/><text fill="#000000" font-family="sans-serif" font-size="13" font-weight="bold" lengthAdjust="spacing" textLength="7.23" x="86.2344" y="339.0166">7</text><text fill="#000000" font-family="sans-serif" font-size="13" lengthAdjust="spacing" textLength="44.0845" x="97.4644" y="339.0166">200 OK</text><path d="M10,359.2793 L70.1709,359.2793 L70.1709,368.5703 L60.1709,378.5703 L10,378.5703 L10,359.2793 " fill="#EEEEEE" style="stroke:#000000;stroke-width:1.5;"/><rect fill="none" height="175.7461" style="stroke:#000000;stroke-width:1.5;" width="1031.5474" x="10" y="359.2793"/><text fill="#000000" font-family="sans-serif" font-size="13" font-weight="bold" lengthAdjust="spacing" textLength="15.1709" x="25" y="374.3076">alt</text><text fill="#000000" font-family="sans-serif" font-size="11" font-weight="bold" lengthAdjust="spacing" textLength="70.9038" x="85.1709" y="373.1494">[list is empty]</text><polygon fill="#181818" points="652.8154,397.8613,662.8154,401.8613,652.8154,405.8613,656.8154,401.8613" style="stroke:#181818;stroke-width:1.0;"/><line style="stroke:#181818;stroke-width:1.0;" x1="349.0649" x2="658.8154" y1="401.8613" y2="401.8613"/><text fill="#000000" font-family="sans-serif" font-size="13" font-weight="bold" lengthAdjust="spacing" textLength="7.23" x="356.0649" y="396.5986">8</text><text fill="#000000" font-family="sans-serif" font-size="13" lengthAdjust="spacing" textLength="177.0171" x="367.2949" y="396.5986">searchPatientsByName(name)</text><polygon fill="#181818" points="934.396,429.1523,944.396,433.1523,934.396,437.1523,938.396,433.1523" style="stroke:#181818;stroke-width:1.0;"/><line style="stroke:#181818;stroke-width:1.0;" x1="674.8154" x2="940.396" y1="433.1523" y2="433.1523"/><text fill="#000000" font-family="sans-serif" font-size="13" font-weight="bold" lengthAdjust="spacing" textLength="7.23" x="681.8154" y="427.8896">9</text><text fill="#000000" font-family="sans-serif" font-size="13" lengthAdjust="spacing" textLength="241.3506" x="693.0454" y="427.8896">findByNameContainingIgnoreCase(name)</text><polygon fill="#181818" points="685.8154,460.4434,675.8154,464.4434,685.8154,468.4434,681.8154,464.4434" style="stroke:#181818;stroke-width:1.0;"/><line style="stroke:#181818;stroke-width:1.0;stroke-dasharray:2.0,2.0;" x1="679.8154" x2="950.396" y1="464.4434" y2="464.4434"/><text fill="#000000" font-family="sans-serif" font-size="13" font-weight="bold" lengthAdjust="spacing" textLength="14.46" x="691.8154" y="459.1807">10</text><text fill="#000000" font-family="sans-serif" font-size="13" lengthAdjust="spacing" textLength="75.8862" x="710.2754" y="459.1807">List&lt;Patient&gt;</text><polygon fill="#181818" points="360.0649,491.7344,350.0649,495.7344,360.0649,499.7344,356.0649,495.7344" style="stroke:#181818;stroke-width:1.0;"/><line style="stroke:#181818;stroke-width:1.0;stroke-dasharray:2.0,2.0;" x1="354.0649" x2="668.8154" y1="495.7344" y2="495.7344"/><text fill="#000000" font-family="sans-serif" font-size="13" font-weight="bold" lengthAdjust="spacing" textLength="14.46" x="366.0649" y="490.4717">11</text><text fill="#000000" font-family="sans-serif" font-size="13" lengthAdjust="spacing" textLength="86.0044" x="384.5249" y="490.4717">404 Not Found</text><polygon fill="#181818" points="75.2344,523.0254,65.2344,527.0254,75.2344,531.0254,71.2344,527.0254" style="stroke:#181818;stroke-width:1.0;"/><line style="stroke:#181818;stroke-width:1.0;stroke-dasharray:2.0,2.0;" x1="69.2344" x2="348.0649" y1="527.0254" y2="527.0254"/><text fill="#000000" font-family="sans-serif" font-size="13" font-weight="bold" lengthAdjust="spacing" textLength="14.46" x="81.2344" y="521.7627">12</text><text fill="#000000" font-family="sans-serif" font-size="13" lengthAdjust="spacing" textLength="86.0044" x="99.6943" y="521.7627">404 Not Found</text><path d="M10,549.0254 L70.1709,549.0254 L70.1709,558.3164 L60.1709,568.3164 L10,568.3164 L10,549.0254 " fill="#EEEEEE" style="stroke:#000000;stroke-width:1.5;"/><rect fill="none" height="52.582" style="stroke:#000000;stroke-width:1.5;" width="440.8818" x="10" y="549.0254"/><text fill="#000000" font-family="sans-serif" font-size="13" font-weight="bold" lengthAdjust="spacing" textLength="15.1709" x="25" y="564.0537">alt</text><text fill="#000000" font-family="sans-serif" font-size="11" font-weight="bold" lengthAdjust="spacing" textLength="106.0415" x="85.1709" y="562.8955">[user.role != ADMIN]</text><polygon fill="#181818" points="75.2344,587.6074,65.2344,591.6074,75.2344,595.6074,71.2344,591.6074" style="stroke:#181818;stroke-width:1.0;"/><line style="stroke:#181818;stroke-width:1.0;stroke-dasharray:2.0,2.0;" x1="69.2344" x2="348.0649" y1="591.6074" y2="591.6074"/><text fill="#000000" font-family="sans-serif" font-size="13" font-weight="bold" lengthAdjust="spacing" textLength="14.46" x="81.2344" y="586.3447">13</text><text fill="#000000" font-family="sans-serif" font-size="13" lengthAdjust="spacing" textLength="83.8398" x="99.6943" y="586.3447">403 Forbidden</text><line style="stroke:#000000;stroke-width:1.0;stroke-dasharray:2.0,2.0;" x1="10" x2="450.8818" y1="600.6074" y2="600.6074"/><!--SRC=[bLFBJiCm4BpxAvQUsaDf1Lo8eAYql0IqYC87kCdIMafiotQGylUiyo19quBQGvITxCoiPrqdN8pmkHfVmX1MS_z0Ri8jl74dK3fOPx3W2JAUEiL39xwvGr0ohsMQhD4mHhWoq9j6YP32EiEfx37DZHEXq9nKUa6ef3CgZj44fVJi5-a1jz11TmIs66iYJrEtVSnVSrPTxhHRDDyYnCfiLPHDfnBQuHdKgYAzqxiLT9YioQlH7Mh2jQwFzvfNJMA1v74LCRO2OwnLmd3IZGG2UBZxW17NOgIBZtPayuMDrjbGqg9k_EEQTQcaLuT5GXjqizGOQlgahFe3rlWwF63kEw5F9GuOqA-TP6FaugZ4S6h-iNoXG_MhULlCig_XLsa5u5bN9KeY4xRNyi2a7NA3smp5fzAAFO2pyHYMpxIcs45CE0WBc6YNiRqAUoOlDbB2zZRpVw2-tyk0iJz2goyMQNm96HLCRyPfGhbvsaXbSCPjfGPxgFzcEJacnuln1IoKWtkLokY84Bky20_SUm3CMtpUALsmKt-_uEGQflFNfyLHdkVaPzOYYb3-wnbRP6Jy0m00]--></g></svg>