<svg xmlns="http://www.w3.org/2000/svg" xmlns:xlink="http://www.w3.org/1999/xlink" contentStyleType="text/css" data-diagram-type="DESCRIPTION" height="1442.1875px" preserveAspectRatio="none" style="width:2839px;height:1442px;background:#FFFFFF;" version="1.1" viewBox="0 0 2839 1442" width="2839.0625px" zoomAndPan="magnify"><title>**C2 &#8212; Containers (HAP)**</title><defs/><g><g class="title" data-source-line="33"><text fill="#000000" font-family="Arial" font-size="21.875" font-weight="bold" lengthAdjust="spacing" textLength="243.0817" x="1287.6431" y="35.4279">C2 &#8212; Containers (HAP)</text><text fill="#000000" font-family="Arial" font-size="21.875" font-weight="bold" lengthAdjust="spacing" textLength="148.2971" x="1335.0353" y="59.8663">Arquitetura v2</text></g><!--cluster Infraestrutura Partilhada--><g class="cluster" data-entity="Infraestrutura Partilhada" data-source-line="50" data-uid="ent0009" id="cluster_Infraestrutura Partilhada"><rect fill="none" height="176.5625" rx="11.7188" ry="11.7188" style="stroke:#181818;stroke-width:1.5625;" width="501.5625" x="1321.0938" y="1066.0645"/><text fill="#2E3440" font-family="Arial" font-size="20.3125" font-weight="bold" lengthAdjust="spacing" textLength="235.9146" x="1453.9177" y="1087.5778">Infraestrutura Partilhada</text></g><!--entity Broker--><g class="entity" data-entity="Broker" data-source-line="51" data-uid="ent0010" id="entity_Broker"><rect fill="#BF616A" height="99.3286" rx="11.7188" ry="11.7188" style="stroke:#4C566A;stroke-width:0.7813;" width="179.1405" x="1346.875" y="1117.627"/><text fill="#2E3440" font-family="Arial" font-size="20.3125" font-style="italic" lengthAdjust="spacing" textLength="63.2385" x="1404.826" y="1151.6403">&#171;Infra&#187;</text><text fill="#2E3440" font-family="Arial" font-size="20.3125" lengthAdjust="spacing" textLength="147.8905" x="1362.5" y="1174.3332">Message Broker</text><text fill="#2E3440" font-family="Arial" font-size="20.3125" lengthAdjust="spacing" textLength="104.9644" x="1362.5" y="1197.0261">(RabbitMQ)</text></g><!--entity Zipkin--><g class="entity" data-entity="Zipkin" data-source-line="52" data-uid="ent0011" id="entity_Zipkin"><rect fill="#BF616A" height="99.3286" rx="11.7188" ry="11.7188" style="stroke:#4C566A;stroke-width:0.7813;" width="98.9815" x="1698.4375" y="1117.627"/><text fill="#2E3440" font-family="Arial" font-size="20.3125" font-style="italic" lengthAdjust="spacing" textLength="63.2385" x="1716.309" y="1151.6403">&#171;Infra&#187;</text><text fill="#2E3440" font-family="Arial" font-size="20.3125" lengthAdjust="spacing" textLength="67.7315" x="1714.0625" y="1174.3332">Tracing</text><text fill="#2E3440" font-family="Arial" font-size="20.3125" lengthAdjust="spacing" textLength="67.7116" x="1714.0625" y="1197.0261">(Zipkin)</text></g><!--entity Auth--><g class="entity" data-entity="Auth" data-source-line="36" data-uid="ent0002" id="entity_Auth"><rect fill="#EBCB8B" height="99.3286" rx="11.7188" ry="11.7188" style="stroke:#D08770;stroke-width:0.7813;" width="191.6077" x="1712.5" y="92.627"/><text fill="#2E3440" font-family="Arial" font-size="20.3125" font-style="italic" lengthAdjust="spacing" textLength="64.3791" x="1776.1143" y="126.6403">&#171;Auth&#187;</text><text fill="#2E3440" font-family="Arial" font-size="20.3125" lengthAdjust="spacing" textLength="115.1604" x="1728.125" y="149.3332">Auth Service</text><text fill="#2E3440" font-family="Arial" font-size="20.3125" lengthAdjust="spacing" textLength="160.3577" x="1728.125" y="172.0261">Ports: 8084, 8089</text></g><!--entity Physicians--><g class="entity" data-entity="Physicians" data-source-line="39" data-uid="ent0003" id="entity_Physicians"><rect fill="#88C0D0" height="99.3286" rx="11.7188" ry="11.7188" style="stroke:#5E81AC;stroke-width:0.7813;" width="201.7143" x="1275" y="348.877"/><text fill="#2E3440" font-family="Arial" font-size="20.3125" font-style="italic" lengthAdjust="spacing" textLength="90.3252" x="1330.6946" y="382.8903">&#171;Service&#187;</text><text fill="#2E3440" font-family="Arial" font-size="20.3125" lengthAdjust="spacing" textLength="170.4643" x="1290.625" y="405.5832">Physicians Service</text><text fill="#2E3440" font-family="Arial" font-size="20.3125" lengthAdjust="spacing" textLength="160.3577" x="1290.625" y="428.2761">Ports: 8081, 8087</text></g><!--entity Patients--><g class="entity" data-entity="Patients" data-source-line="40" data-uid="ent0004" id="entity_Patients"><rect fill="#88C0D0" height="99.3286" rx="11.7188" ry="11.7188" style="stroke:#5E81AC;stroke-width:0.7813;" width="191.6077" x="837.5" y="861.377"/><text fill="#2E3440" font-family="Arial" font-size="20.3125" font-style="italic" lengthAdjust="spacing" textLength="90.3252" x="888.1413" y="895.3903">&#171;Service&#187;</text><text fill="#2E3440" font-family="Arial" font-size="20.3125" lengthAdjust="spacing" textLength="146.7697" x="853.125" y="918.0832">Patients Service</text><text fill="#2E3440" font-family="Arial" font-size="20.3125" lengthAdjust="spacing" textLength="160.3577" x="853.125" y="940.7761">Ports: 8082, 8088</text></g><!--entity Records--><g class="entity" data-entity="Records" data-source-line="41" data-uid="ent0005" id="entity_Records"><rect fill="#88C0D0" height="99.3286" rx="11.7188" ry="11.7188" style="stroke:#5E81AC;stroke-width:0.7813;" width="191.6077" x="2145.3125" y="605.127"/><text fill="#2E3440" font-family="Arial" font-size="20.3125" font-style="italic" lengthAdjust="spacing" textLength="90.3252" x="2195.9538" y="639.1403">&#171;Service&#187;</text><text fill="#2E3440" font-family="Arial" font-size="20.3125" lengthAdjust="spacing" textLength="149.0112" x="2160.9375" y="661.8332">Records Service</text><text fill="#2E3440" font-family="Arial" font-size="20.3125" lengthAdjust="spacing" textLength="160.3577" x="2160.9375" y="684.5261">Ports: 8083, 8090</text></g><!--entity DB_Phys--><g class="entity" data-entity="DB_Phys" data-source-line="45" data-uid="ent0006" id="entity_DB_Phys"><path d="M9.375,625.4395 C9.375,609.8145 86.5276,609.8145 86.5276,609.8145 C86.5276,609.8145 163.6803,609.8145 163.6803,625.4395 L163.6803,684.8877 C163.6803,700.5127 86.5276,700.5127 86.5276,700.5127 C86.5276,700.5127 9.375,700.5127 9.375,684.8877 L9.375,625.4395" fill="#A3BE8C" style="stroke:#4C566A;stroke-width:0.7813;"/><path d="M9.375,625.4395 C9.375,641.0645 86.5276,641.0645 86.5276,641.0645 C86.5276,641.0645 163.6803,641.0645 163.6803,625.4395" fill="none" style="stroke:#4C566A;stroke-width:0.7813;"/><text fill="#2E3440" font-family="Arial" font-size="20.3125" lengthAdjust="spacing" textLength="95.9686" x="25" y="665.7028">Mongo DB</text><text fill="#2E3440" font-family="Arial" font-size="20.3125" lengthAdjust="spacing" textLength="123.0553" x="25" y="688.3957">(Read Model)</text></g><!--entity DB_Pat--><g class="entity" data-entity="DB_Pat" data-source-line="46" data-uid="ent0007" id="entity_DB_Pat"><path d="M856.25,1137.9395 C856.25,1122.3145 933.4026,1122.3145 933.4026,1122.3145 C933.4026,1122.3145 1010.5553,1122.3145 1010.5553,1137.9395 L1010.5553,1197.3877 C1010.5553,1213.0127 933.4026,1213.0127 933.4026,1213.0127 C933.4026,1213.0127 856.25,1213.0127 856.25,1197.3877 L856.25,1137.9395" fill="#A3BE8C" style="stroke:#4C566A;stroke-width:0.7813;"/><path d="M856.25,1137.9395 C856.25,1153.5645 933.4026,1153.5645 933.4026,1153.5645 C933.4026,1153.5645 1010.5553,1153.5645 1010.5553,1137.9395" fill="none" style="stroke:#4C566A;stroke-width:0.7813;"/><text fill="#2E3440" font-family="Arial" font-size="20.3125" lengthAdjust="spacing" textLength="95.9686" x="871.875" y="1178.2028">Mongo DB</text><text fill="#2E3440" font-family="Arial" font-size="20.3125" lengthAdjust="spacing" textLength="123.0553" x="871.875" y="1200.8957">(Read Model)</text></g><!--entity DB_Rec--><g class="entity" data-entity="DB_Rec" data-source-line="47" data-uid="ent0008" id="entity_DB_Rec"><path d="M2659.375,1137.9395 C2659.375,1122.3145 2736.5276,1122.3145 2736.5276,1122.3145 C2736.5276,1122.3145 2813.6803,1122.3145 2813.6803,1137.9395 L2813.6803,1197.3877 C2813.6803,1213.0127 2736.5276,1213.0127 2736.5276,1213.0127 C2736.5276,1213.0127 2659.375,1213.0127 2659.375,1197.3877 L2659.375,1137.9395" fill="#A3BE8C" style="stroke:#4C566A;stroke-width:0.7813;"/><path d="M2659.375,1137.9395 C2659.375,1153.5645 2736.5276,1153.5645 2736.5276,1153.5645 C2736.5276,1153.5645 2813.6803,1153.5645 2813.6803,1137.9395" fill="none" style="stroke:#4C566A;stroke-width:0.7813;"/><text fill="#2E3440" font-family="Arial" font-size="20.3125" lengthAdjust="spacing" textLength="95.9686" x="2675" y="1178.2028">Mongo DB</text><text fill="#2E3440" font-family="Arial" font-size="20.3125" lengthAdjust="spacing" textLength="123.0553" x="2675" y="1200.8957">(Read Model)</text></g><!--link Physicians to Patients--><!--link Physicians to Patients--><g class="link" data-entity-1="Physicians" data-entity-2="Patients" data-source-line="67" data-uid="lnk22" id="link_Physicians_Patients"><path d="M1328.9063,458.627 C1328.9063,584.9551 1328.9063,895.752 1328.9063,895.752 C1328.9063,895.752 1156.1875,895.752 1039.1719,895.752" fill="none" id="Physicians-Patients-1" style="stroke:#4C566A;stroke-width:1.875;"/><polygon fill="#4C566A" points="1328.9063,449.252,1322.6563,463.3145,1328.9063,457.0645,1335.1563,463.3145,1328.9063,449.252" style="stroke:#4C566A;stroke-width:1.875;"/><polygon fill="#4C566A" points="1029.7969,895.752,1043.8594,902.002,1037.6094,895.752,1043.8594,889.502,1029.7969,895.752" style="stroke:#4C566A;stroke-width:1.875;"/><text fill="#000000" font-family="Arial" font-size="20.3125" lengthAdjust="spacing" textLength="53.0327" x="1275.7813" y="817.0153">HTTP</text></g><!--link Patients to Records--><!--link Records to Patients--><g class="link" data-entity-1="Records" data-entity-2="Patients" data-source-line="69" data-uid="lnk24" id="link_Records_Patients"><path d="M2135.8594,655.127 C1833.8438,655.127 933.5938,655.127 933.5938,655.127 C933.5938,655.127 933.5938,777.4082 933.5938,851.9863" fill="none" id="Records-Patients" style="stroke:#4C566A;stroke-width:1.875;"/><polygon fill="#4C566A" points="2145.2344,655.127,2131.1719,648.877,2137.4219,655.127,2131.1719,661.377,2145.2344,655.127" style="stroke:#4C566A;stroke-width:1.875;"/><polygon fill="#4C566A" points="933.5938,861.3613,939.8438,847.2988,933.5938,853.5488,927.3438,847.2988,933.5938,861.3613" style="stroke:#4C566A;stroke-width:1.875;"/><text fill="#000000" font-family="Arial" font-size="20.3125" lengthAdjust="spacing" textLength="53.0327" x="1383.1719" y="650.0778">HTTP</text></g><!--link DB_Phys to DB_Pat--><!--link DB_Pat to DB_Rec--><!--reverse link Auth to Physicians--><g class="link" data-entity-1="Auth" data-entity-2="Physicians" data-source-line="63" data-uid="lnk17" id="link_Auth_Physicians"><path d="M1729.375,202.4395 C1729.375,273.002 1729.375,383.252 1729.375,383.252 C1729.375,383.252 1581.1406,383.252 1476.6406,383.252" fill="none" id="Auth-backto-Physicians" style="stroke:#4C566A;stroke-width:1.875;"/><polygon fill="#4C566A" points="1729.375,193.0645,1723.125,207.127,1729.375,200.877,1735.625,207.127,1729.375,193.0645" style="stroke:#4C566A;stroke-width:1.875;"/><text fill="#000000" font-family="Arial" font-size="20.3125" lengthAdjust="spacing" textLength="53.0327" x="1644.9688" y="378.2028">HTTP</text></g><!--reverse link Auth to Patients--><g class="link" data-entity-1="Auth" data-entity-2="Patients" data-source-line="64" data-uid="lnk19" id="link_Auth_Patients"><path d="M1746.25,202.4395 C1746.25,373.4707 1746.25,911.377 1746.25,911.377 C1746.25,911.377 1245.2656,911.377 1030,911.377" fill="none" id="Auth-backto-Patients" style="stroke:#4C566A;stroke-width:1.875;"/><polygon fill="#4C566A" points="1746.25,193.0645,1740,207.127,1746.25,200.877,1752.5,207.127,1746.25,193.0645" style="stroke:#4C566A;stroke-width:1.875;"/><text fill="#000000" font-family="Arial" font-size="20.3125" lengthAdjust="spacing" textLength="53.0327" x="1693.125" y="905.2966">HTTP</text></g><!--reverse link Auth to Records--><g class="link" data-entity-1="Auth" data-entity-2="Records" data-source-line="65" data-uid="lnk21" id="link_Auth_Records"><path d="M1850.7813,202.2051 C1850.7813,327.252 1850.7813,633.252 1850.7813,633.252 C1850.7813,633.252 2029.1719,633.252 2144.8438,633.252" fill="none" id="Auth-backto-Records" style="stroke:#4C566A;stroke-width:1.875;"/><polygon fill="#4C566A" points="1850.7813,192.8301,1844.5313,206.8926,1850.7813,200.6426,1857.0313,206.8926,1850.7813,192.8301" style="stroke:#4C566A;stroke-width:1.875;"/><text fill="#000000" font-family="Arial" font-size="20.3125" lengthAdjust="spacing" textLength="53.0327" x="1797.6563" y="555.0309">HTTP</text></g><!--link Physicians to Records--><g class="link" data-entity-1="Physicians" data-entity-2="Records" data-source-line="68" data-uid="lnk23" id="link_Physicians_Records"><path d="M1444.1406,458.4863 C1444.1406,530.252 1444.1406,644.1895 1444.1406,644.1895 C1444.1406,644.1895 1923.8125,644.1895 2135.8594,644.1895" fill="none" id="Physicians-Records" style="stroke:#4C566A;stroke-width:1.875;"/><polygon fill="#4C566A" points="1444.1406,449.1113,1437.8906,463.1738,1444.1406,456.9238,1450.3906,463.1738,1444.1406,449.1113" style="stroke:#4C566A;stroke-width:1.875;"/><polygon fill="#4C566A" points="2145.2344,644.1895,2131.1719,637.9395,2137.4219,644.1895,2131.1719,650.4395,2145.2344,644.1895" style="stroke:#4C566A;stroke-width:1.875;"/><text fill="#000000" font-family="Arial" font-size="20.3125" lengthAdjust="spacing" textLength="53.0327" x="1644.0313" y="639.1403">HTTP</text></g><!--link Physicians to DB_Phys--><g class="link" data-entity-1="Physicians" data-entity-2="DB_Phys" data-source-line="72" data-uid="lnk25" id="link_Physicians_DB_Phys"><path d="M1292.9688,449.0176 C1292.9688,514.8926 1292.9688,622.3145 1292.9688,622.3145 C1292.9688,622.3145 440.6094,622.3145 173.8438,622.3145" fill="none" id="Physicians-to-DB_Phys" style="stroke:#4C566A;stroke-width:1.875;"/><polygon fill="#4C566A" points="164.4688,622.3145,178.5313,628.5645,172.2813,622.3145,178.5313,616.0645,164.4688,622.3145" style="stroke:#4C566A;stroke-width:1.875;"/><text fill="#000000" font-family="Arial" font-size="20.3125" lengthAdjust="spacing" textLength="83.551" x="730.9844" y="617.2653">Grava/L&#234;</text></g><!--link Patients to DB_Pat--><g class="link" data-entity-1="Patients" data-entity-2="DB_Pat" data-source-line="73" data-uid="lnk26" id="link_Patients_DB_Pat"><path d="M933.5938,961.3926 C933.5938,1008.002 933.5938,1067.5332 933.5938,1112.6582" fill="none" id="Patients-to-DB_Pat" style="stroke:#4C566A;stroke-width:1.875;"/><polygon fill="#4C566A" points="933.5938,1122.0332,939.8438,1107.9707,933.5938,1114.2207,927.3438,1107.9707,933.5938,1122.0332" style="stroke:#4C566A;stroke-width:1.875;"/><text fill="#000000" font-family="Arial" font-size="20.3125" lengthAdjust="spacing" textLength="83.551" x="849.2188" y="1036.6716">Grava/L&#234;</text></g><!--link Records to DB_Rec--><g class="link" data-entity-1="Records" data-entity-2="DB_Rec" data-source-line="74" data-uid="lnk27" id="link_Records_DB_Rec"><path d="M2338.0781,655.127 C2482.2344,655.127 2736.7188,655.127 2736.7188,655.127 C2736.7188,655.127 2736.7188,987.3457 2736.7188,1112.7676" fill="none" id="Records-to-DB_Rec" style="stroke:#4C566A;stroke-width:1.875;"/><polygon fill="#4C566A" points="2736.7188,1122.1426,2742.9688,1108.0801,2736.7188,1114.3301,2730.4688,1108.0801,2736.7188,1122.1426" style="stroke:#4C566A;stroke-width:1.875;"/><text fill="#000000" font-family="Arial" font-size="20.3125" lengthAdjust="spacing" textLength="83.551" x="2652.3438" y="684.2653">Grava/L&#234;</text></g><!--link Physicians to Broker--><g class="link" data-entity-1="Physicians" data-entity-2="Broker" data-source-line="78" data-uid="lnk28" id="link_Physicians_Broker"><path d="M1379.2969,449.3145 C1379.2969,588.7832 1379.2969,969.0488 1379.2969,1108.127" fill="none" id="Physicians-to-Broker" style="stroke:#D08770;stroke-width:1.875;stroke-dasharray:10.9375,10.9375;"/><polygon fill="#D08770" points="1379.2969,1117.502,1385.5469,1103.4395,1379.2969,1109.6895,1373.0469,1103.4395,1379.2969,1117.502" style="stroke:#D08770;stroke-width:1.875;"/><text fill="#000000" font-family="Arial" font-size="20.3125" lengthAdjust="spacing" textLength="36.142" x="1341.7969" y="778.3591">Pub</text></g><!--reverse link Physicians to Broker--><g class="link" data-entity-1="Physicians" data-entity-2="Broker" data-source-line="82" data-uid="lnk32" id="link_Physicians_Broker"><path d="M1411.7188,458.6895 C1411.7188,598.1582 1411.7188,978.4238 1411.7188,1117.502" fill="none" id="Physicians-backto-Broker" style="stroke:#D08770;stroke-width:1.875;stroke-dasharray:1.5625,4.6875;"/><polygon fill="#D08770" points="1411.7188,449.3145,1405.4688,463.377,1411.7188,457.127,1417.9688,463.377,1411.7188,449.3145" style="stroke:#D08770;stroke-width:1.875;"/><text fill="#000000" font-family="Arial" font-size="20.3125" lengthAdjust="spacing" textLength="36.142" x="1374.2188" y="803.3591">Sub</text></g><!--link Patients to Broker--><g class="link" data-entity-1="Patients" data-entity-2="Broker" data-source-line="79" data-uid="lnk29" id="link_Patients_Broker"><path d="M1023.4375,961.5645 C1023.4375,1032.502 1023.4375,1153.5645 1023.4375,1153.5645 C1023.4375,1153.5645 1215.5469,1153.5645 1337.1563,1153.5645" fill="none" id="Patients-to-Broker" style="stroke:#D08770;stroke-width:1.875;stroke-dasharray:10.9375,10.9375;"/><polygon fill="#D08770" points="1346.5313,1153.5645,1332.4688,1147.3145,1338.7188,1153.5645,1332.4688,1159.8145,1346.5313,1153.5645" style="stroke:#D08770;stroke-width:1.875;"/><text fill="#000000" font-family="Arial" font-size="20.3125" lengthAdjust="spacing" textLength="36.142" x="1051.4844" y="1148.5153">Pub</text></g><!--reverse link Patients to Broker--><g class="link" data-entity-1="Patients" data-entity-2="Broker" data-source-line="83" data-uid="lnk34" id="link_Patients_Broker"><path d="M1017.1875,971.252 C1017.1875,1049.877 1017.1875,1183.252 1017.1875,1183.252 C1017.1875,1183.252 1223.4531,1183.252 1346.7188,1183.252" fill="none" id="Patients-backto-Broker" style="stroke:#D08770;stroke-width:1.875;stroke-dasharray:1.5625,4.6875;"/><polygon fill="#D08770" points="1017.1875,961.877,1010.9375,975.9395,1017.1875,969.6895,1023.4375,975.9395,1017.1875,961.877" style="stroke:#D08770;stroke-width:1.875;"/><text fill="#000000" font-family="Arial" font-size="20.3125" lengthAdjust="spacing" textLength="36.142" x="1033.7656" y="1178.2028">Sub</text></g><!--link Records to Broker--><g class="link" data-entity-1="Records" data-entity-2="Broker" data-source-line="80" data-uid="lnk30" id="link_Records_Broker"><path d="M2145.0156,678.5645 C1946.3906,678.5645 1509.8906,678.5645 1509.8906,678.5645 C1509.8906,678.5645 1509.8906,983.5645 1509.8906,1108.2051" fill="none" id="Records-to-Broker" style="stroke:#D08770;stroke-width:1.875;stroke-dasharray:10.9375,10.9375;"/><polygon fill="#D08770" points="1509.8906,1117.5801,1516.1406,1103.5176,1509.8906,1109.7676,1503.6406,1103.5176,1509.8906,1117.5801" style="stroke:#D08770;stroke-width:1.875;"/><text fill="#000000" font-family="Arial" font-size="20.3125" lengthAdjust="spacing" textLength="36.142" x="1570.4531" y="698.5153">Pub</text></g><!--reverse link Records to Broker--><g class="link" data-entity-1="Records" data-entity-2="Broker" data-source-line="84" data-uid="lnk36" id="link_Records_Broker"><path d="M2135.75,667.627 C1933.6875,667.627 1493.2344,667.627 1493.2344,667.627 C1493.2344,667.627 1493.2344,990.5957 1493.2344,1117.3926" fill="none" id="Records-backto-Broker" style="stroke:#D08770;stroke-width:1.875;stroke-dasharray:1.5625,4.6875;"/><polygon fill="#D08770" points="2145.125,667.627,2131.0625,661.377,2137.3125,667.627,2131.0625,673.877,2145.125,667.627" style="stroke:#D08770;stroke-width:1.875;"/><text fill="#000000" font-family="Arial" font-size="20.3125" lengthAdjust="spacing" textLength="36.142" x="1556.7969" y="662.5778">Sub</text></g><!--link Physicians to Zipkin--><g class="link" data-entity-1="Physicians" data-entity-2="Zipkin" data-source-line="88" data-uid="lnk37" id="link_Physicians_Zipkin"><path d="M1476.75,416.0645 C1574.4375,416.0645 1707.8125,416.0645 1707.8125,416.0645 C1707.8125,416.0645 1707.8125,939.2676 1707.8125,1107.7676" fill="none" id="Physicians-to-Zipkin" style="stroke:#D8DEE9;stroke-width:1.875;"/><polygon fill="#D8DEE9" points="1707.8125,1117.1426,1714.0625,1103.0801,1707.8125,1109.3301,1701.5625,1103.0801,1707.8125,1117.1426" style="stroke:#D8DEE9;stroke-width:1.875;"/></g><!--link Patients to Zipkin--><g class="link" data-entity-1="Patients" data-entity-2="Zipkin" data-source-line="89" data-uid="lnk38" id="link_Patients_Zipkin"><path d="M1030.2813,945.752 C1236.9531,945.752 1703.125,945.752 1703.125,945.752 C1703.125,945.752 1703.125,1042.4395 1703.125,1107.9082" fill="none" id="Patients-to-Zipkin" style="stroke:#D8DEE9;stroke-width:1.875;"/><polygon fill="#D8DEE9" points="1703.125,1117.2832,1709.375,1103.2207,1703.125,1109.4707,1696.875,1103.2207,1703.125,1117.2832" style="stroke:#D8DEE9;stroke-width:1.875;"/></g><!--link Auth to Zipkin--><g class="link" data-entity-1="Auth" data-entity-2="Zipkin" data-source-line="90" data-uid="lnk39" id="link_Auth_Zipkin"><path d="M1763.125,192.752 C1763.125,366.7988 1763.125,934.3301 1763.125,1108.2207" fill="none" id="Auth-to-Zipkin" style="stroke:#D8DEE9;stroke-width:1.875;"/><polygon fill="#D8DEE9" points="1763.125,1117.5957,1769.375,1103.5332,1763.125,1109.7832,1756.875,1103.5332,1763.125,1117.5957" style="stroke:#D8DEE9;stroke-width:1.875;"/></g><!--link Records to Zipkin--><g class="link" data-entity-1="Records" data-entity-2="Zipkin" data-source-line="91" data-uid="lnk40" id="link_Records_Zipkin"><path d="M2145.2344,689.502 C2010.0156,689.502 1780,689.502 1780,689.502 C1780,689.502 1780,985.2363 1780,1107.9863" fill="none" id="Records-to-Zipkin" style="stroke:#D8DEE9;stroke-width:1.875;"/><polygon fill="#D8DEE9" points="1780,1117.3613,1786.25,1103.2988,1780,1109.5488,1773.75,1103.2988,1780,1117.3613" style="stroke:#D8DEE9;stroke-width:1.875;"/></g><g class="legend" data-source-line="93"><rect fill="#DDDDDD" height="137.8174" rx="11.7188" ry="11.7188" style="stroke:#000000;stroke-width:1.5625;" width="311.3434" x="2488.2744" y="1273.877"/><text fill="#4C566A" font-family="Arial" font-size="21.875" lengthAdjust="spacing" textLength="46.4951" x="2496.0869" y="1301.4923">&#9472;&#9472;&#9472;</text><text fill="#000000" font-family="Arial" font-size="21.875" lengthAdjust="spacing" textLength="12.1552" x="2542.5819" y="1301.4923">&#160;&#160;</text><text fill="#000000" font-family="Arial" font-size="21.875" font-weight="bold" lengthAdjust="spacing" textLength="57.1121" x="2554.7371" y="1301.4923">HTTP</text><text fill="#000000" font-family="Arial" font-size="21.875" lengthAdjust="spacing" textLength="102.1225" x="2617.9268" y="1301.4923">(S&#237;ncrono)</text><text fill="#4C566A" font-family="Arial" font-size="21.875" lengthAdjust="spacing" textLength="46.4951" x="2496.0869" y="1325.9308">&#9552;&#9552;&#9552;</text><text fill="#000000" font-family="Arial" font-size="21.875" lengthAdjust="spacing" textLength="12.1552" x="2542.5819" y="1325.9308">&#160;&#160;</text><text fill="#000000" font-family="Arial" font-size="21.875" font-weight="bold" lengthAdjust="spacing" textLength="97.2733" x="2554.7371" y="1325.9308">Database</text><text fill="#000000" font-family="Arial" font-size="21.875" lengthAdjust="spacing" textLength="133.7173" x="2658.0879" y="1325.9308">(Persist&#234;ncia)</text><text fill="#D08770" font-family="Arial" font-size="21.875" lengthAdjust="spacing" textLength="34.0088" x="2496.0869" y="1350.3693">- - -</text><text fill="#000000" font-family="Arial" font-size="21.875" lengthAdjust="spacing" textLength="12.1552" x="2530.0957" y="1350.3693">&#160;&#160;</text><text fill="#000000" font-family="Arial" font-size="21.875" font-weight="bold" lengthAdjust="spacing" textLength="65.625" x="2542.2508" y="1350.3693">AMQP</text><text fill="#000000" font-family="Arial" font-size="21.875" lengthAdjust="spacing" textLength="139.7842" x="2613.9534" y="1350.3693">(Pub - Escrita)</text><text fill="#D08770" font-family="Arial" font-size="21.875" lengthAdjust="spacing" textLength="36.4655" x="2496.0869" y="1374.8077">......</text><text fill="#000000" font-family="Arial" font-size="21.875" lengthAdjust="spacing" textLength="12.1552" x="2532.5523" y="1374.8077">&#160;&#160;</text><text fill="#000000" font-family="Arial" font-size="21.875" font-weight="bold" lengthAdjust="spacing" textLength="65.625" x="2544.7075" y="1374.8077">AMQP</text><text fill="#000000" font-family="Arial" font-size="21.875" lengthAdjust="spacing" textLength="139.8163" x="2616.4101" y="1374.8077">(Sub - Leitura)</text><text fill="#D8DEE9" font-family="Arial" font-size="21.875" lengthAdjust="spacing" textLength="46.4951" x="2496.0869" y="1399.2462">&#9472;&#9472;&#9472;</text><text fill="#000000" font-family="Arial" font-size="21.875" lengthAdjust="spacing" textLength="58.3511" x="2554.7371" y="1399.2462">Zipkin</text></g><!--SRC=[ZLNDRjj64BxpAGRo8POG9PBy9mk2059IcWAMeKH23ws3OaMkgONeNMLtwSGf0kGHUaZlxIb0W9wAFe7U94_IsIKbBocwZYo89kURsPbllXcg5UDh8iaDH6i6xPEMftPFr994uXtZCLoJH577aZ1EzTsQWf1wAHo352cFGY4vbHZCSonSH5JHDRJRxX6Iy9Lzscgvu8XUapJHBmJNb-I6WYyPIQhjC_Q1Gll8zPOqr8J72ONVFC1FGC9LR3CRYaJ8Vdz6vIqBwM001ztki3LgPJ0X8oht8IVZRjiVLaVwaLzBOa31YzFsgRyVPmSu7fwSRW7bA7wgbmOp3eP1DzWFihMFMjspionPKxgrma5dV7HytF8-5WWacYo8Ue01EF2FWd5tM3wfaEKZ9n0fnRiy_BxpVCd25QTAGVjPnpXgfh4VZSQm0zy-VKOFhWcAI2euVEbFwut65VVbsvHfgbD9uBRZUK-WsOGXkI4HWNOFPZH62zzy8VZSk-znpR03UR-k-1GbgNhGRNMFdvhVyneG1HQp9R8OkjFBd3TVX49XmIMDD_-4J9HEcIxl50iPuQhghBOzwyoUvI0T7HLY4SqervMHEZPIDukqnJqGvpN5KOigmnoPCESj6sOBSwCKA3ZgmGX77Nin4JmMew1kYdy2Ks4A4TpQ4X4BG56nzmBClTgHPWG1Z4Si91BML6fgkkJjD5YpKM4KNF73rvH4CC5TaDHjRgFWLyFNzuE9_cuirbsiyxW7TXwfqZArEfiIgLcoDCPYkn_4rNBDEzW9wfp4508fLbIQNCXYmVJaLPP9zXXskw3iFfSan2MBVZ-pDSvNvfNzxtXzp6lnSVakSIboZTI_599ziBDa1eb54UNrh1_NGc8J90X8o9r8jQdFKMRpbwL5lv7DdSoydTvSQwuUpyjRLJ3c7SakPOl3l-3q_UPVYWdFvrCud8krg9SpIfk3R4vx5kLaKxPi1RrdSEFrcsZSnTZ6BDctaKg1AttBfU2k28mAyPfFpq-eVHm2xCKmbPgelH8Z3BkbiGS_I79BdbzilZgbRX78fWlOLPpRyRvWB-VcAxNvcuSIPnVpyYUlflb8-mgiVipKecfleBR6rQtbvYzL0v42CNg9SCBj2AcYPF8Nq5CqBcdqnkIIYxi7qtJXwkSnwAwWHv5UVkSWXTQ8DCrtqiCrZkZ_1Tytz37elIuCCcCtdrDSaeHhPZXYAfHKYvpQIw593ovOd586cpyjVt3BL4eICwqqetTlSIRi1gzbehkZyVZSaf4jWYAtUrOx19KMb-WzevVGcF8898kN6lTIFpHlybx-9Xzy-_mf-_QVMyC0y0rkPg7HWCDPBZ1Hht3yu_ViwpgEyhLjdAVuvcTARxvoBDaDaBLYq0JySvsDXArZka3J68bdkihncVrKUSwivmLbPg4NF2qjLSNcB2536K__0G00]--></g></svg>