<svg xmlns="http://www.w3.org/2000/svg" xmlns:xlink="http://www.w3.org/1999/xlink" contentStyleType="text/css" height="799px" preserveAspectRatio="none" style="width:1290px;height:799px;background:#FFFFFF;" version="1.1" viewBox="0 0 1290 799" width="1290px" zoomAndPan="magnify"><title>US06 - SD - Update a Physician&#180;s Data</title><defs/><g><text fill="#000000" font-family="sans-serif" font-size="14" font-weight="bold" lengthAdjust="spacing" textLength="254.4131" x="516.8811" y="30.1074">US06 - SD - Update a Physician&#180;s Data</text><rect fill="#FFFFFF" height="565.2383" style="stroke:#181818;stroke-width:1.0;" width="10" x="44.2344" y="133.2422"/><rect fill="#FFFFFF" height="538.9473" style="stroke:#181818;stroke-width:1.0;" width="10" x="239.8169" y="159.5332"/><rect fill="#FFFFFF" height="473.3652" style="stroke:#181818;stroke-width:1.0;" width="10" x="436.1611" y="193.8242"/><rect fill="#FFFFFF" height="31.291" style="stroke:#181818;stroke-width:1.0;" width="10" x="627.4536" y="313.9883"/><rect fill="#FFFFFF" height="31.291" style="stroke:#181818;stroke-width:1.0;" width="10" x="819.146" y="409.8613"/><rect fill="#FFFFFF" height="31.291" style="stroke:#181818;stroke-width:1.0;" width="10" x="1004.2246" y="225.1152"/><rect fill="#FFFFFF" height="31.291" style="stroke:#181818;stroke-width:1.0;" width="10" x="1004.2246" y="542.0254"/><rect fill="#FFFFFF" height="31.291" style="stroke:#181818;stroke-width:1.0;" width="10" x="1190.8584" y="479.4434"/><rect fill="#FFFFFF" height="31.291" style="stroke:#181818;stroke-width:1.0;" width="10" x="1190.8584" y="604.6074"/><rect fill="none" height="81.873" style="stroke:#000000;stroke-width:1.5;" width="392.585" x="344.7993" y="271.4063"/><rect fill="none" height="81.873" style="stroke:#000000;stroke-width:1.5;" width="576.1084" x="344.7993" y="367.2793"/><line style="stroke:#181818;stroke-width:0.5;stroke-dasharray:5.0,5.0;" x1="49" x2="49" y1="123.2422" y2="716.4805"/><line style="stroke:#181818;stroke-width:0.5;stroke-dasharray:5.0,5.0;" x1="243.8345" x2="243.8345" y1="123.2422" y2="716.4805"/><line style="stroke:#181818;stroke-width:0.5;stroke-dasharray:5.0,5.0;" x1="440.7993" x2="440.7993" y1="123.2422" y2="716.4805"/><line style="stroke:#181818;stroke-width:0.5;stroke-dasharray:5.0,5.0;" x1="631.5229" x2="631.5229" y1="123.2422" y2="716.4805"/><line style="stroke:#181818;stroke-width:0.5;stroke-dasharray:5.0,5.0;" x1="823.3843" x2="823.3843" y1="123.2422" y2="716.4805"/><line style="stroke:#181818;stroke-width:0.5;stroke-dasharray:5.0,5.0;" x1="1008.9077" x2="1008.9077" y1="123.2422" y2="716.4805"/><line style="stroke:#181818;stroke-width:0.5;stroke-dasharray:5.0,5.0;" x1="1195.5415" x2="1195.5415" y1="123.2422" y2="716.4805"/><text fill="#000000" font-family="sans-serif" font-size="14" lengthAdjust="spacing" textLength="82.4688" x="5" y="119.7285">Administrator</text><ellipse cx="49.2344" cy="53.1211" fill="#E2E2F0" rx="8" ry="8" style="stroke:#181818;stroke-width:0.5;"/><path d="M49.2344,61.1211 L49.2344,88.1211 M36.2344,69.1211 L62.2344,69.1211 M49.2344,88.1211 L36.2344,103.1211 M49.2344,88.1211 L62.2344,103.1211 " fill="none" style="stroke:#181818;stroke-width:0.5;"/><text fill="#000000" font-family="sans-serif" font-size="14" lengthAdjust="spacing" textLength="82.4688" x="5" y="730.5879">Administrator</text><ellipse cx="49.2344" cy="742.6016" fill="#E2E2F0" rx="8" ry="8" style="stroke:#181818;stroke-width:0.5;"/><path d="M49.2344,750.6016 L49.2344,777.6016 M36.2344,758.6016 L62.2344,758.6016 M49.2344,777.6016 L36.2344,792.6016 M49.2344,777.6016 L62.2344,792.6016 " fill="none" style="stroke:#181818;stroke-width:0.5;"/><rect fill="#E2E2F0" height="32.6211" rx="2.5" ry="2.5" style="stroke:#181818;stroke-width:0.5;" width="199.9648" x="144.8345" y="89.6211"/><text fill="#000000" font-family="sans-serif" font-size="14" lengthAdjust="spacing" textLength="185.9648" x="151.8345" y="111.7285">:controller:PhysicianController</text><rect fill="#E2E2F0" height="32.6211" rx="2.5" ry="2.5" style="stroke:#181818;stroke-width:0.5;" width="199.9648" x="144.8345" y="715.4805"/><text fill="#000000" font-family="sans-serif" font-size="14" lengthAdjust="spacing" textLength="185.9648" x="151.8345" y="737.5879">:controller:PhysicianController</text><rect fill="#E2E2F0" height="32.6211" rx="2.5" ry="2.5" style="stroke:#181818;stroke-width:0.5;" width="172.7236" x="354.7993" y="89.6211"/><text fill="#000000" font-family="sans-serif" font-size="14" lengthAdjust="spacing" textLength="158.7236" x="361.7993" y="111.7285">:service:PhysicianService</text><rect fill="#E2E2F0" height="32.6211" rx="2.5" ry="2.5" style="stroke:#181818;stroke-width:0.5;" width="172.7236" x="354.7993" y="715.4805"/><text fill="#000000" font-family="sans-serif" font-size="14" lengthAdjust="spacing" textLength="158.7236" x="361.7993" y="737.5879">:service:PhysicianService</text><rect fill="#E2E2F0" height="32.6211" rx="2.5" ry="2.5" style="stroke:#181818;stroke-width:0.5;" width="189.8613" x="537.5229" y="89.6211"/><text fill="#000000" font-family="sans-serif" font-size="14" lengthAdjust="spacing" textLength="175.8613" x="544.5229" y="111.7285">:repo:DepartmentRepository</text><rect fill="#E2E2F0" height="32.6211" rx="2.5" ry="2.5" style="stroke:#181818;stroke-width:0.5;" width="189.8613" x="537.5229" y="715.4805"/><text fill="#000000" font-family="sans-serif" font-size="14" lengthAdjust="spacing" textLength="175.8613" x="544.5229" y="737.5879">:repo:DepartmentRepository</text><rect fill="#E2E2F0" height="32.6211" rx="2.5" ry="2.5" style="stroke:#181818;stroke-width:0.5;" width="173.5234" x="737.3843" y="89.6211"/><text fill="#000000" font-family="sans-serif" font-size="14" lengthAdjust="spacing" textLength="159.5234" x="744.3843" y="111.7285">:repo:SpecialtyRepository</text><rect fill="#E2E2F0" height="32.6211" rx="2.5" ry="2.5" style="stroke:#181818;stroke-width:0.5;" width="173.5234" x="737.3843" y="715.4805"/><text fill="#000000" font-family="sans-serif" font-size="14" lengthAdjust="spacing" textLength="159.5234" x="744.3843" y="737.5879">:repo:SpecialtyRepository</text><rect fill="#E2E2F0" height="32.6211" rx="2.5" ry="2.5" style="stroke:#181818;stroke-width:0.5;" width="176.6338" x="920.9077" y="89.6211"/><text fill="#000000" font-family="sans-serif" font-size="14" lengthAdjust="spacing" textLength="162.6338" x="927.9077" y="111.7285">:repo:PhysicianRepository</text><rect fill="#E2E2F0" height="32.6211" rx="2.5" ry="2.5" style="stroke:#181818;stroke-width:0.5;" width="176.6338" x="920.9077" y="715.4805"/><text fill="#000000" font-family="sans-serif" font-size="14" lengthAdjust="spacing" textLength="162.6338" x="927.9077" y="737.5879">:repo:PhysicianRepository</text><rect fill="#E2E2F0" height="32.6211" rx="2.5" ry="2.5" style="stroke:#181818;stroke-width:0.5;" width="176.6338" x="1107.5415" y="89.6211"/><text fill="#000000" font-family="sans-serif" font-size="14" lengthAdjust="spacing" textLength="162.6338" x="1114.5415" y="111.7285">:mapper:PhysicianMapper</text><rect fill="#E2E2F0" height="32.6211" rx="2.5" ry="2.5" style="stroke:#181818;stroke-width:0.5;" width="176.6338" x="1107.5415" y="715.4805"/><text fill="#000000" font-family="sans-serif" font-size="14" lengthAdjust="spacing" textLength="162.6338" x="1114.5415" y="737.5879">:mapper:PhysicianMapper</text><rect fill="#FFFFFF" height="565.2383" style="stroke:#181818;stroke-width:1.0;" width="10" x="44.2344" y="133.2422"/><rect fill="#FFFFFF" height="538.9473" style="stroke:#181818;stroke-width:1.0;" width="10" x="239.8169" y="159.5332"/><rect fill="#FFFFFF" height="473.3652" style="stroke:#181818;stroke-width:1.0;" width="10" x="436.1611" y="193.8242"/><rect fill="#FFFFFF" height="31.291" style="stroke:#181818;stroke-width:1.0;" width="10" x="627.4536" y="313.9883"/><rect fill="#FFFFFF" height="31.291" style="stroke:#181818;stroke-width:1.0;" width="10" x="819.146" y="409.8613"/><rect fill="#FFFFFF" height="31.291" style="stroke:#181818;stroke-width:1.0;" width="10" x="1004.2246" y="225.1152"/><rect fill="#FFFFFF" height="31.291" style="stroke:#181818;stroke-width:1.0;" width="10" x="1004.2246" y="542.0254"/><rect fill="#FFFFFF" height="31.291" style="stroke:#181818;stroke-width:1.0;" width="10" x="1190.8584" y="479.4434"/><rect fill="#FFFFFF" height="31.291" style="stroke:#181818;stroke-width:1.0;" width="10" x="1190.8584" y="604.6074"/><polygon fill="#181818" points="227.8169,155.5332,237.8169,159.5332,227.8169,163.5332,231.8169,159.5332" style="stroke:#181818;stroke-width:1.0;"/><line style="stroke:#181818;stroke-width:1.0;" x1="54.2344" x2="233.8169" y1="159.5332" y2="159.5332"/><text fill="#000000" font-family="sans-serif" font-size="13" font-weight="bold" lengthAdjust="spacing" textLength="7.23" x="61.2344" y="154.2705">1</text><text fill="#000000" font-family="sans-serif" font-size="13" lengthAdjust="spacing" textLength="155.3525" x="72.4644" y="154.2705">PATCH /api/physicians/{id}</text><path d="M254,138.2422 L254,165.2422 L509,165.2422 L509,148.2422 L499,138.2422 L254,138.2422 " fill="#FEFFDD" style="stroke:#181818;stroke-width:0.5;"/><path d="M499,138.2422 L499,148.2422 L509,148.2422 L499,138.2422 " fill="#FEFFDD" style="stroke:#181818;stroke-width:0.5;"/><text fill="#000000" font-family="sans-serif" font-size="13" lengthAdjust="spacing" textLength="234.0063" x="260" y="157.2705">@PreAuthorize("hasAuthority('ADMIN')")</text><polygon fill="#181818" points="424.1611,189.8242,434.1611,193.8242,424.1611,197.8242,428.1611,193.8242" style="stroke:#181818;stroke-width:1.0;"/><line style="stroke:#181818;stroke-width:1.0;" x1="249.8169" x2="430.1611" y1="193.8242" y2="193.8242"/><text fill="#000000" font-family="sans-serif" font-size="13" font-weight="bold" lengthAdjust="spacing" textLength="7.23" x="256.8169" y="188.5615">2</text><text fill="#000000" font-family="sans-serif" font-size="13" lengthAdjust="spacing" textLength="146.688" x="268.0469" y="188.5615">partialUpdate(id, request)</text><polygon fill="#181818" points="992.2246,221.1152,1002.2246,225.1152,992.2246,229.1152,996.2246,225.1152" style="stroke:#181818;stroke-width:1.0;"/><line style="stroke:#181818;stroke-width:1.0;" x1="446.1611" x2="998.2246" y1="225.1152" y2="225.1152"/><text fill="#000000" font-family="sans-serif" font-size="13" font-weight="bold" lengthAdjust="spacing" textLength="7.23" x="453.1611" y="219.8525">3</text><text fill="#000000" font-family="sans-serif" font-size="13" lengthAdjust="spacing" textLength="65.749" x="464.3911" y="219.8525">findById(id)</text><polygon fill="#181818" points="457.1611,252.4063,447.1611,256.4063,457.1611,260.4063,453.1611,256.4063" style="stroke:#181818;stroke-width:1.0;"/><line style="stroke:#181818;stroke-width:1.0;stroke-dasharray:2.0,2.0;" x1="451.1611" x2="1008.2246" y1="256.4063" y2="256.4063"/><text fill="#000000" font-family="sans-serif" font-size="13" font-weight="bold" lengthAdjust="spacing" textLength="7.23" x="463.1611" y="251.1436">4</text><text fill="#000000" font-family="sans-serif" font-size="13" lengthAdjust="spacing" textLength="55.6372" x="474.3911" y="251.1436">Physician</text><path d="M344.7993,271.4063 L404.9702,271.4063 L404.9702,280.6973 L394.9702,290.6973 L344.7993,290.6973 L344.7993,271.4063 " fill="#EEEEEE" style="stroke:#000000;stroke-width:1.5;"/><rect fill="none" height="81.873" style="stroke:#000000;stroke-width:1.5;" width="392.585" x="344.7993" y="271.4063"/><text fill="#000000" font-family="sans-serif" font-size="13" font-weight="bold" lengthAdjust="spacing" textLength="15.1709" x="359.7993" y="286.4346">alt</text><text fill="#000000" font-family="sans-serif" font-size="11" font-weight="bold" lengthAdjust="spacing" textLength="168.0776" x="419.9702" y="285.2764">[request contains departmentId]</text><polygon fill="#181818" points="615.4536,309.9883,625.4536,313.9883,615.4536,317.9883,619.4536,313.9883" style="stroke:#181818;stroke-width:1.0;"/><line style="stroke:#181818;stroke-width:1.0;" x1="446.1611" x2="621.4536" y1="313.9883" y2="313.9883"/><text fill="#000000" font-family="sans-serif" font-size="13" font-weight="bold" lengthAdjust="spacing" textLength="7.23" x="453.1611" y="308.7256">5</text><text fill="#000000" font-family="sans-serif" font-size="13" lengthAdjust="spacing" textLength="132.2344" x="464.3911" y="308.7256">findById(departmentId)</text><polygon fill="#181818" points="457.1611,341.2793,447.1611,345.2793,457.1611,349.2793,453.1611,345.2793" style="stroke:#181818;stroke-width:1.0;"/><line style="stroke:#181818;stroke-width:1.0;stroke-dasharray:2.0,2.0;" x1="451.1611" x2="631.4536" y1="345.2793" y2="345.2793"/><text fill="#000000" font-family="sans-serif" font-size="13" font-weight="bold" lengthAdjust="spacing" textLength="7.23" x="463.1611" y="340.0166">6</text><text fill="#000000" font-family="sans-serif" font-size="13" lengthAdjust="spacing" textLength="67.9199" x="474.3911" y="340.0166">Department</text><path d="M344.7993,367.2793 L404.9702,367.2793 L404.9702,376.5703 L394.9702,386.5703 L344.7993,386.5703 L344.7993,367.2793 " fill="#EEEEEE" style="stroke:#000000;stroke-width:1.5;"/><rect fill="none" height="81.873" style="stroke:#000000;stroke-width:1.5;" width="576.1084" x="344.7993" y="367.2793"/><text fill="#000000" font-family="sans-serif" font-size="13" font-weight="bold" lengthAdjust="spacing" textLength="15.1709" x="359.7993" y="382.3076">alt</text><text fill="#000000" font-family="sans-serif" font-size="11" font-weight="bold" lengthAdjust="spacing" textLength="155.2622" x="419.9702" y="381.1494">[request contains specialtyId]</text><polygon fill="#181818" points="807.146,405.8613,817.146,409.8613,807.146,413.8613,811.146,409.8613" style="stroke:#181818;stroke-width:1.0;"/><line style="stroke:#181818;stroke-width:1.0;" x1="446.1611" x2="813.146" y1="409.8613" y2="409.8613"/><text fill="#000000" font-family="sans-serif" font-size="13" font-weight="bold" lengthAdjust="spacing" textLength="7.23" x="453.1611" y="404.5986">7</text><text fill="#000000" font-family="sans-serif" font-size="13" lengthAdjust="spacing" textLength="117.0508" x="464.3911" y="404.5986">findById(specialtyId)</text><polygon fill="#181818" points="457.1611,437.1523,447.1611,441.1523,457.1611,445.1523,453.1611,441.1523" style="stroke:#181818;stroke-width:1.0;"/><line style="stroke:#181818;stroke-width:1.0;stroke-dasharray:2.0,2.0;" x1="451.1611" x2="823.146" y1="441.1523" y2="441.1523"/><text fill="#000000" font-family="sans-serif" font-size="13" font-weight="bold" lengthAdjust="spacing" textLength="7.23" x="463.1611" y="435.8896">8</text><text fill="#000000" font-family="sans-serif" font-size="13" lengthAdjust="spacing" textLength="52.749" x="474.3911" y="435.8896">Specialty</text><polygon fill="#181818" points="1178.8584,475.4434,1188.8584,479.4434,1178.8584,483.4434,1182.8584,479.4434" style="stroke:#181818;stroke-width:1.0;"/><line style="stroke:#181818;stroke-width:1.0;" x1="446.1611" x2="1184.8584" y1="479.4434" y2="479.4434"/><text fill="#000000" font-family="sans-serif" font-size="13" font-weight="bold" lengthAdjust="spacing" textLength="7.23" x="453.1611" y="474.1807">9</text><text fill="#000000" font-family="sans-serif" font-size="13" lengthAdjust="spacing" textLength="154.6353" x="464.3911" y="474.1807">applyPatch(entity, request)</text><polygon fill="#181818" points="457.1611,506.7344,447.1611,510.7344,457.1611,514.7344,453.1611,510.7344" style="stroke:#181818;stroke-width:1.0;"/><line style="stroke:#181818;stroke-width:1.0;stroke-dasharray:2.0,2.0;" x1="451.1611" x2="1194.8584" y1="510.7344" y2="510.7344"/><text fill="#000000" font-family="sans-serif" font-size="13" font-weight="bold" lengthAdjust="spacing" textLength="14.46" x="463.1611" y="505.4717">10</text><text fill="#000000" font-family="sans-serif" font-size="13" lengthAdjust="spacing" textLength="106.2407" x="481.6211" y="505.4717">updated Physician</text><polygon fill="#181818" points="992.2246,538.0254,1002.2246,542.0254,992.2246,546.0254,996.2246,542.0254" style="stroke:#181818;stroke-width:1.0;"/><line style="stroke:#181818;stroke-width:1.0;" x1="446.1611" x2="998.2246" y1="542.0254" y2="542.0254"/><text fill="#000000" font-family="sans-serif" font-size="13" font-weight="bold" lengthAdjust="spacing" textLength="14.46" x="453.1611" y="536.7627">11</text><text fill="#000000" font-family="sans-serif" font-size="13" lengthAdjust="spacing" textLength="91.7554" x="471.6211" y="536.7627">save(Physician)</text><polygon fill="#181818" points="457.1611,569.3164,447.1611,573.3164,457.1611,577.3164,453.1611,573.3164" style="stroke:#181818;stroke-width:1.0;"/><line style="stroke:#181818;stroke-width:1.0;stroke-dasharray:2.0,2.0;" x1="451.1611" x2="1008.2246" y1="573.3164" y2="573.3164"/><text fill="#000000" font-family="sans-serif" font-size="13" font-weight="bold" lengthAdjust="spacing" textLength="14.46" x="463.1611" y="568.0537">12</text><text fill="#000000" font-family="sans-serif" font-size="13" lengthAdjust="spacing" textLength="114.8989" x="481.6211" y="568.0537">Physician (updated)</text><polygon fill="#181818" points="1178.8584,600.6074,1188.8584,604.6074,1178.8584,608.6074,1182.8584,604.6074" style="stroke:#181818;stroke-width:1.0;"/><line style="stroke:#181818;stroke-width:1.0;" x1="446.1611" x2="1184.8584" y1="604.6074" y2="604.6074"/><text fill="#000000" font-family="sans-serif" font-size="13" font-weight="bold" lengthAdjust="spacing" textLength="14.46" x="453.1611" y="599.3447">13</text><text fill="#000000" font-family="sans-serif" font-size="13" lengthAdjust="spacing" textLength="102.5781" x="471.6211" y="599.3447">toDTO(Physician)</text><polygon fill="#181818" points="457.1611,631.8984,447.1611,635.8984,457.1611,639.8984,453.1611,635.8984" style="stroke:#181818;stroke-width:1.0;"/><line style="stroke:#181818;stroke-width:1.0;stroke-dasharray:2.0,2.0;" x1="451.1611" x2="1194.8584" y1="635.8984" y2="635.8984"/><text fill="#000000" font-family="sans-serif" font-size="13" font-weight="bold" lengthAdjust="spacing" textLength="14.46" x="463.1611" y="630.6357">14</text><text fill="#000000" font-family="sans-serif" font-size="13" lengthAdjust="spacing" textLength="83.0781" x="481.6211" y="630.6357">PhysicianDTO</text><polygon fill="#181818" points="260.8169,663.1895,250.8169,667.1895,260.8169,671.1895,256.8169,667.1895" style="stroke:#181818;stroke-width:1.0;"/><line style="stroke:#181818;stroke-width:1.0;stroke-dasharray:2.0,2.0;" x1="254.8169" x2="440.1611" y1="667.1895" y2="667.1895"/><text fill="#000000" font-family="sans-serif" font-size="13" font-weight="bold" lengthAdjust="spacing" textLength="14.46" x="266.8169" y="661.9268">15</text><text fill="#000000" font-family="sans-serif" font-size="13" lengthAdjust="spacing" textLength="83.0781" x="285.2769" y="661.9268">PhysicianDTO</text><polygon fill="#181818" points="60.2344,694.4805,50.2344,698.4805,60.2344,702.4805,56.2344,698.4805" style="stroke:#181818;stroke-width:1.0;"/><line style="stroke:#181818;stroke-width:1.0;stroke-dasharray:2.0,2.0;" x1="54.2344" x2="243.8169" y1="698.4805" y2="698.4805"/><text fill="#000000" font-family="sans-serif" font-size="13" font-weight="bold" lengthAdjust="spacing" textLength="14.46" x="66.2344" y="693.2178">16</text><text fill="#000000" font-family="sans-serif" font-size="13" lengthAdjust="spacing" textLength="44.0845" x="84.6943" y="693.2178">200 OK</text><!--SRC=[dLH1Rjim4Bpp5GjT8W4rREJGWmv5dUXG8qXZrCa369692CYKIguCg4L_rHVqPLrBjam9go38nSQETcQ7t97GOAdXQRVw30lOPVJpL2k96YHiYzQRt4Zxxw-7JA8Kii5AvcWEnuRAThLjzi_Q2K5uvI1QgxsnngEJL4QYbWv9evOM8KhpogAhobAxT12_7R08f0S6duXuxGucrnU5NG-CwITmmdMwhj9C7y6zjlY3Ic_8QDkHkGUSmAxMDAB4Ti9dS8u-U9pG6Nn2tykw3k_klgl7v1xhzj7lQRGH8KObBBvmDmufRDUFjzzWAMkphCyDVldRg3_2LgJgp6k1ANpTEhrkiAYS-QNZg93-L64RNwsp-yttgoHAXE26XBDFwwB1tObbsQSmDkeJEFspqHv3bNDxA76vDL9vCLRTj1j50edWMXRyz06Y2opnF1gEmPN6Ub13H3PA0726k1I5ZaA9X3JO_XbxbrwXhPhnwCyndBN813Lq60WS3NBTC_w6rjxUc_lgWqea-Y_RhSIyYEbWb9nWvTFkcRbDbnOLhk_zMV7oeEFXqSVY0l79GlBUKsELFJwmOzy-wW0HdPir_qQ7HFPz9Ehuwv32zMe53tT2ACr_J_u3]--></g></svg>