<svg xmlns="http://www.w3.org/2000/svg" xmlns:xlink="http://www.w3.org/1999/xlink" contentStyleType="text/css" height="408px" preserveAspectRatio="none" style="width:885px;height:408px;background:#FFFFFF;" version="1.1" viewBox="0 0 885 408" width="885px" zoomAndPan="magnify"><title>US05 - SSD - Search Physicians by Name or Specialty</title><defs/><g><text fill="#000000" font-family="sans-serif" font-size="14" font-weight="bold" lengthAdjust="spacing" textLength="357.9297" x="262.0945" y="30.1074">US05 - SSD - Search Physicians by Name or Specialty</text><rect fill="#FFFFFF" height="127.1641" style="stroke:#181818;stroke-width:1.0;" width="10" x="39.793" y="133.2422"/><rect fill="#FFFFFF" height="31.291" style="stroke:#181818;stroke-width:1.0;" width="10" x="410.2725" y="156.5332"/><rect fill="none" height="50.582" style="stroke:#000000;stroke-width:1.5;" width="449.8931" x="10" y="202.8242"/><line style="stroke:#181818;stroke-width:0.5;stroke-dasharray:5.0,5.0;" x1="44" x2="44" y1="123.2422" y2="324.9883"/><line style="stroke:#181818;stroke-width:0.5;stroke-dasharray:5.0,5.0;" x1="414.6519" x2="414.6519" y1="123.2422" y2="324.9883"/><text fill="#000000" font-family="sans-serif" font-size="14" lengthAdjust="spacing" textLength="43.5859" x="20" y="119.7285">Patient</text><ellipse cx="44.793" cy="53.1211" fill="#E2E2F0" rx="8" ry="8" style="stroke:#181818;stroke-width:0.5;"/><path d="M44.793,61.1211 L44.793,88.1211 M31.793,69.1211 L57.793,69.1211 M44.793,88.1211 L31.793,103.1211 M44.793,88.1211 L57.793,103.1211 " fill="none" style="stroke:#181818;stroke-width:0.5;"/><text fill="#000000" font-family="sans-serif" font-size="14" lengthAdjust="spacing" textLength="43.5859" x="20" y="339.0957">Patient</text><ellipse cx="44.793" cy="351.1094" fill="#E2E2F0" rx="8" ry="8" style="stroke:#181818;stroke-width:0.5;"/><path d="M44.793,359.1094 L44.793,386.1094 M31.793,367.1094 L57.793,367.1094 M44.793,386.1094 L31.793,401.1094 M44.793,386.1094 L57.793,401.1094 " fill="none" style="stroke:#181818;stroke-width:0.5;"/><rect fill="#E2E2F0" height="32.6211" rx="2.5" ry="2.5" style="stroke:#181818;stroke-width:0.5;" width="69.2412" x="380.6519" y="89.6211"/><text fill="#000000" font-family="sans-serif" font-size="14" lengthAdjust="spacing" textLength="55.2412" x="387.6519" y="111.7285">:RestAPI</text><rect fill="#E2E2F0" height="32.6211" rx="2.5" ry="2.5" style="stroke:#181818;stroke-width:0.5;" width="69.2412" x="380.6519" y="323.9883"/><text fill="#000000" font-family="sans-serif" font-size="14" lengthAdjust="spacing" textLength="55.2412" x="387.6519" y="346.0957">:RestAPI</text><rect fill="#FFFFFF" height="127.1641" style="stroke:#181818;stroke-width:1.0;" width="10" x="39.793" y="133.2422"/><rect fill="#FFFFFF" height="31.291" style="stroke:#181818;stroke-width:1.0;" width="10" x="410.2725" y="156.5332"/><polygon fill="#181818" points="398.2725,152.5332,408.2725,156.5332,398.2725,160.5332,402.2725,156.5332" style="stroke:#181818;stroke-width:1.0;"/><line style="stroke:#181818;stroke-width:1.0;" x1="49.793" x2="404.2725" y1="156.5332" y2="156.5332"/><text fill="#000000" font-family="sans-serif" font-size="13" font-weight="bold" lengthAdjust="spacing" textLength="7.23" x="56.793" y="151.2705">1</text><text fill="#000000" font-family="sans-serif" font-size="13" lengthAdjust="spacing" textLength="330.2495" x="68.0229" y="151.2705">GET /api/physicians?name={name}&amp;specialty={specialty}</text><polygon fill="#181818" points="60.793,183.8242,50.793,187.8242,60.793,191.8242,56.793,187.8242" style="stroke:#181818;stroke-width:1.0;"/><line style="stroke:#181818;stroke-width:1.0;stroke-dasharray:2.0,2.0;" x1="54.793" x2="414.2725" y1="187.8242" y2="187.8242"/><text fill="#000000" font-family="sans-serif" font-size="13" font-weight="bold" lengthAdjust="spacing" textLength="7.23" x="66.793" y="182.5615">2</text><text fill="#000000" font-family="sans-serif" font-size="13" lengthAdjust="spacing" textLength="155.3462" x="78.0229" y="182.5615">200 OK (List of physicians)</text><path d="M10,202.8242 L70.1709,202.8242 L70.1709,212.1152 L60.1709,222.1152 L10,222.1152 L10,202.8242 " fill="#EEEEEE" style="stroke:#000000;stroke-width:1.5;"/><rect fill="none" height="50.582" style="stroke:#000000;stroke-width:1.5;" width="449.8931" x="10" y="202.8242"/><text fill="#000000" font-family="sans-serif" font-size="13" font-weight="bold" lengthAdjust="spacing" textLength="15.1709" x="25" y="217.8525">alt</text><text fill="#000000" font-family="sans-serif" font-size="11" font-weight="bold" lengthAdjust="spacing" textLength="74.5669" x="85.1709" y="216.6943">[List is empty]</text><polygon fill="#181818" points="60.793,241.4063,50.793,245.4063,60.793,249.4063,56.793,245.4063" style="stroke:#181818;stroke-width:1.0;"/><line style="stroke:#181818;stroke-width:1.0;stroke-dasharray:2.0,2.0;" x1="54.793" x2="414.2725" y1="245.4063" y2="245.4063"/><text fill="#000000" font-family="sans-serif" font-size="13" font-weight="bold" lengthAdjust="spacing" textLength="7.23" x="66.793" y="240.1436">3</text><text fill="#000000" font-family="sans-serif" font-size="13" lengthAdjust="spacing" textLength="86.0044" x="78.0229" y="240.1436">404 Not Found</text><path d="M420,265.4063 L420,309.4063 L878,309.4063 L878,275.4063 L868,265.4063 L420,265.4063 " fill="#FEFFDD" style="stroke:#181818;stroke-width:0.5;"/><path d="M868,265.4063 L868,275.4063 L878,275.4063 L868,265.4063 " fill="#FEFFDD" style="stroke:#181818;stroke-width:0.5;"/><text fill="#000000" font-family="sans-serif" font-size="13" lengthAdjust="spacing" textLength="437.1187" x="426" y="284.4346">- Return a list of physicians matching the search criteria (name or specialty).</text><text fill="#000000" font-family="sans-serif" font-size="13" lengthAdjust="spacing" textLength="279.6333" x="426" y="301.7256">- Include only essential details (name, specialty).</text><!--SRC=[RL7RIiD047tVhpZqGLemDaXzALGHl52KMXhzW6aoDWl99knEX53wxqxQ696wiCFSpfapZ5Wf61z9V8C8IVBGMIQVvbZdRR2f9HUmRR6Yab5v93Lhhf3M66gaebJi5ucMt35sJRbbhxLKj7cq9h7iP6Hgyg9aDJd1QBxX8FVhvGWKaBH1k3G3KGynfdSGtVOzcEFvyHrJgksq7iJTELMss7VsS15-r2tsWtimFJnIfX_IEQxZ66yl6B_Q8AW-ySiuCGh3CMy3kAnrMUZxbsOMpx2g14zLupB3-at6PykuIWDlT_bnLBzoX0rBunq8nPa8b2HfRjqEaZF2wIIfjyBU4iQkFyUmvUHA-POkBPgiEqRHWaFGqLf4naAs22VKvH-C2aOdxXi0]--></g></svg>