<svg xmlns="http://www.w3.org/2000/svg" xmlns:xlink="http://www.w3.org/1999/xlink" contentStyleType="text/css" height="729px" preserveAspectRatio="none" style="width:1335px;height:729px;background:#FFFFFF;" version="1.1" viewBox="0 0 1335 729" width="1335px" zoomAndPan="magnify"><title>US05 - SD - Search Physicians by Name or Specialty</title><defs/><g><text fill="#000000" font-family="sans-serif" font-size="14" font-weight="bold" lengthAdjust="spacing" textLength="348.5918" x="492.6045" y="30.1074">US05 - SD - Search Physicians by Name or Specialty</text><rect fill="#FFFFFF" height="304.9102" style="stroke:#181818;stroke-width:1.0;" width="10" x="39.793" y="133.2422"/><rect fill="#FFFFFF" height="281.6191" style="stroke:#181818;stroke-width:1.0;" width="10" x="410.2725" y="156.5332"/><rect fill="#FFFFFF" height="31.291" style="stroke:#181818;stroke-width:1.0;" width="10" x="585.6235" y="187.8242"/><rect fill="#FFFFFF" height="156.4551" style="stroke:#181818;stroke-width:1.0;" width="10" x="747.354" y="250.4063"/><rect fill="#FFFFFF" height="93.873" style="stroke:#181818;stroke-width:1.0;" width="10" x="747.354" y="495.7344"/><rect fill="#FFFFFF" height="31.291" style="stroke:#181818;stroke-width:1.0;" width="10" x="1049.8501" y="281.6973"/><rect fill="#FFFFFF" height="31.291" style="stroke:#181818;stroke-width:1.0;" width="10" x="1049.8501" y="527.0254"/><rect fill="#FFFFFF" height="31.291" style="stroke:#181818;stroke-width:1.0;" width="10" x="1236.4839" y="344.2793"/><rect fill="none" height="175.7461" style="stroke:#000000;stroke-width:1.5;" width="1143.167" x="10" y="453.1523"/><line style="stroke:#181818;stroke-width:0.5;stroke-dasharray:5.0,5.0;" x1="44" x2="44" y1="123.2422" y2="645.8984"/><line style="stroke:#181818;stroke-width:0.5;stroke-dasharray:5.0,5.0;" x1="414.29" x2="414.29" y1="123.2422" y2="645.8984"/><line style="stroke:#181818;stroke-width:0.5;stroke-dasharray:5.0,5.0;" x1="590.2549" x2="590.2549" y1="123.2422" y2="645.8984"/><line style="stroke:#181818;stroke-width:0.5;stroke-dasharray:5.0,5.0;" x1="751.9922" x2="751.9922" y1="123.2422" y2="645.8984"/><line style="stroke:#181818;stroke-width:0.5;stroke-dasharray:5.0,5.0;" x1="1054.5332" x2="1054.5332" y1="123.2422" y2="645.8984"/><line style="stroke:#181818;stroke-width:0.5;stroke-dasharray:5.0,5.0;" x1="1241.167" x2="1241.167" y1="123.2422" y2="645.8984"/><text fill="#000000" font-family="sans-serif" font-size="14" lengthAdjust="spacing" textLength="43.5859" x="20" y="119.7285">Patient</text><ellipse cx="44.793" cy="53.1211" fill="#E2E2F0" rx="8" ry="8" style="stroke:#181818;stroke-width:0.5;"/><path d="M44.793,61.1211 L44.793,88.1211 M31.793,69.1211 L57.793,69.1211 M44.793,88.1211 L31.793,103.1211 M44.793,88.1211 L57.793,103.1211 " fill="none" style="stroke:#181818;stroke-width:0.5;"/><text fill="#000000" font-family="sans-serif" font-size="14" lengthAdjust="spacing" textLength="43.5859" x="20" y="660.0059">Patient</text><ellipse cx="44.793" cy="672.0195" fill="#E2E2F0" rx="8" ry="8" style="stroke:#181818;stroke-width:0.5;"/><path d="M44.793,680.0195 L44.793,707.0195 M31.793,688.0195 L57.793,688.0195 M44.793,707.0195 L31.793,722.0195 M44.793,707.0195 L57.793,722.0195 " fill="none" style="stroke:#181818;stroke-width:0.5;"/><rect fill="#E2E2F0" height="32.6211" rx="2.5" ry="2.5" style="stroke:#181818;stroke-width:0.5;" width="199.9648" x="315.29" y="89.6211"/><text fill="#000000" font-family="sans-serif" font-size="14" lengthAdjust="spacing" textLength="185.9648" x="322.29" y="111.7285">:controller:PhysicianController</text><rect fill="#E2E2F0" height="32.6211" rx="2.5" ry="2.5" style="stroke:#181818;stroke-width:0.5;" width="199.9648" x="315.29" y="644.8984"/><text fill="#000000" font-family="sans-serif" font-size="14" lengthAdjust="spacing" textLength="185.9648" x="322.29" y="667.0059">:controller:PhysicianController</text><rect fill="#E2E2F0" height="32.6211" rx="2.5" ry="2.5" style="stroke:#181818;stroke-width:0.5;" width="130.7373" x="525.2549" y="89.6211"/><text fill="#000000" font-family="sans-serif" font-size="14" lengthAdjust="spacing" textLength="116.7373" x="532.2549" y="111.7285">:helper:AuthHelper</text><rect fill="#E2E2F0" height="32.6211" rx="2.5" ry="2.5" style="stroke:#181818;stroke-width:0.5;" width="130.7373" x="525.2549" y="644.8984"/><text fill="#000000" font-family="sans-serif" font-size="14" lengthAdjust="spacing" textLength="116.7373" x="532.2549" y="667.0059">:helper:AuthHelper</text><rect fill="#E2E2F0" height="32.6211" rx="2.5" ry="2.5" style="stroke:#181818;stroke-width:0.5;" width="172.7236" x="665.9922" y="89.6211"/><text fill="#000000" font-family="sans-serif" font-size="14" lengthAdjust="spacing" textLength="158.7236" x="672.9922" y="111.7285">:service:PhysicianService</text><rect fill="#E2E2F0" height="32.6211" rx="2.5" ry="2.5" style="stroke:#181818;stroke-width:0.5;" width="172.7236" x="665.9922" y="644.8984"/><text fill="#000000" font-family="sans-serif" font-size="14" lengthAdjust="spacing" textLength="158.7236" x="672.9922" y="667.0059">:service:PhysicianService</text><rect fill="#E2E2F0" height="32.6211" rx="2.5" ry="2.5" style="stroke:#181818;stroke-width:0.5;" width="176.6338" x="966.5332" y="89.6211"/><text fill="#000000" font-family="sans-serif" font-size="14" lengthAdjust="spacing" textLength="162.6338" x="973.5332" y="111.7285">:repo:PhysicianRepository</text><rect fill="#E2E2F0" height="32.6211" rx="2.5" ry="2.5" style="stroke:#181818;stroke-width:0.5;" width="176.6338" x="966.5332" y="644.8984"/><text fill="#000000" font-family="sans-serif" font-size="14" lengthAdjust="spacing" textLength="162.6338" x="973.5332" y="667.0059">:repo:PhysicianRepository</text><rect fill="#E2E2F0" height="32.6211" rx="2.5" ry="2.5" style="stroke:#181818;stroke-width:0.5;" width="176.6338" x="1153.167" y="89.6211"/><text fill="#000000" font-family="sans-serif" font-size="14" lengthAdjust="spacing" textLength="162.6338" x="1160.167" y="111.7285">:mapper:PhysicianMapper</text><rect fill="#E2E2F0" height="32.6211" rx="2.5" ry="2.5" style="stroke:#181818;stroke-width:0.5;" width="176.6338" x="1153.167" y="644.8984"/><text fill="#000000" font-family="sans-serif" font-size="14" lengthAdjust="spacing" textLength="162.6338" x="1160.167" y="667.0059">:mapper:PhysicianMapper</text><rect fill="#FFFFFF" height="304.9102" style="stroke:#181818;stroke-width:1.0;" width="10" x="39.793" y="133.2422"/><rect fill="#FFFFFF" height="281.6191" style="stroke:#181818;stroke-width:1.0;" width="10" x="410.2725" y="156.5332"/><rect fill="#FFFFFF" height="31.291" style="stroke:#181818;stroke-width:1.0;" width="10" x="585.6235" y="187.8242"/><rect fill="#FFFFFF" height="156.4551" style="stroke:#181818;stroke-width:1.0;" width="10" x="747.354" y="250.4063"/><rect fill="#FFFFFF" height="93.873" style="stroke:#181818;stroke-width:1.0;" width="10" x="747.354" y="495.7344"/><rect fill="#FFFFFF" height="31.291" style="stroke:#181818;stroke-width:1.0;" width="10" x="1049.8501" y="281.6973"/><rect fill="#FFFFFF" height="31.291" style="stroke:#181818;stroke-width:1.0;" width="10" x="1049.8501" y="527.0254"/><rect fill="#FFFFFF" height="31.291" style="stroke:#181818;stroke-width:1.0;" width="10" x="1236.4839" y="344.2793"/><polygon fill="#181818" points="398.2725,152.5332,408.2725,156.5332,398.2725,160.5332,402.2725,156.5332" style="stroke:#181818;stroke-width:1.0;"/><line style="stroke:#181818;stroke-width:1.0;" x1="49.793" x2="404.2725" y1="156.5332" y2="156.5332"/><text fill="#000000" font-family="sans-serif" font-size="13" font-weight="bold" lengthAdjust="spacing" textLength="7.23" x="56.793" y="151.2705">1</text><text fill="#000000" font-family="sans-serif" font-size="13" lengthAdjust="spacing" textLength="330.2495" x="68.0229" y="151.2705">GET /api/physicians?name={name}&amp;specialty={specialty}</text><polygon fill="#181818" points="573.6235,183.8242,583.6235,187.8242,573.6235,191.8242,577.6235,187.8242" style="stroke:#181818;stroke-width:1.0;"/><line style="stroke:#181818;stroke-width:1.0;" x1="420.2725" x2="579.6235" y1="187.8242" y2="187.8242"/><text fill="#000000" font-family="sans-serif" font-size="13" font-weight="bold" lengthAdjust="spacing" textLength="7.23" x="427.2725" y="182.5615">2</text><text fill="#000000" font-family="sans-serif" font-size="13" lengthAdjust="spacing" textLength="97.5254" x="438.5024" y="182.5615">getCurrentUser()</text><polygon fill="#181818" points="431.2725,215.1152,421.2725,219.1152,431.2725,223.1152,427.2725,219.1152" style="stroke:#181818;stroke-width:1.0;"/><line style="stroke:#181818;stroke-width:1.0;stroke-dasharray:2.0,2.0;" x1="425.2725" x2="589.6235" y1="219.1152" y2="219.1152"/><text fill="#000000" font-family="sans-serif" font-size="13" font-weight="bold" lengthAdjust="spacing" textLength="7.23" x="437.2725" y="213.8525">3</text><text fill="#000000" font-family="sans-serif" font-size="13" lengthAdjust="spacing" textLength="61.3945" x="448.5024" y="213.8525">User (role)</text><polygon fill="#181818" points="735.354,246.4063,745.354,250.4063,735.354,254.4063,739.354,250.4063" style="stroke:#181818;stroke-width:1.0;"/><line style="stroke:#181818;stroke-width:1.0;" x1="420.2725" x2="741.354" y1="250.4063" y2="250.4063"/><text fill="#000000" font-family="sans-serif" font-size="13" font-weight="bold" lengthAdjust="spacing" textLength="7.23" x="427.2725" y="245.1436">4</text><text fill="#000000" font-family="sans-serif" font-size="13" lengthAdjust="spacing" textLength="232.6479" x="438.5024" y="245.1436">searchPhysicians(name, specialty, user)</text><polygon fill="#181818" points="1037.8501,277.6973,1047.8501,281.6973,1037.8501,285.6973,1041.8501,281.6973" style="stroke:#181818;stroke-width:1.0;"/><line style="stroke:#181818;stroke-width:1.0;" x1="757.354" x2="1043.8501" y1="281.6973" y2="281.6973"/><text fill="#000000" font-family="sans-serif" font-size="13" font-weight="bold" lengthAdjust="spacing" textLength="7.23" x="764.354" y="276.4346">5</text><text fill="#000000" font-family="sans-serif" font-size="13" lengthAdjust="spacing" textLength="255.0361" x="775.584" y="276.4346">searchByNameOrSpecialty(name, specialty)</text><polygon fill="#181818" points="768.354,308.9883,758.354,312.9883,768.354,316.9883,764.354,312.9883" style="stroke:#181818;stroke-width:1.0;"/><line style="stroke:#181818;stroke-width:1.0;stroke-dasharray:2.0,2.0;" x1="762.354" x2="1053.8501" y1="312.9883" y2="312.9883"/><text fill="#000000" font-family="sans-serif" font-size="13" font-weight="bold" lengthAdjust="spacing" textLength="7.23" x="774.354" y="307.7256">6</text><text fill="#000000" font-family="sans-serif" font-size="13" lengthAdjust="spacing" textLength="91.0508" x="785.584" y="307.7256">List&lt;Physician&gt;</text><polygon fill="#181818" points="1224.4839,340.2793,1234.4839,344.2793,1224.4839,348.2793,1228.4839,344.2793" style="stroke:#181818;stroke-width:1.0;"/><line style="stroke:#181818;stroke-width:1.0;" x1="757.354" x2="1230.4839" y1="344.2793" y2="344.2793"/><text fill="#000000" font-family="sans-serif" font-size="13" font-weight="bold" lengthAdjust="spacing" textLength="7.23" x="764.354" y="339.0166">7</text><text fill="#000000" font-family="sans-serif" font-size="13" lengthAdjust="spacing" textLength="171.2153" x="775.584" y="339.0166">toLimitedDTOList(Physicians)</text><polygon fill="#181818" points="768.354,371.5703,758.354,375.5703,768.354,379.5703,764.354,375.5703" style="stroke:#181818;stroke-width:1.0;"/><line style="stroke:#181818;stroke-width:1.0;stroke-dasharray:2.0,2.0;" x1="762.354" x2="1240.4839" y1="375.5703" y2="375.5703"/><text fill="#000000" font-family="sans-serif" font-size="13" font-weight="bold" lengthAdjust="spacing" textLength="7.23" x="774.354" y="370.3076">8</text><text fill="#000000" font-family="sans-serif" font-size="13" lengthAdjust="spacing" textLength="145.2153" x="785.584" y="370.3076">LimitedPhysicianDTOList</text><polygon fill="#181818" points="431.2725,402.8613,421.2725,406.8613,431.2725,410.8613,427.2725,406.8613" style="stroke:#181818;stroke-width:1.0;"/><line style="stroke:#181818;stroke-width:1.0;stroke-dasharray:2.0,2.0;" x1="425.2725" x2="751.354" y1="406.8613" y2="406.8613"/><text fill="#000000" font-family="sans-serif" font-size="13" font-weight="bold" lengthAdjust="spacing" textLength="7.23" x="437.2725" y="401.5986">9</text><text fill="#000000" font-family="sans-serif" font-size="13" lengthAdjust="spacing" textLength="103.3081" x="448.5024" y="401.5986">PhysicianDTOList</text><polygon fill="#181818" points="55.793,434.1523,45.793,438.1523,55.793,442.1523,51.793,438.1523" style="stroke:#181818;stroke-width:1.0;"/><line style="stroke:#181818;stroke-width:1.0;stroke-dasharray:2.0,2.0;" x1="49.793" x2="414.2725" y1="438.1523" y2="438.1523"/><text fill="#000000" font-family="sans-serif" font-size="13" font-weight="bold" lengthAdjust="spacing" textLength="14.46" x="61.793" y="432.8896">10</text><text fill="#000000" font-family="sans-serif" font-size="13" lengthAdjust="spacing" textLength="44.0845" x="80.2529" y="432.8896">200 OK</text><path d="M10,453.1523 L70.1709,453.1523 L70.1709,462.4434 L60.1709,472.4434 L10,472.4434 L10,453.1523 " fill="#EEEEEE" style="stroke:#000000;stroke-width:1.5;"/><rect fill="none" height="175.7461" style="stroke:#000000;stroke-width:1.5;" width="1143.167" x="10" y="453.1523"/><text fill="#000000" font-family="sans-serif" font-size="13" font-weight="bold" lengthAdjust="spacing" textLength="15.1709" x="25" y="468.1807">alt</text><text fill="#000000" font-family="sans-serif" font-size="11" font-weight="bold" lengthAdjust="spacing" textLength="70.9038" x="85.1709" y="467.0225">[list is empty]</text><polygon fill="#181818" points="735.354,491.7344,745.354,495.7344,735.354,499.7344,739.354,495.7344" style="stroke:#181818;stroke-width:1.0;"/><line style="stroke:#181818;stroke-width:1.0;" x1="415.2725" x2="741.354" y1="495.7344" y2="495.7344"/><text fill="#000000" font-family="sans-serif" font-size="13" font-weight="bold" lengthAdjust="spacing" textLength="14.46" x="422.2725" y="490.4717">11</text><text fill="#000000" font-family="sans-serif" font-size="13" lengthAdjust="spacing" textLength="232.6479" x="440.7324" y="490.4717">searchPhysicians(name, specialty, user)</text><polygon fill="#181818" points="1037.8501,523.0254,1047.8501,527.0254,1037.8501,531.0254,1041.8501,527.0254" style="stroke:#181818;stroke-width:1.0;"/><line style="stroke:#181818;stroke-width:1.0;" x1="757.354" x2="1043.8501" y1="527.0254" y2="527.0254"/><text fill="#000000" font-family="sans-serif" font-size="13" font-weight="bold" lengthAdjust="spacing" textLength="14.46" x="764.354" y="521.7627">12</text><text fill="#000000" font-family="sans-serif" font-size="13" lengthAdjust="spacing" textLength="255.0361" x="782.814" y="521.7627">searchByNameOrSpecialty(name, specialty)</text><polygon fill="#181818" points="768.354,554.3164,758.354,558.3164,768.354,562.3164,764.354,558.3164" style="stroke:#181818;stroke-width:1.0;"/><line style="stroke:#181818;stroke-width:1.0;stroke-dasharray:2.0,2.0;" x1="762.354" x2="1053.8501" y1="558.3164" y2="558.3164"/><text fill="#000000" font-family="sans-serif" font-size="13" font-weight="bold" lengthAdjust="spacing" textLength="14.46" x="774.354" y="553.0537">13</text><text fill="#000000" font-family="sans-serif" font-size="13" lengthAdjust="spacing" textLength="91.0508" x="792.814" y="553.0537">List&lt;Physician&gt;</text><polygon fill="#181818" points="426.2725,585.6074,416.2725,589.6074,426.2725,593.6074,422.2725,589.6074" style="stroke:#181818;stroke-width:1.0;"/><line style="stroke:#181818;stroke-width:1.0;stroke-dasharray:2.0,2.0;" x1="420.2725" x2="751.354" y1="589.6074" y2="589.6074"/><text fill="#000000" font-family="sans-serif" font-size="13" font-weight="bold" lengthAdjust="spacing" textLength="14.46" x="432.2725" y="584.3447">14</text><text fill="#000000" font-family="sans-serif" font-size="13" lengthAdjust="spacing" textLength="86.0044" x="450.7324" y="584.3447">404 Not Found</text><polygon fill="#181818" points="55.793,616.8984,45.793,620.8984,55.793,624.8984,51.793,620.8984" style="stroke:#181818;stroke-width:1.0;"/><line style="stroke:#181818;stroke-width:1.0;stroke-dasharray:2.0,2.0;" x1="49.793" x2="414.2725" y1="620.8984" y2="620.8984"/><text fill="#000000" font-family="sans-serif" font-size="13" font-weight="bold" lengthAdjust="spacing" textLength="14.46" x="61.793" y="615.6357">15</text><text fill="#000000" font-family="sans-serif" font-size="13" lengthAdjust="spacing" textLength="86.0044" x="80.2529" y="615.6357">404 Not Found</text><!--SRC=[hLBRQW8n47tFLmm-50MbKkoBL4llXLgLgX-GhaCDx2Kaiy8Y_djdrstsuYwbq9UGcSmvCpbdI96Fi5aDhs40gyVqG6cy7IntYLMUag65pmJcCa283AmqSiwd18ICAP8UgRqaVWgpE8o3JpH2S9wBEqj92aFg22qDCPcM8K5dx4KXcSZtqOnTbmUNwu2qq92laUpGrqnm5zFkDRjck2AibLiqU-LXqN1rIbIxvSaQrg2E2k07HrRn_v8gjiZNu87KklpLzookWa-vJBYJeBbqGkGN64oRH84nl3ojuL9gTQcTOxSXspKvfEVnmlvODZcuwr4qSN6BGZzc_a9wY8tXxXkMhziJfTT1wpnfBNGvn5vRbxhUZBBPrXLBrqs7xuERk0yny_Q4ECEM-GeF7ELzakxkmhZDhJENfYp11yrZpfIb6vUV_ZBEoLM6KJHJWIBSFguNAKMt-6YfVLxUsZfZS2yvLTC8hTwSWHiDIk7vretXQZY4nPiGMppRJM3vm6SQK1Omq9G80FX_pyka_-TwcVNlnaFZKAt2ZuOZc4S4pr4SRglWLkMh60PX1ZqtuXi0]--></g></svg>