<svg xmlns="http://www.w3.org/2000/svg" xmlns:xlink="http://www.w3.org/1999/xlink" contentStyleType="text/css" data-diagram-type="DESCRIPTION" height="516.4063px" preserveAspectRatio="none" style="width:910px;height:516px;background:#FFFFFF;" version="1.1" viewBox="0 0 910 516" width="910.9375px" zoomAndPan="magnify"><title>C2 &#8212; Containers (HAP)</title><defs/><g><g class="title" data-source-line="12"><text fill="#000000" font-family="Arial" font-size="10.9375" font-weight="bold" lengthAdjust="spacing" textLength="121.5408" x="389.5157" y="17.7139">C2 &#8212; Containers (HAP)</text></g><!--entity Physicians--><g class="entity" data-entity="Physicians" data-source-line="14" data-uid="ent0002" id="entity_Physicians"><rect fill="#A3BE8C" height="47.0459" rx="1.9531" ry="1.9531" style="stroke:#2E3440;stroke-width:0.3906;" width="94.3008" x="5.4688" y="190.6489"/><text fill="#000000" font-family="Arial" font-size="9.375" lengthAdjust="spacing" textLength="78.6758" x="13.2813" y="206.9484">Physicians Service</text><text fill="#000000" font-family="Arial" font-size="9.375" lengthAdjust="spacing" textLength="68.779" x="13.2813" y="217.422">(hap-physicians)</text><text fill="#000000" font-family="Arial" font-size="9.375" lengthAdjust="spacing" textLength="74.0112" x="13.2813" y="227.8956">Ports: 8081, 8087</text></g><!--entity Patients--><g class="entity" data-entity="Patients" data-source-line="15" data-uid="ent0003" id="entity_Patients"><rect fill="#88C0D0" height="47.0459" rx="1.9531" ry="1.9531" style="stroke:#2E3440;stroke-width:0.3906;" width="89.6362" x="448.0469" y="86.7427"/><text fill="#000000" font-family="Arial" font-size="9.375" lengthAdjust="spacing" textLength="67.7399" x="455.8594" y="103.0421">Patients Service</text><text fill="#000000" font-family="Arial" font-size="9.375" lengthAdjust="spacing" textLength="57.843" x="455.8594" y="113.5157">(hap-patients)</text><text fill="#000000" font-family="Arial" font-size="9.375" lengthAdjust="spacing" textLength="74.0112" x="455.8594" y="123.9894">Ports: 8082, 8088</text></g><!--entity Auth--><g class="entity" data-entity="Auth" data-source-line="16" data-uid="ent0004" id="entity_Auth"><rect fill="#EBCB8B" height="47.0459" rx="1.9531" ry="1.9531" style="stroke:#2E3440;stroke-width:0.3906;" width="89.6362" x="654.2969" y="158.6177"/><text fill="#000000" font-family="Arial" font-size="9.375" lengthAdjust="spacing" textLength="53.1509" x="662.1094" y="174.9171">Auth Service</text><text fill="#000000" font-family="Arial" font-size="9.375" lengthAdjust="spacing" textLength="43.2541" x="662.1094" y="185.3907">(hap-auth)</text><text fill="#000000" font-family="Arial" font-size="9.375" lengthAdjust="spacing" textLength="74.0112" x="662.1094" y="195.8644">Ports: 8084, 8089</text></g><!--entity Records--><g class="entity" data-entity="Records" data-source-line="17" data-uid="ent0005" id="entity_Records"><rect fill="#D08770" height="47.0459" rx="1.9531" ry="1.9531" style="stroke:#2E3440;stroke-width:0.3906;" width="139.6423" x="200" y="246.8989"/><text fill="#000000" font-family="Arial" font-size="9.375" lengthAdjust="spacing" textLength="124.0173" x="207.8125" y="263.1984">Appointment Records Service</text><text fill="#000000" font-family="Arial" font-size="9.375" lengthAdjust="spacing" textLength="107.8674" x="207.8125" y="273.672">(hap-appointmentrecords)</text><text fill="#000000" font-family="Arial" font-size="9.375" lengthAdjust="spacing" textLength="74.0112" x="207.8125" y="284.1456">Ports: 8083, 8090</text></g><g class="entity" data-entity="GMN17" data-source-line="70" data-uid="ent0018" id="entity_GMN17"><path d="M216.7969,323.0708 L216.7969,341.3569 L322.8378,341.3569 L322.8378,330.8833 L315.0253,323.0708 L216.7969,323.0708" fill="#FEFFDD" style="stroke:#181818;stroke-width:0.3906;"/><path d="M315.0253,323.0708 L315.0253,330.8833 L322.8378,330.8833 L315.0253,323.0708" fill="#FEFFDD" style="stroke:#181818;stroke-width:0.7813;"/><text fill="#000000" font-family="Arial" font-size="9.375" lengthAdjust="spacing" textLength="89.6347" x="221.4844" y="335.464">Peers (8081 &#8596; 8087)</text></g><g class="entity" data-entity="GMN20" data-source-line="74" data-uid="ent0021" id="entity_GMN20"><path d="M646.0938,66.0396 L646.0938,84.3257 L752.1347,84.3257 L752.1347,73.8521 L744.3222,66.0396 L646.0938,66.0396" fill="#FEFFDD" style="stroke:#181818;stroke-width:0.3906;"/><path d="M744.3222,66.0396 L744.3222,73.8521 L752.1347,73.8521 L744.3222,66.0396" fill="#FEFFDD" style="stroke:#181818;stroke-width:0.7813;"/><text fill="#000000" font-family="Arial" font-size="9.375" lengthAdjust="spacing" textLength="89.6347" x="650.7813" y="78.4327">Peers (8082 &#8596; 8088)</text></g><g class="entity" data-entity="GMN23" data-source-line="78" data-uid="ent0024" id="entity_GMN23"><path d="M800,173.0708 L800,178.9302 L744.2656,182.0552 L800,185.1802 L800,191.3569 A0,0 0 0 0 800,191.3569 L906.041,191.3569 A0,0 0 0 0 906.041,191.3569 L906.041,180.8833 L898.2285,173.0708 L800,173.0708 A0,0 0 0 0 800,173.0708" fill="#FEFFDD" style="stroke:#181818;stroke-width:0.3906;"/><path d="M898.2285,173.0708 L898.2285,180.8833 L906.041,180.8833 L898.2285,173.0708" fill="#FEFFDD" style="stroke:#181818;stroke-width:0.3906;"/><text fill="#000000" font-family="Arial" font-size="9.375" lengthAdjust="spacing" textLength="89.6347" x="804.6875" y="185.464">Peers (8084 &#8596; 8089)</text></g><g class="entity" data-entity="GMN26" data-source-line="82" data-uid="ent0027" id="entity_GMN26"><path d="M439.8438,362.9146 L439.8438,381.2007 L545.8847,381.2007 L545.8847,370.7271 L538.0722,362.9146 L439.8438,362.9146" fill="#FEFFDD" style="stroke:#181818;stroke-width:0.3906;"/><path d="M538.0722,362.9146 L538.0722,370.7271 L545.8847,370.7271 L538.0722,362.9146" fill="#FEFFDD" style="stroke:#181818;stroke-width:0.7813;"/><text fill="#000000" font-family="Arial" font-size="9.375" lengthAdjust="spacing" textLength="89.6347" x="444.5313" y="375.3077">Peers (8083 &#8596; 8090)</text></g><!--link Physicians to Patients--><!--link Physicians to Patients--><g class="link" data-entity-1="Physicians" data-entity-2="Patients" data-source-line="26" data-uid="lnk10" id="link_Physicians_Patients"><path d="M78.4609,190.5239 C91.0156,180.0161 107.0313,168.5005 123.4375,161.7427 C233.7109,116.313 371.8828,109.6008 443.0781,109.3821" fill="none" id="Physicians-to-Patients-1" style="stroke:#555555;stroke-width:0.9375;"/><polygon fill="#555555" points="447.7656,109.3677,440.7248,106.2643,443.8594,109.3797,440.744,112.5143,447.7656,109.3677" style="stroke:#555555;stroke-width:0.9375;"/><text fill="#000000" font-family="Arial" font-size="9.375" lengthAdjust="spacing" textLength="52.0844" x="244.1406" y="112.4171">HTTP/REST</text></g><!--link Physicians to Records--><!--link Physicians to Records--><g class="link" data-entity-1="Physicians" data-entity-2="Records" data-source-line="28" data-uid="lnk12" id="link_Physicians_Records"><path d="M97.4844,237.6099 C105.9219,241.4302 114.8203,245.0005 123.4375,247.6802 C147.7656,255.2349 170.5453,259.6866 194.9906,263.1085" fill="none" id="Physicians-to-Records-1" style="stroke:#555555;stroke-width:0.9375;"/><polygon fill="#555555" points="199.6328,263.7583,193.1027,259.6887,195.7643,263.2168,192.2362,265.8784,199.6328,263.7583" style="stroke:#555555;stroke-width:0.9375;"/><text fill="#000000" font-family="Arial" font-size="9.375" lengthAdjust="spacing" textLength="52.0844" x="124.2188" y="245.2296">HTTP/REST</text></g><!--link Records to Physicians--><g class="link" data-entity-1="Records" data-entity-2="Physicians" data-source-line="30" data-uid="lnk14" id="link_Records_Physicians"><path d="M199.8281,285.063 C175.0156,287.4067 147.3047,286.563 123.4375,277.3677 C102.8125,269.4224 87.5867,255.7792 74.8836,241.326" fill="none" id="Records-to-Physicians" style="stroke:#555555;stroke-width:0.9375;"/><polygon fill="#555555" points="71.7891,237.8052,74.0836,245.1495,74.3679,240.7392,78.7781,241.0234,71.7891,237.8052" style="stroke:#555555;stroke-width:0.9375;"/><text fill="#000000" font-family="Arial" font-size="9.375" lengthAdjust="spacing" textLength="52.0844" x="124.2188" y="274.9171">HTTP/REST</text></g><!--link Patients to Auth--><!--link Patients to Auth--><g class="link" data-entity-1="Patients" data-entity-2="Auth" data-source-line="29" data-uid="lnk13" id="link_Patients_Auth"><path d="M538.0234,128.6021 C548.3125,132.7036 559.2578,136.938 569.5313,140.6489 C597.3906,150.7114 624.5699,159.5098 649.5465,167.2598" fill="none" id="Patients-to-Auth-1" style="stroke:#555555;stroke-width:0.9375;"/><polygon fill="#555555" points="654.0234,168.6489,648.2341,163.5806,650.2927,167.4913,646.3819,169.5498,654.0234,168.6489" style="stroke:#555555;stroke-width:0.9375;"/><text fill="#000000" font-family="Arial" font-size="9.375" lengthAdjust="spacing" textLength="52.0844" x="570.3125" y="138.1984">HTTP/REST</text></g><!--link Records to Auth--><!--link Records to Auth--><g class="link" data-entity-1="Records" data-entity-2="Auth" data-source-line="32" data-uid="lnk16" id="link_Records_Auth"><path d="M339.8906,263.9458 C364.1797,261.2427 391.5938,257.6489 416.4063,253.1489 C509.2969,236.3052 531.2266,225.8755 622.6563,202.3677 C632.8828,199.7427 639.3312,198.0559 649.6671,195.2902" fill="none" id="Records-to-Auth-1" style="stroke:#555555;stroke-width:0.9375;"/><polygon fill="#555555" points="654.1953,194.0786,646.5953,192.8773,650.4218,195.0883,648.2108,198.9149,654.1953,194.0786" style="stroke:#555555;stroke-width:0.9375;"/><text fill="#000000" font-family="Arial" font-size="9.375" lengthAdjust="spacing" textLength="52.0844" x="467.1875" y="220.2296">HTTP/REST</text></g><!--link Physicians to Auth--><g class="link" data-entity-1="Physicians" data-entity-2="Auth" data-source-line="27" data-uid="lnk11" id="link_Physicians_Auth"><path d="M100.1016,207.8208 C107.8828,206.9302 115.8828,206.1099 123.4375,205.4927 C320.8516,189.3677 552.6568,184.2306 649.3053,182.7072" fill="none" id="Physicians-to-Auth" style="stroke:#555555;stroke-width:0.9375;"/><polygon fill="#555555" points="653.9922,182.6333,646.9126,179.6195,650.0864,182.6949,647.0111,185.8687,653.9922,182.6333" style="stroke:#555555;stroke-width:0.9375;"/><text fill="#000000" font-family="Arial" font-size="9.375" lengthAdjust="spacing" textLength="52.0844" x="364.0625" y="186.6359">HTTP/REST</text></g><!--link Records to Patients--><g class="link" data-entity-1="Records" data-entity-2="Patients" data-source-line="31" data-uid="lnk15" id="link_Records_Patients"><path d="M340.1953,260.3364 C366,254.0552 394.3281,243.8677 416.4063,227.3677 C448.9141,203.0708 469.4527,164.6949 481.0621,138.1012" fill="none" id="Records-to-Patients" style="stroke:#555555;stroke-width:0.9375;"/><polygon fill="#555555" points="482.9375,133.8052,477.2604,138.9989,481.3747,137.3852,482.9884,141.4994,482.9375,133.8052" style="stroke:#555555;stroke-width:0.9375;"/><text fill="#000000" font-family="Arial" font-size="9.375" lengthAdjust="spacing" textLength="52.0844" x="364.0625" y="224.9171">HTTP/REST</text></g><!--link Physicians to GMN17--><g class="link" data-entity-1="Physicians" data-entity-2="GMN17" data-source-line="70" data-uid="lnk19" id="link_Physicians_GMN17"><path d="M68.8906,237.5864 C81.5391,255.1099 100.9922,278.3286 123.4375,292.2114 C151.6484,309.6567 187.5625,319.5942 216.6719,325.1802" fill="none" id="Physicians-GMN17" style="stroke:#555555;stroke-width:0.9375;stroke-dasharray:5.4688,5.4688;"/></g><!--link Patients to GMN20--><g class="link" data-entity-1="Patients" data-entity-2="GMN20" data-source-line="74" data-uid="lnk22" id="link_Patients_GMN20"><path d="M538.0703,98.8833 C548.3594,96.4849 559.2969,94.1021 569.5313,92.2114 C594.5078,87.5942 622.4297,83.7192 645.875,80.8208" fill="none" id="Patients-GMN20" style="stroke:#555555;stroke-width:0.9375;stroke-dasharray:5.4688,5.4688;"/></g><!--link Records to GMN26--><g class="link" data-entity-1="Records" data-entity-2="GMN26" data-source-line="82" data-uid="lnk28" id="link_Records_GMN26"><path d="M318.6328,293.8521 C326.1094,298.5005 333.4531,303.7192 339.8438,309.3989 C353.0313,321.1177 348.5781,331.6802 363.2813,341.4302 C385.7969,356.3677 414.8047,364.0083 439.5937,367.9067" fill="none" id="Records-GMN26" style="stroke:#555555;stroke-width:0.9375;stroke-dasharray:5.4688,5.4688;"/></g><g class="legend" data-source-line="57"><rect fill="#DDDDDD" height="105.5664" rx="5.8594" ry="5.8594" style="stroke:#000000;stroke-width:0.7813;" width="521.5439" x="369.6533" y="395.2632"/><text fill="#000000" font-family="Arial" font-size="10.9375" lengthAdjust="spacing" textLength="134.3636" x="373.5596" y="409.0709">Chamadas entre containers</text><text fill="#000000" font-family="Arial" font-size="10.9375" lengthAdjust="spacing" textLength="170.2095" x="373.5596" y="421.2901">- Physicians &#8594; Auth: login, register</text><text fill="#000000" font-family="Arial" font-size="10.9375" lengthAdjust="spacing" textLength="277.224" x="373.5596" y="433.5093">- Physicians &#8594; Patients: get patient by id, register patient</text><text fill="#000000" font-family="Arial" font-size="10.9375" lengthAdjust="spacing" textLength="513.7314" x="373.5596" y="445.7286">- Physicians &#8594; AppointmentRecords: create/get appointment record; update/cancel appointment (internal)</text><text fill="#000000" font-family="Arial" font-size="10.9375" lengthAdjust="spacing" textLength="152.5803" x="373.5596" y="457.9478">- Patients &#8594; Auth: register user</text><text fill="#000000" font-family="Arial" font-size="10.9375" lengthAdjust="spacing" textLength="384.8366" x="373.5596" y="470.1671">- AppointmentRecords &#8594; Physicians: get physician by id, get appointment by id</text><text fill="#000000" font-family="Arial" font-size="10.9375" lengthAdjust="spacing" textLength="248.6572" x="373.5596" y="482.3863">- AppointmentRecords &#8594; Patients: get patient by id</text><text fill="#000000" font-family="Arial" font-size="10.9375" lengthAdjust="spacing" textLength="221.9063" x="373.5596" y="494.6055">- AppointmentRecords &#8594; Auth: validate token</text></g><!--SRC=[VLRDRXit4BxpAGRHmH8GLV9QGMGL2639Se8U4i5IJqaEz2wr8aIH2v8hnIqAzDG7AF84VRGyIKdk7xdUZG-sn9dlcu_V34bVmIg2CQm4rvXo8XKa5ASIds0l97ouso1rf3p3TYN9A5o_cNehwe0JSQ4yXJrcYdYHEod5PIMO8HcySJ_juEv0uoCdIi7rBv4NV2InnZnbP2baGcJ94QrlPhDfPngEZwaKEK_ArFLg_V0myrBloHxdJ3-OFNx49sBAKyowurlw1u7h236orw05I9eUjB54ccfKS8GqrOnOptxy_TrtRMYi6Y4aArNmQdDuLZIcc2lO4dccCVd2XmUSZRCwCFh2Dq9gjO3vT7xzslv- -mgm0WyxkBjPhkUhW1bhIhX-mLik1woHOvqNh1LkC9-lflTJd_CkruSM7pPB0TVCSTqwBfS_M2zNo_aouCaoGRa-cJgsHQQ5RPcuoP15Gb3anXQvdReY5S7WtXZpTehG5MmrVgBCTWb3z2s2LD8467uMkORXWIO9uS0eFohRFNmMJLISYMGuKoFakJl-N62-Zj_LzlJ5IpMejX62i7K4LOgxOaRzXzrkCtbSRtSGYzCfvpJ6TgpWYUWBCShZUg024PuuM3GaxHpNav_4At51IiNRIL0Xd8A6h3UbIwIVyAA0yUIHP0p711Hr4yH8IdW25seozKM08lQGwYgWtBra_D94bfr59KIB3EovHHifj8W5ymh1yBVjfuyZjEQ9cpu5cQ6fxOOX-PO9fOMPZd6XiZa22mJcjFy7cq-6Pu8pEido9qRZ2HCfvNr1ILAgZ4Z3vpdNlW12xYRGm4Fw-kYeCl1-lOC0-2TD_WfY7Q3Dx-s03-k9JcBCOy9wkITvPeRQDD4ws74Bz1t-b_PwIUCogr1GV6afwC-trbSJ6TwGYz2zSZameLPpZfg4kYjctegfGzNqkPS2hGxuX1DpTRaD-kSv68CV__phfcm1RePUG_UqsBHg1mj8YOPI2Jmz0qqQMBNUKQNnfcp40c99p86QM3xFEYYi-nNoBB7Xejr1nj1y899ZDlAjRJPJoycLsyhBuiMMQedbfghlrRRQojpoJ_ZwBUe75OhFc56xMtDv70dtste56qBaM8jnPlu25veKTmzcp5nAxaLJo2wN_oI8lRSnPC5cwkoxRifzTq_xoF8x9jG6razF3OigsBmVvfwL1ZAh8BVzaFeHgr4t9Ufswg7-1m00]--></g></svg>