<svg xmlns="http://www.w3.org/2000/svg" xmlns:xlink="http://www.w3.org/1999/xlink" contentStyleType="text/css" height="601px" preserveAspectRatio="none" style="width:1484px;height:601px;background:#FFFFFF;" version="1.1" viewBox="0 0 1484 601" width="1484px" zoomAndPan="magnify"><title>US15 - SD - View the Appointment Records of a Patient</title><defs/><g><text fill="#000000" font-family="sans-serif" font-size="14" font-weight="bold" lengthAdjust="spacing" textLength="365.6064" x="558.2673" y="30.1074">US15 - SD - View the Appointment Records of a Patient</text><rect fill="#FFFFFF" height="376.4922" style="stroke:#181818;stroke-width:1.0;" width="10" x="32.9585" y="133.2422"/><rect fill="#FFFFFF" height="344.2012" style="stroke:#181818;stroke-width:1.0;" width="10" x="282.7563" y="156.5332"/><rect fill="#FFFFFF" height="31.291" style="stroke:#181818;stroke-width:1.0;" width="10" x="490.0176" y="187.8242"/><rect fill="#FFFFFF" height="31.291" style="stroke:#181818;stroke-width:1.0;" width="10" x="645.5376" y="250.4063"/><rect fill="#FFFFFF" height="156.4551" style="stroke:#181818;stroke-width:1.0;" width="10" x="853.9609" y="312.9883"/><rect fill="#FFFFFF" height="31.291" style="stroke:#181818;stroke-width:1.0;" width="10" x="1102.46" y="344.2793"/><rect fill="#FFFFFF" height="31.291" style="stroke:#181818;stroke-width:1.0;" width="10" x="1352.9141" y="406.8613"/><line style="stroke:#181818;stroke-width:0.5;stroke-dasharray:5.0,5.0;" x1="37" x2="37" y1="123.2422" y2="518.7344"/><line style="stroke:#181818;stroke-width:0.5;stroke-dasharray:5.0,5.0;" x1="286.8638" x2="286.8638" y1="123.2422" y2="518.7344"/><line style="stroke:#181818;stroke-width:0.5;stroke-dasharray:5.0,5.0;" x1="494.6489" x2="494.6489" y1="123.2422" y2="518.7344"/><line style="stroke:#181818;stroke-width:0.5;stroke-dasharray:5.0,5.0;" x1="650.3862" x2="650.3862" y1="123.2422" y2="518.7344"/><line style="stroke:#181818;stroke-width:0.5;stroke-dasharray:5.0,5.0;" x1="858.689" x2="858.689" y1="123.2422" y2="518.7344"/><line style="stroke:#181818;stroke-width:0.5;stroke-dasharray:5.0,5.0;" x1="1107.2329" x2="1107.2329" y1="123.2422" y2="518.7344"/><line style="stroke:#181818;stroke-width:0.5;stroke-dasharray:5.0,5.0;" x1="1357.687" x2="1357.687" y1="123.2422" y2="518.7344"/><text fill="#000000" font-family="sans-serif" font-size="14" lengthAdjust="spacing" textLength="59.917" x="5" y="119.7285">Physician</text><ellipse cx="37.9585" cy="53.1211" fill="#E2E2F0" rx="8" ry="8" style="stroke:#181818;stroke-width:0.5;"/><path d="M37.9585,61.1211 L37.9585,88.1211 M24.9585,69.1211 L50.9585,69.1211 M37.9585,88.1211 L24.9585,103.1211 M37.9585,88.1211 L50.9585,103.1211 " fill="none" style="stroke:#181818;stroke-width:0.5;"/><text fill="#000000" font-family="sans-serif" font-size="14" lengthAdjust="spacing" textLength="59.917" x="5" y="532.8418">Physician</text><ellipse cx="37.9585" cy="544.8555" fill="#E2E2F0" rx="8" ry="8" style="stroke:#181818;stroke-width:0.5;"/><path d="M37.9585,552.8555 L37.9585,579.8555 M24.9585,560.8555 L50.9585,560.8555 M37.9585,579.8555 L24.9585,594.8555 M37.9585,579.8555 L50.9585,594.8555 " fill="none" style="stroke:#181818;stroke-width:0.5;"/><rect fill="#E2E2F0" height="32.6211" rx="2.5" ry="2.5" style="stroke:#181818;stroke-width:0.5;" width="263.7852" x="155.8638" y="89.6211"/><text fill="#000000" font-family="sans-serif" font-size="14" lengthAdjust="spacing" textLength="249.7852" x="162.8638" y="111.7285">:controller:AppointmentRecordController</text><rect fill="#E2E2F0" height="32.6211" rx="2.5" ry="2.5" style="stroke:#181818;stroke-width:0.5;" width="263.7852" x="155.8638" y="517.7344"/><text fill="#000000" font-family="sans-serif" font-size="14" lengthAdjust="spacing" textLength="249.7852" x="162.8638" y="539.8418">:controller:AppointmentRecordController</text><rect fill="#E2E2F0" height="32.6211" rx="2.5" ry="2.5" style="stroke:#181818;stroke-width:0.5;" width="130.7373" x="429.6489" y="89.6211"/><text fill="#000000" font-family="sans-serif" font-size="14" lengthAdjust="spacing" textLength="116.7373" x="436.6489" y="111.7285">:helper:AuthHelper</text><rect fill="#E2E2F0" height="32.6211" rx="2.5" ry="2.5" style="stroke:#181818;stroke-width:0.5;" width="130.7373" x="429.6489" y="517.7344"/><text fill="#000000" font-family="sans-serif" font-size="14" lengthAdjust="spacing" textLength="116.7373" x="436.6489" y="539.8418">:helper:AuthHelper</text><rect fill="#E2E2F0" height="32.6211" rx="2.5" ry="2.5" style="stroke:#181818;stroke-width:0.5;" width="160.3027" x="570.3862" y="89.6211"/><text fill="#000000" font-family="sans-serif" font-size="14" lengthAdjust="spacing" textLength="146.3027" x="577.3862" y="111.7285">:repo:PatientRepository</text><rect fill="#E2E2F0" height="32.6211" rx="2.5" ry="2.5" style="stroke:#181818;stroke-width:0.5;" width="160.3027" x="570.3862" y="517.7344"/><text fill="#000000" font-family="sans-serif" font-size="14" lengthAdjust="spacing" textLength="146.3027" x="577.3862" y="539.8418">:repo:PatientRepository</text><rect fill="#E2E2F0" height="32.6211" rx="2.5" ry="2.5" style="stroke:#181818;stroke-width:0.5;" width="236.5439" x="740.689" y="89.6211"/><text fill="#000000" font-family="sans-serif" font-size="14" lengthAdjust="spacing" textLength="222.5439" x="747.689" y="111.7285">:service:AppointmentRecordService</text><rect fill="#E2E2F0" height="32.6211" rx="2.5" ry="2.5" style="stroke:#181818;stroke-width:0.5;" width="236.5439" x="740.689" y="517.7344"/><text fill="#000000" font-family="sans-serif" font-size="14" lengthAdjust="spacing" textLength="222.5439" x="747.689" y="539.8418">:service:AppointmentRecordService</text><rect fill="#E2E2F0" height="32.6211" rx="2.5" ry="2.5" style="stroke:#181818;stroke-width:0.5;" width="240.4541" x="987.2329" y="89.6211"/><text fill="#000000" font-family="sans-serif" font-size="14" lengthAdjust="spacing" textLength="226.4541" x="994.2329" y="111.7285">:repo:AppointmentRecordRepository</text><rect fill="#E2E2F0" height="32.6211" rx="2.5" ry="2.5" style="stroke:#181818;stroke-width:0.5;" width="240.4541" x="987.2329" y="517.7344"/><text fill="#000000" font-family="sans-serif" font-size="14" lengthAdjust="spacing" textLength="226.4541" x="994.2329" y="539.8418">:repo:AppointmentRecordRepository</text><rect fill="#E2E2F0" height="32.6211" rx="2.5" ry="2.5" style="stroke:#181818;stroke-width:0.5;" width="240.4541" x="1237.687" y="89.6211"/><text fill="#000000" font-family="sans-serif" font-size="14" lengthAdjust="spacing" textLength="226.4541" x="1244.687" y="111.7285">:mapper:AppointmentRecordMapper</text><rect fill="#E2E2F0" height="32.6211" rx="2.5" ry="2.5" style="stroke:#181818;stroke-width:0.5;" width="240.4541" x="1237.687" y="517.7344"/><text fill="#000000" font-family="sans-serif" font-size="14" lengthAdjust="spacing" textLength="226.4541" x="1244.687" y="539.8418">:mapper:AppointmentRecordMapper</text><rect fill="#FFFFFF" height="376.4922" style="stroke:#181818;stroke-width:1.0;" width="10" x="32.9585" y="133.2422"/><rect fill="#FFFFFF" height="344.2012" style="stroke:#181818;stroke-width:1.0;" width="10" x="282.7563" y="156.5332"/><rect fill="#FFFFFF" height="31.291" style="stroke:#181818;stroke-width:1.0;" width="10" x="490.0176" y="187.8242"/><rect fill="#FFFFFF" height="31.291" style="stroke:#181818;stroke-width:1.0;" width="10" x="645.5376" y="250.4063"/><rect fill="#FFFFFF" height="156.4551" style="stroke:#181818;stroke-width:1.0;" width="10" x="853.9609" y="312.9883"/><rect fill="#FFFFFF" height="31.291" style="stroke:#181818;stroke-width:1.0;" width="10" x="1102.46" y="344.2793"/><rect fill="#FFFFFF" height="31.291" style="stroke:#181818;stroke-width:1.0;" width="10" x="1352.9141" y="406.8613"/><polygon fill="#181818" points="270.7563,152.5332,280.7563,156.5332,270.7563,160.5332,274.7563,156.5332" style="stroke:#181818;stroke-width:1.0;"/><line style="stroke:#181818;stroke-width:1.0;" x1="42.9585" x2="276.7563" y1="156.5332" y2="156.5332"/><text fill="#000000" font-family="sans-serif" font-size="13" font-weight="bold" lengthAdjust="spacing" textLength="7.23" x="49.9585" y="151.2705">1</text><text fill="#000000" font-family="sans-serif" font-size="13" lengthAdjust="spacing" textLength="209.5679" x="61.1885" y="151.2705">GET /api/patients/{patientId}/records</text><polygon fill="#181818" points="478.0176,183.8242,488.0176,187.8242,478.0176,191.8242,482.0176,187.8242" style="stroke:#181818;stroke-width:1.0;"/><line style="stroke:#181818;stroke-width:1.0;" x1="292.7563" x2="484.0176" y1="187.8242" y2="187.8242"/><text fill="#000000" font-family="sans-serif" font-size="13" font-weight="bold" lengthAdjust="spacing" textLength="7.23" x="299.7563" y="182.5615">2</text><text fill="#000000" font-family="sans-serif" font-size="13" lengthAdjust="spacing" textLength="97.5254" x="310.9863" y="182.5615">getCurrentUser()</text><polygon fill="#181818" points="303.7563,215.1152,293.7563,219.1152,303.7563,223.1152,299.7563,219.1152" style="stroke:#181818;stroke-width:1.0;"/><line style="stroke:#181818;stroke-width:1.0;stroke-dasharray:2.0,2.0;" x1="297.7563" x2="494.0176" y1="219.1152" y2="219.1152"/><text fill="#000000" font-family="sans-serif" font-size="13" font-weight="bold" lengthAdjust="spacing" textLength="7.23" x="309.7563" y="213.8525">3</text><text fill="#000000" font-family="sans-serif" font-size="13" lengthAdjust="spacing" textLength="98.9663" x="320.9863" y="213.8525">User (Physician )</text><polygon fill="#181818" points="633.5376,246.4063,643.5376,250.4063,633.5376,254.4063,637.5376,250.4063" style="stroke:#181818;stroke-width:1.0;"/><line style="stroke:#181818;stroke-width:1.0;" x1="292.7563" x2="639.5376" y1="250.4063" y2="250.4063"/><text fill="#000000" font-family="sans-serif" font-size="13" font-weight="bold" lengthAdjust="spacing" textLength="7.23" x="299.7563" y="245.1436">4</text><text fill="#000000" font-family="sans-serif" font-size="13" lengthAdjust="spacing" textLength="105.5044" x="310.9863" y="245.1436">findById(patientId)</text><polygon fill="#181818" points="303.7563,277.6973,293.7563,281.6973,303.7563,285.6973,299.7563,281.6973" style="stroke:#181818;stroke-width:1.0;"/><line style="stroke:#181818;stroke-width:1.0;stroke-dasharray:2.0,2.0;" x1="297.7563" x2="649.5376" y1="281.6973" y2="281.6973"/><text fill="#000000" font-family="sans-serif" font-size="13" font-weight="bold" lengthAdjust="spacing" textLength="7.23" x="309.7563" y="276.4346">5</text><text fill="#000000" font-family="sans-serif" font-size="13" lengthAdjust="spacing" textLength="40.4727" x="320.9863" y="276.4346">Patient</text><polygon fill="#181818" points="841.9609,308.9883,851.9609,312.9883,841.9609,316.9883,845.9609,312.9883" style="stroke:#181818;stroke-width:1.0;"/><line style="stroke:#181818;stroke-width:1.0;" x1="292.7563" x2="847.9609" y1="312.9883" y2="312.9883"/><text fill="#000000" font-family="sans-serif" font-size="13" font-weight="bold" lengthAdjust="spacing" textLength="7.23" x="299.7563" y="307.7256">6</text><text fill="#000000" font-family="sans-serif" font-size="13" lengthAdjust="spacing" textLength="178.4707" x="310.9863" y="307.7256">listRecordsByPatient(patientId)</text><polygon fill="#181818" points="1090.46,340.2793,1100.46,344.2793,1090.46,348.2793,1094.46,344.2793" style="stroke:#181818;stroke-width:1.0;"/><line style="stroke:#181818;stroke-width:1.0;" x1="863.9609" x2="1096.46" y1="344.2793" y2="344.2793"/><text fill="#000000" font-family="sans-serif" font-size="13" font-weight="bold" lengthAdjust="spacing" textLength="7.23" x="870.9609" y="339.0166">7</text><text fill="#000000" font-family="sans-serif" font-size="13" lengthAdjust="spacing" textLength="145.9771" x="882.1909" y="339.0166">findByPatientId(patientId)</text><polygon fill="#181818" points="874.9609,371.5703,864.9609,375.5703,874.9609,379.5703,870.9609,375.5703" style="stroke:#181818;stroke-width:1.0;"/><line style="stroke:#181818;stroke-width:1.0;stroke-dasharray:2.0,2.0;" x1="868.9609" x2="1106.46" y1="375.5703" y2="375.5703"/><text fill="#000000" font-family="sans-serif" font-size="13" font-weight="bold" lengthAdjust="spacing" textLength="7.23" x="880.9609" y="370.3076">8</text><text fill="#000000" font-family="sans-serif" font-size="13" lengthAdjust="spacing" textLength="150.3125" x="892.1909" y="370.3076">List&lt;AppointmentRecord&gt;</text><polygon fill="#181818" points="1340.9141,402.8613,1350.9141,406.8613,1340.9141,410.8613,1344.9141,406.8613" style="stroke:#181818;stroke-width:1.0;"/><line style="stroke:#181818;stroke-width:1.0;" x1="863.9609" x2="1346.9141" y1="406.8613" y2="406.8613"/><text fill="#000000" font-family="sans-serif" font-size="13" font-weight="bold" lengthAdjust="spacing" textLength="7.23" x="870.9609" y="401.5986">9</text><text fill="#000000" font-family="sans-serif" font-size="13" lengthAdjust="spacing" textLength="197.2534" x="882.1909" y="401.5986">toDTO(List&lt;AppointmentRecord&gt;)</text><polygon fill="#181818" points="874.9609,434.1523,864.9609,438.1523,874.9609,442.1523,870.9609,438.1523" style="stroke:#181818;stroke-width:1.0;"/><line style="stroke:#181818;stroke-width:1.0;stroke-dasharray:2.0,2.0;" x1="868.9609" x2="1356.9141" y1="438.1523" y2="438.1523"/><text fill="#000000" font-family="sans-serif" font-size="13" font-weight="bold" lengthAdjust="spacing" textLength="14.46" x="880.9609" y="432.8896">10</text><text fill="#000000" font-family="sans-serif" font-size="13" lengthAdjust="spacing" textLength="177.7534" x="899.4209" y="432.8896">List&lt;AppointmentRecordDTO&gt;</text><polygon fill="#181818" points="303.7563,465.4434,293.7563,469.4434,303.7563,473.4434,299.7563,469.4434" style="stroke:#181818;stroke-width:1.0;"/><line style="stroke:#181818;stroke-width:1.0;stroke-dasharray:2.0,2.0;" x1="297.7563" x2="857.9609" y1="469.4434" y2="469.4434"/><text fill="#000000" font-family="sans-serif" font-size="13" font-weight="bold" lengthAdjust="spacing" textLength="14.46" x="309.7563" y="464.1807">11</text><text fill="#000000" font-family="sans-serif" font-size="13" lengthAdjust="spacing" textLength="177.7534" x="328.2163" y="464.1807">List&lt;AppointmentRecordDTO&gt;</text><polygon fill="#181818" points="53.9585,496.7344,43.9585,500.7344,53.9585,504.7344,49.9585,500.7344" style="stroke:#181818;stroke-width:1.0;"/><line style="stroke:#181818;stroke-width:1.0;stroke-dasharray:2.0,2.0;" x1="47.9585" x2="286.7563" y1="500.7344" y2="500.7344"/><text fill="#000000" font-family="sans-serif" font-size="13" font-weight="bold" lengthAdjust="spacing" textLength="14.46" x="59.9585" y="495.4717">12</text><text fill="#000000" font-family="sans-serif" font-size="13" lengthAdjust="spacing" textLength="44.0845" x="78.4185" y="495.4717">200 OK</text><!--SRC=[dPFBJiCm44Nt_efHLkcYQa5Y4w5Aj4LG0MhL1tkJkCHI6bksKnGX_fr9dAPLdfGieeclvyorPsAuYHZiDZTtC8JD75_ld7s12HayI2buR0uiDh1clb211h472YjgE2uIGXCZg6_uaHe68iw_u-JmmHHglX4Ad5MOQkvp6Zj4KcKmb1HvZkUBs2WHHKnv5uLidLcfEK0rTEWLQCWYcG4J4pxdeSqlFolR5PF2AqwpnbXpz9pcERNLIgfcwiXzLlU-iKApyK9iib7RMp7KeLTm1ofbqws-vUlDCAlbNRFTBFj6I1d2SDBL2_3WwN4B8ohvIDhhqwFl8be4FoDbXuXqCR8IPRkG-CdCB54Aj-xmojq1kL27lNwo773F1nWGGW2V7WUrvYDgp-DWcYu2jppG84VLz_RRElr0Vx3IDa98YRWkrlGqBP1LTwtfJUY6ywvEk5vmtmMSVR-Yx_kQFhdUhnrQ91entoxT5cwBtoBvNrwnMf_TtXcubdmv5jc8bZFjmUru3CiNGdu1]--></g></svg>