<svg xmlns="http://www.w3.org/2000/svg" xmlns:xlink="http://www.w3.org/1999/xlink" contentStyleType="text/css" height="482px" preserveAspectRatio="none" style="width:1286px;height:482px;background:#FFFFFF;" version="1.1" viewBox="0 0 1286 482" width="1286px" zoomAndPan="magnify"><title>US04 - SD - View Top 5 Physicians based on the number of appointments</title><defs/><g><text fill="#000000" font-family="sans-serif" font-size="14" font-weight="bold" lengthAdjust="spacing" textLength="487.751" x="398.1367" y="30.1074">US04 - SD - View Top 5 Physicians based on the number of appointments</text><rect fill="#FFFFFF" height="248.3281" style="stroke:#181818;stroke-width:1.0;" width="10" x="44.2344" y="133.2422"/><rect fill="#FFFFFF" height="222.0371" style="stroke:#181818;stroke-width:1.0;" width="10" x="464.4604" y="159.5332"/><rect fill="#FFFFFF" height="156.4551" style="stroke:#181818;stroke-width:1.0;" width="10" x="667.2539" y="193.8242"/><rect fill="#FFFFFF" height="31.291" style="stroke:#181818;stroke-width:1.0;" width="10" x="990.729" y="225.1152"/><rect fill="#FFFFFF" height="31.291" style="stroke:#181818;stroke-width:1.0;" width="10" x="1186.7075" y="287.6973"/><line style="stroke:#181818;stroke-width:0.5;stroke-dasharray:5.0,5.0;" x1="49" x2="49" y1="123.2422" y2="399.5703"/><line style="stroke:#181818;stroke-width:0.5;stroke-dasharray:5.0,5.0;" x1="468.478" x2="468.478" y1="123.2422" y2="399.5703"/><line style="stroke:#181818;stroke-width:0.5;stroke-dasharray:5.0,5.0;" x1="671.8921" x2="671.8921" y1="123.2422" y2="399.5703"/><line style="stroke:#181818;stroke-width:0.5;stroke-dasharray:5.0,5.0;" x1="995.0674" x2="995.0674" y1="123.2422" y2="399.5703"/><line style="stroke:#181818;stroke-width:0.5;stroke-dasharray:5.0,5.0;" x1="1191.3906" x2="1191.3906" y1="123.2422" y2="399.5703"/><text fill="#000000" font-family="sans-serif" font-size="14" lengthAdjust="spacing" textLength="82.4688" x="5" y="119.7285">Administrator</text><ellipse cx="49.2344" cy="53.1211" fill="#E2E2F0" rx="8" ry="8" style="stroke:#181818;stroke-width:0.5;"/><path d="M49.2344,61.1211 L49.2344,88.1211 M36.2344,69.1211 L62.2344,69.1211 M49.2344,88.1211 L36.2344,103.1211 M49.2344,88.1211 L62.2344,103.1211 " fill="none" style="stroke:#181818;stroke-width:0.5;"/><text fill="#000000" font-family="sans-serif" font-size="14" lengthAdjust="spacing" textLength="82.4688" x="5" y="413.6777">Administrator</text><ellipse cx="49.2344" cy="425.6914" fill="#E2E2F0" rx="8" ry="8" style="stroke:#181818;stroke-width:0.5;"/><path d="M49.2344,433.6914 L49.2344,460.6914 M36.2344,441.6914 L62.2344,441.6914 M49.2344,460.6914 L36.2344,475.6914 M49.2344,460.6914 L62.2344,475.6914 " fill="none" style="stroke:#181818;stroke-width:0.5;"/><rect fill="#E2E2F0" height="32.6211" rx="2.5" ry="2.5" style="stroke:#181818;stroke-width:0.5;" width="199.9648" x="369.478" y="89.6211"/><text fill="#000000" font-family="sans-serif" font-size="14" lengthAdjust="spacing" textLength="185.9648" x="376.478" y="111.7285">:controller:PhysicianController</text><rect fill="#E2E2F0" height="32.6211" rx="2.5" ry="2.5" style="stroke:#181818;stroke-width:0.5;" width="199.9648" x="369.478" y="398.5703"/><text fill="#000000" font-family="sans-serif" font-size="14" lengthAdjust="spacing" textLength="185.9648" x="376.478" y="420.6777">:controller:PhysicianController</text><rect fill="#E2E2F0" height="32.6211" rx="2.5" ry="2.5" style="stroke:#181818;stroke-width:0.5;" width="172.7236" x="585.8921" y="89.6211"/><text fill="#000000" font-family="sans-serif" font-size="14" lengthAdjust="spacing" textLength="158.7236" x="592.8921" y="111.7285">:service:PhysicianService</text><rect fill="#E2E2F0" height="32.6211" rx="2.5" ry="2.5" style="stroke:#181818;stroke-width:0.5;" width="172.7236" x="585.8921" y="398.5703"/><text fill="#000000" font-family="sans-serif" font-size="14" lengthAdjust="spacing" textLength="158.7236" x="592.8921" y="420.6777">:service:PhysicianService</text><rect fill="#E2E2F0" height="32.6211" rx="2.5" ry="2.5" style="stroke:#181818;stroke-width:0.5;" width="195.3232" x="898.0674" y="89.6211"/><text fill="#000000" font-family="sans-serif" font-size="14" lengthAdjust="spacing" textLength="181.3232" x="905.0674" y="111.7285">:repo:AppointmentRepository</text><rect fill="#E2E2F0" height="32.6211" rx="2.5" ry="2.5" style="stroke:#181818;stroke-width:0.5;" width="195.3232" x="898.0674" y="398.5703"/><text fill="#000000" font-family="sans-serif" font-size="14" lengthAdjust="spacing" textLength="181.3232" x="905.0674" y="420.6777">:repo:AppointmentRepository</text><rect fill="#E2E2F0" height="32.6211" rx="2.5" ry="2.5" style="stroke:#181818;stroke-width:0.5;" width="176.6338" x="1103.3906" y="89.6211"/><text fill="#000000" font-family="sans-serif" font-size="14" lengthAdjust="spacing" textLength="162.6338" x="1110.3906" y="111.7285">:mapper:PhysicianMapper</text><rect fill="#E2E2F0" height="32.6211" rx="2.5" ry="2.5" style="stroke:#181818;stroke-width:0.5;" width="176.6338" x="1103.3906" y="398.5703"/><text fill="#000000" font-family="sans-serif" font-size="14" lengthAdjust="spacing" textLength="162.6338" x="1110.3906" y="420.6777">:mapper:PhysicianMapper</text><rect fill="#FFFFFF" height="248.3281" style="stroke:#181818;stroke-width:1.0;" width="10" x="44.2344" y="133.2422"/><rect fill="#FFFFFF" height="222.0371" style="stroke:#181818;stroke-width:1.0;" width="10" x="464.4604" y="159.5332"/><rect fill="#FFFFFF" height="156.4551" style="stroke:#181818;stroke-width:1.0;" width="10" x="667.2539" y="193.8242"/><rect fill="#FFFFFF" height="31.291" style="stroke:#181818;stroke-width:1.0;" width="10" x="990.729" y="225.1152"/><rect fill="#FFFFFF" height="31.291" style="stroke:#181818;stroke-width:1.0;" width="10" x="1186.7075" y="287.6973"/><polygon fill="#181818" points="452.4604,155.5332,462.4604,159.5332,452.4604,163.5332,456.4604,159.5332" style="stroke:#181818;stroke-width:1.0;"/><line style="stroke:#181818;stroke-width:1.0;" x1="54.2344" x2="458.4604" y1="159.5332" y2="159.5332"/><text fill="#000000" font-family="sans-serif" font-size="13" font-weight="bold" lengthAdjust="spacing" textLength="7.23" x="61.2344" y="154.2705">1</text><text fill="#000000" font-family="sans-serif" font-size="13" lengthAdjust="spacing" textLength="379.9961" x="72.4644" y="154.2705">GET /api/physicians/top5?from=YYYY-MM-DD&amp;to=YYYY-MM-DD</text><path d="M479,138.2422 L479,165.2422 L734,165.2422 L734,148.2422 L724,138.2422 L479,138.2422 " fill="#FEFFDD" style="stroke:#181818;stroke-width:0.5;"/><path d="M724,138.2422 L724,148.2422 L734,148.2422 L724,138.2422 " fill="#FEFFDD" style="stroke:#181818;stroke-width:0.5;"/><text fill="#000000" font-family="sans-serif" font-size="13" lengthAdjust="spacing" textLength="234.0063" x="485" y="157.2705">@PreAuthorize("hasAuthority('ADMIN')")</text><polygon fill="#181818" points="655.2539,189.8242,665.2539,193.8242,655.2539,197.8242,659.2539,193.8242" style="stroke:#181818;stroke-width:1.0;"/><line style="stroke:#181818;stroke-width:1.0;" x1="474.4604" x2="661.2539" y1="193.8242" y2="193.8242"/><text fill="#000000" font-family="sans-serif" font-size="13" font-weight="bold" lengthAdjust="spacing" textLength="7.23" x="481.4604" y="188.5615">2</text><text fill="#000000" font-family="sans-serif" font-size="13" lengthAdjust="spacing" textLength="162.5635" x="492.6904" y="188.5615">getTop5Physicians(from, to)</text><polygon fill="#181818" points="978.729,221.1152,988.729,225.1152,978.729,229.1152,982.729,225.1152" style="stroke:#181818;stroke-width:1.0;"/><line style="stroke:#181818;stroke-width:1.0;" x1="677.2539" x2="984.729" y1="225.1152" y2="225.1152"/><text fill="#000000" font-family="sans-serif" font-size="13" font-weight="bold" lengthAdjust="spacing" textLength="7.23" x="684.2539" y="219.8525">3</text><text fill="#000000" font-family="sans-serif" font-size="13" lengthAdjust="spacing" textLength="283.2451" x="695.4839" y="219.8525">countAppointmentsByPhysicianInPeriod(from, to)</text><polygon fill="#181818" points="688.2539,252.4063,678.2539,256.4063,688.2539,260.4063,684.2539,256.4063" style="stroke:#181818;stroke-width:1.0;"/><line style="stroke:#181818;stroke-width:1.0;stroke-dasharray:2.0,2.0;" x1="682.2539" x2="994.729" y1="256.4063" y2="256.4063"/><text fill="#000000" font-family="sans-serif" font-size="13" font-weight="bold" lengthAdjust="spacing" textLength="7.23" x="694.2539" y="251.1436">4</text><text fill="#000000" font-family="sans-serif" font-size="13" lengthAdjust="spacing" textLength="270.9814" x="705.4839" y="251.1436">List&lt;Object[]&gt; (physicianId, appointmentCount)</text><polygon fill="#181818" points="1174.7075,283.6973,1184.7075,287.6973,1174.7075,291.6973,1178.7075,287.6973" style="stroke:#181818;stroke-width:1.0;"/><line style="stroke:#181818;stroke-width:1.0;" x1="677.2539" x2="1180.7075" y1="287.6973" y2="287.6973"/><text fill="#000000" font-family="sans-serif" font-size="13" font-weight="bold" lengthAdjust="spacing" textLength="7.23" x="684.2539" y="282.4346">5</text><text fill="#000000" font-family="sans-serif" font-size="13" lengthAdjust="spacing" textLength="127.8799" x="695.4839" y="282.4346">toTop5DtoList(results)</text><polygon fill="#181818" points="688.2539,314.9883,678.2539,318.9883,688.2539,322.9883,684.2539,318.9883" style="stroke:#181818;stroke-width:1.0;"/><line style="stroke:#181818;stroke-width:1.0;stroke-dasharray:2.0,2.0;" x1="682.2539" x2="1190.7075" y1="318.9883" y2="318.9883"/><text fill="#000000" font-family="sans-serif" font-size="13" font-weight="bold" lengthAdjust="spacing" textLength="7.23" x="694.2539" y="313.7256">6</text><text fill="#000000" font-family="sans-serif" font-size="13" lengthAdjust="spacing" textLength="133.6816" x="705.4839" y="313.7256">List&lt;TopPhysicianDto&gt;</text><polygon fill="#181818" points="485.4604,346.2793,475.4604,350.2793,485.4604,354.2793,481.4604,350.2793" style="stroke:#181818;stroke-width:1.0;"/><line style="stroke:#181818;stroke-width:1.0;stroke-dasharray:2.0,2.0;" x1="479.4604" x2="671.2539" y1="350.2793" y2="350.2793"/><text fill="#000000" font-family="sans-serif" font-size="13" font-weight="bold" lengthAdjust="spacing" textLength="7.23" x="491.4604" y="345.0166">7</text><text fill="#000000" font-family="sans-serif" font-size="13" lengthAdjust="spacing" textLength="133.6816" x="502.6904" y="345.0166">List&lt;TopPhysicianDto&gt;</text><polygon fill="#181818" points="60.2344,377.5703,50.2344,381.5703,60.2344,385.5703,56.2344,381.5703" style="stroke:#181818;stroke-width:1.0;"/><line style="stroke:#181818;stroke-width:1.0;stroke-dasharray:2.0,2.0;" x1="54.2344" x2="468.4604" y1="381.5703" y2="381.5703"/><text fill="#000000" font-family="sans-serif" font-size="13" font-weight="bold" lengthAdjust="spacing" textLength="7.23" x="66.2344" y="376.3076">8</text><text fill="#000000" font-family="sans-serif" font-size="13" lengthAdjust="spacing" textLength="44.0845" x="77.4644" y="376.3076">200 OK</text><!--SRC=[VL9DRzD04BtlhnZvG1sfLY94BXO4GerG1A4HAKW8STZOqtfHl6FjZelINyyu2OvjRV71qfkFDs_U3XlU8tpRpbv10jjCVjyD_e4xgc4Ec_BWJMwqzR3J7WiW2rmYsARQeGEw1rtNP2nNQDahtJ3fdCsZPfJI8pwLAYLnSX0jYyfOuzbfWP6gjMCPK6lB4AKvMNQqtwDBkyatNIm2xI4G7v5uT8ycnml3zXGOjf-3erw7DQNBoqfV1NiZIW_7xc1cH5698ttzwoCU3Z_5ZfwSl1guejG0Gh88RGqfVFnm1rDTcsdTFTEKgPw_lNTKlVaXNx9U9rdsWgc7b2MPwCn3oIcyspXSDboICqyOHwNsPyI7-6gPhLTVhYRHHAcGWBwkivqYwW5PRcT-kPouLNCDJ7sQV_N24JHLY79gBFUI_lsXQr_P3Jf3HOyxJ9E4HNuMSr_VxdvZpZz_BI3k35mLr_sJlcarFADxz9h2ojHkdZ6rzB53t-pPJzIuy7-QXA1B2T4YDFhPUmWp19-kzNrmP2cydCtWzfDI1ORFyYy0]--></g></svg>