<svg xmlns="http://www.w3.org/2000/svg" xmlns:xlink="http://www.w3.org/1999/xlink" contentStyleType="text/css" height="886px" preserveAspectRatio="none" style="width:1369px;height:886px;background:#FFFFFF;" version="1.1" viewBox="0 0 1369 886" width="1369px" zoomAndPan="magnify"><title>US07 - SD - Schedule an Appointment as a Patient</title><defs/><g><text fill="#000000" font-family="sans-serif" font-size="14" font-weight="bold" lengthAdjust="spacing" textLength="333.7305" x="519.1272" y="30.1074">US07 - SD - Schedule an Appointment as a Patient</text><rect fill="#FFFFFF" height="206.0371" style="stroke:#181818;stroke-width:1.0;" width="10" x="94.5479" y="133.2422"/><rect fill="#FFFFFF" height="182.7461" style="stroke:#181818;stroke-width:1.0;" width="10" x="325.5503" y="156.5332"/><rect fill="#FFFFFF" height="120.1641" style="stroke:#181818;stroke-width:1.0;" width="10" x="556.5654" y="187.8242"/><rect fill="#FFFFFF" height="125.1641" style="stroke:#181818;stroke-width:1.0;" width="10" x="556.5654" y="380.5703"/><rect fill="#FFFFFF" height="161.4551" style="stroke:#181818;stroke-width:1.0;" width="10" x="556.5654" y="578.3164"/><rect fill="#FFFFFF" height="31.291" style="stroke:#181818;stroke-width:1.0;" width="10" x="839.0215" y="219.1152"/><rect fill="#FFFFFF" height="31.291" style="stroke:#181818;stroke-width:1.0;" width="10" x="1035" y="416.8613"/><rect fill="#FFFFFF" height="31.291" style="stroke:#181818;stroke-width:1.0;" width="10" x="1035" y="677.1895"/><rect fill="#FFFFFF" height="31.291" style="stroke:#181818;stroke-width:1.0;" width="10" x="1240.3232" y="614.6074"/><rect fill="none" height="520.6563" style="stroke:#000000;stroke-width:1.5;" width="1352.9849" x="10" y="265.4063"/><rect fill="none" height="315.9102" style="stroke:#000000;stroke-width:1.5;" width="1332.9849" x="20" y="463.1523"/><line style="stroke:#181818;stroke-width:0.5;stroke-dasharray:5.0,5.0;" x1="99" x2="99" y1="123.2422" y2="803.0625"/><line style="stroke:#181818;stroke-width:0.5;stroke-dasharray:5.0,5.0;" x1="330.2231" x2="330.2231" y1="123.2422" y2="803.0625"/><line style="stroke:#181818;stroke-width:0.5;stroke-dasharray:5.0,5.0;" x1="560.8589" x2="560.8589" y1="123.2422" y2="803.0625"/><line style="stroke:#181818;stroke-width:0.5;stroke-dasharray:5.0,5.0;" x1="843.7046" x2="843.7046" y1="123.2422" y2="803.0625"/><line style="stroke:#181818;stroke-width:0.5;stroke-dasharray:5.0,5.0;" x1="1039.3384" x2="1039.3384" y1="123.2422" y2="803.0625"/><line style="stroke:#181818;stroke-width:0.5;stroke-dasharray:5.0,5.0;" x1="1244.6616" x2="1244.6616" y1="123.2422" y2="803.0625"/><text fill="#000000" font-family="sans-serif" font-size="14" lengthAdjust="spacing" textLength="133.0957" x="30" y="119.7285">Authenticated Patient</text><ellipse cx="99.5479" cy="53.1211" fill="#E2E2F0" rx="8" ry="8" style="stroke:#181818;stroke-width:0.5;"/><path d="M99.5479,61.1211 L99.5479,88.1211 M86.5479,69.1211 L112.5479,69.1211 M99.5479,88.1211 L86.5479,103.1211 M99.5479,88.1211 L112.5479,103.1211 " fill="none" style="stroke:#181818;stroke-width:0.5;"/><text fill="#000000" font-family="sans-serif" font-size="14" lengthAdjust="spacing" textLength="133.0957" x="30" y="817.1699">Authenticated Patient</text><ellipse cx="99.5479" cy="829.1836" fill="#E2E2F0" rx="8" ry="8" style="stroke:#181818;stroke-width:0.5;"/><path d="M99.5479,837.1836 L99.5479,864.1836 M86.5479,845.1836 L112.5479,845.1836 M99.5479,864.1836 L86.5479,879.1836 M99.5479,864.1836 L112.5479,879.1836 " fill="none" style="stroke:#181818;stroke-width:0.5;"/><rect fill="#E2E2F0" height="32.6211" rx="2.5" ry="2.5" style="stroke:#181818;stroke-width:0.5;" width="218.6543" x="221.2231" y="89.6211"/><text fill="#000000" font-family="sans-serif" font-size="14" lengthAdjust="spacing" textLength="204.6543" x="228.2231" y="111.7285">:controller:AppointmentController</text><rect fill="#E2E2F0" height="32.6211" rx="2.5" ry="2.5" style="stroke:#181818;stroke-width:0.5;" width="218.6543" x="221.2231" y="802.0625"/><text fill="#000000" font-family="sans-serif" font-size="14" lengthAdjust="spacing" textLength="204.6543" x="228.2231" y="824.1699">:controller:AppointmentController</text><rect fill="#E2E2F0" height="32.6211" rx="2.5" ry="2.5" style="stroke:#181818;stroke-width:0.5;" width="191.4131" x="465.8589" y="89.6211"/><text fill="#000000" font-family="sans-serif" font-size="14" lengthAdjust="spacing" textLength="177.4131" x="472.8589" y="111.7285">:service:AppointmentService</text><rect fill="#E2E2F0" height="32.6211" rx="2.5" ry="2.5" style="stroke:#181818;stroke-width:0.5;" width="191.4131" x="465.8589" y="802.0625"/><text fill="#000000" font-family="sans-serif" font-size="14" lengthAdjust="spacing" textLength="177.4131" x="472.8589" y="824.1699">:service:AppointmentService</text><rect fill="#E2E2F0" height="32.6211" rx="2.5" ry="2.5" style="stroke:#181818;stroke-width:0.5;" width="176.6338" x="755.7046" y="89.6211"/><text fill="#000000" font-family="sans-serif" font-size="14" lengthAdjust="spacing" textLength="162.6338" x="762.7046" y="111.7285">:repo:PhysicianRepository</text><rect fill="#E2E2F0" height="32.6211" rx="2.5" ry="2.5" style="stroke:#181818;stroke-width:0.5;" width="176.6338" x="755.7046" y="802.0625"/><text fill="#000000" font-family="sans-serif" font-size="14" lengthAdjust="spacing" textLength="162.6338" x="762.7046" y="824.1699">:repo:PhysicianRepository</text><rect fill="#E2E2F0" height="32.6211" rx="2.5" ry="2.5" style="stroke:#181818;stroke-width:0.5;" width="195.3232" x="942.3384" y="89.6211"/><text fill="#000000" font-family="sans-serif" font-size="14" lengthAdjust="spacing" textLength="181.3232" x="949.3384" y="111.7285">:repo:AppointmentRepository</text><rect fill="#E2E2F0" height="32.6211" rx="2.5" ry="2.5" style="stroke:#181818;stroke-width:0.5;" width="195.3232" x="942.3384" y="802.0625"/><text fill="#000000" font-family="sans-serif" font-size="14" lengthAdjust="spacing" textLength="181.3232" x="949.3384" y="824.1699">:repo:AppointmentRepository</text><rect fill="#E2E2F0" height="32.6211" rx="2.5" ry="2.5" style="stroke:#181818;stroke-width:0.5;" width="195.3232" x="1147.6616" y="89.6211"/><text fill="#000000" font-family="sans-serif" font-size="14" lengthAdjust="spacing" textLength="181.3232" x="1154.6616" y="111.7285">:mapper:AppointmentMapper</text><rect fill="#E2E2F0" height="32.6211" rx="2.5" ry="2.5" style="stroke:#181818;stroke-width:0.5;" width="195.3232" x="1147.6616" y="802.0625"/><text fill="#000000" font-family="sans-serif" font-size="14" lengthAdjust="spacing" textLength="181.3232" x="1154.6616" y="824.1699">:mapper:AppointmentMapper</text><rect fill="#FFFFFF" height="206.0371" style="stroke:#181818;stroke-width:1.0;" width="10" x="94.5479" y="133.2422"/><rect fill="#FFFFFF" height="182.7461" style="stroke:#181818;stroke-width:1.0;" width="10" x="325.5503" y="156.5332"/><rect fill="#FFFFFF" height="120.1641" style="stroke:#181818;stroke-width:1.0;" width="10" x="556.5654" y="187.8242"/><rect fill="#FFFFFF" height="125.1641" style="stroke:#181818;stroke-width:1.0;" width="10" x="556.5654" y="380.5703"/><rect fill="#FFFFFF" height="161.4551" style="stroke:#181818;stroke-width:1.0;" width="10" x="556.5654" y="578.3164"/><rect fill="#FFFFFF" height="31.291" style="stroke:#181818;stroke-width:1.0;" width="10" x="839.0215" y="219.1152"/><rect fill="#FFFFFF" height="31.291" style="stroke:#181818;stroke-width:1.0;" width="10" x="1035" y="416.8613"/><rect fill="#FFFFFF" height="31.291" style="stroke:#181818;stroke-width:1.0;" width="10" x="1035" y="677.1895"/><rect fill="#FFFFFF" height="31.291" style="stroke:#181818;stroke-width:1.0;" width="10" x="1240.3232" y="614.6074"/><polygon fill="#181818" points="313.5503,152.5332,323.5503,156.5332,313.5503,160.5332,317.5503,156.5332" style="stroke:#181818;stroke-width:1.0;"/><line style="stroke:#181818;stroke-width:1.0;" x1="104.5479" x2="319.5503" y1="156.5332" y2="156.5332"/><text fill="#000000" font-family="sans-serif" font-size="13" font-weight="bold" lengthAdjust="spacing" textLength="7.23" x="111.5479" y="151.2705">1</text><text fill="#000000" font-family="sans-serif" font-size="13" lengthAdjust="spacing" textLength="190.7725" x="122.7778" y="151.2705">POST /api/patients/appointments</text><polygon fill="#181818" points="544.5654,183.8242,554.5654,187.8242,544.5654,191.8242,548.5654,187.8242" style="stroke:#181818;stroke-width:1.0;"/><line style="stroke:#181818;stroke-width:1.0;" x1="335.5503" x2="550.5654" y1="187.8242" y2="187.8242"/><text fill="#000000" font-family="sans-serif" font-size="13" font-weight="bold" lengthAdjust="spacing" textLength="7.23" x="342.5503" y="182.5615">2</text><text fill="#000000" font-family="sans-serif" font-size="13" lengthAdjust="spacing" textLength="190.7852" x="353.7803" y="182.5615">scheduleAppointment(dto, token)</text><polygon fill="#181818" points="827.0215,215.1152,837.0215,219.1152,827.0215,223.1152,831.0215,219.1152" style="stroke:#181818;stroke-width:1.0;"/><line style="stroke:#181818;stroke-width:1.0;" x1="566.5654" x2="833.0215" y1="219.1152" y2="219.1152"/><text fill="#000000" font-family="sans-serif" font-size="13" font-weight="bold" lengthAdjust="spacing" textLength="7.23" x="573.5654" y="213.8525">3</text><text fill="#000000" font-family="sans-serif" font-size="13" lengthAdjust="spacing" textLength="142.3525" x="584.7954" y="213.8525">findById(dto.physicianId)</text><polygon fill="#181818" points="577.5654,246.4063,567.5654,250.4063,577.5654,254.4063,573.5654,250.4063" style="stroke:#181818;stroke-width:1.0;"/><line style="stroke:#181818;stroke-width:1.0;stroke-dasharray:2.0,2.0;" x1="571.5654" x2="843.0215" y1="250.4063" y2="250.4063"/><text fill="#000000" font-family="sans-serif" font-size="13" font-weight="bold" lengthAdjust="spacing" textLength="7.23" x="583.5654" y="245.1436">4</text><text fill="#000000" font-family="sans-serif" font-size="13" lengthAdjust="spacing" textLength="62.8672" x="594.7954" y="245.1436">Physician?</text><path d="M10,265.4063 L70.1709,265.4063 L70.1709,274.6973 L60.1709,284.6973 L10,284.6973 L10,265.4063 " fill="#EEEEEE" style="stroke:#000000;stroke-width:1.5;"/><rect fill="none" height="520.6563" style="stroke:#000000;stroke-width:1.5;" width="1352.9849" x="10" y="265.4063"/><text fill="#000000" font-family="sans-serif" font-size="13" font-weight="bold" lengthAdjust="spacing" textLength="15.1709" x="25" y="280.4346">alt</text><text fill="#000000" font-family="sans-serif" font-size="11" font-weight="bold" lengthAdjust="spacing" textLength="111.8208" x="85.1709" y="279.2764">[physician not found]</text><polygon fill="#181818" points="346.5503,303.9883,336.5503,307.9883,346.5503,311.9883,342.5503,307.9883" style="stroke:#181818;stroke-width:1.0;"/><line style="stroke:#181818;stroke-width:1.0;stroke-dasharray:2.0,2.0;" x1="340.5503" x2="560.5654" y1="307.9883" y2="307.9883"/><text fill="#000000" font-family="sans-serif" font-size="13" font-weight="bold" lengthAdjust="spacing" textLength="7.23" x="352.5503" y="302.7256">5</text><text fill="#000000" font-family="sans-serif" font-size="13" lengthAdjust="spacing" textLength="86.0044" x="363.7803" y="302.7256">404 Not Found</text><polygon fill="#181818" points="110.5479,335.2793,100.5479,339.2793,110.5479,343.2793,106.5479,339.2793" style="stroke:#181818;stroke-width:1.0;"/><line style="stroke:#181818;stroke-width:1.0;stroke-dasharray:2.0,2.0;" x1="104.5479" x2="329.5503" y1="339.2793" y2="339.2793"/><text fill="#000000" font-family="sans-serif" font-size="13" font-weight="bold" lengthAdjust="spacing" textLength="7.23" x="116.5479" y="334.0166">6</text><text fill="#000000" font-family="sans-serif" font-size="13" lengthAdjust="spacing" textLength="86.0044" x="127.7778" y="334.0166">404 Not Found</text><line style="stroke:#000000;stroke-width:1.0;stroke-dasharray:2.0,2.0;" x1="10" x2="1362.9849" y1="348.2793" y2="348.2793"/><line style="stroke:#181818;stroke-width:1.0;" x1="561.5654" x2="608.5654" y1="367.5703" y2="367.5703"/><line style="stroke:#181818;stroke-width:1.0;" x1="608.5654" x2="608.5654" y1="367.5703" y2="380.5703"/><line style="stroke:#181818;stroke-width:1.0;" x1="567.5654" x2="608.5654" y1="380.5703" y2="380.5703"/><polygon fill="#181818" points="577.5654,376.5703,567.5654,380.5703,577.5654,384.5703,573.5654,380.5703" style="stroke:#181818;stroke-width:1.0;"/><text fill="#000000" font-family="sans-serif" font-size="13" font-weight="bold" lengthAdjust="spacing" textLength="7.23" x="573.5654" y="362.3076">7</text><text fill="#000000" font-family="sans-serif" font-size="13" lengthAdjust="spacing" textLength="257.2261" x="584.7954" y="362.3076">validateWorkingHoursAndSlot(dto.dateTime)</text><polygon fill="#181818" points="1023,412.8613,1033,416.8613,1023,420.8613,1027,416.8613" style="stroke:#181818;stroke-width:1.0;"/><line style="stroke:#181818;stroke-width:1.0;" x1="566.5654" x2="1029" y1="416.8613" y2="416.8613"/><text fill="#000000" font-family="sans-serif" font-size="13" font-weight="bold" lengthAdjust="spacing" textLength="7.23" x="573.5654" y="411.5986">8</text><text fill="#000000" font-family="sans-serif" font-size="13" lengthAdjust="spacing" textLength="361.9941" x="584.7954" y="411.5986">existsByPhysicianAndDateTime(dto.physicianId, dto.dateTime)</text><polygon fill="#181818" points="577.5654,444.1523,567.5654,448.1523,577.5654,452.1523,573.5654,448.1523" style="stroke:#181818;stroke-width:1.0;"/><line style="stroke:#181818;stroke-width:1.0;stroke-dasharray:2.0,2.0;" x1="571.5654" x2="1039" y1="448.1523" y2="448.1523"/><text fill="#000000" font-family="sans-serif" font-size="13" font-weight="bold" lengthAdjust="spacing" textLength="7.23" x="583.5654" y="442.8896">9</text><text fill="#000000" font-family="sans-serif" font-size="13" lengthAdjust="spacing" textLength="100.439" x="594.7954" y="442.8896">Boolean (conflict)</text><path d="M20,463.1523 L80.1709,463.1523 L80.1709,472.4434 L70.1709,482.4434 L20,482.4434 L20,463.1523 " fill="#EEEEEE" style="stroke:#000000;stroke-width:1.5;"/><rect fill="none" height="315.9102" style="stroke:#000000;stroke-width:1.5;" width="1332.9849" x="20" y="463.1523"/><text fill="#000000" font-family="sans-serif" font-size="13" font-weight="bold" lengthAdjust="spacing" textLength="15.1709" x="35" y="478.1807">alt</text><text fill="#000000" font-family="sans-serif" font-size="11" font-weight="bold" lengthAdjust="spacing" textLength="80.0347" x="95.1709" y="477.0225">[conflict found]</text><polygon fill="#181818" points="341.5503,501.7344,331.5503,505.7344,341.5503,509.7344,337.5503,505.7344" style="stroke:#181818;stroke-width:1.0;"/><line style="stroke:#181818;stroke-width:1.0;stroke-dasharray:2.0,2.0;" x1="335.5503" x2="560.5654" y1="505.7344" y2="505.7344"/><text fill="#000000" font-family="sans-serif" font-size="13" font-weight="bold" lengthAdjust="spacing" textLength="14.46" x="347.5503" y="500.4717">10</text><text fill="#000000" font-family="sans-serif" font-size="13" lengthAdjust="spacing" textLength="68.6499" x="366.0103" y="500.4717">409 Conflict</text><polygon fill="#181818" points="110.5479,533.0254,100.5479,537.0254,110.5479,541.0254,106.5479,537.0254" style="stroke:#181818;stroke-width:1.0;"/><line style="stroke:#181818;stroke-width:1.0;stroke-dasharray:2.0,2.0;" x1="104.5479" x2="329.5503" y1="537.0254" y2="537.0254"/><text fill="#000000" font-family="sans-serif" font-size="13" font-weight="bold" lengthAdjust="spacing" textLength="14.46" x="116.5479" y="531.7627">11</text><text fill="#000000" font-family="sans-serif" font-size="13" lengthAdjust="spacing" textLength="68.6499" x="135.0078" y="531.7627">409 Conflict</text><line style="stroke:#000000;stroke-width:1.0;stroke-dasharray:2.0,2.0;" x1="20" x2="1352.9849" y1="546.0254" y2="546.0254"/><line style="stroke:#181818;stroke-width:1.0;" x1="561.5654" x2="608.5654" y1="565.3164" y2="565.3164"/><line style="stroke:#181818;stroke-width:1.0;" x1="608.5654" x2="608.5654" y1="565.3164" y2="578.3164"/><line style="stroke:#181818;stroke-width:1.0;" x1="567.5654" x2="608.5654" y1="578.3164" y2="578.3164"/><polygon fill="#181818" points="577.5654,574.3164,567.5654,578.3164,577.5654,582.3164,573.5654,578.3164" style="stroke:#181818;stroke-width:1.0;"/><text fill="#000000" font-family="sans-serif" font-size="13" font-weight="bold" lengthAdjust="spacing" textLength="14.46" x="573.5654" y="560.0537">12</text><text fill="#000000" font-family="sans-serif" font-size="13" lengthAdjust="spacing" textLength="165.4644" x="592.0254" y="560.0537">getPatientFromToken(token)</text><polygon fill="#181818" points="1228.3232,610.6074,1238.3232,614.6074,1228.3232,618.6074,1232.3232,614.6074" style="stroke:#181818;stroke-width:1.0;"/><line style="stroke:#181818;stroke-width:1.0;" x1="566.5654" x2="1234.3232" y1="614.6074" y2="614.6074"/><text fill="#000000" font-family="sans-serif" font-size="13" font-weight="bold" lengthAdjust="spacing" textLength="14.46" x="573.5654" y="609.3447">13</text><text fill="#000000" font-family="sans-serif" font-size="13" lengthAdjust="spacing" textLength="190.0425" x="592.0254" y="609.3447">toDomain(dto, patient, physician)</text><polygon fill="#181818" points="577.5654,641.8984,567.5654,645.8984,577.5654,649.8984,573.5654,645.8984" style="stroke:#181818;stroke-width:1.0;"/><line style="stroke:#181818;stroke-width:1.0;stroke-dasharray:2.0,2.0;" x1="571.5654" x2="1244.3232" y1="645.8984" y2="645.8984"/><text fill="#000000" font-family="sans-serif" font-size="13" font-weight="bold" lengthAdjust="spacing" textLength="14.46" x="583.5654" y="640.6357">14</text><text fill="#000000" font-family="sans-serif" font-size="13" lengthAdjust="spacing" textLength="72.9917" x="602.0254" y="640.6357">Appointment</text><polygon fill="#181818" points="1023,673.1895,1033,677.1895,1023,681.1895,1027,677.1895" style="stroke:#181818;stroke-width:1.0;"/><line style="stroke:#181818;stroke-width:1.0;" x1="566.5654" x2="1029" y1="677.1895" y2="677.1895"/><text fill="#000000" font-family="sans-serif" font-size="13" font-weight="bold" lengthAdjust="spacing" textLength="14.46" x="573.5654" y="671.9268">15</text><text fill="#000000" font-family="sans-serif" font-size="13" lengthAdjust="spacing" textLength="109.1099" x="592.0254" y="671.9268">save(Appointment)</text><polygon fill="#181818" points="577.5654,704.4805,567.5654,708.4805,577.5654,712.4805,573.5654,708.4805" style="stroke:#181818;stroke-width:1.0;"/><line style="stroke:#181818;stroke-width:1.0;stroke-dasharray:2.0,2.0;" x1="571.5654" x2="1039" y1="708.4805" y2="708.4805"/><text fill="#000000" font-family="sans-serif" font-size="13" font-weight="bold" lengthAdjust="spacing" textLength="14.46" x="583.5654" y="703.2178">16</text><text fill="#000000" font-family="sans-serif" font-size="13" lengthAdjust="spacing" textLength="124.9917" x="602.0254" y="703.2178">Appointment (with ID)</text><polygon fill="#181818" points="341.5503,735.7715,331.5503,739.7715,341.5503,743.7715,337.5503,739.7715" style="stroke:#181818;stroke-width:1.0;"/><line style="stroke:#181818;stroke-width:1.0;stroke-dasharray:2.0,2.0;" x1="335.5503" x2="560.5654" y1="739.7715" y2="739.7715"/><text fill="#000000" font-family="sans-serif" font-size="13" font-weight="bold" lengthAdjust="spacing" textLength="14.46" x="347.5503" y="734.5088">17</text><text fill="#000000" font-family="sans-serif" font-size="13" lengthAdjust="spacing" textLength="142.3716" x="366.0103" y="734.5088">AppointmentIdResponse</text><polygon fill="#181818" points="110.5479,767.0625,100.5479,771.0625,110.5479,775.0625,106.5479,771.0625" style="stroke:#181818;stroke-width:1.0;"/><line style="stroke:#181818;stroke-width:1.0;stroke-dasharray:2.0,2.0;" x1="104.5479" x2="329.5503" y1="771.0625" y2="771.0625"/><text fill="#000000" font-family="sans-serif" font-size="13" font-weight="bold" lengthAdjust="spacing" textLength="14.46" x="116.5479" y="765.7998">18</text><text fill="#000000" font-family="sans-serif" font-size="13" lengthAdjust="spacing" textLength="71.5508" x="135.0078" y="765.7998">201 Created</text><!--SRC=[dPLDZzem48Rl_XKZJa62NLgjL9L3ApwqAeUsQ4FLiniFYxM9RTaEBV- -am_IV6x37a3oEpEFdNd7YPS-HlWHBZx07C9jzXUTKAGaSWKhOxHKFa7bWJlWiETUqeBnr6iUUNdc7a6hVAtIv1TQnaZN5YQhr9yeLKQK8gw54sQu9KqQJiZ9CjBAMnt7Q9UrlJQLEicsxOsqG0xjMKPOfuI5r4QKSglUej7B_UdYIEBgYLPEqcDSykeUlQ-yjaaBq1jf8H9kJBCDNtEb3IZKlCr5-uSwpGO2CF_Ktr9OmlvxU81xRkIzAR8TBQfKnrX_OPDOTfXmhfobMZ0GNi_0wnTKqmRkMaMidduJx2YLM5zs8YFScMlAJanPN_vyw4nLycVgOUoX8e7I7euwLO91N-dybRuzB1xW6vK_TilhRIB2a2bTXi3_Meonmu733ZpzcSTI4EIdjYzIFN_HgNKh9S9OvyxSPR63J70w1jkm1_z8vztwKlMNiDkIrhPi1g_iDSR4jTOnacK1lK2EiOmypH90PkTLg9nyWvSVOLDIslKtcDc2Z70JeFJp9aUVqPU4HwkJGtQnWl9wZI8LxnC2URtL2PUgkA7b_P_zknyTNbavQ59DPEFEqXWenyyOr8AT_SSCIlqB5loM_WIxxPIzPIng-auyeJDQTSqQFH_l5-zWOp6JRnWF6cZw_GK0]--></g></svg>