<svg xmlns="http://www.w3.org/2000/svg" xmlns:xlink="http://www.w3.org/1999/xlink" contentStyleType="text/css" height="540px" preserveAspectRatio="none" style="width:405px;height:540px;background:#FFFFFF;" version="1.1" viewBox="0 0 405 540" width="405px" zoomAndPan="magnify"><title>US07 - SSD - Schedule an Appointment as a Patient</title><defs/><g><text fill="#000000" font-family="sans-serif" font-size="14" font-weight="bold" lengthAdjust="spacing" textLength="343.0684" x="32.2185" y="30.1074">US07 - SSD - Schedule an Appointment as a Patient</text><rect fill="none" height="268.9102" style="stroke:#000000;stroke-width:1.5;" width="388.5054" x="10" y="171.5332"/><rect fill="none" height="202.3281" style="stroke:#000000;stroke-width:1.5;" width="368.5054" x="20" y="231.1152"/><rect fill="none" height="118.4551" style="stroke:#000000;stroke-width:1.5;" width="348.5054" x="30" y="307.9883"/><line style="stroke:#181818;stroke-width:0.5;stroke-dasharray:5.0,5.0;" x1="109" x2="109" y1="123.2422" y2="457.4434"/><line style="stroke:#181818;stroke-width:0.5;stroke-dasharray:5.0,5.0;" x1="323.9824" x2="323.9824" y1="123.2422" y2="457.4434"/><text fill="#000000" font-family="sans-serif" font-size="14" lengthAdjust="spacing" textLength="133.0957" x="40" y="119.7285">Authenticated Patient</text><ellipse cx="109.5479" cy="53.1211" fill="#E2E2F0" rx="8" ry="8" style="stroke:#181818;stroke-width:0.5;"/><path d="M109.5479,61.1211 L109.5479,88.1211 M96.5479,69.1211 L122.5479,69.1211 M109.5479,88.1211 L96.5479,103.1211 M109.5479,88.1211 L122.5479,103.1211 " fill="none" style="stroke:#181818;stroke-width:0.5;"/><text fill="#000000" font-family="sans-serif" font-size="14" lengthAdjust="spacing" textLength="133.0957" x="40" y="471.5508">Authenticated Patient</text><ellipse cx="109.5479" cy="483.5645" fill="#E2E2F0" rx="8" ry="8" style="stroke:#181818;stroke-width:0.5;"/><path d="M109.5479,491.5645 L109.5479,518.5645 M96.5479,499.5645 L122.5479,499.5645 M109.5479,518.5645 L96.5479,533.5645 M109.5479,518.5645 L122.5479,533.5645 " fill="none" style="stroke:#181818;stroke-width:0.5;"/><rect fill="#E2E2F0" height="32.6211" rx="2.5" ry="2.5" style="stroke:#181818;stroke-width:0.5;" width="60.6758" x="293.9824" y="89.6211"/><text fill="#000000" font-family="sans-serif" font-size="14" lengthAdjust="spacing" textLength="46.6758" x="300.9824" y="111.7285">System</text><rect fill="#E2E2F0" height="32.6211" rx="2.5" ry="2.5" style="stroke:#181818;stroke-width:0.5;" width="60.6758" x="293.9824" y="456.4434"/><text fill="#000000" font-family="sans-serif" font-size="14" lengthAdjust="spacing" textLength="46.6758" x="300.9824" y="478.5508">System</text><polygon fill="#181818" points="312.3203,152.5332,322.3203,156.5332,312.3203,160.5332,316.3203,156.5332" style="stroke:#181818;stroke-width:1.0;"/><line style="stroke:#181818;stroke-width:1.0;" x1="109.5479" x2="318.3203" y1="156.5332" y2="156.5332"/><text fill="#000000" font-family="sans-serif" font-size="13" lengthAdjust="spacing" textLength="190.7725" x="116.5479" y="151.2705">POST /api/patients/appointments</text><path d="M10,171.5332 L70.1709,171.5332 L70.1709,180.8242 L60.1709,190.8242 L10,190.8242 L10,171.5332 " fill="#EEEEEE" style="stroke:#000000;stroke-width:1.5;"/><rect fill="none" height="268.9102" style="stroke:#000000;stroke-width:1.5;" width="388.5054" x="10" y="171.5332"/><text fill="#000000" font-family="sans-serif" font-size="13" font-weight="bold" lengthAdjust="spacing" textLength="15.1709" x="25" y="186.5615">alt</text><text fill="#000000" font-family="sans-serif" font-size="11" font-weight="bold" lengthAdjust="spacing" textLength="111.8208" x="85.1709" y="185.4033">[physician not found]</text><polygon fill="#181818" points="120.5479,210.1152,110.5479,214.1152,120.5479,218.1152,116.5479,214.1152" style="stroke:#181818;stroke-width:1.0;"/><line style="stroke:#181818;stroke-width:1.0;stroke-dasharray:2.0,2.0;" x1="114.5479" x2="323.3203" y1="214.1152" y2="214.1152"/><text fill="#000000" font-family="sans-serif" font-size="13" lengthAdjust="spacing" textLength="86.0044" x="126.5479" y="208.8525">404 Not Found</text><line style="stroke:#000000;stroke-width:1.0;stroke-dasharray:2.0,2.0;" x1="10" x2="398.5054" y1="223.1152" y2="223.1152"/><path d="M20,231.1152 L80.1709,231.1152 L80.1709,240.4063 L70.1709,250.4063 L20,250.4063 L20,231.1152 " fill="#EEEEEE" style="stroke:#000000;stroke-width:1.5;"/><rect fill="none" height="202.3281" style="stroke:#000000;stroke-width:1.5;" width="368.5054" x="20" y="231.1152"/><text fill="#000000" font-family="sans-serif" font-size="13" font-weight="bold" lengthAdjust="spacing" textLength="15.1709" x="35" y="246.1436">alt</text><text fill="#000000" font-family="sans-serif" font-size="11" font-weight="bold" lengthAdjust="spacing" textLength="234.6792" x="95.1709" y="244.9854">[invalid time or not aligned to 20-minute slot]</text><polygon fill="#181818" points="120.5479,286.9883,110.5479,290.9883,120.5479,294.9883,116.5479,290.9883" style="stroke:#181818;stroke-width:1.0;"/><line style="stroke:#181818;stroke-width:1.0;stroke-dasharray:2.0,2.0;" x1="114.5479" x2="323.3203" y1="290.9883" y2="290.9883"/><text fill="#000000" font-family="sans-serif" font-size="13" lengthAdjust="spacing" textLength="100.4644" x="126.5479" y="268.4346">400 Bad Request</text><text fill="#000000" font-family="sans-serif" font-size="13" lengthAdjust="spacing" textLength="103.8921" x="126.5479" y="285.7256">"Invalid date/time"</text><line style="stroke:#000000;stroke-width:1.0;stroke-dasharray:2.0,2.0;" x1="20" x2="388.5054" y1="299.9883" y2="299.9883"/><path d="M30,307.9883 L90.1709,307.9883 L90.1709,317.2793 L80.1709,327.2793 L30,327.2793 L30,307.9883 " fill="#EEEEEE" style="stroke:#000000;stroke-width:1.5;"/><rect fill="none" height="118.4551" style="stroke:#000000;stroke-width:1.5;" width="348.5054" x="30" y="307.9883"/><text fill="#000000" font-family="sans-serif" font-size="13" font-weight="bold" lengthAdjust="spacing" textLength="15.1709" x="45" y="323.0166">alt</text><text fill="#000000" font-family="sans-serif" font-size="11" font-weight="bold" lengthAdjust="spacing" textLength="268.3345" x="105.1709" y="321.8584">[physician already has an appointment at that time]</text><polygon fill="#181818" points="120.5479,363.8613,110.5479,367.8613,120.5479,371.8613,116.5479,367.8613" style="stroke:#181818;stroke-width:1.0;"/><line style="stroke:#181818;stroke-width:1.0;stroke-dasharray:2.0,2.0;" x1="114.5479" x2="323.3203" y1="367.8613" y2="367.8613"/><text fill="#000000" font-family="sans-serif" font-size="13" lengthAdjust="spacing" textLength="68.6499" x="126.5479" y="345.3076">409 Conflict</text><text fill="#000000" font-family="sans-serif" font-size="13" lengthAdjust="spacing" textLength="101.0166" x="126.5479" y="362.5986">"Slot unavailable"</text><line style="stroke:#000000;stroke-width:1.0;stroke-dasharray:2.0,2.0;" x1="30" x2="378.5054" y1="376.8613" y2="376.8613"/><polygon fill="#181818" points="120.5479,414.4434,110.5479,418.4434,120.5479,422.4434,116.5479,418.4434" style="stroke:#181818;stroke-width:1.0;"/><line style="stroke:#181818;stroke-width:1.0;stroke-dasharray:2.0,2.0;" x1="114.5479" x2="323.3203" y1="418.4434" y2="418.4434"/><text fill="#000000" font-family="sans-serif" font-size="13" lengthAdjust="spacing" textLength="71.5508" x="126.5479" y="395.8896">201 Created</text><text fill="#000000" font-family="sans-serif" font-size="13" lengthAdjust="spacing" textLength="177.0615" x="126.5479" y="413.1807">Body: { appointmentId, status }</text><!--SRC=[bP51IyD048Nl-HMFd0sDfI3s8BGLeHSjHc-zZDcjMTZinkvi8OZ_tTcqjhqKx243CvdttZSi6xOQxrLvXm9LzPXgtMWLPKeEiwxpnd6h7OC222jY8qr6DVijybdaHbfJ4slrzpFFEjhAp7Gaihpg0-ispx8BsoWUZakOOlLIlM54dHbr-uKWpP4YP1bPHjVqGGA4q7d6naUdCfnSYcHv8MsAIJd1iyYU1fcsGOiskHgt8siKsBGQSbxobi6d4prxZCkYDIwoHh2UHND5OeavARpghwW3hrs-F4GfMHsbl5py3YXxcDE9PBUQL8yclO2qvs_2u2OLSHYKLo3TO-7TnfewyLHo4QAZ7HbB7tR0EGFwj-sulCL2S6MyTdEl-Yc-pucNwWQ1YMF0ppvYUBbKvVi5]--></g></svg>