<svg xmlns="http://www.w3.org/2000/svg" xmlns:xlink="http://www.w3.org/1999/xlink" contentStyleType="text/css" data-diagram-type="SEQUENCE" height="699.2188px" preserveAspectRatio="none" style="width:995px;height:699px;background:#FFFFFF;" version="1.1" viewBox="0 0 995 699" width="995.3125px" zoomAndPan="magnify"><title>C4: Sequence Diagram - Patient Registration (Public)</title><defs/><g><text fill="#000000" font-family="Arial" font-size="10.9375" font-weight="bold" lengthAdjust="spacing" textLength="275.312" x="359.5516" y="21.6202">C4: Sequence Diagram - Patient Registration (Public)</text><g><title>PatientsController</title><rect fill="#FFFFFF" height="40.6616" style="stroke:#181818;stroke-width:0.7813;" width="7.8125" x="271.6057" y="115.4724"/></g><g><title>PatientService</title><rect fill="#FFFFFF" height="85.2295" style="stroke:#181818;stroke-width:0.7813;" width="7.8125" x="400.4677" y="308.2581"/></g><g><title>PatientRepository</title><rect fill="#FFFFFF" height="40.6616" style="stroke:#181818;stroke-width:0.7813;" width="7.8125" x="537.1784" y="330.542"/></g><g><title>PatientRepository</title><rect fill="#FFFFFF" height="22.2839" style="stroke:#181818;stroke-width:0.7813;" width="7.8125" x="537.1784" y="534.4482"/></g><g><title>PatientLocalRepository</title><rect fill="#FFFFFF" height="40.6616" style="stroke:#181818;stroke-width:0.7813;" width="7.8125" x="655.3326" y="189.5813"/></g><g><title>Auth Service .hap-auth.</title><rect fill="#FFFFFF" height="40.6616" style="stroke:#181818;stroke-width:0.7813;" width="7.8125" x="788.0772" y="471.5027"/></g><rect fill="none" height="496.7651" style="stroke:#000000;stroke-width:1.1719;" width="878.6453" x="7.8125" y="127.1912"/><rect fill="none" height="417.1875" style="stroke:#000000;stroke-width:1.1719;" width="863.0203" x="15.625" y="201.3"/><rect fill="none" height="270.7581" style="stroke:#000000;stroke-width:1.1719;" width="847.3953" x="23.4375" y="342.2607"/><rect fill="none" height="124.3286" style="stroke:#000000;stroke-width:1.1719;" width="831.7703" x="31.25" y="483.2214"/><g><title>User</title><rect fill="#000000" fill-opacity="0.00000" height="545.6116" width="6.25" x="49.8276" y="91.626"/><line style="stroke:#181818;stroke-width:0.3906;stroke-dasharray:3.9063,3.9063;" x1="52.3438" x2="52.3438" y1="91.626" y2="637.2375"/></g><g><title>PatientsController</title><rect fill="#000000" fill-opacity="0.00000" height="545.6116" width="6.25" x="272.3869" y="91.626"/><line style="stroke:#181818;stroke-width:0.3906;stroke-dasharray:3.9063,3.9063;" x1="275.0137" x2="275.0137" y1="91.626" y2="637.2375"/></g><g><title>PatientService</title><rect fill="#000000" fill-opacity="0.00000" height="545.6116" width="6.25" x="401.2489" y="91.626"/><line style="stroke:#181818;stroke-width:0.3906;stroke-dasharray:3.9063,3.9063;" x1="404.269" x2="404.269" y1="91.626" y2="637.2375"/></g><g><title>PatientRepository</title><rect fill="#000000" fill-opacity="0.00000" height="545.6116" width="6.25" x="537.9597" y="91.626"/><line style="stroke:#181818;stroke-width:0.3906;stroke-dasharray:3.9063,3.9063;" x1="540.8882" x2="540.8882" y1="91.626" y2="637.2375"/></g><g><title>PatientLocalRepository</title><rect fill="#000000" fill-opacity="0.00000" height="545.6116" width="6.25" x="656.1138" y="91.626"/><line style="stroke:#181818;stroke-width:0.3906;stroke-dasharray:3.9063,3.9063;" x1="658.4686" x2="658.4686" y1="91.626" y2="637.2375"/></g><g><title>Auth Service .hap-auth.</title><rect fill="#000000" fill-opacity="0.00000" height="545.6116" width="6.25" x="788.8584" y="91.626"/><line style="stroke:#181818;stroke-width:0.3906;stroke-dasharray:3.9063,3.9063;" x1="791.259" x2="791.259" y1="91.626" y2="637.2375"/></g><g><title>Peer Instance .Patients.</title><rect fill="#000000" fill-opacity="0.00000" height="545.6116" width="6.25" x="924.0303" y="91.626"/><line style="stroke:#181818;stroke-width:0.3906;stroke-dasharray:3.9063,3.9063;" x1="927.0828" x2="927.0828" y1="91.626" y2="637.2375"/></g><g class="participant participant-head" data-participant="User"><text fill="#000000" font-family="Arial" font-size="10.9375" lengthAdjust="spacing" textLength="23.0927" x="39.0625" y="89.3082">User</text><ellipse cx="52.9526" cy="39.1724" fill="#E2E2F0" rx="6.25" ry="6.25" style="stroke:#181818;stroke-width:0.3906;"/><path d="M52.9526,45.4224 L52.9526,66.5161 M42.7963,51.6724 L63.1088,51.6724 M52.9526,66.5161 L42.7963,78.2349 M52.9526,66.5161 L63.1088,78.2349" fill="none" style="stroke:#181818;stroke-width:0.3906;"/></g><g class="participant participant-tail" data-participant="User"><text fill="#000000" font-family="Arial" font-size="10.9375" lengthAdjust="spacing" textLength="23.0927" x="39.0625" y="646.3577">User</text><ellipse cx="52.9526" cy="655.3162" fill="#E2E2F0" rx="6.25" ry="6.25" style="stroke:#181818;stroke-width:0.3906;"/><path d="M52.9526,661.5662 L52.9526,682.6599 M42.7963,667.8162 L63.1088,667.8162 M52.9526,682.6599 L42.7963,694.3787 M52.9526,682.6599 L63.1088,694.3787" fill="none" style="stroke:#181818;stroke-width:0.3906;"/></g><g class="participant participant-head" data-participant="Controller"><rect fill="#E2E2F0" height="23.1567" rx="1.9531" ry="1.9531" style="stroke:#181818;stroke-width:0.3906;" width="97.8714" x="226.5762" y="67.688"/><text fill="#000000" font-family="Arial" font-size="10.9375" lengthAdjust="spacing" textLength="86.9339" x="232.045" y="83.0582">PatientsController</text></g><g class="participant participant-tail" data-participant="Controller"><rect fill="#E2E2F0" height="23.1567" rx="1.9531" ry="1.9531" style="stroke:#181818;stroke-width:0.3906;" width="97.8714" x="226.5762" y="636.4563"/><text fill="#000000" font-family="Arial" font-size="10.9375" lengthAdjust="spacing" textLength="86.9339" x="232.045" y="651.8265">PatientsController</text></g><g class="participant participant-head" data-participant="Service"><rect fill="#E2E2F0" height="23.1567" rx="1.9531" ry="1.9531" style="stroke:#181818;stroke-width:0.3906;" width="81.4598" x="363.644" y="67.688"/><text fill="#000000" font-family="Arial" font-size="10.9375" lengthAdjust="spacing" textLength="70.5223" x="369.1128" y="83.0582">PatientService</text></g><g class="participant participant-tail" data-participant="Service"><rect fill="#E2E2F0" height="23.1567" rx="1.9531" ry="1.9531" style="stroke:#181818;stroke-width:0.3906;" width="81.4598" x="363.644" y="636.4563"/><text fill="#000000" font-family="Arial" font-size="10.9375" lengthAdjust="spacing" textLength="70.5223" x="369.1128" y="651.8265">PatientService</text></g><g class="participant participant-head" data-participant="Repo"><rect fill="#E2E2F0" height="23.1567" rx="1.9531" ry="1.9531" style="stroke:#181818;stroke-width:0.3906;" width="97.2679" x="492.4507" y="67.688"/><text fill="#000000" font-family="Arial" font-size="10.9375" lengthAdjust="spacing" textLength="86.3304" x="497.9195" y="83.0582">PatientRepository</text></g><g class="participant participant-tail" data-participant="Repo"><rect fill="#E2E2F0" height="23.1567" rx="1.9531" ry="1.9531" style="stroke:#181818;stroke-width:0.3906;" width="97.2679" x="492.4507" y="636.4563"/><text fill="#000000" font-family="Arial" font-size="10.9375" lengthAdjust="spacing" textLength="86.3304" x="497.9195" y="651.8265">PatientRepository</text></g><g class="participant participant-head" data-participant="LocalCache"><rect fill="#E2E2F0" height="23.1567" rx="1.9531" ry="1.9531" style="stroke:#181818;stroke-width:0.3906;" width="123.4154" x="597.5311" y="67.688"/><text fill="#000000" font-family="Arial" font-size="10.9375" lengthAdjust="spacing" textLength="112.4779" x="602.9999" y="83.0582">PatientLocalRepository</text></g><g class="participant participant-tail" data-participant="LocalCache"><rect fill="#E2E2F0" height="23.1567" rx="1.9531" ry="1.9531" style="stroke:#181818;stroke-width:0.3906;" width="123.4154" x="597.5311" y="636.4563"/><text fill="#000000" font-family="Arial" font-size="10.9375" lengthAdjust="spacing" textLength="112.4779" x="602.9999" y="651.8265">PatientLocalRepository</text></g><g class="participant participant-head" data-participant="AUTH"><rect fill="#E2E2F0" height="23.1567" rx="1.9531" ry="1.9531" style="stroke:#181818;stroke-width:0.3906;" width="126.4488" x="728.759" y="67.688"/><text fill="#000000" font-family="Arial" font-size="10.9375" lengthAdjust="spacing" textLength="115.5113" x="734.2278" y="83.0582">Auth Service (hap-auth)</text></g><g class="participant participant-tail" data-participant="AUTH"><rect fill="#E2E2F0" height="23.1567" rx="1.9531" ry="1.9531" style="stroke:#181818;stroke-width:0.3906;" width="126.4488" x="728.759" y="636.4563"/><text fill="#000000" font-family="Arial" font-size="10.9375" lengthAdjust="spacing" textLength="115.5113" x="734.2278" y="651.8265">Auth Service (hap-auth)</text></g><g class="participant participant-head" data-participant="Peer"><rect fill="#E2E2F0" height="23.1567" rx="1.9531" ry="1.9531" style="stroke:#181818;stroke-width:0.3906;" width="128.27" x="863.0203" y="67.688"/><text fill="#000000" font-family="Arial" font-size="10.9375" lengthAdjust="spacing" textLength="117.3325" x="868.4891" y="83.0582">Peer Instance (Patients)</text></g><g class="participant participant-tail" data-participant="Peer"><rect fill="#E2E2F0" height="23.1567" rx="1.9531" ry="1.9531" style="stroke:#181818;stroke-width:0.3906;" width="128.27" x="863.0203" y="636.4563"/><text fill="#000000" font-family="Arial" font-size="10.9375" lengthAdjust="spacing" textLength="117.3325" x="868.4891" y="651.8265">Peer Instance (Patients)</text></g><g><title>PatientsController</title><rect fill="#FFFFFF" height="40.6616" style="stroke:#181818;stroke-width:0.7813;" width="7.8125" x="271.6057" y="115.4724"/></g><g><title>PatientService</title><rect fill="#FFFFFF" height="85.2295" style="stroke:#181818;stroke-width:0.7813;" width="7.8125" x="400.4677" y="308.2581"/></g><g><title>PatientRepository</title><rect fill="#FFFFFF" height="40.6616" style="stroke:#181818;stroke-width:0.7813;" width="7.8125" x="537.1784" y="330.542"/></g><g><title>PatientRepository</title><rect fill="#FFFFFF" height="22.2839" style="stroke:#181818;stroke-width:0.7813;" width="7.8125" x="537.1784" y="534.4482"/></g><g><title>PatientLocalRepository</title><rect fill="#FFFFFF" height="40.6616" style="stroke:#181818;stroke-width:0.7813;" width="7.8125" x="655.3326" y="189.5813"/></g><g><title>Auth Service .hap-auth.</title><rect fill="#FFFFFF" height="40.6616" style="stroke:#181818;stroke-width:0.7813;" width="7.8125" x="788.0772" y="471.5027"/></g><g class="message" data-participant-1="User" data-participant-2="Controller"><polygon fill="#181818" points="262.2307,112.3474,270.0432,115.4724,262.2307,118.5974,265.3557,115.4724" style="stroke:#181818;stroke-width:0.7813;"/><line style="stroke:#181818;stroke-width:0.7813;" x1="52.9526" x2="266.9182" y1="115.4724" y2="115.4724"/><text fill="#000000" font-family="Arial" font-size="10.1563" lengthAdjust="spacing" textLength="203.8094" x="58.4213" y="111.7577">POST /api/v2/patients/register { patient data }</text></g><path d="M7.8125,127.1912 L54.821,127.1912 L54.821,132.2876 L47.0085,140.1001 L7.8125,140.1001 L7.8125,127.1912" fill="#EEEEEE" style="stroke:#000000;stroke-width:1.1719;"/><rect fill="none" height="496.7651" style="stroke:#000000;stroke-width:1.1719;" width="878.6453" x="7.8125" y="127.1912"/><text fill="#000000" font-family="Arial" font-size="10.1563" font-weight="bold" lengthAdjust="spacing" textLength="11.8523" x="19.5313" y="137.1666">alt</text><text fill="#000000" font-family="Arial" font-size="8.5938" font-weight="bold" lengthAdjust="spacing" textLength="52.5024" x="66.5398" y="136.5334">[Wrong Port]</text><g class="message" data-participant-1="Controller" data-participant-2="User"><polygon fill="#181818" points="61.5463,153.009,53.7338,156.134,61.5463,159.259,58.4213,156.134" style="stroke:#181818;stroke-width:0.7813;"/><line style="stroke:#181818;stroke-width:0.7813;stroke-dasharray:1.5625,1.5625;" x1="56.8588" x2="274.7307" y1="156.134" y2="156.134"/><text fill="#000000" font-family="Arial" font-size="10.1563" lengthAdjust="spacing" textLength="78.4878" x="66.2338" y="152.4193">400 Bad Request</text></g><line style="stroke:#000000;stroke-width:0.7813;stroke-dasharray:1.5625,1.5625;" x1="7.8125" x2="886.4578" y1="163.1653" y2="163.1653"/><text fill="#000000" font-family="Arial" font-size="8.5938" font-weight="bold" lengthAdjust="spacing" textLength="45.8347" x="11.7188" y="170.945">[Valid Port]</text><g class="message" data-participant-1="Controller" data-participant-2="LocalCache"><polygon fill="#181818" points="645.9576,186.4563,653.7701,189.5813,645.9576,192.7063,649.0826,189.5813" style="stroke:#181818;stroke-width:0.7813;"/><line style="stroke:#181818;stroke-width:0.7813;" x1="275.5119" x2="650.6451" y1="189.5813" y2="189.5813"/><text fill="#000000" font-family="Arial" font-size="10.1563" lengthAdjust="spacing" textLength="94.2429" x="280.9807" y="185.8665">existsByEmail(email)</text></g><path d="M15.625,201.3 L62.6335,201.3 L62.6335,206.3965 L54.821,214.209 L15.625,214.209 L15.625,201.3" fill="#EEEEEE" style="stroke:#000000;stroke-width:1.1719;"/><rect fill="none" height="417.1875" style="stroke:#000000;stroke-width:1.1719;" width="863.0203" x="15.625" y="201.3"/><text fill="#000000" font-family="Arial" font-size="10.1563" font-weight="bold" lengthAdjust="spacing" textLength="11.8523" x="27.3438" y="211.2755">alt</text><text fill="#000000" font-family="Arial" font-size="8.5938" font-weight="bold" lengthAdjust="spacing" textLength="100.7835" x="74.3523" y="210.6422">[Already exists in cache]</text><g class="message" data-participant-1="LocalCache" data-participant-2="Controller"><polygon fill="#181818" points="284.1057,227.1179,276.2932,230.2429,284.1057,233.3679,280.9807,230.2429" style="stroke:#181818;stroke-width:0.7813;"/><line style="stroke:#181818;stroke-width:0.7813;stroke-dasharray:1.5625,1.5625;" x1="279.4182" x2="658.4576" y1="230.2429" y2="230.2429"/><text fill="#000000" font-family="Arial" font-size="10.1563" lengthAdjust="spacing" textLength="17.5007" x="288.7932" y="226.5282">true</text></g><g class="message" data-participant-1="Controller" data-participant-2="User"><polygon fill="#181818" points="61.5463,249.4019,53.7338,252.5269,61.5463,255.6519,58.4213,252.5269" style="stroke:#181818;stroke-width:0.7813;"/><line style="stroke:#181818;stroke-width:0.7813;stroke-dasharray:1.5625,1.5625;" x1="56.8588" x2="274.7307" y1="252.5269" y2="252.5269"/><text fill="#000000" font-family="Arial" font-size="10.1563" lengthAdjust="spacing" textLength="117.4118" x="66.2338" y="248.8121">409 Conflict (email in use)</text></g><line style="stroke:#000000;stroke-width:0.7813;stroke-dasharray:1.5625,1.5625;" x1="15.625" x2="878.6453" y1="259.5581" y2="259.5581"/><text fill="#000000" font-family="Arial" font-size="8.5938" font-weight="bold" lengthAdjust="spacing" textLength="56.8203" x="19.5313" y="267.3378">[Not in cache]</text><g class="message" data-participant-1="LocalCache" data-participant-2="Controller"><polygon fill="#181818" points="284.1057,282.8491,276.2932,285.9741,284.1057,289.0991,280.9807,285.9741" style="stroke:#181818;stroke-width:0.7813;"/><line style="stroke:#181818;stroke-width:0.7813;stroke-dasharray:1.5625,1.5625;" x1="279.4182" x2="658.4576" y1="285.9741" y2="285.9741"/><text fill="#000000" font-family="Arial" font-size="10.1563" lengthAdjust="spacing" textLength="21.4531" x="288.7932" y="282.2594">false</text></g><g class="message" data-participant-1="Controller" data-participant-2="Service"><polygon fill="#181818" points="391.0927,305.1331,398.9052,308.2581,391.0927,311.3831,394.2177,308.2581" style="stroke:#181818;stroke-width:0.7813;"/><line style="stroke:#181818;stroke-width:0.7813;" x1="275.5119" x2="395.7802" y1="308.2581" y2="308.2581"/><text fill="#000000" font-family="Arial" font-size="10.1563" lengthAdjust="spacing" textLength="86.3678" x="280.9807" y="304.5433">registerPatient(dto)</text></g><g class="message" data-participant-1="Service" data-participant-2="Repo"><polygon fill="#181818" points="527.8034,327.417,535.6159,330.542,527.8034,333.667,530.9284,330.542" style="stroke:#181818;stroke-width:0.7813;"/><line style="stroke:#181818;stroke-width:0.7813;" x1="408.2802" x2="532.4909" y1="330.542" y2="330.542"/><text fill="#000000" font-family="Arial" font-size="10.1563" lengthAdjust="spacing" textLength="94.2429" x="413.7489" y="326.8272">existsByEmail(email)</text></g><path d="M23.4375,342.2607 L70.446,342.2607 L70.446,347.3572 L62.6335,355.1697 L23.4375,355.1697 L23.4375,342.2607" fill="#EEEEEE" style="stroke:#000000;stroke-width:1.1719;"/><rect fill="none" height="270.7581" style="stroke:#000000;stroke-width:1.1719;" width="847.3953" x="23.4375" y="342.2607"/><text fill="#000000" font-family="Arial" font-size="10.1563" font-weight="bold" lengthAdjust="spacing" textLength="11.8523" x="35.1563" y="352.2362">alt</text><text fill="#000000" font-family="Arial" font-size="8.5938" font-weight="bold" lengthAdjust="spacing" textLength="55.8678" x="82.1648" y="351.6029">[Exists in DB]</text><g class="message" data-participant-1="Repo" data-participant-2="Service"><polygon fill="#181818" points="416.8739,368.0786,409.0614,371.2036,416.8739,374.3286,413.7489,371.2036" style="stroke:#181818;stroke-width:0.7813;"/><line style="stroke:#181818;stroke-width:0.7813;stroke-dasharray:1.5625,1.5625;" x1="412.1864" x2="540.3034" y1="371.2036" y2="371.2036"/><text fill="#000000" font-family="Arial" font-size="10.1563" lengthAdjust="spacing" textLength="17.5007" x="421.5614" y="367.4889">true</text></g><g class="message" data-participant-1="Service" data-participant-2="Controller"><polygon fill="#181818" points="284.1057,390.3625,276.2932,393.4875,284.1057,396.6125,280.9807,393.4875" style="stroke:#181818;stroke-width:0.7813;"/><line style="stroke:#181818;stroke-width:0.7813;stroke-dasharray:1.5625,1.5625;" x1="279.4182" x2="403.5927" y1="393.4875" y2="393.4875"/><text fill="#000000" font-family="Arial" font-size="10.1563" lengthAdjust="spacing" textLength="33.8657" x="288.7932" y="389.7728">Conflict</text></g><g class="message" data-participant-1="Controller" data-participant-2="User"><polygon fill="#181818" points="61.5463,412.6465,53.7338,415.7715,61.5463,418.8965,58.4213,415.7715" style="stroke:#181818;stroke-width:0.7813;"/><line style="stroke:#181818;stroke-width:0.7813;stroke-dasharray:1.5625,1.5625;" x1="56.8588" x2="274.7307" y1="415.7715" y2="415.7715"/><text fill="#000000" font-family="Arial" font-size="10.1563" lengthAdjust="spacing" textLength="53.6327" x="66.2338" y="412.0567">409 Conflict</text></g><line style="stroke:#000000;stroke-width:0.7813;stroke-dasharray:1.5625,1.5625;" x1="23.4375" x2="870.8328" y1="422.8027" y2="422.8027"/><text fill="#000000" font-family="Arial" font-size="8.5938" font-weight="bold" lengthAdjust="spacing" textLength="44.8654" x="27.3438" y="430.5824">[Not in DB]</text><g class="message" data-participant-1="Repo" data-participant-2="Service"><polygon fill="#181818" points="412.9677,446.0938,405.1552,449.2188,412.9677,452.3438,409.8427,449.2188" style="stroke:#181818;stroke-width:0.7813;"/><line style="stroke:#181818;stroke-width:0.7813;stroke-dasharray:1.5625,1.5625;" x1="408.2802" x2="540.3034" y1="449.2188" y2="449.2188"/><text fill="#000000" font-family="Arial" font-size="10.1563" lengthAdjust="spacing" textLength="21.4531" x="417.6552" y="445.504">false</text></g><g class="message" data-participant-1="Service" data-participant-2="AUTH"><polygon fill="#181818" points="778.7022,468.3777,786.5147,471.5027,778.7022,474.6277,781.8272,471.5027" style="stroke:#181818;stroke-width:0.7813;"/><line style="stroke:#181818;stroke-width:0.7813;" x1="404.3739" x2="783.3897" y1="471.5027" y2="471.5027"/><text fill="#000000" font-family="Arial" font-size="10.1563" lengthAdjust="spacing" textLength="244.9947" x="409.8427" y="467.7879">POST /api/public/register { username, password, role }</text></g><path d="M31.25,483.2214 L78.2585,483.2214 L78.2585,488.3179 L70.446,496.1304 L31.25,496.1304 L31.25,483.2214" fill="#EEEEEE" style="stroke:#000000;stroke-width:1.1719;"/><rect fill="none" height="124.3286" style="stroke:#000000;stroke-width:1.1719;" width="831.7703" x="31.25" y="483.2214"/><text fill="#000000" font-family="Arial" font-size="10.1563" font-weight="bold" lengthAdjust="spacing" textLength="11.8523" x="42.9688" y="493.1969">alt</text><text fill="#000000" font-family="Arial" font-size="8.5938" font-weight="bold" lengthAdjust="spacing" textLength="64.9357" x="89.9773" y="492.5636">[Auth accepted]</text><g class="message" data-participant-1="AUTH" data-participant-2="Service"><polygon fill="#181818" points="412.9677,509.0393,405.1552,512.1643,412.9677,515.2893,409.8427,512.1643" style="stroke:#181818;stroke-width:0.7813;"/><line style="stroke:#181818;stroke-width:0.7813;stroke-dasharray:1.5625,1.5625;" x1="408.2802" x2="791.2022" y1="512.1643" y2="512.1643"/><text fill="#000000" font-family="Arial" font-size="10.1563" lengthAdjust="spacing" textLength="99.3755" x="417.6552" y="508.4496">201 Created { userId }</text></g><g class="message" data-participant-1="Service" data-participant-2="Repo"><polygon fill="#181818" points="527.8034,531.3232,535.6159,534.4482,527.8034,537.5732,530.9284,534.4482" style="stroke:#181818;stroke-width:0.7813;"/><line style="stroke:#181818;stroke-width:0.7813;" x1="404.3739" x2="532.4909" y1="534.4482" y2="534.4482"/><text fill="#000000" font-family="Arial" font-size="10.1563" lengthAdjust="spacing" textLength="81.2897" x="409.8427" y="530.7335">save(new Patient)</text></g><g class="message" data-participant-1="Repo" data-participant-2="Service"><polygon fill="#181818" points="412.9677,553.6072,405.1552,556.7322,412.9677,559.8572,409.8427,556.7322" style="stroke:#181818;stroke-width:0.7813;"/><line style="stroke:#181818;stroke-width:0.7813;stroke-dasharray:1.5625,1.5625;" x1="408.2802" x2="540.3034" y1="556.7322" y2="556.7322"/><text fill="#000000" font-family="Arial" font-size="10.1563" lengthAdjust="spacing" textLength="114.0545" x="417.6552" y="553.0174">Patient Entity { patientId }</text></g><g class="message" data-participant-1="Service" data-participant-2="Controller"><polygon fill="#181818" points="284.1057,575.8911,276.2932,579.0161,284.1057,582.1411,280.9807,579.0161" style="stroke:#181818;stroke-width:0.7813;"/><line style="stroke:#181818;stroke-width:0.7813;stroke-dasharray:1.5625,1.5625;" x1="279.4182" x2="403.5927" y1="579.0161" y2="579.0161"/><text fill="#000000" font-family="Arial" font-size="10.1563" lengthAdjust="spacing" textLength="110.112" x="288.7932" y="575.3014">201 Created { patientId }</text></g><g class="message" data-participant-1="Controller" data-participant-2="User"><polygon fill="#181818" points="61.5463,598.175,53.7338,601.3,61.5463,604.425,58.4213,601.3" style="stroke:#181818;stroke-width:0.7813;"/><line style="stroke:#181818;stroke-width:0.7813;stroke-dasharray:1.5625,1.5625;" x1="56.8588" x2="274.7307" y1="601.3" y2="601.3"/><text fill="#000000" font-family="Arial" font-size="10.1563" lengthAdjust="spacing" textLength="110.112" x="66.2338" y="597.5853">201 Created { patientId }</text></g><!--SRC=[bLNDZjf03BxdAQozD54t0bRRGpaWyLTrfMgBbjtsx2O6HXsIT6Q0egfI7w9Fs2Uf9tzCig5B3mJYiJz__cmFhs1w-te0VtxzXWKQGOa1HMkXZUAtD87b37o9Hr8K1vx-Af8C5MuXpWGCtlGTYzvWd1v4ieOLIatEoOnMk9FcNPgOUzmIZ9L0wNb664cSVGXB-hQZ92AO2LpRYB3cyk1oyHUxBr94WUTXP585JvgKnpcCY4I6x7rLXkafvrAfbAIk03MSNZlTbwJs8gBSjVpTwVT0MQe5PpxchlQrq-z36g5iEUUsAKQR5lHuPpPLKl0tc8N8bY2F6Jyzlcyb859mbsY3LYw_AhTmjuUUPqM1SEJK34DOV5m-GWypqTlVzB8ogbSqcXr-G6c360t2JwklsACXLpcK1Zwhb1kyI9NnmCqGSi8yyH1k-tsOOCpgS5ErzOkf2uvuIE0JIX4NU2xQo96B8UaxqzIJutoBGlfadm7ZrgYEjcnbccEf2EDZ6GWYWQWy1HSvRCjarAvmSYWtmCyN_TQUh7Ww3HGCRTQTfg2DvqW0a8jmdvhBAHRBTJd7KJrSGwZwNOwD7vkqe5S3LTDlZLKSGzXPFjy79pvVYTp2NPZNwiyckH4AeB11gjQyKL4DvF1eIr49_ZpQBUEIbZr7Q7IfsQT_5NFgpelLZFBrRkncbbzlxbho0Ac4xynhNb2j3wcAhu5f4Qze0LUdoE-AqcOtm5uh64MK6OfBEnGPcunl-WEOyhQmMvdlBgxH6qKu6Rg6G-EU_8GErTKTrBvTCdIgLrtwyuJ_6uwdM-aSemRUsJ5fLlW2P7DopitEVq4werGUKrAqfFYsJ_lv2m00]--></g></svg>