<svg xmlns="http://www.w3.org/2000/svg" xmlns:xlink="http://www.w3.org/1999/xlink" contentStyleType="text/css" height="1254.6875px" preserveAspectRatio="none" style="width:2110px;height:1254px;background:#FFFFFF;" version="1.1" viewBox="0 0 2110 1254" width="2110.9375px" zoomAndPan="magnify"><title>C4: Sequence Diagram - Physician Peer Forwarding (Physicians)</title><defs/><g><text fill="#000000" font-family="Arial" font-size="21.875" font-weight="bold" lengthAdjust="spacing" textLength="673.4787" x="729.53" y="43.2404">C4: Sequence Diagram - Physician Peer Forwarding (Physicians)</text><rect fill="#FFFFFF" height="259.5947" style="stroke:#181818;stroke-width:1.5625;" width="15.625" x="375.5226" y="230.9448"/><rect fill="#FFFFFF" height="170.459" style="stroke:#181818;stroke-width:1.5625;" width="15.625" x="665.8829" y="275.5127"/><rect fill="#FFFFFF" height="81.3232" style="stroke:#181818;stroke-width:1.5625;" width="15.625" x="961.1084" y="320.0806"/><rect fill="#FFFFFF" height="259.5947" style="stroke:#181818;stroke-width:1.5625;" width="15.625" x="1298.8876" y="616.8823"/><rect fill="#FFFFFF" height="170.459" style="stroke:#181818;stroke-width:1.5625;" width="15.625" x="1620.8588" y="661.4502"/><rect fill="#FFFFFF" height="81.3232" style="stroke:#181818;stroke-width:1.5625;" width="15.625" x="1916.0843" y="706.0181"/><rect fill="none" height="567.334" style="stroke:#000000;stroke-width:2.34375;" width="2071.6011" x="31.25" y="536.3037"/><rect fill="none" height="318.6768" style="stroke:#000000;stroke-width:2.34375;" width="2040.3511" x="46.875" y="729.4556"/><rect fill="none" height="92.7124" style="stroke:#000000;stroke-width:2.34375;" width="1271.904" x="224.8711" y="944.4824"/><line style="stroke:#181818;stroke-width:0.78125;stroke-dasharray:5.0,5.0;" x1="93.75" x2="93.75" y1="183.252" y2="1130.2002"/><line style="stroke:#181818;stroke-width:0.78125;stroke-dasharray:5.0,5.0;" x1="382.6836" x2="382.6836" y1="183.252" y2="1130.2002"/><line style="stroke:#181818;stroke-width:0.78125;stroke-dasharray:5.0,5.0;" x1="673.0492" x2="673.0492" y1="183.252" y2="1130.2002"/><line style="stroke:#181818;stroke-width:0.78125;stroke-dasharray:5.0,5.0;" x1="968.0916" x2="968.0916" y1="183.252" y2="1130.2002"/><line style="stroke:#181818;stroke-width:0.78125;stroke-dasharray:5.0,5.0;" x1="1305.6877" x2="1305.6877" y1="183.252" y2="1130.2002"/><line style="stroke:#181818;stroke-width:0.78125;stroke-dasharray:5.0,5.0;" x1="1628.0251" x2="1628.0251" y1="183.252" y2="1130.2002"/><line style="stroke:#181818;stroke-width:0.78125;stroke-dasharray:5.0,5.0;" x1="1923.0675" x2="1923.0675" y1="183.252" y2="1130.2002"/><text fill="#000000" font-family="Arial" font-size="21.875" lengthAdjust="spacing" textLength="55.9265" x="62.5" y="178.6163">Client</text><ellipse cx="95.1508" cy="78.3447" fill="#E2E2F0" rx="12.5" ry="12.5" style="stroke:#181818;stroke-width:0.78125;"/><path d="M95.1508,90.8447 L95.1508,133.0322 M74.8383,103.3447 L115.4633,103.3447 M95.1508,133.0322 L74.8383,156.4697 M95.1508,133.0322 L115.4633,156.4697 " fill="none" style="stroke:#181818;stroke-width:0.78125;"/><text fill="#000000" font-family="Arial" font-size="21.875" lengthAdjust="spacing" textLength="55.9265" x="62.5" y="1148.4406">Client</text><ellipse cx="95.1508" cy="1166.3574" fill="#E2E2F0" rx="12.5" ry="12.5" style="stroke:#181818;stroke-width:0.78125;"/><path d="M95.1508,1178.8574 L95.1508,1221.0449 M74.8383,1191.3574 L115.4633,1191.3574 M95.1508,1221.0449 L74.8383,1244.4824 M95.1508,1221.0449 L115.4633,1244.4824 " fill="none" style="stroke:#181818;stroke-width:0.78125;"/><rect fill="#E2E2F0" height="46.3135" rx="3.9063" ry="3.9063" style="stroke:#181818;stroke-width:0.78125;" width="285.6781" x="240.4961" y="135.376"/><text fill="#000000" font-family="Arial" font-size="21.875" lengthAdjust="spacing" textLength="263.8031" x="251.4336" y="166.1163">PhysicianController (inst A)</text><rect fill="#E2E2F0" height="46.3135" rx="3.9063" ry="3.9063" style="stroke:#181818;stroke-width:0.78125;" width="285.6781" x="240.4961" y="1128.6377"/><text fill="#000000" font-family="Arial" font-size="21.875" lengthAdjust="spacing" textLength="263.8031" x="251.4336" y="1159.3781">PhysicianController (inst A)</text><rect fill="#E2E2F0" height="46.3135" rx="3.9063" ry="3.9063" style="stroke:#181818;stroke-width:0.78125;" width="263.7924" x="541.7992" y="135.376"/><text fill="#000000" font-family="Arial" font-size="21.875" lengthAdjust="spacing" textLength="241.9174" x="552.7367" y="166.1163">PhysicianService (inst A)</text><rect fill="#E2E2F0" height="46.3135" rx="3.9063" ry="3.9063" style="stroke:#181818;stroke-width:0.78125;" width="263.7924" x="541.7992" y="1128.6377"/><text fill="#000000" font-family="Arial" font-size="21.875" lengthAdjust="spacing" textLength="241.9174" x="552.7367" y="1159.3781">PhysicianService (inst A)</text><rect fill="#E2E2F0" height="46.3135" rx="3.9063" ry="3.9063" style="stroke:#181818;stroke-width:0.78125;" width="295.4086" x="821.2166" y="135.376"/><text fill="#000000" font-family="Arial" font-size="21.875" lengthAdjust="spacing" textLength="273.5336" x="832.1541" y="166.1163">PhysicianRepository (inst A)</text><rect fill="#E2E2F0" height="46.3135" rx="3.9063" ry="3.9063" style="stroke:#181818;stroke-width:0.78125;" width="295.4086" x="821.2166" y="1128.6377"/><text fill="#000000" font-family="Arial" font-size="21.875" lengthAdjust="spacing" textLength="273.5336" x="832.1541" y="1159.3781">PhysicianRepository (inst A)</text><rect fill="#E2E2F0" height="46.3135" rx="3.9063" ry="3.9063" style="stroke:#181818;stroke-width:0.78125;" width="348.8998" x="1132.2502" y="135.376"/><text fill="#000000" font-family="Arial" font-size="21.875" lengthAdjust="spacing" textLength="327.0248" x="1143.1877" y="166.1163">PhysicianController (inst B - peer)</text><rect fill="#E2E2F0" height="46.3135" rx="3.9063" ry="3.9063" style="stroke:#181818;stroke-width:0.78125;" width="348.8998" x="1132.2502" y="1128.6377"/><text fill="#000000" font-family="Arial" font-size="21.875" lengthAdjust="spacing" textLength="327.0248" x="1143.1877" y="1159.3781">PhysicianController (inst B - peer)</text><rect fill="#E2E2F0" height="46.3135" rx="3.9063" ry="3.9063" style="stroke:#181818;stroke-width:0.78125;" width="263.7924" x="1496.7751" y="135.376"/><text fill="#000000" font-family="Arial" font-size="21.875" lengthAdjust="spacing" textLength="241.9174" x="1507.7126" y="166.1163">PhysicianService (inst B)</text><rect fill="#E2E2F0" height="46.3135" rx="3.9063" ry="3.9063" style="stroke:#181818;stroke-width:0.78125;" width="263.7924" x="1496.7751" y="1128.6377"/><text fill="#000000" font-family="Arial" font-size="21.875" lengthAdjust="spacing" textLength="241.9174" x="1507.7126" y="1159.3781">PhysicianService (inst B)</text><rect fill="#E2E2F0" height="46.3135" rx="3.9063" ry="3.9063" style="stroke:#181818;stroke-width:0.78125;" width="295.4086" x="1776.1925" y="135.376"/><text fill="#000000" font-family="Arial" font-size="21.875" lengthAdjust="spacing" textLength="273.5336" x="1787.13" y="166.1163">PhysicianRepository (inst B)</text><rect fill="#E2E2F0" height="46.3135" rx="3.9063" ry="3.9063" style="stroke:#181818;stroke-width:0.78125;" width="295.4086" x="1776.1925" y="1128.6377"/><text fill="#000000" font-family="Arial" font-size="21.875" lengthAdjust="spacing" textLength="273.5336" x="1787.13" y="1159.3781">PhysicianRepository (inst B)</text><rect fill="#FFFFFF" height="259.5947" style="stroke:#181818;stroke-width:1.5625;" width="15.625" x="375.5226" y="230.9448"/><rect fill="#FFFFFF" height="170.459" style="stroke:#181818;stroke-width:1.5625;" width="15.625" x="665.8829" y="275.5127"/><rect fill="#FFFFFF" height="81.3232" style="stroke:#181818;stroke-width:1.5625;" width="15.625" x="961.1084" y="320.0806"/><rect fill="#FFFFFF" height="259.5947" style="stroke:#181818;stroke-width:1.5625;" width="15.625" x="1298.8876" y="616.8823"/><rect fill="#FFFFFF" height="170.459" style="stroke:#181818;stroke-width:1.5625;" width="15.625" x="1620.8588" y="661.4502"/><rect fill="#FFFFFF" height="81.3232" style="stroke:#181818;stroke-width:1.5625;" width="15.625" x="1916.0843" y="706.0181"/><polygon fill="#181818" points="356.7726,224.6948,372.3976,230.9448,356.7726,237.1948,363.0226,230.9448" style="stroke:#181818;stroke-width:1.5625;"/><line style="stroke:#181818;stroke-width:1.5625;" x1="95.1508" x2="366.1476" y1="230.9448" y2="230.9448"/><text fill="#000000" font-family="Arial" font-size="20.3125" font-weight="bold" lengthAdjust="spacing" textLength="11.2968" x="106.0883" y="223.5153">1</text><text fill="#000000" font-family="Arial" font-size="20.3125" lengthAdjust="spacing" textLength="182.9018" x="123.6351" y="223.5153">GET /physicians/{id}</text><polygon fill="#181818" points="647.1329,269.2627,662.7579,275.5127,647.1329,281.7627,653.3829,275.5127" style="stroke:#181818;stroke-width:1.5625;"/><line style="stroke:#181818;stroke-width:1.5625;" x1="391.1476" x2="656.5079" y1="275.5127" y2="275.5127"/><text fill="#000000" font-family="Arial" font-size="20.3125" font-weight="bold" lengthAdjust="spacing" textLength="11.2968" x="402.0851" y="268.0832">2</text><text fill="#000000" font-family="Arial" font-size="20.3125" lengthAdjust="spacing" textLength="206.5964" x="419.632" y="268.0832">getPhysicianDetails(id)</text><polygon fill="#181818" points="942.3584,313.8306,957.9834,320.0806,942.3584,326.3306,948.6084,320.0806" style="stroke:#181818;stroke-width:1.5625;"/><line style="stroke:#181818;stroke-width:1.5625;" x1="681.5079" x2="951.7334" y1="320.0806" y2="320.0806"/><text fill="#000000" font-family="Arial" font-size="20.3125" font-weight="bold" lengthAdjust="spacing" textLength="11.2968" x="692.4454" y="312.6511">3</text><text fill="#000000" font-family="Arial" font-size="20.3125" lengthAdjust="spacing" textLength="102.7328" x="709.9922" y="312.6511">findById(id)</text><polygon fill="#181818" points="698.6954,395.1538,683.0704,401.4038,698.6954,407.6538,692.4454,401.4038" style="stroke:#181818;stroke-width:1.5625;"/><line style="stroke:#181818;stroke-width:1.5625;stroke-dasharray:2.0,2.0;" x1="689.3204" x2="967.3584" y1="401.4038" y2="401.4038"/><text fill="#000000" font-family="Arial" font-size="20.3125" font-weight="bold" lengthAdjust="spacing" textLength="11.2968" x="708.0704" y="393.9743">4</text><text fill="#000000" font-family="Arial" font-size="20.3125" lengthAdjust="spacing" textLength="141.1263" x="725.6172" y="393.9743">Physician entity</text><polygon fill="#181818" points="408.3351,439.7217,392.7101,445.9717,408.3351,452.2217,402.0851,445.9717" style="stroke:#181818;stroke-width:1.5625;"/><line style="stroke:#181818;stroke-width:1.5625;stroke-dasharray:2.0,2.0;" x1="398.9601" x2="672.1329" y1="445.9717" y2="445.9717"/><text fill="#000000" font-family="Arial" font-size="20.3125" font-weight="bold" lengthAdjust="spacing" textLength="11.2968" x="417.7101" y="438.5422">5</text><text fill="#000000" font-family="Arial" font-size="20.3125" lengthAdjust="spacing" textLength="129.8096" x="435.257" y="438.5422">PhysicianDTO</text><polygon fill="#181818" points="112.3383,484.2896,96.7133,490.5396,112.3383,496.7896,106.0883,490.5396" style="stroke:#181818;stroke-width:1.5625;"/><line style="stroke:#181818;stroke-width:1.5625;stroke-dasharray:2.0,2.0;" x1="102.9633" x2="381.7726" y1="490.5396" y2="490.5396"/><text fill="#000000" font-family="Arial" font-size="20.3125" font-weight="bold" lengthAdjust="spacing" textLength="11.2968" x="121.7133" y="483.11">6</text><text fill="#000000" font-family="Arial" font-size="20.3125" lengthAdjust="spacing" textLength="221.8407" x="139.2601" y="483.11">200 OK + PhysicianDTO</text><path d="M31.25,536.3037 L144.429,536.3037 L144.429,546.4966 L128.804,562.1216 L31.25,562.1216 L31.25,536.3037 " fill="#EEEEEE" style="stroke:#000000;stroke-width:2.34375;"/><rect fill="none" height="567.334" style="stroke:#000000;stroke-width:2.34375;" width="2071.6011" x="31.25" y="536.3037"/><text fill="#000000" font-family="Arial" font-size="20.3125" font-weight="bold" lengthAdjust="spacing" textLength="42.8665" x="54.6875" y="556.2546">loop</text><text fill="#000000" font-family="Arial" font-size="17.1875" font-weight="bold" lengthAdjust="spacing" textLength="119.3893" x="167.8665" y="554.9881">[for each peer]</text><polygon fill="#181818" points="1280.1376,610.6323,1295.7626,616.8823,1280.1376,623.1323,1286.3876,616.8823" style="stroke:#181818;stroke-width:1.5625;"/><line style="stroke:#181818;stroke-width:1.5625;" x1="383.3351" x2="1289.5126" y1="616.8823" y2="616.8823"/><text fill="#000000" font-family="Arial" font-size="20.3125" font-weight="bold" lengthAdjust="spacing" textLength="11.2968" x="394.2726" y="598.1064">7</text><text fill="#000000" font-family="Arial" font-size="20.3125" lengthAdjust="spacing" textLength="313.842" x="411.8195" y="586.7599">HTTP GET /internal/physicians/{id}</text><text fill="#000000" font-family="Arial" font-size="20.3125" lengthAdjust="spacing" textLength="205.4657" x="411.8195" y="609.4528">(forward Authorization)</text><polygon fill="#181818" points="1602.1088,655.2002,1617.7338,661.4502,1602.1088,667.7002,1608.3588,661.4502" style="stroke:#181818;stroke-width:1.5625;"/><line style="stroke:#181818;stroke-width:1.5625;" x1="1314.5126" x2="1611.4838" y1="661.4502" y2="661.4502"/><text fill="#000000" font-family="Arial" font-size="20.3125" font-weight="bold" lengthAdjust="spacing" textLength="11.2968" x="1325.4501" y="654.0207">8</text><text fill="#000000" font-family="Arial" font-size="20.3125" lengthAdjust="spacing" textLength="206.5964" x="1342.997" y="654.0207">getPhysicianDetails(id)</text><polygon fill="#181818" points="1897.3343,699.7681,1912.9593,706.0181,1897.3343,712.2681,1903.5843,706.0181" style="stroke:#181818;stroke-width:1.5625;"/><line style="stroke:#181818;stroke-width:1.5625;" x1="1636.4838" x2="1906.7093" y1="706.0181" y2="706.0181"/><text fill="#000000" font-family="Arial" font-size="20.3125" font-weight="bold" lengthAdjust="spacing" textLength="11.2968" x="1647.4213" y="698.5886">9</text><text fill="#000000" font-family="Arial" font-size="20.3125" lengthAdjust="spacing" textLength="102.7328" x="1664.9681" y="698.5886">findById(id)</text><path d="M46.875,729.4556 L140.892,729.4556 L140.892,739.6484 L125.267,755.2734 L46.875,755.2734 L46.875,729.4556 " fill="#EEEEEE" style="stroke:#000000;stroke-width:2.34375;"/><rect fill="none" height="318.6768" style="stroke:#000000;stroke-width:2.34375;" width="2040.3511" x="46.875" y="729.4556"/><text fill="#000000" font-family="Arial" font-size="20.3125" font-weight="bold" lengthAdjust="spacing" textLength="23.7045" x="70.3125" y="749.4064">alt</text><text fill="#000000" font-family="Arial" font-size="17.1875" font-weight="bold" lengthAdjust="spacing" textLength="136.5097" x="164.3295" y="748.14">[Found in inst B]</text><polygon fill="#181818" points="1653.6713,781.0913,1638.0463,787.3413,1653.6713,793.5913,1647.4213,787.3413" style="stroke:#181818;stroke-width:1.5625;"/><line style="stroke:#181818;stroke-width:1.5625;stroke-dasharray:2.0,2.0;" x1="1644.2963" x2="1922.3343" y1="787.3413" y2="787.3413"/><text fill="#000000" font-family="Arial" font-size="20.3125" font-weight="bold" lengthAdjust="spacing" textLength="22.5937" x="1663.0463" y="779.9118">10</text><text fill="#000000" font-family="Arial" font-size="20.3125" lengthAdjust="spacing" textLength="141.1263" x="1691.89" y="779.9118">Physician entity</text><polygon fill="#181818" points="1331.7001,825.6592,1316.0751,831.9092,1331.7001,838.1592,1325.4501,831.9092" style="stroke:#181818;stroke-width:1.5625;"/><line style="stroke:#181818;stroke-width:1.5625;stroke-dasharray:2.0,2.0;" x1="1322.3251" x2="1627.1088" y1="831.9092" y2="831.9092"/><text fill="#000000" font-family="Arial" font-size="20.3125" font-weight="bold" lengthAdjust="spacing" textLength="22.5937" x="1341.0751" y="824.4797">11</text><text fill="#000000" font-family="Arial" font-size="20.3125" lengthAdjust="spacing" textLength="129.8096" x="1369.9188" y="824.4797">PhysicianDTO</text><polygon fill="#181818" points="400.5226,870.2271,384.8976,876.4771,400.5226,882.7271,394.2726,876.4771" style="stroke:#181818;stroke-width:1.5625;"/><line style="stroke:#181818;stroke-width:1.5625;stroke-dasharray:2.0,2.0;" x1="391.1476" x2="1305.1376" y1="876.4771" y2="876.4771"/><text fill="#000000" font-family="Arial" font-size="20.3125" font-weight="bold" lengthAdjust="spacing" textLength="22.5937" x="409.8976" y="869.0475">12</text><text fill="#000000" font-family="Arial" font-size="20.3125" lengthAdjust="spacing" textLength="221.8407" x="438.7413" y="869.0475">200 OK + PhysicianDTO</text><polygon fill="#181818" points="112.3383,914.7949,96.7133,921.0449,112.3383,927.2949,106.0883,921.0449" style="stroke:#181818;stroke-width:1.5625;"/><line style="stroke:#181818;stroke-width:1.5625;stroke-dasharray:2.0,2.0;" x1="102.9633" x2="381.7726" y1="921.0449" y2="921.0449"/><text fill="#000000" font-family="Arial" font-size="20.3125" font-weight="bold" lengthAdjust="spacing" textLength="22.5937" x="121.7133" y="913.6154">13</text><text fill="#000000" font-family="Arial" font-size="20.3125" lengthAdjust="spacing" textLength="221.8407" x="150.5569" y="913.6154">200 OK + PhysicianDTO</text><path d="M224.8711,944.4824 L349.3866,944.4824 L349.3866,954.6753 L333.7616,970.3003 L224.8711,970.3003 L224.8711,944.4824 " fill="#EEEEEE" style="stroke:#000000;stroke-width:2.34375;"/><rect fill="none" height="92.7124" style="stroke:#000000;stroke-width:2.34375;" width="1271.904" x="224.8711" y="944.4824"/><text fill="#000000" font-family="Arial" font-size="20.3125" font-weight="bold" lengthAdjust="spacing" textLength="54.203" x="248.3086" y="964.4333">break</text><line style="stroke:#000000;stroke-width:1.5625;stroke-dasharray:2.0,2.0;" x1="224.8711" x2="1496.7751" y1="971.8628" y2="971.8628"/><text fill="#000000" font-family="Arial" font-size="17.1875" font-weight="bold" lengthAdjust="spacing" textLength="165.1443" x="232.6836" y="987.4222">[Not found in inst B]</text><polygon fill="#181818" points="400.5226,1018.4448,384.8976,1024.6948,400.5226,1030.9448,394.2726,1024.6948" style="stroke:#181818;stroke-width:1.5625;"/><line style="stroke:#181818;stroke-width:1.5625;stroke-dasharray:2.0,2.0;" x1="391.1476" x2="1305.1376" y1="1024.6948" y2="1024.6948"/><text fill="#000000" font-family="Arial" font-size="20.3125" font-weight="bold" lengthAdjust="spacing" textLength="22.5937" x="409.8976" y="1017.2653">14</text><text fill="#000000" font-family="Arial" font-size="20.3125" lengthAdjust="spacing" textLength="134.3819" x="438.7413" y="1017.2653">404 Not Found</text><polygon fill="#181818" points="112.3383,1084.8877,96.7133,1091.1377,112.3383,1097.3877,106.0883,1091.1377" style="stroke:#181818;stroke-width:1.5625;"/><line style="stroke:#181818;stroke-width:1.5625;stroke-dasharray:2.0,2.0;" x1="102.9633" x2="381.7726" y1="1091.1377" y2="1091.1377"/><text fill="#000000" font-family="Arial" font-size="20.3125" font-weight="bold" lengthAdjust="spacing" textLength="22.5937" x="121.7133" y="1083.7082">15</text><text fill="#000000" font-family="Arial" font-size="20.3125" lengthAdjust="spacing" textLength="134.3819" x="150.5569" y="1083.7082">404 Not Found</text><!--SRC=[ZPNDRjf04CVlVeeH5q0H2gde9OTANfCqLQM0OewLgWqUO9Lbrrcl4z6gKX-YJzWdoUpQsCOE10u8pSvlvZzVeW_HvE8A_l_z1_FDBXDBmHMaY0PMshnoamYrXdWA0ybtQ30P1jcJK2atV0j9Ak3gyxXXoJOyqQyEMN6POUDbYYkUItkhbRtdMuJG22w3m0ehaIHSGupFEQebmbJmjID63K5p9-Ys5ZIedh9X4F2brGPwaHIeR0zu1b50MIqvf5nPw5NU4QKtMagADX0gin0ElVyy-XaUGM8qBu9a7Vh7H_qVCDMP846x5l9mCvyTfJh26DNlnb3fOsVfOvK-Tgu-rjJ7g9kvrIhVFg898XXzyRs1Q_Xwiu3Bj6hxvM-H_76T5o_SOj50x-c8s1Dhj5NMALekP3OGj40rvBhedHrKz8UubL09strBMivb_xYqj0cvIa0eA1eSG4MFwlJrzj1M2BiZhmGxuQ1m7zM5rfeNinOJ5q1K0X5vVngFOVOTBavXhZT8vm3tsj9PjRM_gwgRjWyBcfdRYGmoVooMJaYwkgJMgRjN86ZZNSYu5-eBOoJrRh6O5sCKog9HNBRd-KCDogk7CBSRRSGlReLMGn-kMH3R9s3bmDc9WH_2yHwEIxXOlFRW3w5oERsnim257Qf8erhIEqlWFfsMLo7YFHyTyiLKssnSWr4DXYVseXqXQaRuUAswU5XQ7mto9__xoAgnZse_hx39UEA3-n6SA0ZzQ_7T9wBuKp5eSwCm0GuROTl7r8xTEIAolW40]--></g></svg>