<svg xmlns="http://www.w3.org/2000/svg" xmlns:xlink="http://www.w3.org/1999/xlink" contentStyleType="text/css" height="1546.875px" preserveAspectRatio="none" style="width:2092px;height:1546px;background:#FFFFFF;" version="1.1" viewBox="0 0 2092 1546" width="2092.1875px" zoomAndPan="magnify"><title>C4: Sequence Diagram - View Future Appointments (ADMIN)</title><defs/><g><text fill="#000000" font-family="Arial" font-size="21.875" font-weight="bold" lengthAdjust="spacing" textLength="627.1439" x="731.0688" y="43.2404">C4: Sequence Diagram - View Future Appointments (ADMIN)</text><rect fill="#FFFFFF" height="81.3232" style="stroke:#181818;stroke-width:1.5625;" width="15.625" x="276.1757" y="298.2056"/><rect fill="#FFFFFF" height="192.7856" style="stroke:#181818;stroke-width:1.5625;" width="15.625" x="555.619" y="253.6377"/><rect fill="#FFFFFF" height="803.7964" style="stroke:#181818;stroke-width:1.5625;" width="15.625" x="873.6443" y="546.4966"/><rect fill="#FFFFFF" height="44.5679" style="stroke:#181818;stroke-width:1.5625;" width="15.625" x="1372.2206" y="591.0645"/><rect fill="#FFFFFF" height="81.3232" style="stroke:#181818;stroke-width:1.5625;" width="15.625" x="1676.5999" y="818.5913"/><rect fill="#FFFFFF" height="44.5679" style="stroke:#181818;stroke-width:1.5625;" width="15.625" x="1965.7852" y="1261.1572"/><rect fill="none" height="181.8481" style="stroke:#000000;stroke-width:2.34375;" width="683.194" x="15.625" y="321.6431"/><rect fill="none" height="494.2017" style="stroke:#000000;stroke-width:2.34375;" width="1169.6518" x="725.7622" y="723.9502"/><rect fill="none" height="446.5088" style="stroke:#000000;stroke-width:2.34375;" width="1138.4018" x="741.3872" y="760.7056"/><rect fill="none" height="267.041" style="stroke:#000000;stroke-width:2.34375;" width="1107.1518" x="757.0122" y="842.0288"/><line style="stroke:#181818;stroke-width:0.78125;stroke-dasharray:5.0,5.0;" x1="96.875" x2="96.875" y1="183.252" y2="1422.9858"/><line style="stroke:#181818;stroke-width:0.78125;stroke-dasharray:5.0,5.0;" x1="283.2611" x2="283.2611" y1="183.252" y2="1422.9858"/><line style="stroke:#181818;stroke-width:0.78125;stroke-dasharray:5.0,5.0;" x1="562.4191" x2="562.4191" y1="183.252" y2="1422.9858"/><line style="stroke:#181818;stroke-width:0.78125;stroke-dasharray:5.0,5.0;" x1="880.4497" x2="880.4497" y1="183.252" y2="1422.9858"/><line style="stroke:#181818;stroke-width:0.78125;stroke-dasharray:5.0,5.0;" x1="1378.8429" x2="1378.8429" y1="183.252" y2="1422.9858"/><line style="stroke:#181818;stroke-width:0.78125;stroke-dasharray:5.0,5.0;" x1="1684.3483" x2="1684.3483" y1="183.252" y2="1422.9858"/><line style="stroke:#181818;stroke-width:0.78125;stroke-dasharray:5.0,5.0;" x1="1973.539" x2="1973.539" y1="183.252" y2="1422.9858"/><text fill="#000000" font-family="Arial" font-size="21.875" lengthAdjust="spacing" textLength="124.0082" x="31.25" y="178.6163">Admin Client</text><ellipse cx="97.9416" cy="78.3447" fill="#E2E2F0" rx="12.5" ry="12.5" style="stroke:#181818;stroke-width:0.78125;"/><path d="M97.9416,90.8447 L97.9416,133.0322 M77.6291,103.3447 L118.2541,103.3447 M97.9416,133.0322 L77.6291,156.4697 M97.9416,133.0322 L118.2541,156.4697 " fill="none" style="stroke:#181818;stroke-width:0.78125;"/><text fill="#000000" font-family="Arial" font-size="21.875" lengthAdjust="spacing" textLength="124.0082" x="31.25" y="1441.2262">Admin Client</text><ellipse cx="97.9416" cy="1459.1431" fill="#E2E2F0" rx="12.5" ry="12.5" style="stroke:#181818;stroke-width:0.78125;"/><path d="M97.9416,1471.6431 L97.9416,1513.8306 M77.6291,1484.1431 L118.2541,1484.1431 M97.9416,1513.8306 L77.6291,1537.2681 M97.9416,1513.8306 L118.2541,1537.2681 " fill="none" style="stroke:#181818;stroke-width:0.78125;"/><rect fill="#E2E2F0" height="46.3135" rx="3.9063" ry="3.9063" style="stroke:#181818;stroke-width:0.78125;" width="170.2042" x="198.8861" y="135.376"/><text fill="#000000" font-family="Arial" font-size="21.875" lengthAdjust="spacing" textLength="148.3292" x="209.8236" y="166.1163">Spring Security</text><rect fill="#E2E2F0" height="46.3135" rx="3.9063" ry="3.9063" style="stroke:#181818;stroke-width:0.78125;" width="170.2042" x="198.8861" y="1421.4233"/><text fill="#000000" font-family="Arial" font-size="21.875" lengthAdjust="spacing" textLength="148.3292" x="209.8236" y="1452.1637">Spring Security</text><rect fill="#E2E2F0" height="46.3135" rx="3.9063" ry="3.9063" style="stroke:#181818;stroke-width:0.78125;" width="239.5248" x="443.6691" y="135.376"/><text fill="#000000" font-family="Arial" font-size="21.875" lengthAdjust="spacing" textLength="217.6498" x="454.6066" y="166.1163">AppointmentController</text><rect fill="#E2E2F0" height="46.3135" rx="3.9063" ry="3.9063" style="stroke:#181818;stroke-width:0.78125;" width="239.5248" x="443.6691" y="1421.4233"/><text fill="#000000" font-family="Arial" font-size="21.875" lengthAdjust="spacing" textLength="217.6498" x="454.6066" y="1452.1637">AppointmentController</text><rect fill="#E2E2F0" height="46.3135" rx="3.9063" ry="3.9063" style="stroke:#181818;stroke-width:0.78125;" width="217.6392" x="772.6372" y="135.376"/><text fill="#000000" font-family="Arial" font-size="21.875" lengthAdjust="spacing" textLength="195.7642" x="783.5747" y="166.1163">AppointmentService</text><rect fill="#E2E2F0" height="46.3135" rx="3.9063" ry="3.9063" style="stroke:#181818;stroke-width:0.78125;" width="217.6392" x="772.6372" y="1421.4233"/><text fill="#000000" font-family="Arial" font-size="21.875" lengthAdjust="spacing" textLength="195.7642" x="783.5747" y="1452.1637">AppointmentService</text><rect fill="#E2E2F0" height="46.3135" rx="3.9063" ry="3.9063" style="stroke:#181818;stroke-width:0.78125;" width="249.2554" x="1255.4054" y="135.376"/><text fill="#000000" font-family="Arial" font-size="21.875" lengthAdjust="spacing" textLength="227.3804" x="1266.3429" y="166.1163">AppointmentRepository</text><rect fill="#E2E2F0" height="46.3135" rx="3.9063" ry="3.9063" style="stroke:#181818;stroke-width:0.78125;" width="249.2554" x="1255.4054" y="1421.4233"/><text fill="#000000" font-family="Arial" font-size="21.875" lengthAdjust="spacing" textLength="227.3804" x="1266.3429" y="1452.1637">AppointmentRepository</text><rect fill="#ADD8E6" height="46.3135" rx="3.9063" ry="3.9063" style="stroke:#181818;stroke-width:0.78125;" width="328.2532" x="1520.2858" y="135.376"/><text fill="#000000" font-family="Arial" font-size="21.875" lengthAdjust="spacing" textLength="306.3782" x="1531.2233" y="166.1163">ExternalServiceClient (patients)</text><rect fill="#ADD8E6" height="46.3135" rx="3.9063" ry="3.9063" style="stroke:#181818;stroke-width:0.78125;" width="328.2532" x="1520.2858" y="1421.4233"/><text fill="#000000" font-family="Arial" font-size="21.875" lengthAdjust="spacing" textLength="306.3782" x="1531.2233" y="1452.1637">ExternalServiceClient (patients)</text><rect fill="#E2E2F0" height="46.3135" rx="3.9063" ry="3.9063" style="stroke:#181818;stroke-width:0.78125;" width="218.8675" x="1864.164" y="135.376"/><text fill="#000000" font-family="Arial" font-size="21.875" lengthAdjust="spacing" textLength="196.9925" x="1875.1015" y="166.1163">AppointmentMapper</text><rect fill="#E2E2F0" height="46.3135" rx="3.9063" ry="3.9063" style="stroke:#181818;stroke-width:0.78125;" width="218.8675" x="1864.164" y="1421.4233"/><text fill="#000000" font-family="Arial" font-size="21.875" lengthAdjust="spacing" textLength="196.9925" x="1875.1015" y="1452.1637">AppointmentMapper</text><rect fill="#FFFFFF" height="81.3232" style="stroke:#181818;stroke-width:1.5625;" width="15.625" x="276.1757" y="298.2056"/><rect fill="#FFFFFF" height="192.7856" style="stroke:#181818;stroke-width:1.5625;" width="15.625" x="555.619" y="253.6377"/><rect fill="#FFFFFF" height="803.7964" style="stroke:#181818;stroke-width:1.5625;" width="15.625" x="873.6443" y="546.4966"/><rect fill="#FFFFFF" height="44.5679" style="stroke:#181818;stroke-width:1.5625;" width="15.625" x="1372.2206" y="591.0645"/><rect fill="#FFFFFF" height="81.3232" style="stroke:#181818;stroke-width:1.5625;" width="15.625" x="1676.5999" y="818.5913"/><rect fill="#FFFFFF" height="44.5679" style="stroke:#181818;stroke-width:1.5625;" width="15.625" x="1965.7852" y="1261.1572"/><polygon fill="#181818" points="536.869,247.3877,552.494,253.6377,536.869,259.8877,543.119,253.6377" style="stroke:#181818;stroke-width:1.5625;"/><line style="stroke:#181818;stroke-width:1.5625;" x1="97.9416" x2="546.244" y1="253.6377" y2="253.6377"/><text fill="#000000" font-family="Arial" font-size="20.3125" font-weight="bold" lengthAdjust="spacing" textLength="11.2968" x="108.8791" y="234.8618">1</text><text fill="#000000" font-family="Arial" font-size="20.3125" lengthAdjust="spacing" textLength="268.7141" x="126.4259" y="223.5153">GET /appointments/upcoming</text><text fill="#000000" font-family="Arial" font-size="20.3125" lengthAdjust="spacing" textLength="213.3904" x="126.4259" y="246.2082">Authorization: Bearer ...</text><polygon fill="#181818" points="308.9882,291.9556,293.3632,298.2056,308.9882,304.4556,302.7382,298.2056" style="stroke:#181818;stroke-width:1.5625;"/><line style="stroke:#181818;stroke-width:1.5625;" x1="299.6132" x2="554.0565" y1="298.2056" y2="298.2056"/><text fill="#000000" font-family="Arial" font-size="20.3125" font-weight="bold" lengthAdjust="spacing" textLength="11.2968" x="318.3632" y="290.7761">2</text><text fill="#000000" font-family="Arial" font-size="20.3125" lengthAdjust="spacing" textLength="216.584" x="335.91" y="290.7761">hasAuthority('ADMIN') ?</text><path d="M15.625,321.6431 L109.642,321.6431 L109.642,331.8359 L94.017,347.4609 L15.625,347.4609 L15.625,321.6431 " fill="#EEEEEE" style="stroke:#000000;stroke-width:2.34375;"/><rect fill="none" height="181.8481" style="stroke:#000000;stroke-width:2.34375;" width="683.194" x="15.625" y="321.6431"/><text fill="#000000" font-family="Arial" font-size="20.3125" font-weight="bold" lengthAdjust="spacing" textLength="23.7045" x="39.0625" y="341.5939">alt</text><text fill="#000000" font-family="Arial" font-size="17.1875" font-weight="bold" lengthAdjust="spacing" textLength="101.1948" x="133.0795" y="340.3275">[Authorized]</text><polygon fill="#181818" points="536.869,373.2788,552.494,379.5288,536.869,385.7788,543.119,379.5288" style="stroke:#181818;stroke-width:1.5625;"/><line style="stroke:#181818;stroke-width:1.5625;stroke-dasharray:2.0,2.0;" x1="283.9882" x2="546.244" y1="379.5288" y2="379.5288"/><text fill="#000000" font-family="Arial" font-size="20.3125" font-weight="bold" lengthAdjust="spacing" textLength="11.2968" x="294.9257" y="372.0993">3</text><text fill="#000000" font-family="Arial" font-size="20.3125" lengthAdjust="spacing" textLength="46.2883" x="312.4725" y="372.0993">allow</text><line style="stroke:#000000;stroke-width:1.5625;stroke-dasharray:2.0,2.0;" x1="15.625" x2="698.819" y1="393.5913" y2="393.5913"/><text fill="#000000" font-family="Arial" font-size="17.1875" font-weight="bold" lengthAdjust="spacing" textLength="131.7513" x="23.4375" y="409.1507">[Not authorized]</text><polygon fill="#181818" points="115.1291,440.1733,99.5041,446.4233,115.1291,452.6733,108.8791,446.4233" style="stroke:#181818;stroke-width:1.5625;"/><line style="stroke:#181818;stroke-width:1.5625;stroke-dasharray:2.0,2.0;" x1="105.7541" x2="282.4257" y1="446.4233" y2="446.4233"/><text fill="#000000" font-family="Arial" font-size="20.3125" font-weight="bold" lengthAdjust="spacing" textLength="11.2968" x="124.5041" y="438.9938">4</text><text fill="#000000" font-family="Arial" font-size="20.3125" lengthAdjust="spacing" textLength="130.9998" x="142.0509" y="438.9938">403 Forbidden</text><polygon fill="#181818" points="265.2382,484.7412,280.8632,490.9912,265.2382,497.2412,271.4882,490.9912" style="stroke:#181818;stroke-width:1.5625;"/><line style="stroke:#181818;stroke-width:1.5625;stroke-dasharray:2.0,2.0;" x1="97.9416" x2="274.6132" y1="490.9912" y2="490.9912"/><text fill="#000000" font-family="Arial" font-size="20.3125" font-weight="bold" lengthAdjust="spacing" textLength="11.2968" x="108.8791" y="483.5617">5</text><text fill="#000000" font-family="Arial" font-size="20.3125" lengthAdjust="spacing" textLength="5.6435" x="126.4259" y="483.5617">&#160;</text><polygon fill="#181818" points="854.8943,540.2466,870.5193,546.4966,854.8943,552.7466,861.1443,546.4966" style="stroke:#181818;stroke-width:1.5625;"/><line style="stroke:#181818;stroke-width:1.5625;" x1="563.4315" x2="864.2693" y1="546.4966" y2="546.4966"/><text fill="#000000" font-family="Arial" font-size="20.3125" font-weight="bold" lengthAdjust="spacing" textLength="11.2968" x="574.369" y="539.0671">6</text><text fill="#000000" font-family="Arial" font-size="20.3125" lengthAdjust="spacing" textLength="254.0054" x="591.9159" y="539.0671">listUpcomingAppointments()</text><polygon fill="#181818" points="1353.4706,584.8145,1369.0956,591.0645,1353.4706,597.3145,1359.7206,591.0645" style="stroke:#181818;stroke-width:1.5625;"/><line style="stroke:#181818;stroke-width:1.5625;" x1="889.2693" x2="1362.8456" y1="591.0645" y2="591.0645"/><text fill="#000000" font-family="Arial" font-size="20.3125" font-weight="bold" lengthAdjust="spacing" textLength="11.2968" x="900.2068" y="583.6349">7</text><text fill="#000000" font-family="Arial" font-size="20.3125" lengthAdjust="spacing" textLength="435.717" x="917.7536" y="583.6349">findByDateTimeAfterOrderByDateTimeAsc(now)</text><polygon fill="#181818" points="906.4568,629.3823,890.8318,635.6323,906.4568,641.8823,900.2068,635.6323" style="stroke:#181818;stroke-width:1.5625;"/><line style="stroke:#181818;stroke-width:1.5625;stroke-dasharray:2.0,2.0;" x1="897.0818" x2="1378.4706" y1="635.6323" y2="635.6323"/><text fill="#000000" font-family="Arial" font-size="20.3125" font-weight="bold" lengthAdjust="spacing" textLength="11.2968" x="915.8318" y="628.2028">8</text><text fill="#000000" font-family="Arial" font-size="20.3125" lengthAdjust="spacing" textLength="250.6531" x="933.3786" y="628.2028">List&lt;Appointment&gt; (futuros)</text><line style="stroke:#181818;stroke-width:1.5625;" x1="889.2693" x2="954.8943" y1="680.2002" y2="680.2002"/><line style="stroke:#181818;stroke-width:1.5625;" x1="954.8943" x2="954.8943" y1="680.2002" y2="700.5127"/><line style="stroke:#181818;stroke-width:1.5625;" x1="890.8318" x2="954.8943" y1="700.5127" y2="700.5127"/><polygon fill="#181818" points="906.4568,694.2627,890.8318,700.5127,906.4568,706.7627,900.2068,700.5127" style="stroke:#181818;stroke-width:1.5625;"/><text fill="#000000" font-family="Arial" font-size="20.3125" font-weight="bold" lengthAdjust="spacing" textLength="11.2968" x="900.2068" y="672.7707">9</text><text fill="#000000" font-family="Arial" font-size="20.3125" lengthAdjust="spacing" textLength="283.3336" x="917.7536" y="672.7707">filter(a.status == SCHEDULED)</text><path d="M725.7622,723.9502 L838.9412,723.9502 L838.9412,734.1431 L823.3162,749.7681 L725.7622,749.7681 L725.7622,723.9502 " fill="#EEEEEE" style="stroke:#000000;stroke-width:2.34375;"/><rect fill="none" height="494.2017" style="stroke:#000000;stroke-width:2.34375;" width="1169.6518" x="725.7622" y="723.9502"/><text fill="#000000" font-family="Arial" font-size="20.3125" font-weight="bold" lengthAdjust="spacing" textLength="42.8665" x="749.1997" y="743.9011">loop</text><text fill="#000000" font-family="Arial" font-size="17.1875" font-weight="bold" lengthAdjust="spacing" textLength="203.3882" x="862.3787" y="742.6346">[for each Appointment a]</text><path d="M741.3872,760.7056 L835.4042,760.7056 L835.4042,770.8984 L819.7792,786.5234 L741.3872,786.5234 L741.3872,760.7056 " fill="#EEEEEE" style="stroke:#000000;stroke-width:2.34375;"/><rect fill="none" height="446.5088" style="stroke:#000000;stroke-width:2.34375;" width="1138.4018" x="741.3872" y="760.7056"/><text fill="#000000" font-family="Arial" font-size="20.3125" font-weight="bold" lengthAdjust="spacing" textLength="23.7045" x="764.8247" y="780.6564">alt</text><text fill="#000000" font-family="Arial" font-size="17.1875" font-weight="bold" lengthAdjust="spacing" textLength="298.9433" x="858.8417" y="779.39">[patientName/email/phone ausentes]</text><polygon fill="#181818" points="1657.8499,812.3413,1673.4749,818.5913,1657.8499,824.8413,1664.0999,818.5913" style="stroke:#181818;stroke-width:1.5625;"/><line style="stroke:#181818;stroke-width:1.5625;" x1="889.2693" x2="1667.2249" y1="818.5913" y2="818.5913"/><text fill="#000000" font-family="Arial" font-size="20.3125" font-weight="bold" lengthAdjust="spacing" textLength="22.5937" x="900.2068" y="811.1618">10</text><text fill="#000000" font-family="Arial" font-size="20.3125" lengthAdjust="spacing" textLength="240.5167" x="929.0504" y="811.1618">getPatientById(a.patientId)</text><path d="M757.0122,842.0288 L851.0292,842.0288 L851.0292,852.2217 L835.4042,867.8467 L757.0122,867.8467 L757.0122,842.0288 " fill="#EEEEEE" style="stroke:#000000;stroke-width:2.34375;"/><rect fill="none" height="267.041" style="stroke:#000000;stroke-width:2.34375;" width="1107.1518" x="757.0122" y="842.0288"/><text fill="#000000" font-family="Arial" font-size="20.3125" font-weight="bold" lengthAdjust="spacing" textLength="23.7045" x="780.4497" y="861.9797">alt</text><text fill="#000000" font-family="Arial" font-size="17.1875" font-weight="bold" lengthAdjust="spacing" textLength="80.2391" x="874.4667" y="860.7132">[sucesso]</text><polygon fill="#181818" points="906.4568,893.6646,890.8318,899.9146,906.4568,906.1646,900.2068,899.9146" style="stroke:#181818;stroke-width:1.5625;"/><line style="stroke:#181818;stroke-width:1.5625;stroke-dasharray:2.0,2.0;" x1="897.0818" x2="1682.8499" y1="899.9146" y2="899.9146"/><text fill="#000000" font-family="Arial" font-size="20.3125" font-weight="bold" lengthAdjust="spacing" textLength="22.5937" x="915.8318" y="892.485">11</text><text fill="#000000" font-family="Arial" font-size="20.3125" lengthAdjust="spacing" textLength="304.8462" x="944.6754" y="892.485">{ fullName, email, phoneNumber }</text><line style="stroke:#181818;stroke-width:1.5625;" x1="889.2693" x2="954.8943" y1="944.4824" y2="944.4824"/><line style="stroke:#181818;stroke-width:1.5625;" x1="954.8943" x2="954.8943" y1="944.4824" y2="964.7949"/><line style="stroke:#181818;stroke-width:1.5625;" x1="890.8318" x2="954.8943" y1="964.7949" y2="964.7949"/><polygon fill="#181818" points="906.4568,958.5449,890.8318,964.7949,906.4568,971.0449,900.2068,964.7949" style="stroke:#181818;stroke-width:1.5625;"/><text fill="#000000" font-family="Arial" font-size="20.3125" font-weight="bold" lengthAdjust="spacing" textLength="22.5937" x="900.2068" y="937.0529">12</text><text fill="#000000" font-family="Arial" font-size="20.3125" lengthAdjust="spacing" textLength="265.332" x="929.0504" y="937.0529">setPatientName/Email/Phone</text><line style="stroke:#000000;stroke-width:1.5625;stroke-dasharray:2.0,2.0;" x1="757.0122" x2="1864.164" y1="978.8574" y2="978.8574"/><text fill="#000000" font-family="Arial" font-size="17.1875" font-weight="bold" lengthAdjust="spacing" textLength="111.7439" x="764.8247" y="994.4168">[erro externo]</text><polygon fill="#181818" points="906.4568,1025.4395,890.8318,1031.6895,906.4568,1037.9395,900.2068,1031.6895" style="stroke:#181818;stroke-width:1.5625;"/><line style="stroke:#181818;stroke-width:1.5625;stroke-dasharray:2.0,2.0;" x1="897.0818" x2="1682.8499" y1="1031.6895" y2="1031.6895"/><text fill="#000000" font-family="Arial" font-size="20.3125" font-weight="bold" lengthAdjust="spacing" textLength="22.5937" x="915.8318" y="1024.2599">13</text><text fill="#000000" font-family="Arial" font-size="20.3125" lengthAdjust="spacing" textLength="86.953" x="944.6754" y="1024.2599">exception</text><line style="stroke:#181818;stroke-width:1.5625;" x1="889.2693" x2="954.8943" y1="1076.2573" y2="1076.2573"/><line style="stroke:#181818;stroke-width:1.5625;" x1="954.8943" x2="954.8943" y1="1076.2573" y2="1096.5698"/><line style="stroke:#181818;stroke-width:1.5625;" x1="890.8318" x2="954.8943" y1="1096.5698" y2="1096.5698"/><polygon fill="#181818" points="906.4568,1090.3198,890.8318,1096.5698,906.4568,1102.8198,900.2068,1096.5698" style="stroke:#181818;stroke-width:1.5625;"/><text fill="#000000" font-family="Arial" font-size="20.3125" font-weight="bold" lengthAdjust="spacing" textLength="22.5937" x="900.2068" y="1068.8278">14</text><text fill="#000000" font-family="Arial" font-size="20.3125" lengthAdjust="spacing" textLength="200.9232" x="929.0504" y="1068.8278">ignorar erro (try/catch)</text><line style="stroke:#000000;stroke-width:1.5625;stroke-dasharray:2.0,2.0;" x1="741.3872" x2="1879.789" y1="1121.5698" y2="1121.5698"/><text fill="#000000" font-family="Arial" font-size="17.1875" font-weight="bold" lengthAdjust="spacing" textLength="266.4902" x="749.1997" y="1137.1292">[dados de paciente j&#225; presentes]</text><line style="stroke:#181818;stroke-width:1.5625;" x1="889.2693" x2="954.8943" y1="1174.4019" y2="1174.4019"/><line style="stroke:#181818;stroke-width:1.5625;" x1="954.8943" x2="954.8943" y1="1174.4019" y2="1194.7144"/><line style="stroke:#181818;stroke-width:1.5625;" x1="890.8318" x2="954.8943" y1="1194.7144" y2="1194.7144"/><polygon fill="#181818" points="906.4568,1188.4644,890.8318,1194.7144,906.4568,1200.9644,900.2068,1194.7144" style="stroke:#181818;stroke-width:1.5625;"/><text fill="#000000" font-family="Arial" font-size="20.3125" font-weight="bold" lengthAdjust="spacing" textLength="22.5937" x="900.2068" y="1166.9724">15</text><text fill="#000000" font-family="Arial" font-size="20.3125" lengthAdjust="spacing" textLength="179.5097" x="929.0504" y="1166.9724">seguir para pr&#243;ximo</text><polygon fill="#181818" points="1947.0352,1254.9072,1962.6602,1261.1572,1947.0352,1267.4072,1953.2852,1261.1572" style="stroke:#181818;stroke-width:1.5625;"/><line style="stroke:#181818;stroke-width:1.5625;" x1="889.2693" x2="1956.4102" y1="1261.1572" y2="1261.1572"/><text fill="#000000" font-family="Arial" font-size="20.3125" font-weight="bold" lengthAdjust="spacing" textLength="22.5937" x="900.2068" y="1253.7277">16</text><text fill="#000000" font-family="Arial" font-size="20.3125" lengthAdjust="spacing" textLength="193.0283" x="929.0504" y="1253.7277">toListDTO(upcoming)</text><polygon fill="#181818" points="906.4568,1299.4751,890.8318,1305.7251,906.4568,1311.9751,900.2068,1305.7251" style="stroke:#181818;stroke-width:1.5625;"/><line style="stroke:#181818;stroke-width:1.5625;stroke-dasharray:2.0,2.0;" x1="897.0818" x2="1972.0352" y1="1305.7251" y2="1305.7251"/><text fill="#000000" font-family="Arial" font-size="20.3125" font-weight="bold" lengthAdjust="spacing" textLength="22.5937" x="915.8318" y="1298.2956">17</text><text fill="#000000" font-family="Arial" font-size="20.3125" lengthAdjust="spacing" textLength="243.869" x="944.6754" y="1298.2956">List&lt;AppointmentListDTO&gt;</text><polygon fill="#181818" points="580.619,1344.043,564.994,1350.293,580.619,1356.543,574.369,1350.293" style="stroke:#181818;stroke-width:1.5625;"/><line style="stroke:#181818;stroke-width:1.5625;stroke-dasharray:2.0,2.0;" x1="571.244" x2="879.8943" y1="1350.293" y2="1350.293"/><text fill="#000000" font-family="Arial" font-size="20.3125" font-weight="bold" lengthAdjust="spacing" textLength="22.5937" x="589.994" y="1342.8635">18</text><text fill="#000000" font-family="Arial" font-size="20.3125" lengthAdjust="spacing" textLength="243.869" x="618.8377" y="1342.8635">List&lt;AppointmentListDTO&gt;</text><polygon fill="#181818" points="115.1291,1388.6108,99.5041,1394.8608,115.1291,1401.1108,108.8791,1394.8608" style="stroke:#181818;stroke-width:1.5625;"/><line style="stroke:#181818;stroke-width:1.5625;stroke-dasharray:2.0,2.0;" x1="105.7541" x2="561.869" y1="1394.8608" y2="1394.8608"/><text fill="#000000" font-family="Arial" font-size="20.3125" font-weight="bold" lengthAdjust="spacing" textLength="22.5937" x="124.5041" y="1387.4313">19</text><text fill="#000000" font-family="Arial" font-size="20.3125" lengthAdjust="spacing" textLength="335.9001" x="153.3478" y="1387.4313">200 OK + List&lt;AppointmentListDTO&gt;</text><!--SRC=[ZLH1SXit4BplAwQKWvPbKvGJvyAobLgHAriLIs9vQPSFlensXoHi4400h2KcvIe_8X_8AG_84_IJl2G3x2wvZ2sNU2B1dfv6esSEOVBqqHFuzykVy5RG3PpLlhO4cJ5QABycvHsa4ZTagHeaxgDG1YskeJ82dlnyt3jnAwpqZL1BMA1qrFjdIWkifJ_Job_YcicjG9aaNdX9t7uC1VrMaoe9fWANeMBu7J7PzEBySf0aM7fjuI2hraB1H0h-zm3GmIJXhbwKmg3oS50O6pGLLDPM-4s45Fd_GBqE4rPfjPHa8pIx7rcG_IHAQc35lR3NPBGJhBNfdRtEPrVxuFpMarKeMyBcBf0QzE6B6yIw_DqSVf1YkVBNigPxkrsWCPtqYsp6DjLUgtfzJJP93c787tWvdy_W4Lkoh2sgkxyn7YSJ69xmVM4CB_8vZB3d-gWsfMQVb-zLLlkLjk9t5gVL64u9BLauEZeA3o8-eQVWMHR9s6TcMw5hY_mcFOpFTpY0NtRuy1meFNJKL2KGQuUT89HIt_1XHNj5n3c3I-q1lrKP2fyU_mHdsbwBgYBrDS7UGHP-M-B8gOHKjRLhbuXuf-QH6ikQQsO5TvB2-JUjI_t0feEUCSMMDAHY3DUrAz728kHSEz2MLV8KkPQzYEmXCDnW8LHrkfaoproiALjmPguORtjdhaoLlkatZ65h68QTqbUiz5bFuWcahO11qhSZrdPwpuJqbgKQdZddqTSyHPEN-VJDgtowfxQ8KYMhI_6eHJv_lWCFjfIvieBdlXH1X8PIgueJhNaGOXU3POX_wxJKsi22ZrdWghyH0FdLGdhQSGaRPaHh579aLbeHPyC56iSmW4PacAKnBCdFcfhJpNd5Qbk6Srvq0RjrWk7D0NTnTKdEwVWR8j7Mrp_u7QKC_Hz35F0OeeBBE7tmkQtfMTmHTxeYZTlAYbV9urLcWIXYO-R9MWqKryOtfT1jIIOCw0DxYgNIuNKZR-hjPbIYBrUD3s4MshvL36T5kyVvSFSN64jVMTnUPLcBy98M6NJtpwrO1xc1i3zWlBC8MzXqVXKRX772lM3nDcDAhqDy6PLsAwaVzx3n8l3UiBVL9tj9ZuiojEdspOEgU9YptQRvyVWOhdxbjVgWsado7m00]--></g></svg>