<svg xmlns="http://www.w3.org/2000/svg" xmlns:xlink="http://www.w3.org/1999/xlink" contentStyleType="text/css" data-diagram-type="SEQUENCE" height="552.3438px" preserveAspectRatio="none" style="width:599px;height:552px;background:#FFFFFF;" version="1.1" viewBox="0 0 599 552" width="599.2188px" zoomAndPan="magnify"><title>C4: Sequence Diagram - Login (Public)</title><defs/><g><text fill="#000000" font-family="Arial" font-size="10.9375" font-weight="bold" lengthAdjust="spacing" textLength="201.7616" x="199.5848" y="21.6202">C4: Sequence Diagram - Login (Public)</text><g><title>AuthController</title><rect fill="#FFFFFF" height="40.6616" style="stroke:#181818;stroke-width:0.7813;" width="7.8125" x="269.9921" y="115.4724"/></g><g><title>AuthService</title><rect fill="#FFFFFF" height="136.0474" style="stroke:#181818;stroke-width:0.7813;" width="7.8125" x="372.2931" y="189.5813"/></g><g><title>UserRepository</title><rect fill="#FFFFFF" height="40.6616" style="stroke:#181818;stroke-width:0.7813;" width="7.8125" x="531.2141" y="211.8652"/></g><rect fill="none" height="349.3713" style="stroke:#000000;stroke-width:1.1719;" width="586.0874" x="7.8125" y="127.1912"/><rect fill="none" height="247.5098" style="stroke:#000000;stroke-width:1.1719;" width="570.4624" x="15.625" y="223.584"/><rect fill="none" height="113.208" style="stroke:#000000;stroke-width:1.1719;" width="395.5284" x="23.4375" y="296.6858"/><g><title>User</title><rect fill="#000000" fill-opacity="0.00000" height="398.2178" width="6.25" x="42.0151" y="91.626"/><line style="stroke:#181818;stroke-width:0.3906;stroke-dasharray:3.9063,3.9063;" x1="44.5313" x2="44.5313" y1="91.626" y2="489.8438"/></g><g><title>AuthController</title><rect fill="#000000" fill-opacity="0.00000" height="398.2178" width="6.25" x="270.7733" y="91.626"/><line style="stroke:#181818;stroke-width:0.3906;stroke-dasharray:3.9063,3.9063;" x1="273.3166" x2="273.3166" y1="91.626" y2="489.8438"/></g><g><title>AuthService</title><rect fill="#000000" fill-opacity="0.00000" height="398.2178" width="6.25" x="373.0743" y="91.626"/><line style="stroke:#181818;stroke-width:0.3906;stroke-dasharray:3.9063,3.9063;" x1="375.6203" x2="375.6203" y1="91.626" y2="489.8438"/></g><g><title>UserRepository</title><rect fill="#000000" fill-opacity="0.00000" height="398.2178" width="6.25" x="531.9954" y="91.626"/><line style="stroke:#181818;stroke-width:0.3906;stroke-dasharray:3.9063,3.9063;" x1="534.9346" x2="534.9346" y1="91.626" y2="489.8438"/></g><g class="participant participant-head" data-participant="User"><text fill="#000000" font-family="Arial" font-size="10.9375" lengthAdjust="spacing" textLength="23.0927" x="31.25" y="89.3082">User</text><ellipse cx="45.1401" cy="39.1724" fill="#E2E2F0" rx="6.25" ry="6.25" style="stroke:#181818;stroke-width:0.3906;"/><path d="M45.1401,45.4224 L45.1401,66.5161 M34.9838,51.6724 L55.2963,51.6724 M45.1401,66.5161 L34.9838,78.2349 M45.1401,66.5161 L55.2963,78.2349" fill="none" style="stroke:#181818;stroke-width:0.3906;"/></g><g class="participant participant-tail" data-participant="User"><text fill="#000000" font-family="Arial" font-size="10.9375" lengthAdjust="spacing" textLength="23.0927" x="31.25" y="498.9639">User</text><ellipse cx="45.1401" cy="507.9224" fill="#E2E2F0" rx="6.25" ry="6.25" style="stroke:#181818;stroke-width:0.3906;"/><path d="M45.1401,514.1724 L45.1401,535.2661 M34.9838,520.4224 L55.2963,520.4224 M45.1401,535.2661 L34.9838,546.9849 M45.1401,535.2661 L55.2963,546.9849" fill="none" style="stroke:#181818;stroke-width:0.3906;"/></g><g class="participant participant-head" data-participant="Controller"><rect fill="#E2E2F0" height="23.1567" rx="1.9531" ry="1.9531" style="stroke:#181818;stroke-width:0.3906;" width="80.851" x="233.4728" y="67.688"/><text fill="#000000" font-family="Arial" font-size="10.9375" lengthAdjust="spacing" textLength="69.9135" x="238.9416" y="83.0582">AuthController</text></g><g class="participant participant-tail" data-participant="Controller"><rect fill="#E2E2F0" height="23.1567" rx="1.9531" ry="1.9531" style="stroke:#181818;stroke-width:0.3906;" width="80.851" x="233.4728" y="489.0625"/><text fill="#000000" font-family="Arial" font-size="10.9375" lengthAdjust="spacing" textLength="69.9135" x="238.9416" y="504.4327">AuthController</text></g><g class="participant participant-head" data-participant="Service"><rect fill="#E2E2F0" height="23.1567" rx="1.9531" ry="1.9531" style="stroke:#181818;stroke-width:0.3906;" width="69.9081" x="341.2453" y="67.688"/><text fill="#000000" font-family="Arial" font-size="10.9375" lengthAdjust="spacing" textLength="58.9706" x="346.714" y="83.0582">AuthService</text></g><g class="participant participant-tail" data-participant="Service"><rect fill="#E2E2F0" height="23.1567" rx="1.9531" ry="1.9531" style="stroke:#181818;stroke-width:0.3906;" width="69.9081" x="341.2453" y="489.0625"/><text fill="#000000" font-family="Arial" font-size="10.9375" lengthAdjust="spacing" textLength="58.9706" x="346.714" y="504.4327">AuthService</text></g><g class="participant participant-head" data-participant="Repo"><rect fill="#E2E2F0" height="23.1567" rx="1.9531" ry="1.9531" style="stroke:#181818;stroke-width:0.3906;" width="86.3091" x="491.9659" y="67.688"/><text fill="#000000" font-family="Arial" font-size="10.9375" lengthAdjust="spacing" textLength="75.3716" x="497.4346" y="83.0582">UserRepository</text></g><g class="participant participant-tail" data-participant="Repo"><rect fill="#E2E2F0" height="23.1567" rx="1.9531" ry="1.9531" style="stroke:#181818;stroke-width:0.3906;" width="86.3091" x="491.9659" y="489.0625"/><text fill="#000000" font-family="Arial" font-size="10.9375" lengthAdjust="spacing" textLength="75.3716" x="497.4346" y="504.4327">UserRepository</text></g><g><title>AuthController</title><rect fill="#FFFFFF" height="40.6616" style="stroke:#181818;stroke-width:0.7813;" width="7.8125" x="269.9921" y="115.4724"/></g><g><title>AuthService</title><rect fill="#FFFFFF" height="136.0474" style="stroke:#181818;stroke-width:0.7813;" width="7.8125" x="372.2931" y="189.5813"/></g><g><title>UserRepository</title><rect fill="#FFFFFF" height="40.6616" style="stroke:#181818;stroke-width:0.7813;" width="7.8125" x="531.2141" y="211.8652"/></g><g class="message" data-participant-1="User" data-participant-2="Controller"><polygon fill="#181818" points="260.6171,112.3474,268.4296,115.4724,260.6171,118.5974,263.7421,115.4724" style="stroke:#181818;stroke-width:0.7813;"/><line style="stroke:#181818;stroke-width:0.7813;" x1="45.1401" x2="265.3046" y1="115.4724" y2="115.4724"/><text fill="#000000" font-family="Arial" font-size="10.1563" lengthAdjust="spacing" textLength="210.0082" x="50.6088" y="111.7577">POST /api/public/login { username, password }</text></g><path d="M7.8125,127.1912 L54.821,127.1912 L54.821,132.2876 L47.0085,140.1001 L7.8125,140.1001 L7.8125,127.1912" fill="#EEEEEE" style="stroke:#000000;stroke-width:1.1719;"/><rect fill="none" height="349.3713" style="stroke:#000000;stroke-width:1.1719;" width="586.0874" x="7.8125" y="127.1912"/><text fill="#000000" font-family="Arial" font-size="10.1563" font-weight="bold" lengthAdjust="spacing" textLength="11.8523" x="19.5313" y="137.1666">alt</text><text fill="#000000" font-family="Arial" font-size="8.5938" font-weight="bold" lengthAdjust="spacing" textLength="52.5024" x="66.5398" y="136.5334">[Wrong Port]</text><g class="message" data-participant-1="Controller" data-participant-2="User"><polygon fill="#181818" points="53.7338,153.009,45.9213,156.134,53.7338,159.259,50.6088,156.134" style="stroke:#181818;stroke-width:0.7813;"/><line style="stroke:#181818;stroke-width:0.7813;stroke-dasharray:1.5625,1.5625;" x1="49.0463" x2="273.1171" y1="156.134" y2="156.134"/><text fill="#000000" font-family="Arial" font-size="10.1563" lengthAdjust="spacing" textLength="78.4878" x="58.4213" y="152.4193">400 Bad Request</text></g><line style="stroke:#000000;stroke-width:0.7813;stroke-dasharray:1.5625,1.5625;" x1="7.8125" x2="593.8999" y1="163.1653" y2="163.1653"/><text fill="#000000" font-family="Arial" font-size="8.5938" font-weight="bold" lengthAdjust="spacing" textLength="61.1214" x="11.7188" y="170.945">[Valid payload]</text><g class="message" data-participant-1="Controller" data-participant-2="Service"><polygon fill="#181818" points="362.9181,186.4563,370.7306,189.5813,362.9181,192.7063,366.0431,189.5813" style="stroke:#181818;stroke-width:0.7813;"/><line style="stroke:#181818;stroke-width:0.7813;" x1="273.8983" x2="367.6056" y1="189.5813" y2="189.5813"/><text fill="#000000" font-family="Arial" font-size="10.1563" lengthAdjust="spacing" textLength="77.3373" x="279.3671" y="185.8665">login(credentials)</text></g><g class="message" data-participant-1="Service" data-participant-2="Repo"><polygon fill="#181818" points="521.8391,208.7402,529.6516,211.8652,521.8391,214.9902,524.9641,211.8652" style="stroke:#181818;stroke-width:0.7813;"/><line style="stroke:#181818;stroke-width:0.7813;" x1="380.1056" x2="526.5266" y1="211.8652" y2="211.8652"/><text fill="#000000" font-family="Arial" font-size="10.1563" lengthAdjust="spacing" textLength="127.0027" x="385.5743" y="208.1505">findByUsername(username)</text></g><path d="M15.625,223.584 L62.6335,223.584 L62.6335,228.6804 L54.821,236.4929 L15.625,236.4929 L15.625,223.584" fill="#EEEEEE" style="stroke:#000000;stroke-width:1.1719;"/><rect fill="none" height="247.5098" style="stroke:#000000;stroke-width:1.1719;" width="570.4624" x="15.625" y="223.584"/><text fill="#000000" font-family="Arial" font-size="10.1563" font-weight="bold" lengthAdjust="spacing" textLength="11.8523" x="27.3438" y="233.5594">alt</text><text fill="#000000" font-family="Arial" font-size="8.5938" font-weight="bold" lengthAdjust="spacing" textLength="51.0799" x="74.3523" y="232.9262">[User found]</text><g class="message" data-participant-1="Repo" data-participant-2="Service"><polygon fill="#181818" points="388.6993,249.4019,380.8868,252.5269,388.6993,255.6519,385.5743,252.5269" style="stroke:#181818;stroke-width:0.7813;"/><line style="stroke:#181818;stroke-width:0.7813;stroke-dasharray:1.5625,1.5625;" x1="384.0118" x2="534.3391" y1="252.5269" y2="252.5269"/><text fill="#000000" font-family="Arial" font-size="10.1563" lengthAdjust="spacing" textLength="132.3586" x="393.3868" y="248.8121">User Entity (+passwordHash)</text></g><g class="message" data-participant-1="Service" data-participant-2="Service"><line style="stroke:#181818;stroke-width:0.7813;" x1="380.1056" x2="412.9181" y1="274.8108" y2="274.8108"/><line style="stroke:#181818;stroke-width:0.7813;" x1="412.9181" x2="412.9181" y1="274.8108" y2="284.967"/><line style="stroke:#181818;stroke-width:0.7813;" x1="380.8868" x2="412.9181" y1="284.967" y2="284.967"/><polygon fill="#181818" points="388.6993,281.842,380.8868,284.967,388.6993,288.092,385.5743,284.967" style="stroke:#181818;stroke-width:0.7813;"/><text fill="#000000" font-family="Arial" font-size="10.1563" lengthAdjust="spacing" textLength="75.6214" x="385.5743" y="271.096">verifyPassword()</text></g><path d="M23.4375,296.6858 L70.446,296.6858 L70.446,301.7822 L62.6335,309.5947 L23.4375,309.5947 L23.4375,296.6858" fill="#EEEEEE" style="stroke:#000000;stroke-width:1.1719;"/><rect fill="none" height="113.208" style="stroke:#000000;stroke-width:1.1719;" width="395.5284" x="23.4375" y="296.6858"/><text fill="#000000" font-family="Arial" font-size="10.1563" font-weight="bold" lengthAdjust="spacing" textLength="11.8523" x="35.1563" y="306.6612">alt</text><text fill="#000000" font-family="Arial" font-size="8.5938" font-weight="bold" lengthAdjust="spacing" textLength="74.4987" x="82.1648" y="306.028">[Credentials valid]</text><g class="message" data-participant-1="Service" data-participant-2="Controller"><polygon fill="#181818" points="282.4921,322.5037,274.6796,325.6287,282.4921,328.7537,279.3671,325.6287" style="stroke:#181818;stroke-width:0.7813;"/><line style="stroke:#181818;stroke-width:0.7813;stroke-dasharray:1.5625,1.5625;" x1="277.8046" x2="375.4181" y1="325.6287" y2="325.6287"/><text fill="#000000" font-family="Arial" font-size="10.1563" lengthAdjust="spacing" textLength="55.8891" x="287.1796" y="321.9139">Token { jwt }</text></g><g class="message" data-participant-1="Controller" data-participant-2="User"><polygon fill="#181818" points="53.7338,344.7876,45.9213,347.9126,53.7338,351.0376,50.6088,347.9126" style="stroke:#181818;stroke-width:0.7813;"/><line style="stroke:#181818;stroke-width:0.7813;stroke-dasharray:1.5625,1.5625;" x1="49.0463" x2="273.1171" y1="347.9126" y2="347.9126"/><text fill="#000000" font-family="Arial" font-size="10.1563" lengthAdjust="spacing" textLength="74.5354" x="58.4213" y="344.1978">200 OK { token }</text></g><line style="stroke:#000000;stroke-width:0.7813;stroke-dasharray:1.5625,1.5625;" x1="23.4375" x2="418.9659" y1="354.9438" y2="354.9438"/><text fill="#000000" font-family="Arial" font-size="8.5938" font-weight="bold" lengthAdjust="spacing" textLength="80.7091" x="27.3438" y="362.7235">[Invalid credentials]</text><g class="message" data-participant-1="Service" data-participant-2="Controller"><polygon fill="#181818" points="282.4921,378.2349,274.6796,381.3599,282.4921,384.4849,279.3671,381.3599" style="stroke:#181818;stroke-width:0.7813;"/><line style="stroke:#181818;stroke-width:0.7813;stroke-dasharray:1.5625,1.5625;" x1="277.8046" x2="375.4181" y1="381.3599" y2="381.3599"/><text fill="#000000" font-family="Arial" font-size="10.1563" lengthAdjust="spacing" textLength="83.551" x="287.1796" y="377.6451">Invalid Credentials</text></g><g class="message" data-participant-1="Controller" data-participant-2="User"><polygon fill="#181818" points="53.7338,400.5188,45.9213,403.6438,53.7338,406.7688,50.6088,403.6438" style="stroke:#181818;stroke-width:0.7813;"/><line style="stroke:#181818;stroke-width:0.7813;stroke-dasharray:1.5625,1.5625;" x1="49.0463" x2="273.1171" y1="403.6438" y2="403.6438"/><text fill="#000000" font-family="Arial" font-size="10.1563" lengthAdjust="spacing" textLength="103.318" x="58.4213" y="399.929">401 Invalid Credentials</text></g><line style="stroke:#000000;stroke-width:0.7813;stroke-dasharray:1.5625,1.5625;" x1="15.625" x2="586.0874" y1="416.1438" y2="416.1438"/><text fill="#000000" font-family="Arial" font-size="8.5938" font-weight="bold" lengthAdjust="spacing" textLength="66.8282" x="19.5313" y="423.9235">[User not found]</text><g class="message" data-participant-1="Service" data-participant-2="Controller"><polygon fill="#181818" points="282.4921,439.4348,274.6796,442.5598,282.4921,445.6848,279.3671,442.5598" style="stroke:#181818;stroke-width:0.7813;"/><line style="stroke:#181818;stroke-width:0.7813;stroke-dasharray:1.5625,1.5625;" x1="277.8046" x2="375.4181" y1="442.5598" y2="442.5598"/><text fill="#000000" font-family="Arial" font-size="10.1563" lengthAdjust="spacing" textLength="83.551" x="287.1796" y="438.8451">Invalid Credentials</text></g><g class="message" data-participant-1="Controller" data-participant-2="User"><polygon fill="#181818" points="53.7338,461.7188,45.9213,464.8438,53.7338,467.9688,50.6088,464.8438" style="stroke:#181818;stroke-width:0.7813;"/><line style="stroke:#181818;stroke-width:0.7813;stroke-dasharray:1.5625,1.5625;" x1="49.0463" x2="273.1171" y1="464.8438" y2="464.8438"/><text fill="#000000" font-family="Arial" font-size="10.1563" lengthAdjust="spacing" textLength="103.318" x="58.4213" y="461.129">401 Invalid Credentials</text></g><!--SRC=[bP51Rjim44NtEiKWcyf83Tk5k_4YG68tQD6YCUgaNK-baSs48LMIiY4K1Ng8d30doP2M8jfnq5g0056S_-VD_3Sm7P-EuF7l0tpHIw5WCODKOas6ybvYxuGgqU0zvAM0qVjXzCUkCDSRePPGeBGKtSoem4gwIwtSLxmdE3S2PP8uuIHnkmaiw5T5AYEO2LnwHRzfdiwhdr9alIJ1p6a3DvPCmgPEPA94vU3al7AhAHiRBIMP4q0BtV5bwOBCMcGKwfhltIBVuHkLsWhkLuSwVqmIVm7ziyWT9Z2_Mbp304inA0FeG0Ritr1njU9PtqA9rcwqoU6Fdq6iqL5CYDB13wDvQtDjN0AnVv_RXROJ60-7S84vi_2chA_BwP0TyURXEqgHS-DQQiptBC_QiTaqmAOP9qlASIIsnyNFhkrwu5d1OhyBLXP2vHVrJJDasawxemzhupCF68OeTAKy3MnD-ZieeU83KxWQqjDsPn_Hhdf14atR-EvWTKPhCgAevur1kbLxXcat9gpzWi9DvBAVxRM-8n_bxSPnTjlY2ADRZtyEf_QEKxlwp1ukU1rmYQBpDo6-JohmGHJClrXRoVI5v4ZYyN3qVsRxu27QW1-Sb7PTu4TZlm9zFF9hm1xNlqy0]--></g></svg>