<svg xmlns="http://www.w3.org/2000/svg" xmlns:xlink="http://www.w3.org/1999/xlink" contentStyleType="text/css" data-diagram-type="SEQUENCE" height="555px" preserveAspectRatio="none" style="width:762px;height:555px;background:#FFFFFF;" version="1.1" viewBox="0 0 762 555" width="762.1875px" zoomAndPan="magnify"><title>C4: Sequence Diagram - Get Patient Details (Admin)</title><defs/><g><text fill="#000000" font-family="Arial" font-size="13.125" font-weight="bold" lengthAdjust="spacing" textLength="323.8184" x="220.2058" y="25.9442">C4: Sequence Diagram - Get Patient Details (Admin)</text><g><title>PatientController</title><rect fill="#FFFFFF" height="324.6899" style="stroke:#181818;stroke-width:0.9375;" width="9.375" x="159.494" y="138.5669"/></g><g><title>PatientService</title><rect fill="#FFFFFF" height="102.2754" style="stroke:#181818;stroke-width:0.9375;" width="9.375" x="296.4226" y="254.2383"/></g><g><title>PatientRepository</title><rect fill="#FFFFFF" height="26.7407" style="stroke:#181818;stroke-width:0.9375;" width="9.375" x="413.0342" y="303.0322"/></g><g><title>PatientLocalRepository</title><rect fill="#FFFFFF" height="48.7939" style="stroke:#181818;stroke-width:0.9375;" width="9.375" x="554.8192" y="165.3076"/></g><g><title>Peer Instance</title><rect fill="#FFFFFF" height="26.7407" style="stroke:#181818;stroke-width:0.9375;" width="9.375" x="685.2992" y="396.6504"/></g><rect fill="none" height="258.0835" style="stroke:#000000;stroke-width:1.4063;" width="665.8026" x="89.9899" y="179.3701"/><rect fill="none" height="162.5903" style="stroke:#000000;stroke-width:1.4063;" width="647.0526" x="99.3649" y="268.3008"/><g><title>Administrator</title><rect fill="#000000" fill-opacity="0.00000" height="370.1807" width="7.5" x="42.4072" y="109.9512"/><line style="stroke:#181818;stroke-width:0.4688;stroke-dasharray:4.6875,4.6875;" x1="45.9375" x2="45.9375" y1="109.9512" y2="480.1318"/></g><g><title>PatientController</title><rect fill="#000000" fill-opacity="0.00000" height="370.1807" width="7.5" x="160.4315" y="109.9512"/><line style="stroke:#181818;stroke-width:0.4688;stroke-dasharray:4.6875,4.6875;" x1="164.0524" x2="164.0524" y1="109.9512" y2="480.1318"/></g><g><title>PatientService</title><rect fill="#000000" fill-opacity="0.00000" height="370.1807" width="7.5" x="297.3601" y="109.9512"/><line style="stroke:#181818;stroke-width:0.4688;stroke-dasharray:4.6875,4.6875;" x1="300.9842" x2="300.9842" y1="109.9512" y2="480.1318"/></g><g><title>PatientRepository</title><rect fill="#000000" fill-opacity="0.00000" height="370.1807" width="7.5" x="413.9717" y="109.9512"/><line style="stroke:#181818;stroke-width:0.4688;stroke-dasharray:4.6875,4.6875;" x1="417.486" x2="417.486" y1="109.9512" y2="480.1318"/></g><g><title>PatientLocalRepository</title><rect fill="#000000" fill-opacity="0.00000" height="370.1807" width="7.5" x="555.7567" y="109.9512"/><line style="stroke:#181818;stroke-width:0.4688;stroke-dasharray:4.6875,4.6875;" x1="558.5825" x2="558.5825" y1="109.9512" y2="480.1318"/></g><g><title>Peer Instance</title><rect fill="#000000" fill-opacity="0.00000" height="370.1807" width="7.5" x="686.2367" y="109.9512"/><line style="stroke:#181818;stroke-width:0.4688;stroke-dasharray:4.6875,4.6875;" x1="689.8059" x2="689.8059" y1="109.9512" y2="480.1318"/></g><g class="participant participant-head" data-participant="Admin"><text fill="#000000" font-family="Arial" font-size="13.125" lengthAdjust="spacing" textLength="77.3145" x="4.6875" y="107.1698">Administrator</text><ellipse cx="46.1572" cy="47.0068" fill="#E2E2F0" rx="7.5" ry="7.5" style="stroke:#181818;stroke-width:0.4688;"/><path d="M46.1572,54.5068 L46.1572,79.8193 M33.9697,62.0068 L58.3447,62.0068 M46.1572,79.8193 L33.9697,93.8818 M46.1572,79.8193 L58.3447,93.8818" fill="none" style="stroke:#181818;stroke-width:0.4688;"/></g><g class="participant participant-tail" data-participant="Admin"><text fill="#000000" font-family="Arial" font-size="13.125" lengthAdjust="spacing" textLength="77.3145" x="4.6875" y="491.076">Administrator</text><ellipse cx="46.1572" cy="501.8262" fill="#E2E2F0" rx="7.5" ry="7.5" style="stroke:#181818;stroke-width:0.4688;"/><path d="M46.1572,509.3262 L46.1572,534.6387 M33.9697,516.8262 L58.3447,516.8262 M46.1572,534.6387 L33.9697,548.7012 M46.1572,534.6387 L58.3447,548.7012" fill="none" style="stroke:#181818;stroke-width:0.4688;"/></g><g class="participant participant-head" data-participant="Controller"><rect fill="#E2E2F0" height="27.7881" rx="2.3438" ry="2.3438" style="stroke:#181818;stroke-width:0.4688;" width="110.8832" x="108.7399" y="81.2256"/><text fill="#000000" font-family="Arial" font-size="13.125" lengthAdjust="spacing" textLength="97.7582" x="115.3024" y="99.6698">PatientController</text></g><g class="participant participant-tail" data-participant="Controller"><rect fill="#E2E2F0" height="27.7881" rx="2.3438" ry="2.3438" style="stroke:#181818;stroke-width:0.4688;" width="110.8832" x="108.7399" y="479.1943"/><text fill="#000000" font-family="Arial" font-size="13.125" lengthAdjust="spacing" textLength="97.7582" x="115.3024" y="497.6385">PatientController</text></g><g class="participant participant-head" data-participant="Service"><rect fill="#E2E2F0" height="27.7881" rx="2.3438" ry="2.3438" style="stroke:#181818;stroke-width:0.4688;" width="97.7518" x="252.2342" y="81.2256"/><text fill="#000000" font-family="Arial" font-size="13.125" lengthAdjust="spacing" textLength="84.6268" x="258.7967" y="99.6698">PatientService</text></g><g class="participant participant-tail" data-participant="Service"><rect fill="#E2E2F0" height="27.7881" rx="2.3438" ry="2.3438" style="stroke:#181818;stroke-width:0.4688;" width="97.7518" x="252.2342" y="479.1943"/><text fill="#000000" font-family="Arial" font-size="13.125" lengthAdjust="spacing" textLength="84.6268" x="258.7967" y="497.6385">PatientService</text></g><g class="participant participant-head" data-participant="Repo"><rect fill="#E2E2F0" height="27.7881" rx="2.3438" ry="2.3438" style="stroke:#181818;stroke-width:0.4688;" width="116.7215" x="359.361" y="81.2256"/><text fill="#000000" font-family="Arial" font-size="13.125" lengthAdjust="spacing" textLength="103.5965" x="365.9235" y="99.6698">PatientRepository</text></g><g class="participant participant-tail" data-participant="Repo"><rect fill="#E2E2F0" height="27.7881" rx="2.3438" ry="2.3438" style="stroke:#181818;stroke-width:0.4688;" width="116.7215" x="359.361" y="479.1943"/><text fill="#000000" font-family="Arial" font-size="13.125" lengthAdjust="spacing" textLength="103.5965" x="365.9235" y="497.6385">PatientRepository</text></g><g class="participant participant-head" data-participant="LocalCache"><rect fill="#E2E2F0" height="27.7881" rx="2.3438" ry="2.3438" style="stroke:#181818;stroke-width:0.4688;" width="148.0984" x="485.4575" y="81.2256"/><text fill="#000000" font-family="Arial" font-size="13.125" lengthAdjust="spacing" textLength="134.9734" x="492.02" y="99.6698">PatientLocalRepository</text></g><g class="participant participant-tail" data-participant="LocalCache"><rect fill="#E2E2F0" height="27.7881" rx="2.3438" ry="2.3438" style="stroke:#181818;stroke-width:0.4688;" width="148.0984" x="485.4575" y="479.1943"/><text fill="#000000" font-family="Arial" font-size="13.125" lengthAdjust="spacing" textLength="134.9734" x="492.02" y="497.6385">PatientLocalRepository</text></g><g class="participant participant-head" data-participant="Peer"><rect fill="#E2E2F0" height="27.7881" rx="2.3438" ry="2.3438" style="stroke:#181818;stroke-width:0.4688;" width="94.1116" x="642.9309" y="81.2256"/><text fill="#000000" font-family="Arial" font-size="13.125" lengthAdjust="spacing" textLength="80.9866" x="649.4934" y="99.6698">Peer Instance</text></g><g class="participant participant-tail" data-participant="Peer"><rect fill="#E2E2F0" height="27.7881" rx="2.3438" ry="2.3438" style="stroke:#181818;stroke-width:0.4688;" width="94.1116" x="642.9309" y="479.1943"/><text fill="#000000" font-family="Arial" font-size="13.125" lengthAdjust="spacing" textLength="80.9866" x="649.4934" y="497.6385">Peer Instance</text></g><g><title>PatientController</title><rect fill="#FFFFFF" height="324.6899" style="stroke:#181818;stroke-width:0.9375;" width="9.375" x="159.494" y="138.5669"/></g><g><title>PatientService</title><rect fill="#FFFFFF" height="102.2754" style="stroke:#181818;stroke-width:0.9375;" width="9.375" x="296.4226" y="254.2383"/></g><g><title>PatientRepository</title><rect fill="#FFFFFF" height="26.7407" style="stroke:#181818;stroke-width:0.9375;" width="9.375" x="413.0342" y="303.0322"/></g><g><title>PatientLocalRepository</title><rect fill="#FFFFFF" height="48.7939" style="stroke:#181818;stroke-width:0.9375;" width="9.375" x="554.8192" y="165.3076"/></g><g><title>Peer Instance</title><rect fill="#FFFFFF" height="26.7407" style="stroke:#181818;stroke-width:0.9375;" width="9.375" x="685.2992" y="396.6504"/></g><g class="message" data-participant-1="Admin" data-participant-2="Controller"><polygon fill="#181818" points="148.244,134.8169,157.619,138.5669,148.244,142.3169,151.994,138.5669" style="stroke:#181818;stroke-width:0.9375;"/><line style="stroke:#181818;stroke-width:0.9375;" x1="46.1572" x2="153.869" y1="138.5669" y2="138.5669"/><text fill="#000000" font-family="Arial" font-size="12.1875" lengthAdjust="spacing" textLength="95.5243" x="52.7197" y="134.1092">GET /patients/{id}</text></g><g class="message" data-participant-1="Controller" data-participant-2="LocalCache"><polygon fill="#181818" points="543.5692,161.5576,552.9442,165.3076,543.5692,169.0576,547.3192,165.3076" style="stroke:#181818;stroke-width:0.9375;"/><line style="stroke:#181818;stroke-width:0.9375;" x1="168.869" x2="549.1942" y1="165.3076" y2="165.3076"/><text fill="#000000" font-family="Arial" font-size="12.1875" lengthAdjust="spacing" textLength="61.6397" x="175.4315" y="160.8499">findById(id)</text></g><path d="M89.9899,179.3701 L146.4001,179.3701 L146.4001,185.4858 L137.0251,194.8608 L89.9899,194.8608 L89.9899,179.3701" fill="#EEEEEE" style="stroke:#000000;stroke-width:1.4063;"/><rect fill="none" height="258.0835" style="stroke:#000000;stroke-width:1.4063;" width="665.8026" x="89.9899" y="179.3701"/><text fill="#000000" font-family="Arial" font-size="12.1875" font-weight="bold" lengthAdjust="spacing" textLength="14.2227" x="104.0524" y="191.3406">alt</text><text fill="#000000" font-family="Arial" font-size="10.3125" font-weight="bold" lengthAdjust="spacing" textLength="73.3305" x="160.4626" y="190.5807">[Found locally]</text><g class="message" data-participant-1="LocalCache" data-participant-2="Controller"><polygon fill="#181818" points="179.1815,210.3516,169.8065,214.1016,179.1815,217.8516,175.4315,214.1016" style="stroke:#181818;stroke-width:0.9375;"/><line style="stroke:#181818;stroke-width:0.9375;stroke-dasharray:1.875,1.875;" x1="173.5565" x2="558.5692" y1="214.1016" y2="214.1016"/><text fill="#000000" font-family="Arial" font-size="12.1875" lengthAdjust="spacing" textLength="100.9218" x="184.8065" y="209.6439">PatientDetailsDTO</text></g><line style="stroke:#000000;stroke-width:0.9375;stroke-dasharray:1.875,1.875;" x1="89.9899" x2="755.7925" y1="222.5391" y2="222.5391"/><text fill="#000000" font-family="Arial" font-size="10.3125" font-weight="bold" lengthAdjust="spacing" textLength="55.5455" x="94.6774" y="231.8747">[Not found]</text><g class="message" data-participant-1="Controller" data-participant-2="Service"><polygon fill="#181818" points="285.1726,250.4883,294.5476,254.2383,285.1726,257.9883,288.9226,254.2383" style="stroke:#181818;stroke-width:0.9375;"/><line style="stroke:#181818;stroke-width:0.9375;" x1="168.869" x2="290.7976" y1="254.2383" y2="254.2383"/><text fill="#000000" font-family="Arial" font-size="12.1875" lengthAdjust="spacing" textLength="109.7411" x="175.4315" y="249.7806">getPatientDetails(id)</text></g><path d="M99.3649,268.3008 L155.7751,268.3008 L155.7751,274.4165 L146.4001,283.7915 L99.3649,283.7915 L99.3649,268.3008" fill="#EEEEEE" style="stroke:#000000;stroke-width:1.4063;"/><rect fill="none" height="162.5903" style="stroke:#000000;stroke-width:1.4063;" width="647.0526" x="99.3649" y="268.3008"/><text fill="#000000" font-family="Arial" font-size="12.1875" font-weight="bold" lengthAdjust="spacing" textLength="14.2227" x="113.4274" y="280.2713">alt</text><text fill="#000000" font-family="Arial" font-size="10.3125" font-weight="bold" lengthAdjust="spacing" textLength="68.1541" x="169.8376" y="279.5114">[Found in DB]</text><g class="message" data-participant-1="Service" data-participant-2="Repo"><polygon fill="#181818" points="401.7842,299.2822,411.1592,303.0322,401.7842,306.7822,405.5342,303.0322" style="stroke:#181818;stroke-width:0.9375;"/><line style="stroke:#181818;stroke-width:0.9375;" x1="305.7976" x2="407.4092" y1="303.0322" y2="303.0322"/><text fill="#000000" font-family="Arial" font-size="12.1875" lengthAdjust="spacing" textLength="61.6397" x="312.3601" y="298.5745">findById(id)</text></g><g class="message" data-participant-1="Repo" data-participant-2="Service"><polygon fill="#181818" points="316.1101,326.0229,306.7351,329.7729,316.1101,333.5229,312.3601,329.7729" style="stroke:#181818;stroke-width:0.9375;"/><line style="stroke:#181818;stroke-width:0.9375;stroke-dasharray:1.875,1.875;" x1="310.4851" x2="416.7842" y1="329.7729" y2="329.7729"/><text fill="#000000" font-family="Arial" font-size="12.1875" lengthAdjust="spacing" textLength="71.8098" x="321.7351" y="325.3152">Patient Entity</text></g><g class="message" data-participant-1="Service" data-participant-2="Controller"><polygon fill="#181818" points="179.1815,352.7637,169.8065,356.5137,179.1815,360.2637,175.4315,356.5137" style="stroke:#181818;stroke-width:0.9375;"/><line style="stroke:#181818;stroke-width:0.9375;stroke-dasharray:1.875,1.875;" x1="173.5565" x2="300.1726" y1="356.5137" y2="356.5137"/><text fill="#000000" font-family="Arial" font-size="12.1875" lengthAdjust="spacing" textLength="100.9218" x="184.8065" y="352.056">PatientDetailsDTO</text></g><line style="stroke:#000000;stroke-width:0.9375;stroke-dasharray:1.875,1.875;" x1="99.3649" x2="746.4175" y1="364.9512" y2="364.9512"/><text fill="#000000" font-family="Arial" font-size="10.3125" font-weight="bold" lengthAdjust="spacing" textLength="90.5113" x="104.0524" y="374.2868">[Not found locally]</text><g class="message" data-participant-1="Controller" data-participant-2="Peer"><polygon fill="#181818" points="674.0492,392.9004,683.4242,396.6504,674.0492,400.4004,677.7992,396.6504" style="stroke:#181818;stroke-width:0.9375;"/><line style="stroke:#181818;stroke-width:0.9375;" x1="168.869" x2="679.6742" y1="396.6504" y2="396.6504"/><text fill="#000000" font-family="Arial" font-size="12.1875" lengthAdjust="spacing" textLength="130.73" x="175.4315" y="392.1927">HTTP GET /patients/{id}</text></g><g class="message" data-participant-1="Peer" data-participant-2="Controller"><polygon fill="#181818" points="179.1815,419.6411,169.8065,423.3911,179.1815,427.1411,175.4315,423.3911" style="stroke:#181818;stroke-width:0.9375;"/><line style="stroke:#181818;stroke-width:0.9375;stroke-dasharray:1.875,1.875;" x1="173.5565" x2="689.0492" y1="423.3911" y2="423.3911"/><text fill="#000000" font-family="Arial" font-size="12.1875" lengthAdjust="spacing" textLength="100.9218" x="184.8065" y="418.9334">PatientDetailsDTO</text></g><g class="message" data-participant-1="Controller" data-participant-2="Admin"><polygon fill="#181818" points="56.4697,459.5068,47.0947,463.2568,56.4697,467.0068,52.7197,463.2568" style="stroke:#181818;stroke-width:0.9375;"/><line style="stroke:#181818;stroke-width:0.9375;stroke-dasharray:1.875,1.875;" x1="50.8447" x2="163.244" y1="463.2568" y2="463.2568"/><text fill="#000000" font-family="Arial" font-size="12.1875" lengthAdjust="spacing" textLength="87.7226" x="62.0947" y="458.7991">200 OK + JSON</text></g><!--SRC=[dLFRRXCn47tVhnZrfQsgLLC4Btb0QhCj551QaVo0MK-IKHrxiMSJ8eJ4H_25V0cszn9l6XN4Ihk9nsVE6SyPdyBazSKL_Fxv2sR56DuXmwDWGirG80jI3iwkvPhqUUQUI5V2YZN8Yk3gpIY9k9MGPajw2GkX72Ox1Iv4hVZEQ9wADSAr9Q6oR4wiq6kFOOPVQzGbGa5Y6JBo5wl8HCd6GboHOol2IhWca7bDff8guJDFMeg9bxP6ARGd0RXV7aNFq6wen0Xj_n_5VSRAEFBYkmWDowEuJwOKwW0SOnDHhWwf4ItSQyT2jnM4I9R5iq7-DgaTl5UtSxYi6XLt-PtaZz0RsWZ6z919ZcVOItk61MbvixkNPoJFzxb9TK8nt9bQIr0Xg7OP-2VXo0-BQa_TkbRC7sA6n6Fiw2S5fePX4IGYy1Ia0Ur3k2R_-LOftnm6NIi55hcs6jY0s1YIy4MKJpcRFFnscy9QitKlQ8QTOKTQattjI-HX-R4l8QDdwYOY1llcU7EAcnWBJqVekOFlXttkO3rd79qk6ZFoGLdTJRZLJBphaSdv1Woz_BzPSq2L7d3eps046gzAPJp2jO9RufMf4zTyQjEVnfo_oJst9jw7CRoVpn-FJVkpJiRRqaLZylyreUT1FvRXJSloZCrz7CEhqGWUFi85V9WzJBE48Bb-Vm00]--></g></svg>