<svg xmlns="http://www.w3.org/2000/svg" xmlns:xlink="http://www.w3.org/1999/xlink" contentStyleType="text/css" height="1618.75px" preserveAspectRatio="none" style="width:1839px;height:1618px;background:#FFFFFF;" version="1.1" viewBox="0 0 1839 1618" width="1839.0625px" zoomAndPan="magnify"><title>C4: Sequence Diagram - Create Appointment Record</title><defs/><g><text fill="#000000" font-family="Arial" font-size="21.875" font-weight="bold" lengthAdjust="spacing" textLength="548.1995" x="647.1783" y="43.2404">C4: Sequence Diagram - Create Appointment Record</text><rect fill="#FFFFFF" height="81.3232" style="stroke:#181818;stroke-width:1.5625;" width="15.625" x="428.6469" y="298.2056"/><rect fill="#FFFFFF" height="215.4785" style="stroke:#181818;stroke-width:1.5625;" width="15.625" x="752.1271" y="253.6377"/><rect fill="#FFFFFF" height="372.6196" style="stroke:#181818;stroke-width:1.5625;" width="15.625" x="1263.3224" y="569.1895"/><rect fill="#FFFFFF" height="81.3232" style="stroke:#181818;stroke-width:1.5625;" width="15.625" x="1651.2581" y="636.4502"/><rect fill="none" height="204.541" style="stroke:#000000;stroke-width:2.34375;" width="914.9605" x="15.625" y="321.6431"/><rect fill="none" height="137.2803" style="stroke:#000000;stroke-width:2.34375;" width="717.0616" x="1111.4319" y="659.8877"/><rect fill="none" height="648.3765" style="stroke:#000000;stroke-width:2.34375;" width="1643.4456" x="15.625" y="819.043"/><line style="stroke:#181818;stroke-width:0.78125;stroke-dasharray:5.0,5.0;" x1="112.5" x2="112.5" y1="183.252" y2="1493.9819"/><line style="stroke:#181818;stroke-width:0.78125;stroke-dasharray:5.0,5.0;" x1="435.7323" x2="435.7323" y1="183.252" y2="1493.9819"/><line style="stroke:#181818;stroke-width:0.78125;stroke-dasharray:5.0,5.0;" x1="759.6062" x2="759.6062" y1="183.252" y2="1493.9819"/><line style="stroke:#181818;stroke-width:0.78125;stroke-dasharray:5.0,5.0;" x1="1270.8069" x2="1270.8069" y1="183.252" y2="1493.9819"/><line style="stroke:#181818;stroke-width:0.78125;stroke-dasharray:5.0,5.0;" x1="1658.3977" x2="1658.3977" y1="183.252" y2="1493.9819"/><text fill="#000000" font-family="Arial" font-size="21.875" lengthAdjust="spacing" textLength="155.6244" x="31.25" y="178.6163">Physician Client</text><ellipse cx="113.7497" cy="78.3447" fill="#E2E2F0" rx="12.5" ry="12.5" style="stroke:#181818;stroke-width:0.78125;"/><path d="M113.7497,90.8447 L113.7497,133.0322 M93.4372,103.3447 L134.0622,103.3447 M113.7497,133.0322 L93.4372,156.4697 M113.7497,133.0322 L134.0622,156.4697 " fill="none" style="stroke:#181818;stroke-width:0.78125;"/><text fill="#000000" font-family="Arial" font-size="21.875" lengthAdjust="spacing" textLength="155.6244" x="31.25" y="1512.2223">Physician Client</text><ellipse cx="113.7497" cy="1530.1392" fill="#E2E2F0" rx="12.5" ry="12.5" style="stroke:#181818;stroke-width:0.78125;"/><path d="M113.7497,1542.6392 L113.7497,1584.8267 M93.4372,1555.1392 L134.0622,1555.1392 M113.7497,1584.8267 L93.4372,1608.2642 M113.7497,1584.8267 L134.0622,1608.2642 " fill="none" style="stroke:#181818;stroke-width:0.78125;"/><rect fill="#E2E2F0" height="46.3135" rx="3.9063" ry="3.9063" style="stroke:#181818;stroke-width:0.78125;" width="170.2042" x="351.3573" y="135.376"/><text fill="#000000" font-family="Arial" font-size="21.875" lengthAdjust="spacing" textLength="148.3292" x="362.2948" y="166.1163">Spring Security</text><rect fill="#E2E2F0" height="46.3135" rx="3.9063" ry="3.9063" style="stroke:#181818;stroke-width:0.78125;" width="170.2042" x="351.3573" y="1492.4194"/><text fill="#000000" font-family="Arial" font-size="21.875" lengthAdjust="spacing" textLength="148.3292" x="362.2948" y="1523.1598">Spring Security</text><rect fill="#E2E2F0" height="46.3135" rx="3.9063" ry="3.9063" style="stroke:#181818;stroke-width:0.78125;" width="310.0418" x="604.9187" y="135.376"/><text fill="#000000" font-family="Arial" font-size="21.875" lengthAdjust="spacing" textLength="288.1668" x="615.8562" y="166.1163">AppointmentRecordController</text><rect fill="#E2E2F0" height="46.3135" rx="3.9063" ry="3.9063" style="stroke:#181818;stroke-width:0.78125;" width="310.0418" x="604.9187" y="1492.4194"/><text fill="#000000" font-family="Arial" font-size="21.875" lengthAdjust="spacing" textLength="288.1668" x="615.8562" y="1523.1598">AppointmentRecordController</text><rect fill="#E2E2F0" height="46.3135" rx="3.9063" ry="3.9063" style="stroke:#181818;stroke-width:0.78125;" width="288.1561" x="1127.0569" y="135.376"/><text fill="#000000" font-family="Arial" font-size="21.875" lengthAdjust="spacing" textLength="266.2811" x="1137.9944" y="166.1163">AppointmentRecordService</text><rect fill="#E2E2F0" height="46.3135" rx="3.9063" ry="3.9063" style="stroke:#181818;stroke-width:0.78125;" width="288.1561" x="1127.0569" y="1492.4194"/><text fill="#000000" font-family="Arial" font-size="21.875" lengthAdjust="spacing" textLength="266.2811" x="1137.9944" y="1523.1598">AppointmentRecordService</text><rect fill="#ADD8E6" height="46.3135" rx="3.9063" ry="3.9063" style="stroke:#181818;stroke-width:0.78125;" width="307.5958" x="1505.2727" y="135.376"/><text fill="#000000" font-family="Arial" font-size="21.875" lengthAdjust="spacing" textLength="285.7208" x="1516.2102" y="166.1163">hap-physicians API (external)</text><rect fill="#ADD8E6" height="46.3135" rx="3.9063" ry="3.9063" style="stroke:#181818;stroke-width:0.78125;" width="307.5958" x="1505.2727" y="1492.4194"/><text fill="#000000" font-family="Arial" font-size="21.875" lengthAdjust="spacing" textLength="285.7208" x="1516.2102" y="1523.1598">hap-physicians API (external)</text><rect fill="#FFFFFF" height="81.3232" style="stroke:#181818;stroke-width:1.5625;" width="15.625" x="428.6469" y="298.2056"/><rect fill="#FFFFFF" height="215.4785" style="stroke:#181818;stroke-width:1.5625;" width="15.625" x="752.1271" y="253.6377"/><rect fill="#FFFFFF" height="372.6196" style="stroke:#181818;stroke-width:1.5625;" width="15.625" x="1263.3224" y="569.1895"/><rect fill="#FFFFFF" height="81.3232" style="stroke:#181818;stroke-width:1.5625;" width="15.625" x="1651.2581" y="636.4502"/><polygon fill="#181818" points="733.3771,247.3877,749.0021,253.6377,733.3771,259.8877,739.6271,253.6377" style="stroke:#181818;stroke-width:1.5625;"/><line style="stroke:#181818;stroke-width:1.5625;" x1="113.7497" x2="742.7521" y1="253.6377" y2="253.6377"/><text fill="#000000" font-family="Arial" font-size="20.3125" font-weight="bold" lengthAdjust="spacing" textLength="11.2968" x="124.6872" y="234.8618">1</text><text fill="#000000" font-family="Arial" font-size="20.3125" lengthAdjust="spacing" textLength="496.8033" x="142.234" y="223.5153">POST /api/appointment-records/{appointmentId}/record</text><text fill="#000000" font-family="Arial" font-size="20.3125" lengthAdjust="spacing" textLength="538.559" x="142.234" y="246.2082">Authorization, X-User-Id, body: AppointmentRecordRequest</text><polygon fill="#181818" points="461.4594,291.9556,445.8344,298.2056,461.4594,304.4556,455.2094,298.2056" style="stroke:#181818;stroke-width:1.5625;"/><line style="stroke:#181818;stroke-width:1.5625;" x1="452.0844" x2="750.5646" y1="298.2056" y2="298.2056"/><text fill="#000000" font-family="Arial" font-size="20.3125" font-weight="bold" lengthAdjust="spacing" textLength="11.2968" x="470.8344" y="290.7761">2</text><text fill="#000000" font-family="Arial" font-size="20.3125" lengthAdjust="spacing" textLength="260.6209" x="488.3812" y="290.7761">hasAuthority('PHYSICIAN') ?</text><path d="M15.625,321.6431 L109.642,321.6431 L109.642,331.8359 L94.017,347.4609 L15.625,347.4609 L15.625,321.6431 " fill="#EEEEEE" style="stroke:#000000;stroke-width:2.34375;"/><rect fill="none" height="204.541" style="stroke:#000000;stroke-width:2.34375;" width="914.9605" x="15.625" y="321.6431"/><text fill="#000000" font-family="Arial" font-size="20.3125" font-weight="bold" lengthAdjust="spacing" textLength="23.7045" x="39.0625" y="341.5939">alt</text><text fill="#000000" font-family="Arial" font-size="17.1875" font-weight="bold" lengthAdjust="spacing" textLength="101.1948" x="133.0795" y="340.3275">[Authorized]</text><polygon fill="#181818" points="733.3771,373.2788,749.0021,379.5288,733.3771,385.7788,739.6271,379.5288" style="stroke:#181818;stroke-width:1.5625;"/><line style="stroke:#181818;stroke-width:1.5625;stroke-dasharray:2.0,2.0;" x1="436.4594" x2="742.7521" y1="379.5288" y2="379.5288"/><text fill="#000000" font-family="Arial" font-size="20.3125" font-weight="bold" lengthAdjust="spacing" textLength="11.2968" x="447.3969" y="372.0993">3</text><text fill="#000000" font-family="Arial" font-size="20.3125" lengthAdjust="spacing" textLength="46.2883" x="464.9437" y="372.0993">allow</text><line style="stroke:#000000;stroke-width:1.5625;stroke-dasharray:2.0,2.0;" x1="15.625" x2="930.5855" y1="393.5913" y2="393.5913"/><text fill="#000000" font-family="Arial" font-size="17.1875" font-weight="bold" lengthAdjust="spacing" textLength="131.7513" x="23.4375" y="409.1507">[Not authorized]</text><polygon fill="#181818" points="130.9372,462.8662,115.3122,469.1162,130.9372,475.3662,124.6872,469.1162" style="stroke:#181818;stroke-width:1.5625;"/><line style="stroke:#181818;stroke-width:1.5625;stroke-dasharray:2.0,2.0;" x1="121.5622" x2="434.8969" y1="469.1162" y2="469.1162"/><text fill="#000000" font-family="Arial" font-size="20.3125" font-weight="bold" lengthAdjust="spacing" textLength="11.2968" x="140.3122" y="450.3403">4</text><text fill="#000000" font-family="Arial" font-size="20.3125" lengthAdjust="spacing" textLength="267.6628" x="157.859" y="438.9938">403 Forbidden + {"error": "..."}</text><text fill="#000000" font-family="Arial" font-size="20.3125" lengthAdjust="spacing" textLength="151.2627" x="157.859" y="461.6867">(Spring Security)</text><polygon fill="#181818" points="417.7094,507.4341,433.3344,513.6841,417.7094,519.9341,423.9594,513.6841" style="stroke:#181818;stroke-width:1.5625;"/><line style="stroke:#181818;stroke-width:1.5625;stroke-dasharray:2.0,2.0;" x1="113.7497" x2="427.0844" y1="513.6841" y2="513.6841"/><text fill="#000000" font-family="Arial" font-size="20.3125" font-weight="bold" lengthAdjust="spacing" textLength="11.2968" x="124.6872" y="506.2546">5</text><text fill="#000000" font-family="Arial" font-size="20.3125" lengthAdjust="spacing" textLength="5.6435" x="142.234" y="506.2546">&#160;</text><polygon fill="#181818" points="1244.5724,562.9395,1260.1974,569.1895,1244.5724,575.4395,1250.8224,569.1895" style="stroke:#181818;stroke-width:1.5625;"/><line style="stroke:#181818;stroke-width:1.5625;" x1="759.9396" x2="1253.9474" y1="569.1895" y2="569.1895"/><text fill="#000000" font-family="Arial" font-size="20.3125" font-weight="bold" lengthAdjust="spacing" textLength="11.2968" x="770.8771" y="561.7599">6</text><text fill="#000000" font-family="Arial" font-size="20.3125" lengthAdjust="spacing" textLength="456.1485" x="788.4239" y="561.7599">createRecord(appointmentId, request, physicianId)</text><polygon fill="#181818" points="1632.5081,630.2002,1648.1331,636.4502,1632.5081,642.7002,1638.7581,636.4502" style="stroke:#181818;stroke-width:1.5625;"/><line style="stroke:#181818;stroke-width:1.5625;" x1="1278.9474" x2="1641.8831" y1="636.4502" y2="636.4502"/><text fill="#000000" font-family="Arial" font-size="20.3125" font-weight="bold" lengthAdjust="spacing" textLength="11.2968" x="1289.8849" y="617.6743">7</text><text fill="#000000" font-family="Arial" font-size="20.3125" lengthAdjust="spacing" textLength="322.9469" x="1307.4318" y="606.3278">GET /appointments/{appointmentId}</text><text fill="#000000" font-family="Arial" font-size="20.3125" lengthAdjust="spacing" textLength="149.6162" x="1307.4318" y="629.0207">(+ auth headers)</text><path d="M1111.4319,659.8877 L1205.4489,659.8877 L1205.4489,670.0806 L1189.8239,685.7056 L1111.4319,685.7056 L1111.4319,659.8877 " fill="#EEEEEE" style="stroke:#000000;stroke-width:2.34375;"/><rect fill="none" height="137.2803" style="stroke:#000000;stroke-width:2.34375;" width="717.0616" x="1111.4319" y="659.8877"/><text fill="#000000" font-family="Arial" font-size="20.3125" font-weight="bold" lengthAdjust="spacing" textLength="23.7045" x="1134.8694" y="679.8386">alt</text><text fill="#000000" font-family="Arial" font-size="17.1875" font-weight="bold" lengthAdjust="spacing" textLength="170.9267" x="1228.8864" y="678.5721">[Appointment exists]</text><polygon fill="#181818" points="1296.1349,711.5234,1280.5099,717.7734,1296.1349,724.0234,1289.8849,717.7734" style="stroke:#181818;stroke-width:1.5625;"/><line style="stroke:#181818;stroke-width:1.5625;stroke-dasharray:2.0,2.0;" x1="1286.7599" x2="1657.5081" y1="717.7734" y2="717.7734"/><text fill="#000000" font-family="Arial" font-size="20.3125" font-weight="bold" lengthAdjust="spacing" textLength="11.2968" x="1305.5099" y="710.3439">8</text><text fill="#000000" font-family="Arial" font-size="20.3125" lengthAdjust="spacing" textLength="206.0806" x="1323.0568" y="710.3439">200 OK + Appointment</text><line style="stroke:#000000;stroke-width:1.5625;stroke-dasharray:2.0,2.0;" x1="1111.4319" x2="1828.4935" y1="731.8359" y2="731.8359"/><text fill="#000000" font-family="Arial" font-size="17.1875" font-weight="bold" lengthAdjust="spacing" textLength="201.4076" x="1119.2444" y="747.3953">[Appointment not found]</text><polygon fill="#181818" points="1296.1349,778.418,1280.5099,784.668,1296.1349,790.918,1289.8849,784.668" style="stroke:#181818;stroke-width:1.5625;"/><line style="stroke:#181818;stroke-width:1.5625;stroke-dasharray:2.0,2.0;" x1="1286.7599" x2="1657.5081" y1="784.668" y2="784.668"/><text fill="#000000" font-family="Arial" font-size="20.3125" font-weight="bold" lengthAdjust="spacing" textLength="11.2968" x="1305.5099" y="777.2385">9</text><text fill="#000000" font-family="Arial" font-size="20.3125" lengthAdjust="spacing" textLength="134.3819" x="1323.0568" y="777.2385">404 Not Found</text><path d="M15.625,819.043 L109.642,819.043 L109.642,829.2358 L94.017,844.8608 L15.625,844.8608 L15.625,819.043 " fill="#EEEEEE" style="stroke:#000000;stroke-width:2.34375;"/><rect fill="none" height="648.3765" style="stroke:#000000;stroke-width:2.34375;" width="1643.4456" x="15.625" y="819.043"/><text fill="#000000" font-family="Arial" font-size="20.3125" font-weight="bold" lengthAdjust="spacing" textLength="23.7045" x="39.0625" y="838.9938">alt</text><text fill="#000000" font-family="Arial" font-size="17.1875" font-weight="bold" lengthAdjust="spacing" textLength="183.4061" x="133.0795" y="837.7274">[Created successfully]</text><line style="stroke:#181818;stroke-width:1.5625;" x1="1278.9474" x2="1344.5724" y1="876.9287" y2="876.9287"/><line style="stroke:#181818;stroke-width:1.5625;" x1="1344.5724" x2="1344.5724" y1="876.9287" y2="897.2412"/><line style="stroke:#181818;stroke-width:1.5625;" x1="1280.5099" x2="1344.5724" y1="897.2412" y2="897.2412"/><polygon fill="#181818" points="1296.1349,890.9912,1280.5099,897.2412,1296.1349,903.4912,1289.8849,897.2412" style="stroke:#181818;stroke-width:1.5625;"/><text fill="#000000" font-family="Arial" font-size="20.3125" font-weight="bold" lengthAdjust="spacing" textLength="22.5937" x="1289.8849" y="869.4992">10</text><text fill="#000000" font-family="Arial" font-size="20.3125" lengthAdjust="spacing" textLength="305.9669" x="1318.7286" y="869.4992">persistir novo AppointmentRecord</text><polygon fill="#181818" points="777.1271,935.5591,761.5021,941.8091,777.1271,948.0591,770.8771,941.8091" style="stroke:#181818;stroke-width:1.5625;"/><line style="stroke:#181818;stroke-width:1.5625;stroke-dasharray:2.0,2.0;" x1="767.7521" x2="1269.5724" y1="941.8091" y2="941.8091"/><text fill="#000000" font-family="Arial" font-size="20.3125" font-weight="bold" lengthAdjust="spacing" textLength="22.5937" x="786.5021" y="934.3796">11</text><text fill="#000000" font-family="Arial" font-size="20.3125" lengthAdjust="spacing" textLength="270.9953" x="815.3458" y="934.3796">AppointmentRecordResponse</text><polygon fill="#181818" points="130.9372,980.127,115.3122,986.377,130.9372,992.627,124.6872,986.377" style="stroke:#181818;stroke-width:1.5625;"/><line style="stroke:#181818;stroke-width:1.5625;stroke-dasharray:2.0,2.0;" x1="121.5622" x2="758.3771" y1="986.377" y2="986.377"/><text fill="#000000" font-family="Arial" font-size="20.3125" font-weight="bold" lengthAdjust="spacing" textLength="22.5937" x="140.3122" y="978.9474">12</text><text fill="#000000" font-family="Arial" font-size="20.3125" lengthAdjust="spacing" textLength="405.9425" x="169.1559" y="978.9474">201 Created + AppointmentRecordResponse</text><line style="stroke:#000000;stroke-width:1.5625;stroke-dasharray:2.0,2.0;" x1="15.625" x2="1659.0706" y1="1000.4395" y2="1000.4395"/><text fill="#000000" font-family="Arial" font-size="17.1875" font-weight="bold" lengthAdjust="spacing" textLength="174.7116" x="23.4375" y="1015.9988">[NotFoundException]</text><polygon fill="#181818" points="777.1271,1047.0215,761.5021,1053.2715,777.1271,1059.5215,770.8771,1053.2715" style="stroke:#181818;stroke-width:1.5625;"/><line style="stroke:#181818;stroke-width:1.5625;stroke-dasharray:2.0,2.0;" x1="767.7521" x2="1269.5724" y1="1053.2715" y2="1053.2715"/><text fill="#000000" font-family="Arial" font-size="20.3125" font-weight="bold" lengthAdjust="spacing" textLength="22.5937" x="786.5021" y="1045.842">13</text><text fill="#000000" font-family="Arial" font-size="20.3125" lengthAdjust="spacing" textLength="285.6247" x="815.3458" y="1045.842">throw NotFoundException(msg)</text><polygon fill="#181818" points="130.9372,1091.5894,115.3122,1097.8394,130.9372,1104.0894,124.6872,1097.8394" style="stroke:#181818;stroke-width:1.5625;"/><line style="stroke:#181818;stroke-width:1.5625;stroke-dasharray:2.0,2.0;" x1="121.5622" x2="758.3771" y1="1097.8394" y2="1097.8394"/><text fill="#000000" font-family="Arial" font-size="20.3125" font-weight="bold" lengthAdjust="spacing" textLength="22.5937" x="140.3122" y="1090.4099">14</text><text fill="#000000" font-family="Arial" font-size="20.3125" lengthAdjust="spacing" textLength="278.067" x="169.1559" y="1090.4099">404 Not Found + {"error": msg}</text><line style="stroke:#000000;stroke-width:1.5625;stroke-dasharray:2.0,2.0;" x1="15.625" x2="1659.0706" y1="1111.9019" y2="1111.9019"/><text fill="#000000" font-family="Arial" font-size="17.1875" font-weight="bold" lengthAdjust="spacing" textLength="203.3882" x="23.4375" y="1127.4612">[UnauthorizedException]</text><polygon fill="#181818" points="777.1271,1158.4839,761.5021,1164.7339,777.1271,1170.9839,770.8771,1164.7339" style="stroke:#181818;stroke-width:1.5625;"/><line style="stroke:#181818;stroke-width:1.5625;stroke-dasharray:2.0,2.0;" x1="767.7521" x2="1269.5724" y1="1164.7339" y2="1164.7339"/><text fill="#000000" font-family="Arial" font-size="20.3125" font-weight="bold" lengthAdjust="spacing" textLength="22.5937" x="786.5021" y="1157.3044">15</text><text fill="#000000" font-family="Arial" font-size="20.3125" lengthAdjust="spacing" textLength="317.244" x="815.3458" y="1157.3044">throw UnauthorizedException(msg)</text><polygon fill="#181818" points="130.9372,1203.0518,115.3122,1209.3018,130.9372,1215.5518,124.6872,1209.3018" style="stroke:#181818;stroke-width:1.5625;"/><line style="stroke:#181818;stroke-width:1.5625;stroke-dasharray:2.0,2.0;" x1="121.5622" x2="758.3771" y1="1209.3018" y2="1209.3018"/><text fill="#000000" font-family="Arial" font-size="20.3125" font-weight="bold" lengthAdjust="spacing" textLength="22.5937" x="140.3122" y="1201.8723">16</text><text fill="#000000" font-family="Arial" font-size="20.3125" lengthAdjust="spacing" textLength="274.6849" x="169.1559" y="1201.8723">403 Forbidden + {"error": msg}</text><line style="stroke:#000000;stroke-width:1.5625;stroke-dasharray:2.0,2.0;" x1="15.625" x2="1659.0706" y1="1223.3643" y2="1223.3643"/><text fill="#000000" font-family="Arial" font-size="17.1875" font-weight="bold" lengthAdjust="spacing" textLength="261.6646" x="23.4375" y="1238.9236">[IllegalStateException (conflict)]</text><polygon fill="#181818" points="777.1271,1269.9463,761.5021,1276.1963,777.1271,1282.4463,770.8771,1276.1963" style="stroke:#181818;stroke-width:1.5625;"/><line style="stroke:#181818;stroke-width:1.5625;stroke-dasharray:2.0,2.0;" x1="767.7521" x2="1269.5724" y1="1276.1963" y2="1276.1963"/><text fill="#000000" font-family="Arial" font-size="20.3125" font-weight="bold" lengthAdjust="spacing" textLength="22.5937" x="786.5021" y="1268.7668">17</text><text fill="#000000" font-family="Arial" font-size="20.3125" lengthAdjust="spacing" textLength="296.9215" x="815.3458" y="1268.7668">throw IllegalStateException(msg)</text><polygon fill="#181818" points="130.9372,1314.5142,115.3122,1320.7642,130.9372,1327.0142,124.6872,1320.7642" style="stroke:#181818;stroke-width:1.5625;"/><line style="stroke:#181818;stroke-width:1.5625;stroke-dasharray:2.0,2.0;" x1="121.5622" x2="758.3771" y1="1320.7642" y2="1320.7642"/><text fill="#000000" font-family="Arial" font-size="20.3125" font-weight="bold" lengthAdjust="spacing" textLength="22.5937" x="140.3122" y="1313.3347">18</text><text fill="#000000" font-family="Arial" font-size="20.3125" lengthAdjust="spacing" textLength="250.9506" x="169.1559" y="1313.3347">409 Conflict + {"error": msg}</text><line style="stroke:#000000;stroke-width:1.5625;stroke-dasharray:2.0,2.0;" x1="15.625" x2="1659.0706" y1="1334.8267" y2="1334.8267"/><text fill="#000000" font-family="Arial" font-size="17.1875" font-weight="bold" lengthAdjust="spacing" textLength="195.7848" x="23.4375" y="1350.386">[Unexpected Exception]</text><polygon fill="#181818" points="777.1271,1381.4087,761.5021,1387.6587,777.1271,1393.9087,770.8771,1387.6587" style="stroke:#181818;stroke-width:1.5625;"/><line style="stroke:#181818;stroke-width:1.5625;stroke-dasharray:2.0,2.0;" x1="767.7521" x2="1269.5724" y1="1387.6587" y2="1387.6587"/><text fill="#000000" font-family="Arial" font-size="20.3125" font-weight="bold" lengthAdjust="spacing" textLength="22.5937" x="786.5021" y="1380.2292">19</text><text fill="#000000" font-family="Arial" font-size="20.3125" lengthAdjust="spacing" textLength="169.3436" x="815.3458" y="1380.2292">throw Exception(e)</text><polygon fill="#181818" points="130.9372,1448.6694,115.3122,1454.9194,130.9372,1461.1694,124.6872,1454.9194" style="stroke:#181818;stroke-width:1.5625;"/><line style="stroke:#181818;stroke-width:1.5625;stroke-dasharray:2.0,2.0;" x1="121.5622" x2="758.3771" y1="1454.9194" y2="1454.9194"/><text fill="#000000" font-family="Arial" font-size="20.3125" font-weight="bold" lengthAdjust="spacing" textLength="22.5937" x="140.3122" y="1436.1435">20</text><text fill="#000000" font-family="Arial" font-size="20.3125" lengthAdjust="spacing" textLength="223.5367" x="169.1559" y="1424.7971">500 Internal Server Error</text><text fill="#000000" font-family="Arial" font-size="20.3125" lengthAdjust="spacing" textLength="477.5818" x="169.1559" y="1447.4899">+ {"error": "External service communication error: ..."}</text><!--SRC=[ZLHHJXin4FtVKunIgII2XK3Xe_beXKA0g194B4Yjn8zPJnAhZhsrlK2Aa7g87g1_FK5Fm4rwaewzcys6X8P8-V7Ep7lpviriG7T_SnV-_lW9NOFC8HnccHRAJL0vkC1K6mvDoQPeaBSY-rMeZ1as0Pu9s3rerrxic75z9zG8XanQh7qvmY7BfJlMofsn2K4OmMGKEU4a4du74loMeqeHZWGR-OpuPJPHn5Ad3JG6uwaLgM0AkbBGzmOm2zs881qzPumo6abcFA44qzm8DmqXIUzPK0sZWEWIKQEbH1CI3Y_M9IHeRaMAPNIo63rcMPpDkDBtGH-QUE_GA2PR8ULqSFe5taWn6hiRcIDrc3kjyiaDcYZQW9X-r3n9P1syhPg14o-G_nXr8VxWQK871kV99UomJD2_OXcRGDFkFDGU-_nnftY_LeUv6siZlZCdjDg2p_6LHHFt-HRSQ3xjm5B79Hq_2t4R1aKYUGP4X0Gc8cDcowfksjoW3fD-jtzujj62Z_CiFmic7SpmaKSGykEg8IQblgDNZWjPI1Q3C-s0hKhrYVljTt2ipOtW71LimaC3ZT6cqO76zlPsu_5QDP_PexKCi_3WUmGmw7AZ8bIy6ixSCA7_mWt5Q4fDo1L4AGscBXHiBenYYye6HRUWyagV5gw6dLHmlT8zSCkau65cO1rcCyJ48mPJTU2a5-nGGIrvW6JO32B261b7OskWlaOndzeQuhsmpf8G0I6kcjjhj-7y4mbT2rxKBvGBWwlNKpJ4eSuLNowvtzuFCpukFo_LgitWF7Ufdg252VM779v-MQAQujFlfpzeTqulBmV0DQIrKNcrV7V5hU5WypH5QuUvb5D2AuKig6Ia3FKj3F6zrSiBCOklVBjYPMoc5Ht6PvvAGkhSjtljtOhHvklBp5SYgDMZrZFlZ2LYRcpqtN9SSs97hNNS5WQoi5EK_VW2fIirtz5rj5R6lfBQI-l-7sfzCiA8oSJHQmK7JJB9K8hKjLvWkJBjbIpV-siHghzUFxpFCFL-M2VVd0okfN90-zfNvINnDujMekVPNAk5OrbT6rlUDLgpIQv4MXoU4DU1S59ND40R-Wy0]--></g></svg>