<svg xmlns="http://www.w3.org/2000/svg" xmlns:xlink="http://www.w3.org/1999/xlink" contentStyleType="text/css" height="672px" preserveAspectRatio="none" style="width:1156px;height:672px;background:#FFFFFF;" version="1.1" viewBox="0 0 1156 672" width="1156px" zoomAndPan="magnify"><title>US17 - SD - View Appointment Record by Record Number</title><defs/><g><text fill="#000000" font-family="sans-serif" font-size="14" font-weight="bold" lengthAdjust="spacing" textLength="382.7236" x="385.698" y="30.1074">US17 - SD - View Appointment Record by Record Number</text><rect fill="#FFFFFF" height="268.6191" style="stroke:#181818;stroke-width:1.0;" width="10" x="101.1411" y="133.2422"/><rect fill="#FFFFFF" height="245.3281" style="stroke:#181818;stroke-width:1.0;" width="10" x="375.4917" y="156.5332"/><rect fill="#FFFFFF" height="31.291" style="stroke:#181818;stroke-width:1.0;" width="10" x="582.7529" y="187.8242"/><rect fill="#FFFFFF" height="120.1641" style="stroke:#181818;stroke-width:1.0;" width="10" x="776.3936" y="250.4063"/><rect fill="#FFFFFF" height="31.291" style="stroke:#181818;stroke-width:1.0;" width="10" x="1024.8926" y="281.6973"/><rect fill="none" height="244.3281" style="stroke:#000000;stroke-width:1.5;" width="909.6655" x="10" y="327.9883"/><rect fill="none" height="146.4551" style="stroke:#000000;stroke-width:1.5;" width="889.6655" x="20" y="418.8613"/><line style="stroke:#181818;stroke-width:0.5;stroke-dasharray:5.0,5.0;" x1="106" x2="106" y1="123.2422" y2="589.3164"/><line style="stroke:#181818;stroke-width:0.5;stroke-dasharray:5.0,5.0;" x1="379.5991" x2="379.5991" y1="123.2422" y2="589.3164"/><line style="stroke:#181818;stroke-width:0.5;stroke-dasharray:5.0,5.0;" x1="587.3843" x2="587.3843" y1="123.2422" y2="589.3164"/><line style="stroke:#181818;stroke-width:0.5;stroke-dasharray:5.0,5.0;" x1="781.1216" x2="781.1216" y1="123.2422" y2="589.3164"/><line style="stroke:#181818;stroke-width:0.5;stroke-dasharray:5.0,5.0;" x1="1029.6655" x2="1029.6655" y1="123.2422" y2="589.3164"/><text fill="#000000" font-family="sans-serif" font-size="14" lengthAdjust="spacing" textLength="146.2822" x="30" y="119.7285">Administrator or Patient</text><ellipse cx="106.1411" cy="53.1211" fill="#E2E2F0" rx="8" ry="8" style="stroke:#181818;stroke-width:0.5;"/><path d="M106.1411,61.1211 L106.1411,88.1211 M93.1411,69.1211 L119.1411,69.1211 M106.1411,88.1211 L93.1411,103.1211 M106.1411,88.1211 L119.1411,103.1211 " fill="none" style="stroke:#181818;stroke-width:0.5;"/><text fill="#000000" font-family="sans-serif" font-size="14" lengthAdjust="spacing" textLength="146.2822" x="30" y="603.4238">Administrator or Patient</text><ellipse cx="106.1411" cy="615.4375" fill="#E2E2F0" rx="8" ry="8" style="stroke:#181818;stroke-width:0.5;"/><path d="M106.1411,623.4375 L106.1411,650.4375 M93.1411,631.4375 L119.1411,631.4375 M106.1411,650.4375 L93.1411,665.4375 M106.1411,650.4375 L119.1411,665.4375 " fill="none" style="stroke:#181818;stroke-width:0.5;"/><rect fill="#E2E2F0" height="32.6211" rx="2.5" ry="2.5" style="stroke:#181818;stroke-width:0.5;" width="263.7852" x="248.5991" y="89.6211"/><text fill="#000000" font-family="sans-serif" font-size="14" lengthAdjust="spacing" textLength="249.7852" x="255.5991" y="111.7285">:controller:AppointmentRecordController</text><rect fill="#E2E2F0" height="32.6211" rx="2.5" ry="2.5" style="stroke:#181818;stroke-width:0.5;" width="263.7852" x="248.5991" y="588.3164"/><text fill="#000000" font-family="sans-serif" font-size="14" lengthAdjust="spacing" textLength="249.7852" x="255.5991" y="610.4238">:controller:AppointmentRecordController</text><rect fill="#E2E2F0" height="32.6211" rx="2.5" ry="2.5" style="stroke:#181818;stroke-width:0.5;" width="130.7373" x="522.3843" y="89.6211"/><text fill="#000000" font-family="sans-serif" font-size="14" lengthAdjust="spacing" textLength="116.7373" x="529.3843" y="111.7285">:helper:AuthHelper</text><rect fill="#E2E2F0" height="32.6211" rx="2.5" ry="2.5" style="stroke:#181818;stroke-width:0.5;" width="130.7373" x="522.3843" y="588.3164"/><text fill="#000000" font-family="sans-serif" font-size="14" lengthAdjust="spacing" textLength="116.7373" x="529.3843" y="610.4238">:helper:AuthHelper</text><rect fill="#E2E2F0" height="32.6211" rx="2.5" ry="2.5" style="stroke:#181818;stroke-width:0.5;" width="236.5439" x="663.1216" y="89.6211"/><text fill="#000000" font-family="sans-serif" font-size="14" lengthAdjust="spacing" textLength="222.5439" x="670.1216" y="111.7285">:service:AppointmentRecordService</text><rect fill="#E2E2F0" height="32.6211" rx="2.5" ry="2.5" style="stroke:#181818;stroke-width:0.5;" width="236.5439" x="663.1216" y="588.3164"/><text fill="#000000" font-family="sans-serif" font-size="14" lengthAdjust="spacing" textLength="222.5439" x="670.1216" y="610.4238">:service:AppointmentRecordService</text><rect fill="#E2E2F0" height="32.6211" rx="2.5" ry="2.5" style="stroke:#181818;stroke-width:0.5;" width="240.4541" x="909.6655" y="89.6211"/><text fill="#000000" font-family="sans-serif" font-size="14" lengthAdjust="spacing" textLength="226.4541" x="916.6655" y="111.7285">:repo:AppointmentRecordRepository</text><rect fill="#E2E2F0" height="32.6211" rx="2.5" ry="2.5" style="stroke:#181818;stroke-width:0.5;" width="240.4541" x="909.6655" y="588.3164"/><text fill="#000000" font-family="sans-serif" font-size="14" lengthAdjust="spacing" textLength="226.4541" x="916.6655" y="610.4238">:repo:AppointmentRecordRepository</text><rect fill="#FFFFFF" height="268.6191" style="stroke:#181818;stroke-width:1.0;" width="10" x="101.1411" y="133.2422"/><rect fill="#FFFFFF" height="245.3281" style="stroke:#181818;stroke-width:1.0;" width="10" x="375.4917" y="156.5332"/><rect fill="#FFFFFF" height="31.291" style="stroke:#181818;stroke-width:1.0;" width="10" x="582.7529" y="187.8242"/><rect fill="#FFFFFF" height="120.1641" style="stroke:#181818;stroke-width:1.0;" width="10" x="776.3936" y="250.4063"/><rect fill="#FFFFFF" height="31.291" style="stroke:#181818;stroke-width:1.0;" width="10" x="1024.8926" y="281.6973"/><polygon fill="#181818" points="363.4917,152.5332,373.4917,156.5332,363.4917,160.5332,367.4917,156.5332" style="stroke:#181818;stroke-width:1.0;"/><line style="stroke:#181818;stroke-width:1.0;" x1="111.1411" x2="369.4917" y1="156.5332" y2="156.5332"/><text fill="#000000" font-family="sans-serif" font-size="13" font-weight="bold" lengthAdjust="spacing" textLength="7.23" x="118.1411" y="151.2705">1</text><text fill="#000000" font-family="sans-serif" font-size="13" lengthAdjust="spacing" textLength="234.1206" x="129.3711" y="151.2705">GET /api/appointment-records/{recordId}</text><polygon fill="#181818" points="570.7529,183.8242,580.7529,187.8242,570.7529,191.8242,574.7529,187.8242" style="stroke:#181818;stroke-width:1.0;"/><line style="stroke:#181818;stroke-width:1.0;" x1="385.4917" x2="576.7529" y1="187.8242" y2="187.8242"/><text fill="#000000" font-family="sans-serif" font-size="13" font-weight="bold" lengthAdjust="spacing" textLength="7.23" x="392.4917" y="182.5615">2</text><text fill="#000000" font-family="sans-serif" font-size="13" lengthAdjust="spacing" textLength="97.5254" x="403.7217" y="182.5615">getCurrentUser()</text><polygon fill="#181818" points="396.4917,215.1152,386.4917,219.1152,396.4917,223.1152,392.4917,219.1152" style="stroke:#181818;stroke-width:1.0;"/><line style="stroke:#181818;stroke-width:1.0;stroke-dasharray:2.0,2.0;" x1="390.4917" x2="586.7529" y1="219.1152" y2="219.1152"/><text fill="#000000" font-family="sans-serif" font-size="13" font-weight="bold" lengthAdjust="spacing" textLength="7.23" x="402.4917" y="213.8525">3</text><text fill="#000000" font-family="sans-serif" font-size="13" lengthAdjust="spacing" textLength="78.7363" x="413.7217" y="213.8525">User (role, id)</text><polygon fill="#181818" points="764.3936,246.4063,774.3936,250.4063,764.3936,254.4063,768.3936,250.4063" style="stroke:#181818;stroke-width:1.0;"/><line style="stroke:#181818;stroke-width:1.0;" x1="385.4917" x2="770.3936" y1="250.4063" y2="250.4063"/><text fill="#000000" font-family="sans-serif" font-size="13" font-weight="bold" lengthAdjust="spacing" textLength="7.23" x="392.4917" y="245.1436">4</text><text fill="#000000" font-family="sans-serif" font-size="13" lengthAdjust="spacing" textLength="221.8315" x="403.7217" y="245.1436">getAppointmentRecord(recordId, user)</text><polygon fill="#181818" points="1012.8926,277.6973,1022.8926,281.6973,1012.8926,285.6973,1016.8926,281.6973" style="stroke:#181818;stroke-width:1.0;"/><line style="stroke:#181818;stroke-width:1.0;" x1="786.3936" x2="1018.8926" y1="281.6973" y2="281.6973"/><text fill="#000000" font-family="sans-serif" font-size="13" font-weight="bold" lengthAdjust="spacing" textLength="7.23" x="793.3936" y="276.4346">5</text><text fill="#000000" font-family="sans-serif" font-size="13" lengthAdjust="spacing" textLength="103.3208" x="804.6235" y="276.4346">findById(recordId)</text><polygon fill="#181818" points="797.3936,308.9883,787.3936,312.9883,797.3936,316.9883,793.3936,312.9883" style="stroke:#181818;stroke-width:1.0;"/><line style="stroke:#181818;stroke-width:1.0;stroke-dasharray:2.0,2.0;" x1="791.3936" x2="1028.8926" y1="312.9883" y2="312.9883"/><text fill="#000000" font-family="sans-serif" font-size="13" font-weight="bold" lengthAdjust="spacing" textLength="7.23" x="803.3936" y="307.7256">6</text><text fill="#000000" font-family="sans-serif" font-size="13" lengthAdjust="spacing" textLength="178.5024" x="814.6235" y="307.7256">Optional&lt;AppointmentRecord&gt;</text><path d="M10,327.9883 L70.1709,327.9883 L70.1709,337.2793 L60.1709,347.2793 L10,347.2793 L10,327.9883 " fill="#EEEEEE" style="stroke:#000000;stroke-width:1.5;"/><rect fill="none" height="244.3281" style="stroke:#000000;stroke-width:1.5;" width="909.6655" x="10" y="327.9883"/><text fill="#000000" font-family="sans-serif" font-size="13" font-weight="bold" lengthAdjust="spacing" textLength="15.1709" x="25" y="343.0166">alt</text><text fill="#000000" font-family="sans-serif" font-size="11" font-weight="bold" lengthAdjust="spacing" textLength="95.3154" x="85.1709" y="341.8584">[record not found]</text><polygon fill="#181818" points="396.4917,366.5703,386.4917,370.5703,396.4917,374.5703,392.4917,370.5703" style="stroke:#181818;stroke-width:1.0;"/><line style="stroke:#181818;stroke-width:1.0;stroke-dasharray:2.0,2.0;" x1="390.4917" x2="780.3936" y1="370.5703" y2="370.5703"/><text fill="#000000" font-family="sans-serif" font-size="13" font-weight="bold" lengthAdjust="spacing" textLength="7.23" x="402.4917" y="365.3076">7</text><text fill="#000000" font-family="sans-serif" font-size="13" lengthAdjust="spacing" textLength="86.0044" x="413.7217" y="365.3076">404 Not Found</text><polygon fill="#181818" points="117.1411,397.8613,107.1411,401.8613,117.1411,405.8613,113.1411,401.8613" style="stroke:#181818;stroke-width:1.0;"/><line style="stroke:#181818;stroke-width:1.0;stroke-dasharray:2.0,2.0;" x1="111.1411" x2="379.4917" y1="401.8613" y2="401.8613"/><text fill="#000000" font-family="sans-serif" font-size="13" font-weight="bold" lengthAdjust="spacing" textLength="7.23" x="123.1411" y="396.5986">8</text><text fill="#000000" font-family="sans-serif" font-size="13" lengthAdjust="spacing" textLength="86.0044" x="134.3711" y="396.5986">404 Not Found</text><line style="stroke:#000000;stroke-width:1.0;stroke-dasharray:2.0,2.0;" x1="10" x2="919.6655" y1="410.8613" y2="410.8613"/><path d="M20,418.8613 L80.1709,418.8613 L80.1709,428.1523 L70.1709,438.1523 L20,438.1523 L20,418.8613 " fill="#EEEEEE" style="stroke:#000000;stroke-width:1.5;"/><rect fill="none" height="146.4551" style="stroke:#000000;stroke-width:1.5;" width="889.6655" x="20" y="418.8613"/><text fill="#000000" font-family="sans-serif" font-size="13" font-weight="bold" lengthAdjust="spacing" textLength="15.1709" x="35" y="433.8896">alt</text><text fill="#000000" font-family="sans-serif" font-size="11" font-weight="bold" lengthAdjust="spacing" textLength="216.3638" x="95.1709" y="432.7314">[user is Patient and does not own record]</text><polygon fill="#181818" points="391.4917,457.4434,381.4917,461.4434,391.4917,465.4434,387.4917,461.4434" style="stroke:#181818;stroke-width:1.0;"/><line style="stroke:#181818;stroke-width:1.0;stroke-dasharray:2.0,2.0;" x1="385.4917" x2="780.3936" y1="461.4434" y2="461.4434"/><text fill="#000000" font-family="sans-serif" font-size="13" font-weight="bold" lengthAdjust="spacing" textLength="7.23" x="397.4917" y="456.1807">9</text><text fill="#000000" font-family="sans-serif" font-size="13" lengthAdjust="spacing" textLength="83.8398" x="408.7217" y="456.1807">403 Forbidden</text><polygon fill="#181818" points="117.1411,488.7344,107.1411,492.7344,117.1411,496.7344,113.1411,492.7344" style="stroke:#181818;stroke-width:1.0;"/><line style="stroke:#181818;stroke-width:1.0;stroke-dasharray:2.0,2.0;" x1="111.1411" x2="379.4917" y1="492.7344" y2="492.7344"/><text fill="#000000" font-family="sans-serif" font-size="13" font-weight="bold" lengthAdjust="spacing" textLength="14.46" x="123.1411" y="487.4717">10</text><text fill="#000000" font-family="sans-serif" font-size="13" lengthAdjust="spacing" textLength="83.8398" x="141.6011" y="487.4717">403 Forbidden</text><line style="stroke:#000000;stroke-width:1.0;stroke-dasharray:2.0,2.0;" x1="20" x2="909.6655" y1="501.7344" y2="501.7344"/><polygon fill="#181818" points="391.4917,522.0254,381.4917,526.0254,391.4917,530.0254,387.4917,526.0254" style="stroke:#181818;stroke-width:1.0;"/><line style="stroke:#181818;stroke-width:1.0;stroke-dasharray:2.0,2.0;" x1="385.4917" x2="780.3936" y1="526.0254" y2="526.0254"/><text fill="#000000" font-family="sans-serif" font-size="13" font-weight="bold" lengthAdjust="spacing" textLength="14.46" x="397.4917" y="520.7627">11</text><text fill="#000000" font-family="sans-serif" font-size="13" lengthAdjust="spacing" textLength="142.3398" x="415.9517" y="520.7627">AppointmentRecordDTO</text><polygon fill="#181818" points="117.1411,553.3164,107.1411,557.3164,117.1411,561.3164,113.1411,557.3164" style="stroke:#181818;stroke-width:1.0;"/><line style="stroke:#181818;stroke-width:1.0;stroke-dasharray:2.0,2.0;" x1="111.1411" x2="379.4917" y1="557.3164" y2="557.3164"/><text fill="#000000" font-family="sans-serif" font-size="13" font-weight="bold" lengthAdjust="spacing" textLength="14.46" x="123.1411" y="552.0537">12</text><text fill="#000000" font-family="sans-serif" font-size="13" lengthAdjust="spacing" textLength="44.0845" x="141.6011" y="552.0537">200 OK</text><!--SRC=[fLBRIiD047tVhnZor8B1UW6XIA5QBqMmOglls-ne1zBTiDbKYlZlJf8sYKaihOPis9sPSsREsJXo8SBBzEG2V9YE-FDA-073A3AatHArWsSCZ5KmNsztZyboZbR8n1aPE5f9Xs1qTjPvId3SMF26QacQOcTbUkJtIJfYJaz4qZeAA9BSmEi7HZjhmX1jlz8vRtTTv3oGCTI3DQO5Xb7AahZ5VRRDGEMnLXwZNL60pQxJF55fkOdK22n6feb-vcXCh7bT8IY3cJ-vRpii4h_dm1yqZ80-tDtCu5X6nAiOoBTPNNpycM_6wak81fRvIe-OwHtTTM8jur_OeavNLB9-U_Eq43fyn2CWrMrlyiFAl4_3lCvsq2D8cBDWsg8Acj9GPdeZhQxMunBT5OqglsM2IUJ8Q1bUDkOOy3M53d8-qCR1cqcq4i1FRQ9sHyvxv_38iDiQh6e98tTSSnk7mdr-7WnZpCfJ2QcDGF4s2r8hK0RZJ9Jvq1kDMVq1wivuAZidfL3Ne8SfREFPJsLQMIZTU_B6JOzcaty8EEtrOFBmbydvHdbz0m00]--></g></svg>